<svg width="163" height="62" viewBox="0 0 163 62" fill="none" xmlns="http://www.w3.org/2000/svg">
<rect x="3" y="3" width="157" height="44" fill="white"/>
<rect width="15" height="6" transform="matrix(1 0 0 -1 96 53)" fill="white"/>
<rect width="12" height="6" transform="matrix(1 0 0 -1 102 59)" fill="white"/>
<path d="M29 18.1667H30.1667V20.5H31.3333V21.6667H30.1667V24H29V18.1667ZM18.5 24V18.1667H19.6667V22.8333H26.6667V24H18.5ZM29 27.5V26.3333H19.6667V25.1667H30.1667V28.6667H20.8333V29.8333H30.1667V31H19.6667V27.5H29ZM38.3379 29.8333V28.6667H44.1712V26.3333H39.5046V18.1667H50.0046V26.3333H45.3379V28.6667H51.1712V29.8333H38.3379ZM48.8379 25.1667V19.3333H40.6712V25.1667H48.8379ZM62.8379 18.1667H64.0046V24H65.1712V25.1667H64.0046V31H62.8379V18.1667ZM52.3379 27.5V20.5H53.5046V27.5H52.3379ZM54.6712 28.6667H53.5046V27.5H54.6712V28.6667ZM54.6712 29.8333V28.6667H58.1712V29.8333H54.6712ZM54.6712 19.3333V20.5H53.5046V19.3333H54.6712ZM54.6712 18.1667H58.1712V19.3333H54.6712V18.1667ZM59.3379 28.6667H58.1712V27.5H59.3379V28.6667ZM59.3379 27.5V20.5H60.5046V27.5H59.3379ZM59.3379 19.3333V20.5H58.1712V19.3333H59.3379ZM66.3379 24V22.8333H79.1712V24H73.3379V25.1667H78.0046V28.6667H68.6712V29.8333H78.0046V31H67.5046V27.5H76.8379V26.3333H67.5046V25.1667H72.1712V24H66.3379ZM71.0046 20.5V19.3333H67.5046V18.1667H78.0046V19.3333H74.5046V20.5H73.3379V19.3333H72.1712V20.5H71.0046ZM71.0046 21.6667H67.5046V20.5H71.0046V21.6667ZM78.0046 20.5V21.6667H74.5046V20.5H78.0046ZM80.3379 29.8333V22.8333H86.1712V19.3333H80.3379V18.1667H87.3379V24H81.5046V28.6667H87.3379V29.8333H80.3379ZM89.6712 31H88.5046V18.1667H89.6712V24H90.8379V18.1667H92.0046V31H90.8379V25.1667H89.6712V31ZM95.5046 18.1667H99.0046V19.3333H95.5046V18.1667ZM94.3379 19.3333H95.5046V21.6667H94.3379V19.3333ZM96.6712 28.6667H97.8379V31H96.6712V28.6667ZM96.6712 27.5V24H97.8379V27.5H96.6712ZM97.8379 24V22.8333H99.0046V24H97.8379ZM99.0046 22.8333V19.3333H100.171V22.8333H99.0046ZM107.176 27.5V21.6667H108.342V27.5H107.176ZM108.342 29.8333V27.5H109.509V29.8333H108.342ZM108.342 19.3333H109.509V21.6667H108.342V19.3333ZM109.509 29.8333H110.676V31H109.509V29.8333ZM110.676 18.1667V19.3333H109.509V18.1667H110.676ZM113.005 18.1667H123.505V19.3333H114.171V22.8333H123.505V24H113.005V18.1667ZM111.838 26.3333V25.1667H124.671V26.3333H118.838V31H117.671V26.3333H111.838ZM127.005 18.1667H137.505V22.8333H136.338V19.3333H127.005V18.1667ZM125.838 25.1667V24H138.671V25.1667H125.838ZM127.005 31V26.3333H128.171V29.8333H137.505V31H127.005ZM139.838 31V29.8333H141.005V31H139.838ZM141.005 18.1667V19.3333H139.838V18.1667H141.005ZM141.005 29.8333V27.5H142.171V29.8333H141.005ZM141.005 19.3333H142.171V21.6667H141.005V19.3333ZM142.171 27.5V21.6667H143.338V27.5H142.171Z" fill="#00ABFF"/>
<rect y="6" width="3" height="38" fill="#00ABFF"/>
<rect x="160" y="6" width="3" height="38" fill="#00ABFF"/>
<rect x="3" y="3" width="8" height="3" fill="#00ABFF"/>
<rect x="3" y="44" width="8" height="3" fill="#00ABFF"/>
<rect x="152" y="44" width="8" height="3" fill="#00ABFF"/>
<rect x="152" y="3" width="8" height="3" fill="#00ABFF"/>
<rect x="105" y="59" width="12" height="3" fill="#00ABFF"/>
<rect x="96" y="50" width="3" height="3" fill="#00ABFF"/>
<rect x="99" y="53" width="3" height="3" fill="#00ABFF"/>
<rect x="102" y="56" width="3" height="3" fill="#00ABFF"/>
<rect width="3" height="3" transform="matrix(-1 0 0 1 117 56)" fill="#00ABFF"/>
<rect width="3" height="3" transform="matrix(-1 0 0 1 114 53)" fill="#00ABFF"/>
<rect width="3" height="3" transform="matrix(-1 0 0 1 111 50)" fill="#00ABFF"/>
<rect x="108" y="47" width="44" height="3" fill="#00ABFF"/>
<rect x="96" y="47" width="3" height="85" transform="rotate(90 96 47)" fill="#00ABFF"/>
<rect x="152" width="3.00001" height="141" transform="rotate(90 152 0)" fill="#00ABFF"/>
</svg>
