<svg width="163" height="62" viewBox="0 0 163 62" fill="none" xmlns="http://www.w3.org/2000/svg">
<path d="M3 3H160V47H3V3Z" fill="white"/>
<rect width="15" height="6" transform="matrix(1 0 0 -1 96 53)" fill="white"/>
<rect width="12" height="6" transform="matrix(1 0 0 -1 102 59)" fill="white"/>
<rect y="6" width="3" height="38" fill="#00ABFF"/>
<rect x="160" y="6" width="3" height="38" fill="#00ABFF"/>
<rect x="3" y="3" width="8" height="3" fill="#00ABFF"/>
<rect x="3" y="44" width="8" height="3" fill="#00ABFF"/>
<rect x="152" y="44" width="8" height="3" fill="#00ABFF"/>
<rect x="152" y="3" width="8" height="3" fill="#00ABFF"/>
<rect x="105" y="59" width="12" height="3" fill="#00ABFF"/>
<rect x="96" y="50" width="3" height="3" fill="#00ABFF"/>
<rect x="99" y="53" width="3" height="3" fill="#00ABFF"/>
<rect x="102" y="56" width="3" height="3" fill="#00ABFF"/>
<rect width="3" height="3" transform="matrix(-1 0 0 1 117 56)" fill="#00ABFF"/>
<rect width="3" height="3" transform="matrix(-1 0 0 1 114 53)" fill="#00ABFF"/>
<rect width="3" height="3" transform="matrix(-1 0 0 1 111 50)" fill="#00ABFF"/>
<rect x="108" y="47" width="44" height="3" fill="#00ABFF"/>
<rect x="96" y="47" width="3" height="85" transform="rotate(90 96 47)" fill="#00ABFF"/>
<rect x="152" width="3.00001" height="141" transform="rotate(90 152 0)" fill="#00ABFF"/>
<path d="M18.0811 27.3333V26.1667H23.9144V25H19.2477V19.1667H29.7477V20.3333H20.4144V21.5H29.7477V22.6667H20.4144V23.8333H29.7477V25H25.0811V26.1667H30.9144V27.3333H18.0811ZM28.5811 29.6667H29.7477V30.8333H28.5811V29.6667ZM28.5811 30.8333V32H20.4144V30.8333H28.5811ZM28.5811 28.5V29.6667H20.4144V28.5H28.5811ZM20.4144 29.6667V30.8333H19.2477V29.6667H20.4144ZM42.5811 19.1667H43.7477V21.5H44.9144V22.6667H43.7477V26.1667H42.5811V19.1667ZM32.0811 26.1667V25H33.2477V26.1667H32.0811ZM32.0811 20.3333V19.1667H40.2477V20.3333H36.7477V22.6667H35.5811V20.3333H32.0811ZM42.5811 30.8333V32H34.4144V30.8333H42.5811ZM42.5811 27.3333V28.5H34.4144V27.3333H42.5811ZM42.5811 28.5H43.7477V30.8333H42.5811V28.5ZM34.4144 30.8333H33.2477V28.5H34.4144V30.8333ZM34.4144 23.8333V25H33.2477V23.8333H34.4144ZM34.4144 22.6667H35.5811V23.8333H34.4144V22.6667ZM36.7477 23.8333V22.6667H37.9144V23.8333H36.7477ZM39.0811 26.1667V25H40.2477V26.1667H39.0811ZM39.0811 23.8333V25H37.9144V23.8333H39.0811ZM62.4189 19.1667H63.5856V21.5H64.7523V22.6667H63.5856V26.1667H62.4189V19.1667ZM51.9189 26.1667V25H55.4189V23.8333H54.2523V22.6667H58.9189V23.8333H56.5856V25H61.2523V26.1667H51.9189ZM51.9189 21.5V20.3333H55.4189V19.1667H56.5856V20.3333H61.2523V21.5H60.0856V22.6667H58.9189V21.5H54.2523V22.6667H53.0856V21.5H51.9189ZM62.4189 32V28.5H53.0856V27.3333H63.5856V32H62.4189ZM76.4189 19.1667H77.5856V28.5H76.4189V19.1667ZM65.9189 23.8333V21.5H67.0856V23.8333H65.9189ZM68.2523 30.8333H77.5856V32H67.0856V27.3333H68.2523V30.8333ZM68.2523 26.1667V25H71.7523V26.1667H68.2523ZM68.2523 23.8333V25H67.0856V23.8333H68.2523ZM68.2523 20.3333V21.5H67.0856V20.3333H68.2523ZM68.2523 19.1667H71.7523V20.3333H68.2523V19.1667ZM72.9189 23.8333V25H71.7523V23.8333H72.9189ZM72.9189 20.3333V21.5H71.7523V20.3333H72.9189ZM72.9189 21.5H74.0856V23.8333H72.9189V21.5ZM90.4189 19.1667H91.5856V32H90.4189V26.1667H89.2523V32H88.0856V22.6667H79.9189V21.5H88.0856V19.1667H89.2523V25H90.4189V19.1667ZM82.2523 29.6667H81.0856V25H82.2523V29.6667ZM82.2523 30.8333V29.6667H85.7523V30.8333H82.2523ZM82.2523 25V23.8333H85.7523V25H82.2523ZM82.2523 20.3333V19.1667H85.7523V20.3333H82.2523ZM86.9189 29.6667H85.7523V25H86.9189V29.6667ZM104.419 19.1667H105.586V25H106.752V26.1667H105.586V32H104.419V19.1667ZM93.9189 30.8333V29.6667H97.4189V26.1667H93.9189V19.1667H95.0856V21.5H100.919V19.1667H102.086V26.1667H98.5856V29.6667H103.252V30.8333H93.9189ZM100.919 25V22.6667H95.0856V25H100.919ZM107.919 30.8333V29.6667H111.419V26.1667H117.252V29.6667H120.752V30.8333H107.919ZM118.419 26.1667H117.252V25H118.419V26.1667ZM118.419 25V21.5H119.586V25H118.419ZM118.419 20.3333V21.5H117.252V20.3333H118.419ZM110.252 26.1667V25H111.419V26.1667H110.252ZM110.252 25H109.086V21.5H110.252V25ZM110.252 21.5V20.3333H111.419V21.5H110.252ZM112.586 29.6667H116.086V27.3333H112.586V29.6667ZM117.252 20.3333H111.419V19.1667H117.252V20.3333Z" fill="#00ABFF"/>
<path d="M18.0811 27.3333H17.9811V27.4333H18.0811V27.3333ZM18.0811 26.1667V26.0667H17.9811V26.1667H18.0811ZM23.9144 26.1667V26.2667H24.0144V26.1667H23.9144ZM23.9144 25H24.0144V24.9H23.9144V25ZM19.2477 25H19.1477V25.1H19.2477V25ZM19.2477 19.1667V19.0667H19.1477V19.1667H19.2477ZM29.7477 19.1667H29.8477V19.0667H29.7477V19.1667ZM29.7477 20.3333V20.4333H29.8477V20.3333H29.7477ZM20.4144 20.3333V20.2333H20.3144V20.3333H20.4144ZM20.4144 21.5H20.3144V21.6H20.4144V21.5ZM29.7477 21.5H29.8477V21.4H29.7477V21.5ZM29.7477 22.6667V22.7667H29.8477V22.6667H29.7477ZM20.4144 22.6667V22.5667H20.3144V22.6667H20.4144ZM20.4144 23.8333H20.3144V23.9333H20.4144V23.8333ZM29.7477 23.8333H29.8477V23.7333H29.7477V23.8333ZM29.7477 25V25.1H29.8477V25H29.7477ZM25.0811 25V24.9H24.9811V25H25.0811ZM25.0811 26.1667H24.9811V26.2667H25.0811V26.1667ZM30.9144 26.1667H31.0144V26.0667H30.9144V26.1667ZM30.9144 27.3333V27.4333H31.0144V27.3333H30.9144ZM28.5811 29.6667V29.5667H28.4811V29.6667H28.5811ZM29.7477 29.6667H29.8477V29.5667H29.7477V29.6667ZM29.7477 30.8333V30.9333H29.8477V30.8333H29.7477ZM28.5811 30.8333H28.4811V30.9333H28.5811V30.8333ZM28.5811 30.8333H28.6811V30.7333H28.5811V30.8333ZM28.5811 32V32.1H28.6811V32H28.5811ZM20.4144 32H20.3144V32.1H20.4144V32ZM20.4144 30.8333V30.7333H20.3144V30.8333H20.4144ZM28.5811 28.5H28.6811V28.4H28.5811V28.5ZM28.5811 29.6667V29.7667H28.6811V29.6667H28.5811ZM20.4144 29.6667H20.3144V29.7667H20.4144V29.6667ZM20.4144 28.5V28.4H20.3144V28.5H20.4144ZM20.4144 29.6667H20.5144V29.5667H20.4144V29.6667ZM20.4144 30.8333V30.9333H20.5144V30.8333H20.4144ZM19.2477 30.8333H19.1477V30.9333H19.2477V30.8333ZM19.2477 29.6667V29.5667H19.1477V29.6667H19.2477ZM18.1811 27.3333V26.1667H17.9811V27.3333H18.1811ZM18.0811 26.2667H23.9144V26.0667H18.0811V26.2667ZM24.0144 26.1667V25H23.8144V26.1667H24.0144ZM23.9144 24.9H19.2477V25.1H23.9144V24.9ZM19.3477 25V19.1667H19.1477V25H19.3477ZM19.2477 19.2667H29.7477V19.0667H19.2477V19.2667ZM29.6477 19.1667V20.3333H29.8477V19.1667H29.6477ZM29.7477 20.2333H20.4144V20.4333H29.7477V20.2333ZM20.3144 20.3333V21.5H20.5144V20.3333H20.3144ZM20.4144 21.6H29.7477V21.4H20.4144V21.6ZM29.6477 21.5V22.6667H29.8477V21.5H29.6477ZM29.7477 22.5667H20.4144V22.7667H29.7477V22.5667ZM20.3144 22.6667V23.8333H20.5144V22.6667H20.3144ZM20.4144 23.9333H29.7477V23.7333H20.4144V23.9333ZM29.6477 23.8333V25H29.8477V23.8333H29.6477ZM29.7477 24.9H25.0811V25.1H29.7477V24.9ZM24.9811 25V26.1667H25.1811V25H24.9811ZM25.0811 26.2667H30.9144V26.0667H25.0811V26.2667ZM30.8144 26.1667V27.3333H31.0144V26.1667H30.8144ZM30.9144 27.2333H18.0811V27.4333H30.9144V27.2333ZM28.5811 29.7667H29.7477V29.5667H28.5811V29.7667ZM29.6477 29.6667V30.8333H29.8477V29.6667H29.6477ZM29.7477 30.7333H28.5811V30.9333H29.7477V30.7333ZM28.6811 30.8333V29.6667H28.4811V30.8333H28.6811ZM28.4811 30.8333V32H28.6811V30.8333H28.4811ZM28.5811 31.9H20.4144V32.1H28.5811V31.9ZM20.5144 32V30.8333H20.3144V32H20.5144ZM20.4144 30.9333H28.5811V30.7333H20.4144V30.9333ZM28.4811 28.5V29.6667H28.6811V28.5H28.4811ZM28.5811 29.5667H20.4144V29.7667H28.5811V29.5667ZM20.5144 29.6667V28.5H20.3144V29.6667H20.5144ZM20.4144 28.6H28.5811V28.4H20.4144V28.6ZM20.3144 29.6667V30.8333H20.5144V29.6667H20.3144ZM20.4144 30.7333H19.2477V30.9333H20.4144V30.7333ZM19.3477 30.8333V29.6667H19.1477V30.8333H19.3477ZM19.2477 29.7667H20.4144V29.5667H19.2477V29.7667ZM42.5811 19.1667V19.0667H42.4811V19.1667H42.5811ZM43.7477 19.1667H43.8477V19.0667H43.7477V19.1667ZM43.7477 21.5H43.6477V21.6H43.7477V21.5ZM44.9144 21.5H45.0144V21.4H44.9144V21.5ZM44.9144 22.6667V22.7667H45.0144V22.6667H44.9144ZM43.7477 22.6667V22.5667H43.6477V22.6667H43.7477ZM43.7477 26.1667V26.2667H43.8477V26.1667H43.7477ZM42.5811 26.1667H42.4811V26.2667H42.5811V26.1667ZM32.0811 26.1667H31.9811V26.2667H32.0811V26.1667ZM32.0811 25V24.9H31.9811V25H32.0811ZM33.2477 25H33.3477V24.9H33.2477V25ZM33.2477 26.1667V26.2667H33.3477V26.1667H33.2477ZM32.0811 20.3333H31.9811V20.4333H32.0811V20.3333ZM32.0811 19.1667V19.0667H31.9811V19.1667H32.0811ZM40.2477 19.1667H40.3477V19.0667H40.2477V19.1667ZM40.2477 20.3333V20.4333H40.3477V20.3333H40.2477ZM36.7477 20.3333V20.2333H36.6477V20.3333H36.7477ZM36.7477 22.6667V22.7667H36.8477V22.6667H36.7477ZM35.5811 22.6667H35.4811V22.7667H35.5811V22.6667ZM35.5811 20.3333H35.6811V20.2333H35.5811V20.3333ZM42.5811 30.8333H42.6811V30.7333H42.5811V30.8333ZM42.5811 32V32.1H42.6811V32H42.5811ZM34.4144 32H34.3144V32.1H34.4144V32ZM34.4144 30.8333V30.7333H34.3144V30.8333H34.4144ZM42.5811 27.3333H42.6811V27.2333H42.5811V27.3333ZM42.5811 28.5V28.6H42.6811V28.5H42.5811ZM34.4144 28.5H34.3144V28.6H34.4144V28.5ZM34.4144 27.3333V27.2333H34.3144V27.3333H34.4144ZM42.5811 28.5V28.4H42.4811V28.5H42.5811ZM43.7477 28.5H43.8477V28.4H43.7477V28.5ZM43.7477 30.8333V30.9333H43.8477V30.8333H43.7477ZM42.5811 30.8333H42.4811V30.9333H42.5811V30.8333ZM34.4144 30.8333V30.9333H34.5144V30.8333H34.4144ZM33.2477 30.8333H33.1477V30.9333H33.2477V30.8333ZM33.2477 28.5V28.4H33.1477V28.5H33.2477ZM34.4144 28.5H34.5144V28.4H34.4144V28.5ZM34.4144 23.8333H34.5144V23.7333H34.4144V23.8333ZM34.4144 25V25.1H34.5144V25H34.4144ZM33.2477 25H33.1477V25.1H33.2477V25ZM33.2477 23.8333V23.7333H33.1477V23.8333H33.2477ZM34.4144 22.6667V22.5667H34.3144V22.6667H34.4144ZM35.5811 22.6667H35.6811V22.5667H35.5811V22.6667ZM35.5811 23.8333V23.9333H35.6811V23.8333H35.5811ZM34.4144 23.8333H34.3144V23.9333H34.4144V23.8333ZM36.7477 23.8333H36.6477V23.9333H36.7477V23.8333ZM36.7477 22.6667V22.5667H36.6477V22.6667H36.7477ZM37.9144 22.6667H38.0144V22.5667H37.9144V22.6667ZM37.9144 23.8333V23.9333H38.0144V23.8333H37.9144ZM39.0811 26.1667H38.9811V26.2667H39.0811V26.1667ZM39.0811 25V24.9H38.9811V25H39.0811ZM40.2477 25H40.3477V24.9H40.2477V25ZM40.2477 26.1667V26.2667H40.3477V26.1667H40.2477ZM39.0811 23.8333H39.1811V23.7333H39.0811V23.8333ZM39.0811 25V25.1H39.1811V25H39.0811ZM37.9144 25H37.8144V25.1H37.9144V25ZM37.9144 23.8333V23.7333H37.8144V23.8333H37.9144ZM42.5811 19.2667H43.7477V19.0667H42.5811V19.2667ZM43.6477 19.1667V21.5H43.8477V19.1667H43.6477ZM43.7477 21.6H44.9144V21.4H43.7477V21.6ZM44.8144 21.5V22.6667H45.0144V21.5H44.8144ZM44.9144 22.5667H43.7477V22.7667H44.9144V22.5667ZM43.6477 22.6667V26.1667H43.8477V22.6667H43.6477ZM43.7477 26.0667H42.5811V26.2667H43.7477V26.0667ZM42.6811 26.1667V19.1667H42.4811V26.1667H42.6811ZM32.1811 26.1667V25H31.9811V26.1667H32.1811ZM32.0811 25.1H33.2477V24.9H32.0811V25.1ZM33.1477 25V26.1667H33.3477V25H33.1477ZM33.2477 26.0667H32.0811V26.2667H33.2477V26.0667ZM32.1811 20.3333V19.1667H31.9811V20.3333H32.1811ZM32.0811 19.2667H40.2477V19.0667H32.0811V19.2667ZM40.1477 19.1667V20.3333H40.3477V19.1667H40.1477ZM40.2477 20.2333H36.7477V20.4333H40.2477V20.2333ZM36.6477 20.3333V22.6667H36.8477V20.3333H36.6477ZM36.7477 22.5667H35.5811V22.7667H36.7477V22.5667ZM35.6811 22.6667V20.3333H35.4811V22.6667H35.6811ZM35.5811 20.2333H32.0811V20.4333H35.5811V20.2333ZM42.4811 30.8333V32H42.6811V30.8333H42.4811ZM42.5811 31.9H34.4144V32.1H42.5811V31.9ZM34.5144 32V30.8333H34.3144V32H34.5144ZM34.4144 30.9333H42.5811V30.7333H34.4144V30.9333ZM42.4811 27.3333V28.5H42.6811V27.3333H42.4811ZM42.5811 28.4H34.4144V28.6H42.5811V28.4ZM34.5144 28.5V27.3333H34.3144V28.5H34.5144ZM34.4144 27.4333H42.5811V27.2333H34.4144V27.4333ZM42.5811 28.6H43.7477V28.4H42.5811V28.6ZM43.6477 28.5V30.8333H43.8477V28.5H43.6477ZM43.7477 30.7333H42.5811V30.9333H43.7477V30.7333ZM42.6811 30.8333V28.5H42.4811V30.8333H42.6811ZM34.4144 30.7333H33.2477V30.9333H34.4144V30.7333ZM33.3477 30.8333V28.5H33.1477V30.8333H33.3477ZM33.2477 28.6H34.4144V28.4H33.2477V28.6ZM34.3144 28.5V30.8333H34.5144V28.5H34.3144ZM34.3144 23.8333V25H34.5144V23.8333H34.3144ZM34.4144 24.9H33.2477V25.1H34.4144V24.9ZM33.3477 25V23.8333H33.1477V25H33.3477ZM33.2477 23.9333H34.4144V23.7333H33.2477V23.9333ZM34.4144 22.7667H35.5811V22.5667H34.4144V22.7667ZM35.4811 22.6667V23.8333H35.6811V22.6667H35.4811ZM35.5811 23.7333H34.4144V23.9333H35.5811V23.7333ZM34.5144 23.8333V22.6667H34.3144V23.8333H34.5144ZM36.8477 23.8333V22.6667H36.6477V23.8333H36.8477ZM36.7477 22.7667H37.9144V22.5667H36.7477V22.7667ZM37.8144 22.6667V23.8333H38.0144V22.6667H37.8144ZM37.9144 23.7333H36.7477V23.9333H37.9144V23.7333ZM39.1811 26.1667V25H38.9811V26.1667H39.1811ZM39.0811 25.1H40.2477V24.9H39.0811V25.1ZM40.1477 25V26.1667H40.3477V25H40.1477ZM40.2477 26.0667H39.0811V26.2667H40.2477V26.0667ZM38.9811 23.8333V25H39.1811V23.8333H38.9811ZM39.0811 24.9H37.9144V25.1H39.0811V24.9ZM38.0144 25V23.8333H37.8144V25H38.0144ZM37.9144 23.9333H39.0811V23.7333H37.9144V23.9333ZM62.4189 19.1667V19.0667H62.3189V19.1667H62.4189ZM63.5856 19.1667H63.6856V19.0667H63.5856V19.1667ZM63.5856 21.5H63.4856V21.6H63.5856V21.5ZM64.7523 21.5H64.8523V21.4H64.7523V21.5ZM64.7523 22.6667V22.7667H64.8523V22.6667H64.7523ZM63.5856 22.6667V22.5667H63.4856V22.6667H63.5856ZM63.5856 26.1667V26.2667H63.6856V26.1667H63.5856ZM62.4189 26.1667H62.3189V26.2667H62.4189V26.1667ZM51.9189 26.1667H51.8189V26.2667H51.9189V26.1667ZM51.9189 25V24.9H51.8189V25H51.9189ZM55.4189 25V25.1H55.5189V25H55.4189ZM55.4189 23.8333H55.5189V23.7333H55.4189V23.8333ZM54.2523 23.8333H54.1523V23.9333H54.2523V23.8333ZM54.2523 22.6667V22.5667H54.1523V22.6667H54.2523ZM58.9189 22.6667H59.0189V22.5667H58.9189V22.6667ZM58.9189 23.8333V23.9333H59.0189V23.8333H58.9189ZM56.5856 23.8333V23.7333H56.4856V23.8333H56.5856ZM56.5856 25H56.4856V25.1H56.5856V25ZM61.2523 25H61.3523V24.9H61.2523V25ZM61.2523 26.1667V26.2667H61.3523V26.1667H61.2523ZM51.9189 21.5H51.8189V21.6H51.9189V21.5ZM51.9189 20.3333V20.2333H51.8189V20.3333H51.9189ZM55.4189 20.3333V20.4333H55.5189V20.3333H55.4189ZM55.4189 19.1667V19.0667H55.3189V19.1667H55.4189ZM56.5856 19.1667H56.6856V19.0667H56.5856V19.1667ZM56.5856 20.3333H56.4856V20.4333H56.5856V20.3333ZM61.2523 20.3333H61.3523V20.2333H61.2523V20.3333ZM61.2523 21.5V21.6H61.3523V21.5H61.2523ZM60.0856 21.5V21.4H59.9856V21.5H60.0856ZM60.0856 22.6667V22.7667H60.1856V22.6667H60.0856ZM58.9189 22.6667H58.8189V22.7667H58.9189V22.6667ZM58.9189 21.5H59.0189V21.4H58.9189V21.5ZM54.2523 21.5V21.4H54.1523V21.5H54.2523ZM54.2523 22.6667V22.7667H54.3523V22.6667H54.2523ZM53.0856 22.6667H52.9856V22.7667H53.0856V22.6667ZM53.0856 21.5H53.1856V21.4H53.0856V21.5ZM62.4189 32H62.3189V32.1H62.4189V32ZM62.4189 28.5H62.5189V28.4H62.4189V28.5ZM53.0856 28.5H52.9856V28.6H53.0856V28.5ZM53.0856 27.3333V27.2333H52.9856V27.3333H53.0856ZM63.5856 27.3333H63.6856V27.2333H63.5856V27.3333ZM63.5856 32V32.1H63.6856V32H63.5856ZM62.4189 19.2667H63.5856V19.0667H62.4189V19.2667ZM63.4856 19.1667V21.5H63.6856V19.1667H63.4856ZM63.5856 21.6H64.7523V21.4H63.5856V21.6ZM64.6523 21.5V22.6667H64.8523V21.5H64.6523ZM64.7523 22.5667H63.5856V22.7667H64.7523V22.5667ZM63.4856 22.6667V26.1667H63.6856V22.6667H63.4856ZM63.5856 26.0667H62.4189V26.2667H63.5856V26.0667ZM62.5189 26.1667V19.1667H62.3189V26.1667H62.5189ZM52.0189 26.1667V25H51.8189V26.1667H52.0189ZM51.9189 25.1H55.4189V24.9H51.9189V25.1ZM55.5189 25V23.8333H55.3189V25H55.5189ZM55.4189 23.7333H54.2523V23.9333H55.4189V23.7333ZM54.3523 23.8333V22.6667H54.1523V23.8333H54.3523ZM54.2523 22.7667H58.9189V22.5667H54.2523V22.7667ZM58.8189 22.6667V23.8333H59.0189V22.6667H58.8189ZM58.9189 23.7333H56.5856V23.9333H58.9189V23.7333ZM56.4856 23.8333V25H56.6856V23.8333H56.4856ZM56.5856 25.1H61.2523V24.9H56.5856V25.1ZM61.1523 25V26.1667H61.3523V25H61.1523ZM61.2523 26.0667H51.9189V26.2667H61.2523V26.0667ZM52.0189 21.5V20.3333H51.8189V21.5H52.0189ZM51.9189 20.4333H55.4189V20.2333H51.9189V20.4333ZM55.5189 20.3333V19.1667H55.3189V20.3333H55.5189ZM55.4189 19.2667H56.5856V19.0667H55.4189V19.2667ZM56.4856 19.1667V20.3333H56.6856V19.1667H56.4856ZM56.5856 20.4333H61.2523V20.2333H56.5856V20.4333ZM61.1523 20.3333V21.5H61.3523V20.3333H61.1523ZM61.2523 21.4H60.0856V21.6H61.2523V21.4ZM59.9856 21.5V22.6667H60.1856V21.5H59.9856ZM60.0856 22.5667H58.9189V22.7667H60.0856V22.5667ZM59.0189 22.6667V21.5H58.8189V22.6667H59.0189ZM58.9189 21.4H54.2523V21.6H58.9189V21.4ZM54.1523 21.5V22.6667H54.3523V21.5H54.1523ZM54.2523 22.5667H53.0856V22.7667H54.2523V22.5667ZM53.1856 22.6667V21.5H52.9856V22.6667H53.1856ZM53.0856 21.4H51.9189V21.6H53.0856V21.4ZM62.5189 32V28.5H62.3189V32H62.5189ZM62.4189 28.4H53.0856V28.6H62.4189V28.4ZM53.1856 28.5V27.3333H52.9856V28.5H53.1856ZM53.0856 27.4333H63.5856V27.2333H53.0856V27.4333ZM63.4856 27.3333V32H63.6856V27.3333H63.4856ZM63.5856 31.9H62.4189V32.1H63.5856V31.9ZM76.4189 19.1667V19.0667H76.3189V19.1667H76.4189ZM77.5856 19.1667H77.6856V19.0667H77.5856V19.1667ZM77.5856 28.5V28.6H77.6856V28.5H77.5856ZM76.4189 28.5H76.3189V28.6H76.4189V28.5ZM65.9189 23.8333H65.8189V23.9333H65.9189V23.8333ZM65.9189 21.5V21.4H65.8189V21.5H65.9189ZM67.0856 21.5H67.1856V21.4H67.0856V21.5ZM67.0856 23.8333V23.9333H67.1856V23.8333H67.0856ZM68.2523 30.8333H68.1523V30.9333H68.2523V30.8333ZM77.5856 30.8333H77.6856V30.7333H77.5856V30.8333ZM77.5856 32V32.1H77.6856V32H77.5856ZM67.0856 32H66.9856V32.1H67.0856V32ZM67.0856 27.3333V27.2333H66.9856V27.3333H67.0856ZM68.2523 27.3333H68.3523V27.2333H68.2523V27.3333ZM68.2523 26.1667H68.1523V26.2667H68.2523V26.1667ZM68.2523 25V24.9H68.1523V25H68.2523ZM71.7523 25H71.8523V24.9H71.7523V25ZM71.7523 26.1667V26.2667H71.8523V26.1667H71.7523ZM68.2523 23.8333H68.3523V23.7333H68.2523V23.8333ZM68.2523 25V25.1H68.3523V25H68.2523ZM67.0856 25H66.9856V25.1H67.0856V25ZM67.0856 23.8333V23.7333H66.9856V23.8333H67.0856ZM68.2523 20.3333H68.3523V20.2333H68.2523V20.3333ZM68.2523 21.5V21.6H68.3523V21.5H68.2523ZM67.0856 21.5H66.9856V21.6H67.0856V21.5ZM67.0856 20.3333V20.2333H66.9856V20.3333H67.0856ZM68.2523 19.1667V19.0667H68.1523V19.1667H68.2523ZM71.7523 19.1667H71.8523V19.0667H71.7523V19.1667ZM71.7523 20.3333V20.4333H71.8523V20.3333H71.7523ZM68.2523 20.3333H68.1523V20.4333H68.2523V20.3333ZM72.9189 23.8333H73.0189V23.7333H72.9189V23.8333ZM72.9189 25V25.1H73.0189V25H72.9189ZM71.7523 25H71.6523V25.1H71.7523V25ZM71.7523 23.8333V23.7333H71.6523V23.8333H71.7523ZM72.9189 20.3333H73.0189V20.2333H72.9189V20.3333ZM72.9189 21.5V21.6H73.0189V21.5H72.9189ZM71.7523 21.5H71.6523V21.6H71.7523V21.5ZM71.7523 20.3333V20.2333H71.6523V20.3333H71.7523ZM72.9189 21.5V21.4H72.8189V21.5H72.9189ZM74.0856 21.5H74.1856V21.4H74.0856V21.5ZM74.0856 23.8333V23.9333H74.1856V23.8333H74.0856ZM72.9189 23.8333H72.8189V23.9333H72.9189V23.8333ZM76.4189 19.2667H77.5856V19.0667H76.4189V19.2667ZM77.4856 19.1667V28.5H77.6856V19.1667H77.4856ZM77.5856 28.4H76.4189V28.6H77.5856V28.4ZM76.5189 28.5V19.1667H76.3189V28.5H76.5189ZM66.0189 23.8333V21.5H65.8189V23.8333H66.0189ZM65.9189 21.6H67.0856V21.4H65.9189V21.6ZM66.9856 21.5V23.8333H67.1856V21.5H66.9856ZM67.0856 23.7333H65.9189V23.9333H67.0856V23.7333ZM68.2523 30.9333H77.5856V30.7333H68.2523V30.9333ZM77.4856 30.8333V32H77.6856V30.8333H77.4856ZM77.5856 31.9H67.0856V32.1H77.5856V31.9ZM67.1856 32V27.3333H66.9856V32H67.1856ZM67.0856 27.4333H68.2523V27.2333H67.0856V27.4333ZM68.1523 27.3333V30.8333H68.3523V27.3333H68.1523ZM68.3523 26.1667V25H68.1523V26.1667H68.3523ZM68.2523 25.1H71.7523V24.9H68.2523V25.1ZM71.6523 25V26.1667H71.8523V25H71.6523ZM71.7523 26.0667H68.2523V26.2667H71.7523V26.0667ZM68.1523 23.8333V25H68.3523V23.8333H68.1523ZM68.2523 24.9H67.0856V25.1H68.2523V24.9ZM67.1856 25V23.8333H66.9856V25H67.1856ZM67.0856 23.9333H68.2523V23.7333H67.0856V23.9333ZM68.1523 20.3333V21.5H68.3523V20.3333H68.1523ZM68.2523 21.4H67.0856V21.6H68.2523V21.4ZM67.1856 21.5V20.3333H66.9856V21.5H67.1856ZM67.0856 20.4333H68.2523V20.2333H67.0856V20.4333ZM68.2523 19.2667H71.7523V19.0667H68.2523V19.2667ZM71.6523 19.1667V20.3333H71.8523V19.1667H71.6523ZM71.7523 20.2333H68.2523V20.4333H71.7523V20.2333ZM68.3523 20.3333V19.1667H68.1523V20.3333H68.3523ZM72.8189 23.8333V25H73.0189V23.8333H72.8189ZM72.9189 24.9H71.7523V25.1H72.9189V24.9ZM71.8523 25V23.8333H71.6523V25H71.8523ZM71.7523 23.9333H72.9189V23.7333H71.7523V23.9333ZM72.8189 20.3333V21.5H73.0189V20.3333H72.8189ZM72.9189 21.4H71.7523V21.6H72.9189V21.4ZM71.8523 21.5V20.3333H71.6523V21.5H71.8523ZM71.7523 20.4333H72.9189V20.2333H71.7523V20.4333ZM72.9189 21.6H74.0856V21.4H72.9189V21.6ZM73.9856 21.5V23.8333H74.1856V21.5H73.9856ZM74.0856 23.7333H72.9189V23.9333H74.0856V23.7333ZM73.0189 23.8333V21.5H72.8189V23.8333H73.0189ZM90.4189 19.1667V19.0667H90.3189V19.1667H90.4189ZM91.5856 19.1667H91.6856V19.0667H91.5856V19.1667ZM91.5856 32V32.1H91.6856V32H91.5856ZM90.4189 32H90.3189V32.1H90.4189V32ZM90.4189 26.1667H90.5189V26.0667H90.4189V26.1667ZM89.2523 26.1667V26.0667H89.1523V26.1667H89.2523ZM89.2523 32V32.1H89.3523V32H89.2523ZM88.0856 32H87.9856V32.1H88.0856V32ZM88.0856 22.6667H88.1856V22.5667H88.0856V22.6667ZM79.9189 22.6667H79.8189V22.7667H79.9189V22.6667ZM79.9189 21.5V21.4H79.8189V21.5H79.9189ZM88.0856 21.5V21.6H88.1856V21.5H88.0856ZM88.0856 19.1667V19.0667H87.9856V19.1667H88.0856ZM89.2523 19.1667H89.3523V19.0667H89.2523V19.1667ZM89.2523 25H89.1523V25.1H89.2523V25ZM90.4189 25V25.1H90.5189V25H90.4189ZM82.2523 29.6667V29.7667H82.3523V29.6667H82.2523ZM81.0856 29.6667H80.9856V29.7667H81.0856V29.6667ZM81.0856 25V24.9H80.9856V25H81.0856ZM82.2523 25H82.3523V24.9H82.2523V25ZM82.2523 30.8333H82.1523V30.9333H82.2523V30.8333ZM82.2523 29.6667V29.5667H82.1523V29.6667H82.2523ZM85.7523 29.6667H85.8523V29.5667H85.7523V29.6667ZM85.7523 30.8333V30.9333H85.8523V30.8333H85.7523ZM82.2523 25H82.1523V25.1H82.2523V25ZM82.2523 23.8333V23.7333H82.1523V23.8333H82.2523ZM85.7523 23.8333H85.8523V23.7333H85.7523V23.8333ZM85.7523 25V25.1H85.8523V25H85.7523ZM82.2523 20.3333H82.1523V20.4333H82.2523V20.3333ZM82.2523 19.1667V19.0667H82.1523V19.1667H82.2523ZM85.7523 19.1667H85.8523V19.0667H85.7523V19.1667ZM85.7523 20.3333V20.4333H85.8523V20.3333H85.7523ZM86.9189 29.6667V29.7667H87.0189V29.6667H86.9189ZM85.7523 29.6667H85.6523V29.7667H85.7523V29.6667ZM85.7523 25V24.9H85.6523V25H85.7523ZM86.9189 25H87.0189V24.9H86.9189V25ZM90.4189 19.2667H91.5856V19.0667H90.4189V19.2667ZM91.4856 19.1667V32H91.6856V19.1667H91.4856ZM91.5856 31.9H90.4189V32.1H91.5856V31.9ZM90.5189 32V26.1667H90.3189V32H90.5189ZM90.4189 26.0667H89.2523V26.2667H90.4189V26.0667ZM89.1523 26.1667V32H89.3523V26.1667H89.1523ZM89.2523 31.9H88.0856V32.1H89.2523V31.9ZM88.1856 32V22.6667H87.9856V32H88.1856ZM88.0856 22.5667H79.9189V22.7667H88.0856V22.5667ZM80.0189 22.6667V21.5H79.8189V22.6667H80.0189ZM79.9189 21.6H88.0856V21.4H79.9189V21.6ZM88.1856 21.5V19.1667H87.9856V21.5H88.1856ZM88.0856 19.2667H89.2523V19.0667H88.0856V19.2667ZM89.1523 19.1667V25H89.3523V19.1667H89.1523ZM89.2523 25.1H90.4189V24.9H89.2523V25.1ZM90.5189 25V19.1667H90.3189V25H90.5189ZM82.2523 29.5667H81.0856V29.7667H82.2523V29.5667ZM81.1856 29.6667V25H80.9856V29.6667H81.1856ZM81.0856 25.1H82.2523V24.9H81.0856V25.1ZM82.1523 25V29.6667H82.3523V25H82.1523ZM82.3523 30.8333V29.6667H82.1523V30.8333H82.3523ZM82.2523 29.7667H85.7523V29.5667H82.2523V29.7667ZM85.6523 29.6667V30.8333H85.8523V29.6667H85.6523ZM85.7523 30.7333H82.2523V30.9333H85.7523V30.7333ZM82.3523 25V23.8333H82.1523V25H82.3523ZM82.2523 23.9333H85.7523V23.7333H82.2523V23.9333ZM85.6523 23.8333V25H85.8523V23.8333H85.6523ZM85.7523 24.9H82.2523V25.1H85.7523V24.9ZM82.3523 20.3333V19.1667H82.1523V20.3333H82.3523ZM82.2523 19.2667H85.7523V19.0667H82.2523V19.2667ZM85.6523 19.1667V20.3333H85.8523V19.1667H85.6523ZM85.7523 20.2333H82.2523V20.4333H85.7523V20.2333ZM86.9189 29.5667H85.7523V29.7667H86.9189V29.5667ZM85.8523 29.6667V25H85.6523V29.6667H85.8523ZM85.7523 25.1H86.9189V24.9H85.7523V25.1ZM86.8189 25V29.6667H87.0189V25H86.8189ZM104.419 19.1667V19.0667H104.319V19.1667H104.419ZM105.586 19.1667H105.686V19.0667H105.586V19.1667ZM105.586 25H105.486V25.1H105.586V25ZM106.752 25H106.852V24.9H106.752V25ZM106.752 26.1667V26.2667H106.852V26.1667H106.752ZM105.586 26.1667V26.0667H105.486V26.1667H105.586ZM105.586 32V32.1H105.686V32H105.586ZM104.419 32H104.319V32.1H104.419V32ZM93.9189 30.8333H93.8189V30.9333H93.9189V30.8333ZM93.9189 29.6667V29.5667H93.8189V29.6667H93.9189ZM97.4189 29.6667V29.7667H97.5189V29.6667H97.4189ZM97.4189 26.1667H97.5189V26.0667H97.4189V26.1667ZM93.9189 26.1667H93.8189V26.2667H93.9189V26.1667ZM93.9189 19.1667V19.0667H93.8189V19.1667H93.9189ZM95.0856 19.1667H95.1856V19.0667H95.0856V19.1667ZM95.0856 21.5H94.9856V21.6H95.0856V21.5ZM100.919 21.5V21.6H101.019V21.5H100.919ZM100.919 19.1667V19.0667H100.819V19.1667H100.919ZM102.086 19.1667H102.186V19.0667H102.086V19.1667ZM102.086 26.1667V26.2667H102.186V26.1667H102.086ZM98.5856 26.1667V26.0667H98.4856V26.1667H98.5856ZM98.5856 29.6667H98.4856V29.7667H98.5856V29.6667ZM103.252 29.6667H103.352V29.5667H103.252V29.6667ZM103.252 30.8333V30.9333H103.352V30.8333H103.252ZM100.919 25V25.1H101.019V25H100.919ZM100.919 22.6667H101.019V22.5667H100.919V22.6667ZM95.0856 22.6667V22.5667H94.9856V22.6667H95.0856ZM95.0856 25H94.9856V25.1H95.0856V25ZM104.419 19.2667H105.586V19.0667H104.419V19.2667ZM105.486 19.1667V25H105.686V19.1667H105.486ZM105.586 25.1H106.752V24.9H105.586V25.1ZM106.652 25V26.1667H106.852V25H106.652ZM106.752 26.0667H105.586V26.2667H106.752V26.0667ZM105.486 26.1667V32H105.686V26.1667H105.486ZM105.586 31.9H104.419V32.1H105.586V31.9ZM104.519 32V19.1667H104.319V32H104.519ZM94.0189 30.8333V29.6667H93.8189V30.8333H94.0189ZM93.9189 29.7667H97.4189V29.5667H93.9189V29.7667ZM97.5189 29.6667V26.1667H97.3189V29.6667H97.5189ZM97.4189 26.0667H93.9189V26.2667H97.4189V26.0667ZM94.0189 26.1667V19.1667H93.8189V26.1667H94.0189ZM93.9189 19.2667H95.0856V19.0667H93.9189V19.2667ZM94.9856 19.1667V21.5H95.1856V19.1667H94.9856ZM95.0856 21.6H100.919V21.4H95.0856V21.6ZM101.019 21.5V19.1667H100.819V21.5H101.019ZM100.919 19.2667H102.086V19.0667H100.919V19.2667ZM101.986 19.1667V26.1667H102.186V19.1667H101.986ZM102.086 26.0667H98.5856V26.2667H102.086V26.0667ZM98.4856 26.1667V29.6667H98.6856V26.1667H98.4856ZM98.5856 29.7667H103.252V29.5667H98.5856V29.7667ZM103.152 29.6667V30.8333H103.352V29.6667H103.152ZM103.252 30.7333H93.9189V30.9333H103.252V30.7333ZM101.019 25V22.6667H100.819V25H101.019ZM100.919 22.5667H95.0856V22.7667H100.919V22.5667ZM94.9856 22.6667V25H95.1856V22.6667H94.9856ZM95.0856 25.1H100.919V24.9H95.0856V25.1ZM107.919 30.8333H107.819V30.9333H107.919V30.8333ZM107.919 29.6667V29.5667H107.819V29.6667H107.919ZM111.419 29.6667V29.7667H111.519V29.6667H111.419ZM111.419 26.1667V26.0667H111.319V26.1667H111.419ZM117.252 26.1667H117.352V26.0667H117.252V26.1667ZM117.252 29.6667H117.152V29.7667H117.252V29.6667ZM120.752 29.6667H120.852V29.5667H120.752V29.6667ZM120.752 30.8333V30.9333H120.852V30.8333H120.752ZM118.419 26.1667V26.2667H118.519V26.1667H118.419ZM117.252 26.1667H117.152V26.2667H117.252V26.1667ZM117.252 25V24.9H117.152V25H117.252ZM118.419 25H118.519V24.9H118.419V25ZM118.419 25H118.319V25.1H118.419V25ZM118.419 21.5V21.4H118.319V21.5H118.419ZM119.586 21.5H119.686V21.4H119.586V21.5ZM119.586 25V25.1H119.686V25H119.586ZM118.419 20.3333H118.519V20.2333H118.419V20.3333ZM118.419 21.5V21.6H118.519V21.5H118.419ZM117.252 21.5H117.152V21.6H117.252V21.5ZM117.252 20.3333V20.2333H117.152V20.3333H117.252ZM110.252 26.1667H110.152V26.2667H110.252V26.1667ZM110.252 25V24.9H110.152V25H110.252ZM111.419 25H111.519V24.9H111.419V25ZM111.419 26.1667V26.2667H111.519V26.1667H111.419ZM110.252 25V25.1H110.352V25H110.252ZM109.086 25H108.986V25.1H109.086V25ZM109.086 21.5V21.4H108.986V21.5H109.086ZM110.252 21.5H110.352V21.4H110.252V21.5ZM110.252 21.5H110.152V21.6H110.252V21.5ZM110.252 20.3333V20.2333H110.152V20.3333H110.252ZM111.419 20.3333H111.519V20.2333H111.419V20.3333ZM111.419 21.5V21.6H111.519V21.5H111.419ZM112.586 29.6667H112.486V29.7667H112.586V29.6667ZM116.086 29.6667V29.7667H116.186V29.6667H116.086ZM116.086 27.3333H116.186V27.2333H116.086V27.3333ZM112.586 27.3333V27.2333H112.486V27.3333H112.586ZM117.252 20.3333V20.4333H117.352V20.3333H117.252ZM111.419 20.3333H111.319V20.4333H111.419V20.3333ZM111.419 19.1667V19.0667H111.319V19.1667H111.419ZM117.252 19.1667H117.352V19.0667H117.252V19.1667ZM108.019 30.8333V29.6667H107.819V30.8333H108.019ZM107.919 29.7667H111.419V29.5667H107.919V29.7667ZM111.519 29.6667V26.1667H111.319V29.6667H111.519ZM111.419 26.2667H117.252V26.0667H111.419V26.2667ZM117.152 26.1667V29.6667H117.352V26.1667H117.152ZM117.252 29.7667H120.752V29.5667H117.252V29.7667ZM120.652 29.6667V30.8333H120.852V29.6667H120.652ZM120.752 30.7333H107.919V30.9333H120.752V30.7333ZM118.419 26.0667H117.252V26.2667H118.419V26.0667ZM117.352 26.1667V25H117.152V26.1667H117.352ZM117.252 25.1H118.419V24.9H117.252V25.1ZM118.319 25V26.1667H118.519V25H118.319ZM118.519 25V21.5H118.319V25H118.519ZM118.419 21.6H119.586V21.4H118.419V21.6ZM119.486 21.5V25H119.686V21.5H119.486ZM119.586 24.9H118.419V25.1H119.586V24.9ZM118.319 20.3333V21.5H118.519V20.3333H118.319ZM118.419 21.4H117.252V21.6H118.419V21.4ZM117.352 21.5V20.3333H117.152V21.5H117.352ZM117.252 20.4333H118.419V20.2333H117.252V20.4333ZM110.352 26.1667V25H110.152V26.1667H110.352ZM110.252 25.1H111.419V24.9H110.252V25.1ZM111.319 25V26.1667H111.519V25H111.319ZM111.419 26.0667H110.252V26.2667H111.419V26.0667ZM110.252 24.9H109.086V25.1H110.252V24.9ZM109.186 25V21.5H108.986V25H109.186ZM109.086 21.6H110.252V21.4H109.086V21.6ZM110.152 21.5V25H110.352V21.5H110.152ZM110.352 21.5V20.3333H110.152V21.5H110.352ZM110.252 20.4333H111.419V20.2333H110.252V20.4333ZM111.319 20.3333V21.5H111.519V20.3333H111.319ZM111.419 21.4H110.252V21.6H111.419V21.4ZM112.586 29.7667H116.086V29.5667H112.586V29.7667ZM116.186 29.6667V27.3333H115.986V29.6667H116.186ZM116.086 27.2333H112.586V27.4333H116.086V27.2333ZM112.486 27.3333V29.6667H112.686V27.3333H112.486ZM117.252 20.2333H111.419V20.4333H117.252V20.2333ZM111.519 20.3333V19.1667H111.319V20.3333H111.519ZM111.419 19.2667H117.252V19.0667H111.419V19.2667ZM117.152 19.1667V20.3333H117.352V19.1667H117.152Z" fill="#00ABFF"/>
<rect x="128.029" y="17.5" width="7.2" height="1.5" fill="#3EA2FF"/>
<rect x="130.086" y="16" width="3.08571" height="1.5" fill="#3EA2FF"/>
<rect x="138.829" y="16" width="3.08571" height="1.5" fill="#3EA2FF"/>
<rect x="127" y="19" width="18" height="1.5" fill="#3EA2FF"/>
<rect x="127" y="20.5" width="18" height="1.5" fill="#3EA2FF"/>
<rect x="127" y="22" width="18" height="1.5" fill="#3EA2FF"/>
<rect x="128.029" y="23.5" width="15.9429" height="1.5" fill="#3EA2FF"/>
<rect x="128.029" y="25" width="15.9429" height="1.5" fill="#3EA2FF"/>
<rect x="129.057" y="26.5" width="13.8857" height="1.5" fill="#3EA2FF"/>
<rect x="129.057" y="28" width="13.8857" height="1.5" fill="#3EA2FF"/>
<rect x="130.6" y="29.5" width="10.8" height="1.5" fill="#3EA2FF"/>
<rect x="132.143" y="31" width="7.71429" height="1.5" fill="#3EA2FF"/>
<rect x="133.686" y="32.5" width="4.62857" height="1.5" fill="#3EA2FF"/>
<rect x="136.771" y="17.5" width="7.2" height="1.5" fill="#3EA2FF"/>
<rect x="128.543" y="19.5" width="1.54286" height="1.5" fill="white"/>
<rect x="128.543" y="21" width="1.54286" height="1.5" fill="white"/>
<rect x="130.086" y="18" width="1.54286" height="1.5" fill="white"/>
</svg>
