<svg width="163" height="62" viewBox="0 0 163 62" fill="none" xmlns="http://www.w3.org/2000/svg">
<rect x="3" y="3" width="157" height="44" fill="white"/>
<rect width="15" height="6" transform="matrix(1 0 0 -1 74 53)" fill="white"/>
<rect width="9" height="6" transform="matrix(1 0 0 -1 77 59)" fill="white"/>
<path d="M44.1641 17.3333H45.4974V32H44.1641V17.3333ZM32.1641 28V20H33.4974V28H32.1641ZM34.8307 29.3333H33.4974V28H34.8307V29.3333ZM34.8307 30.6667V29.3333H38.8307V30.6667H34.8307ZM34.8307 18.6667V20H33.4974V18.6667H34.8307ZM34.8307 17.3333H38.8307V18.6667H34.8307V17.3333ZM40.1641 29.3333H38.8307V28H40.1641V29.3333ZM40.1641 28V20H41.4974V28H40.1641ZM40.1641 18.6667V20H38.8307V18.6667H40.1641ZM60.1641 17.3333H61.4974V32H60.1641V29.3333H56.1641V28H60.1641V17.3333ZM48.1641 26.6667V25.3333H58.8307V26.6667H53.4974V32H52.1641V26.6667H48.1641ZM50.8307 22.6667H57.4974V24H49.4974V20H56.1641V18.6667H49.4974V17.3333H57.4974V21.3333H50.8307V22.6667ZM76.1641 17.3333H77.4974V32H76.1641V26.6667H73.4974V25.3333H76.1641V22.6667H73.4974V21.3333H76.1641V17.3333ZM64.1641 30.6667V29.3333H65.4974V30.6667H64.1641ZM64.1641 18.6667V17.3333H73.4974V18.6667H69.4974V22.6667H68.1641V18.6667H64.1641ZM66.8307 29.3333H65.4974V26.6667H66.8307V29.3333ZM66.8307 26.6667V22.6667H68.1641V26.6667H66.8307ZM69.4974 26.6667V22.6667H70.8307V26.6667H69.4974ZM72.1641 29.3333H70.8307V26.6667H72.1641V29.3333ZM72.1641 30.6667V29.3333H73.4974V30.6667H72.1641ZM92.1641 17.3333H93.4974V24H94.8307V25.3333H93.4974V32H92.1641V17.3333ZM80.1641 30.6667V22.6667H86.8307V18.6667H80.1641V17.3333H88.1641V24H81.4974V29.3333H89.4974V30.6667H80.1641ZM114.836 17.3333H116.169V18.6667H117.503V20H116.169V21.3333H117.503V22.6667H116.169V25.3333H114.836V17.3333ZM102.836 22.6667V20H104.169V22.6667H102.836ZM114.836 30.6667V29.3333H105.503V30.6667H114.836ZM114.836 28V26.6667H116.169V32H104.169V26.6667H105.503V28H114.836ZM105.503 25.3333V24H109.503V25.3333H105.503ZM105.503 22.6667V24H104.169V22.6667H105.503ZM105.503 18.6667V20H104.169V18.6667H105.503ZM105.503 17.3333H109.503V18.6667H105.503V17.3333ZM110.836 22.6667V24H109.503V22.6667H110.836ZM110.836 18.6667V20H109.503V18.6667H110.836ZM110.836 20H112.169V22.6667H110.836V20ZM126.841 17.3333H128.174V28H126.841V17.3333ZM126.841 29.3333H128.174V32H126.841V29.3333Z" fill="#00ABFF"/>
<rect y="6" width="3" height="38" fill="#00ABFF"/>
<rect x="160" y="6" width="3" height="38" fill="#00ABFF"/>
<rect x="3" y="3" width="8" height="3" fill="#00ABFF"/>
<rect x="3" y="44" width="8" height="3" fill="#00ABFF"/>
<rect x="152" y="44" width="8" height="3" fill="#00ABFF"/>
<rect x="152" y="3" width="8" height="3" fill="#00ABFF"/>
<rect x="80" y="59" width="3" height="3" fill="#00ABFF"/>
<rect x="77" y="53" width="3" height="6" fill="#00ABFF"/>
<rect x="74" y="50" width="3" height="3" fill="#00ABFF"/>
<rect width="3" height="3" transform="matrix(-1 0 0 1 83 59)" fill="#00ABFF"/>
<rect width="3" height="6" transform="matrix(-1 0 0 1 86 53)" fill="#00ABFF"/>
<rect width="3" height="3" transform="matrix(-1 0 0 1 89 50)" fill="#00ABFF"/>
<rect x="86" y="47" width="66" height="3" fill="#00ABFF"/>
<rect x="77" y="47" width="3" height="66" transform="rotate(90 77 47)" fill="#00ABFF"/>
<rect x="152" width="3.00001" height="141" transform="rotate(90 152 0)" fill="#00ABFF"/>
</svg>
