<svg width="66" height="30" viewBox="0 0 66 30" fill="none" xmlns="http://www.w3.org/2000/svg">
<path opacity="0.5" d="M5.92969 4.37109V3.33203H8.51367V2.07422H1.71875V3.33203H4.41211V4.37109C4.40527 6.42871 3.20898 8.73926 1.24023 9.67578L2.12891 10.8652C3.55078 10.1816 4.63086 8.73242 5.19141 7.03711C5.74512 8.58203 6.77734 9.9082 8.17188 10.5645L9.01953 9.36133C7.07129 8.45215 5.92285 6.27832 5.92969 4.37109ZM9.66211 13.2168H11.1797V6.94141H13.0801V5.66992H11.1797V0.857422H9.66211V13.2168ZM17.4551 4.09766V1.95117H15.9922V4.16602C15.9854 6.27148 15.1924 8.45215 13.3945 9.53906L14.3379 10.6738C15.5 9.96289 16.293 8.70508 16.7373 7.22168C17.1475 8.56836 17.8721 9.7168 18.9863 10.3867L19.8203 9.22461C18.1455 8.17188 17.4619 6.09375 17.4551 4.09766ZM18.4941 6.36719H20.2578V12.6152H21.6934V1.07617H20.2578V5.10938H18.4941V6.36719ZM22.8008 13.2168H24.2637V0.857422H22.8008V13.2168ZM35.9805 0.857422H34.4492V13.2168H35.9805V0.857422ZM25.959 3.98828H33.3691V2.77148H30.4434V1.00781H28.8984V2.77148H25.959V3.98828ZM26.5469 7.69336C26.5469 9.39551 27.873 10.5918 29.6914 10.5918C31.5029 10.5918 32.8359 9.39551 32.8359 7.69336C32.8359 5.98438 31.5029 4.77441 29.6914 4.78125C27.873 4.77441 26.5469 5.98438 26.5469 7.69336ZM27.9961 7.69336C27.9961 6.68848 28.7002 6.02539 29.6914 6.02539C30.6758 6.02539 31.3799 6.68848 31.373 7.69336C31.3799 8.69824 30.6758 9.34082 29.6914 9.33398C28.7002 9.34082 27.9961 8.69824 27.9961 7.69336ZM52.4141 10.4824H47.4922V8.07617H51.1289V1.67773H49.6113V3.70117H43.8828V1.67773H42.3652V8.07617H45.9883V10.4824H41.1211V11.7266H52.4141V10.4824ZM43.8828 6.8457V4.91797H49.6113V6.8457H43.8828ZM63.543 0.857422H62.0117V13.2168H63.543V0.857422ZM53.3027 9.8125L54.0957 11.0293C58.4229 8.97168 59.8516 5.84766 59.8516 2.16992H53.9316V3.37305H58.3066C58.0332 6.18262 56.543 8.27441 53.3027 9.8125Z" fill="#1D3F61"/>
<path opacity="0.5" d="M25 23L33 28L41 23" stroke="#1D3F61" stroke-width="3" stroke-linecap="round" stroke-linejoin="round"/>
</svg>
