<svg width="26" height="26" viewBox="0 0 26 26" fill="none" xmlns="http://www.w3.org/2000/svg">
<g clip-path="url(#clip0_663_4564)">
<path d="M26 13.0347C25.984 20.2952 20.0353 26.1204 12.7703 25.9981C5.85622 25.8817 0.0808797 20.3155 0.000788056 13.1148C-0.0793036 5.76556 5.95669 -0.0116271 12.996 1.75723e-05C20.1591 0.0116622 26.0087 5.80778 26 13.0347ZM19.1616 12.975C19.1616 12.975 19.1747 12.975 19.1806 12.975C19.1806 13.6271 19.1849 14.2778 19.1791 14.9299C19.1762 15.2559 19.1893 15.5849 19.1412 15.9051C18.9286 17.3258 17.8146 18.2763 16.3701 18.285C15.8094 18.2879 15.2473 18.2894 14.6867 18.2792C14.5236 18.2763 14.4814 18.3272 14.4843 18.4844C14.4974 19.2442 14.5047 20.004 14.5061 20.7653C14.5061 21.4887 14.4988 22.2136 14.493 22.937C14.493 23.0549 14.5207 23.1073 14.6648 23.0826C15.9084 22.8686 17.0923 22.4698 18.1641 21.8133C20.9979 20.0797 22.6871 17.5732 23.1181 14.2574C23.2681 13.1002 23.2245 11.9489 22.9696 10.8062C22.3711 8.12651 20.8843 6.05086 18.6447 4.50649C17.4841 3.70592 16.188 3.20666 14.7944 2.9694C14.4814 2.91554 14.4814 2.90972 14.4814 3.23431C14.4814 4.65205 14.4843 6.06978 14.4784 7.48751C14.4784 7.66218 14.525 7.71604 14.7042 7.71022C15.192 7.69421 15.6827 7.6782 16.1706 7.7044C16.5404 7.72477 16.9191 7.76844 17.2715 7.8747C18.3957 8.21094 19.1427 9.21965 19.1587 10.387C19.1704 11.2502 19.1616 12.1119 19.1616 12.975ZM11.4568 2.94902C11.3563 2.95921 11.2893 2.96212 11.2253 2.97377C9.47636 3.27361 7.91676 3.98394 6.54937 5.12074C4.86745 6.51956 3.70393 8.25606 3.13892 10.3739C2.6875 12.0668 2.67439 13.7712 3.09378 15.4728C3.59035 17.4801 4.63008 19.1642 6.14746 20.5615C7.61823 21.9167 9.35549 22.7158 11.3141 23.0637C11.4422 23.087 11.4801 23.0346 11.4743 22.921C11.4685 22.7944 11.4568 22.6677 11.4553 22.5411C11.451 21.2078 11.4437 19.8745 11.4495 18.5412C11.4495 18.349 11.3869 18.3112 11.2122 18.3127C10.6035 18.3127 9.99186 18.3228 9.38462 18.285C7.95898 18.1948 6.7911 16.9692 6.778 15.5456C6.76198 13.8266 6.77072 12.1061 6.77363 10.387C6.77363 10.2255 6.78673 10.061 6.81295 9.90232C6.94255 9.13669 7.28767 8.50496 7.95899 8.07848C8.3842 7.80774 8.8531 7.70003 9.35258 7.69566C9.98021 7.68984 10.6078 7.68256 11.2355 7.67528C11.368 7.67383 11.4568 7.65491 11.4553 7.47587C11.4481 6.13092 11.4539 4.7845 11.4553 3.43955C11.4553 3.2838 11.4553 3.12951 11.4553 2.95048L11.4568 2.94902ZM12.9989 15.5005V15.4976C13.9702 15.4976 14.9415 15.5005 15.9128 15.4976C16.2827 15.4961 16.3788 15.4 16.3788 15.0376C16.3817 13.7349 16.3817 12.4321 16.3817 11.1294C16.3817 11.0333 16.3817 10.9358 16.3715 10.8397C16.3526 10.6621 16.2463 10.5544 16.0715 10.5355C15.9332 10.5209 15.7949 10.5093 15.6565 10.5093C13.8217 10.5064 11.9883 10.5064 10.1535 10.5064C10.0749 10.5064 9.99623 10.5137 9.9205 10.5268C9.67731 10.5675 9.62926 10.6141 9.62344 10.8528C9.6147 11.1716 9.61907 11.4918 9.61907 11.8106C9.62052 12.8964 9.62198 13.9823 9.62635 15.0682C9.6278 15.3928 9.71954 15.4801 10.0472 15.499C10.1258 15.5034 10.2045 15.5019 10.2831 15.5034C11.1889 15.5034 12.0932 15.5034 12.9989 15.5034V15.5005Z" fill="#AB1E2B"/>
</g>
<defs>
<clipPath id="clip0_663_4564">
<rect width="26" height="26" fill="white"/>
</clipPath>
</defs>
</svg>
