<svg width="26" height="26" viewBox="0 0 26 26" fill="none" xmlns="http://www.w3.org/2000/svg">
<g clip-path="url(#clip0_657_3976)">
<path d="M4.57467 6.42285C4.06549 7.46633 4.58263 9.62723 5.22706 10.6625L14.0661 24.9918H7.60588C6.58752 24.9918 5.58507 24.392 5.15545 23.6936L0.334156 15.8799C-0.119332 15.1486 -0.0954646 13.9901 0.334156 13.2835L4.57467 6.42285Z" fill="url(#paint0_radial_657_3976)"/>
<path d="M8.30592 13.4887C8.0752 13.8666 7.86039 14.7704 8.21841 15.5017L5.23493 10.6623C4.5905 9.62701 4.07337 7.4661 4.58255 6.42262L5.11559 5.5599C5.59295 4.77935 6.49197 4.26172 7.61376 4.26172H13.9705L8.32184 13.4805L8.30592 13.4887Z" fill="url(#paint1_radial_657_3976)"/>
<path d="M21.4253 19.569C21.9344 18.5255 21.4173 16.3728 20.7729 15.3293L11.9338 1H18.3941C19.4124 1 20.4069 1.59979 20.8445 2.28997L25.6658 10.1202C26.1193 10.8514 26.0954 12.0017 25.6658 12.7083L21.4253 19.569Z" fill="url(#paint2_radial_657_3976)"/>
<path d="M17.702 12.5032C17.9327 12.1253 18.1475 11.2215 17.7895 10.4902L20.773 15.3297C21.4174 16.3649 21.9345 18.5258 21.4254 19.5693L20.8923 20.432C20.415 21.2208 19.5239 21.7302 18.3941 21.7302H12.0374L17.6861 12.5115L17.702 12.5032Z" fill="url(#paint3_radial_657_3976)"/>
</g>
<defs>
<radialGradient id="paint0_radial_657_3976" cx="0" cy="0" r="1" gradientUnits="userSpaceOnUse" gradientTransform="translate(0.20877 8.11822) rotate(-90) scale(17.7099 18.7817)">
<stop stop-color="#D3E6F6"/>
<stop offset="0.07" stop-color="#CBE1F4"/>
<stop offset="0.17" stop-color="#B5D6F0"/>
<stop offset="0.25" stop-color="#A1CBED"/>
<stop offset="0.34" stop-color="#8EBBE3"/>
<stop offset="0.53" stop-color="#5E95CB"/>
<stop offset="0.7" stop-color="#2F6EB3"/>
<stop offset="0.82" stop-color="#1F5BA1"/>
<stop offset="1" stop-color="#00367F"/>
</radialGradient>
<radialGradient id="paint1_radial_657_3976" cx="0" cy="0" r="1" gradientUnits="userSpaceOnUse" gradientTransform="translate(17.7536 5.36641) scale(12.0616 12.4564)">
<stop stop-color="#D3E6F6"/>
<stop offset="0.07" stop-color="#CBE1F4"/>
<stop offset="0.17" stop-color="#B5D6F0"/>
<stop offset="0.25" stop-color="#A1CBED"/>
<stop offset="0.34" stop-color="#8EBBE3"/>
<stop offset="0.53" stop-color="#5E95CB"/>
<stop offset="0.7" stop-color="#2F6EB3"/>
<stop offset="0.82" stop-color="#1F5BA1"/>
<stop offset="1" stop-color="#00367F"/>
</radialGradient>
<radialGradient id="paint2_radial_657_3976" cx="0" cy="0" r="1" gradientUnits="userSpaceOnUse" gradientTransform="translate(25.8007 17.8409) rotate(90) scale(17.7064 18.7781)">
<stop stop-color="#D3E6F6"/>
<stop offset="0.07" stop-color="#CBE1F4"/>
<stop offset="0.17" stop-color="#B5D6F0"/>
<stop offset="0.25" stop-color="#A1CBED"/>
<stop offset="0.34" stop-color="#8EBBE3"/>
<stop offset="0.53" stop-color="#5E95CB"/>
<stop offset="0.7" stop-color="#2F6EB3"/>
<stop offset="0.82" stop-color="#1F5BA1"/>
<stop offset="1" stop-color="#00367F"/>
</radialGradient>
<radialGradient id="paint3_radial_657_3976" cx="0" cy="0" r="1" gradientUnits="userSpaceOnUse" gradientTransform="translate(9.47594 20.6202) rotate(180) scale(12.0652 12.4601)">
<stop stop-color="#D3E6F6"/>
<stop offset="0.07" stop-color="#CBE1F4"/>
<stop offset="0.17" stop-color="#B5D6F0"/>
<stop offset="0.25" stop-color="#A1CBED"/>
<stop offset="0.34" stop-color="#8EBBE3"/>
<stop offset="0.53" stop-color="#5E95CB"/>
<stop offset="0.7" stop-color="#2F6EB3"/>
<stop offset="0.82" stop-color="#1F5BA1"/>
<stop offset="1" stop-color="#00367F"/>
</radialGradient>
<clipPath id="clip0_657_3976">
<rect width="26" height="24" fill="white" transform="translate(0 1)"/>
</clipPath>
</defs>
</svg>
