<svg width="26" height="26" viewBox="0 0 26 26" fill="none" xmlns="http://www.w3.org/2000/svg">
<g clip-path="url(#clip0_663_4572)">
<path d="M0 0C8.66717 0 17.3328 0 26 0C26 8.66717 26 17.3328 26 26C17.3328 26 8.66717 26 0 26C0 17.3328 0 8.66717 0 0ZM3.64103 3.64255V22.362H22.3544V3.64255H3.64103Z" fill="#132D89"/>
<path d="M20.2684 6.24707C20.0818 6.50346 19.9119 6.73709 19.7419 6.97073C16.6637 11.1822 13.5856 15.3921 10.5104 19.6051C10.4315 19.7143 10.3511 19.7553 10.2161 19.7553C8.78243 19.7507 7.34878 19.7523 5.91512 19.7523H5.74976C5.77251 19.7128 5.78617 19.6825 5.80589 19.6567C8.93414 15.377 12.0609 11.0972 15.1891 6.8175C15.3105 6.65213 15.4288 6.48374 15.5547 6.32141C15.5821 6.285 15.6382 6.2501 15.6822 6.2501C17.2008 6.24707 18.7194 6.24707 20.2699 6.24707H20.2684Z" fill="#132D89"/>
</g>
<defs>
<clipPath id="clip0_663_4572">
<rect width="26" height="26" fill="white"/>
</clipPath>
</defs>
</svg>
