<svg width="26" height="26" viewBox="0 0 26 26" fill="none" xmlns="http://www.w3.org/2000/svg">
<path d="M24.4291 10.6563H25.0971C25.1397 10.6563 25.1752 10.6252 25.1752 10.5838V9.43089C25.1752 9.38946 25.1397 9.3584 25.0971 9.3584H24.1554C23.0681 9.3584 22.4889 9.67597 22.162 10.3525L20.1153 14.9331C19.991 15.2058 19.8133 15.3369 19.458 15.3369V9.43089C19.458 9.38946 19.4224 9.3584 19.3798 9.3584H17.8768C17.8341 9.3584 17.7986 9.38946 17.7986 9.43089V16.5106C17.7986 16.5796 17.8625 16.6383 17.9407 16.6383H19.625C20.7123 16.6383 21.2098 16.3207 21.5402 15.6441L23.5585 11.1188C23.7219 10.7978 23.9529 10.6563 24.4291 10.6563Z" fill="#D71921"/>
<path d="M6.05128 13.0001C6.65534 12.7722 7.1528 12.2545 7.1528 11.4019C7.1528 10.1316 5.95889 9.3584 4.51981 9.3584H0.0781727C0.0355331 9.3584 0 9.38946 0 9.43089V10.5872C0 10.6252 0.0355331 10.6597 0.0781727 10.6597H4.21422C4.88224 10.6597 5.33351 11.0325 5.33351 11.4916C5.33351 11.9507 4.88224 12.3235 4.21422 12.3235H1.75533V11.464C1.75533 11.4226 1.7198 11.3915 1.67716 11.3915H0.0781727C0.0355331 11.3915 0 11.4226 0 11.464V16.5658C0 16.6072 0.0355331 16.6383 0.0781727 16.6383H4.4594C6.09747 16.6383 7.27006 15.941 7.27006 14.5154C7.27006 13.8147 6.81879 13.2382 6.05483 12.9966L6.05128 13.0001ZM4.2995 15.3715H1.75533V13.6628H4.2995C4.98529 13.6628 5.44722 14.046 5.44722 14.5154C5.44722 14.9849 4.98529 15.368 4.2995 15.368V15.3715Z" fill="#D71921"/>
<path d="M25.9818 16.5556L23.4056 13.5421C23.4056 13.5421 23.3879 13.5352 23.3843 13.5421L22.6914 15.092C22.6914 15.092 22.6914 15.1127 22.695 15.1196L23.8214 16.5003C23.8995 16.597 23.9919 16.6315 24.1269 16.6315H25.9427C25.996 16.6315 26.0173 16.5866 25.9853 16.5487L25.9818 16.5556Z" fill="#D71921"/>
<path d="M10.0914 11.3916H8.58476C8.54212 11.3916 8.50659 11.4227 8.50659 11.4641V16.5659C8.50659 16.6073 8.54212 16.6384 8.58476 16.6384H10.0914C10.134 16.6384 10.1695 16.6073 10.1695 16.5659V11.4641C10.1695 11.4227 10.134 11.3916 10.0914 11.3916Z" fill="#D71921"/>
<path d="M16.2848 9.3584H14.7817C14.7391 9.3584 14.7035 9.38946 14.7035 9.43089V15.3369C14.3518 15.3369 14.1741 15.2058 14.0497 14.9331L12.003 10.3525C11.6726 9.67597 11.0969 9.3584 10.0096 9.3584H8.59185C8.54921 9.3584 8.51367 9.38946 8.51367 9.43089V10.5872C8.51367 10.6252 8.54921 10.6597 8.59185 10.6597H9.73956C10.2157 10.6597 10.4467 10.8013 10.6101 11.1223L12.6284 15.6476C12.9589 16.3207 13.4563 16.6417 14.5436 16.6417H16.2315C16.3096 16.6417 16.37 16.583 16.37 16.514V9.43089C16.37 9.38946 16.3345 9.3584 16.2919 9.3584H16.2848Z" fill="#D71921"/>
</svg>
