<svg width="26" height="26" viewBox="0 0 26 26" fill="none" xmlns="http://www.w3.org/2000/svg">
<path d="M23.5422 14.9371C22.3904 17.6878 20.4671 18.4616 20.4671 18.4616C26.1378 12.9391 22.6715 6.56854 22.6715 6.56854C21.8338 5.14286 22.8974 4.51747 22.8974 4.51747C20.4616 5.10046 21.2221 7.04023 21.2221 7.04023C22.4455 9.84389 22.1975 12.1176 21.7842 13.5273L20.9797 13.0927L20.9907 13.0768C20.9907 13.0768 22.8919 5.87425 15.1382 3.34618V2H13.496V10.9251L21.1064 15.0961C20.9686 15.3664 20.8198 15.6208 20.6655 15.8646L13.022 11.6088L5.34549 15.8646C5.19118 15.6261 5.0479 15.3717 4.90462 15.0961L12.515 10.9251V2H10.8783V3.35678C3.13014 5.88485 5.03137 13.0874 5.03137 13.0874L5.04239 13.1033L4.23781 13.5379C3.8245 12.1282 3.57652 9.85449 4.79992 7.05083C4.79992 7.05083 5.56041 5.11106 3.12463 4.52807C3.12463 4.52807 4.18822 5.14816 3.35057 6.57914C3.35057 6.57914 -0.110216 12.9444 5.5549 18.4722C5.5549 18.4722 3.62611 17.6931 2.47986 14.9477C2.47986 14.9477 1.82959 13.6068 0 13.8983C0 13.8983 0.688851 14.2004 1.09114 15.4141C1.09114 15.4141 2.73887 20.449 9.08732 21.2175V24H12.2064V19.9032C12.2064 19.9032 8.89445 19.8767 6.3705 17.2055L7.15303 16.7656C7.30182 16.8981 9.69903 19.0393 12.978 19.0923C12.978 19.0923 12.989 19.0923 12.9945 19.0923C13 19.0923 13.0055 19.0923 13.0165 19.0923C16.2955 19.034 18.6982 16.8981 18.8415 16.7656L19.624 17.2055C17.1 19.882 13.788 19.9032 13.788 19.9032V24H16.9072V21.2175C23.2611 20.449 24.9033 15.4141 24.9033 15.4141C25.3056 14.2004 26 13.8983 26 13.8983C24.1759 13.6068 23.5201 14.9477 23.5201 14.9477L23.5422 14.9371ZM19.4752 12.2819H19.4697L15.1768 9.97639L15.1547 5.03686H15.1768C15.1768 5.03686 20.3514 6.38834 19.4752 12.2819ZM10.8508 5.03686H10.8728L10.8508 9.97639L6.55786 12.2872H6.55235C5.67613 6.38834 10.8508 5.03686 10.8508 5.03686ZM13.0276 13.4743L17.3095 15.8805L17.2709 15.8646C15.7389 17.0253 14.2785 17.4122 13.0165 17.4122C11.7546 17.4122 10.2942 17.0253 8.76219 15.8646L8.72361 15.8858L13.0276 13.4743Z" fill="#0056A7"/>
</svg>
