<svg width="26" height="26" viewBox="0 0 26 26" fill="none" xmlns="http://www.w3.org/2000/svg">
<path d="M13 3.95605C5.16651 3.95605 0 8.00678 0 12.9995C0 17.9923 5.16651 22.043 13 22.043C20.8335 22.043 26 17.9923 26 12.9995C26 8.00678 20.8395 3.95605 13 3.95605Z" fill="white"/>
<path d="M15.3141 16.3792C17.5446 15.9965 25.085 14.4716 24.1582 10.2383C23.8233 8.71929 22.2387 7.04719 19.8408 5.88731C17.9273 5.03949 15.5892 4.54492 12.97 4.54492C5.69267 4.54492 0.633789 8.3307 0.633789 12.9996C0.633789 16.2496 3.09147 19.0757 7.03811 20.4888C7.87528 18.3162 11.212 17.0798 15.3141 16.3792Z" fill="#0075C2"/>
<path d="M13.018 17.8809C9.75309 18.2871 8.25815 19.3233 7.29541 20.5833C8.95778 21.1426 10.8713 21.4606 12.9702 21.4606C20.2476 21.4606 25.3064 17.6748 25.3064 13.0059C25.3064 12.5937 25.2646 12.1875 25.1869 11.7871C24.9477 17.2685 16.588 17.4452 13.018 17.8867V17.8809Z" fill="url(#paint0_linear_657_3929)"/>
<path d="M5.94975 8.58301H3.51001L3.53991 8.65366C3.64754 8.91272 3.64156 9.38373 3.63558 9.80176C3.63558 9.90185 3.63558 15.348 3.63558 15.348H3.68342C3.68342 15.348 4.79566 15.3892 5.83614 15.3892C8.01277 15.3892 9.47781 13.9349 9.47781 11.7682C9.47781 9.8312 8.09649 8.58301 5.94975 8.58301ZM4.67606 9.18944C4.81958 9.17766 5.25012 9.14822 5.56107 9.14822C7.42675 9.14822 8.29382 10.0373 8.29382 11.9449C8.29382 13.8525 7.52243 14.8769 5.93779 14.8769C4.77772 14.8769 4.68204 14.8239 4.68204 14.1469V9.18944H4.67606Z" fill="white"/>
<path d="M16.0257 15.3071C15.9898 14.9126 15.9718 14.6418 15.9718 14.4063V12.0394H14.8118L14.8477 12.1101C14.8477 12.1101 14.9672 12.3397 14.9672 12.8343C14.9672 12.8519 14.9672 14.4828 14.9254 14.8655C14.6443 14.9362 14.2736 14.9597 14.0284 14.9597C12.1867 14.9597 11.2538 13.9176 11.2538 11.8687C11.2538 10.3026 12.3063 9.13679 13.8072 9.03081C14.5965 8.97782 15.3619 9.18978 15.8403 9.59603L15.924 9.66668V8.70699H15.8822C15.4038 8.6069 14.8417 8.5127 14.2975 8.5127C11.6485 8.5127 10.0698 9.88453 10.0698 12.1807C10.0698 14.63 12.0013 15.5014 13.8072 15.5014C14.5726 15.5014 15.3679 15.4425 15.9778 15.3483H16.0257V15.2953V15.3071Z" fill="white"/>
<path d="M20.1636 11.6328C20.8273 11.4621 21.4612 10.8851 21.4612 10.0432C21.4612 9.12467 20.624 8.58301 19.2188 8.58301H17.1318L17.1438 8.64188C17.1438 8.64188 17.2036 8.91272 17.2036 9.53681V15.4009H17.2574C17.2574 15.4009 18.0766 15.3833 19.0812 15.3833C20.8333 15.3833 21.8439 14.6355 21.8439 13.3285C21.8439 12.5219 21.1622 11.8448 20.1636 11.6328ZM18.2441 11.9625H18.7823C20.026 11.9625 20.6539 12.4453 20.6539 13.3932C20.6539 14.3941 20.1098 14.8769 18.9915 14.8769C18.4474 14.8769 18.2381 14.6826 18.2381 14.194V11.9625H18.2441ZM18.2441 9.1129H18.9258C20.0021 9.1129 20.4566 9.43083 20.4566 10.1845C20.4566 11.0382 19.8945 11.4326 18.6866 11.4326H18.2441V9.1129Z" fill="white"/>
<defs>
<linearGradient id="paint0_linear_657_3929" x1="6.98446" y1="16.6209" x2="25.438" y2="16.6209" gradientUnits="userSpaceOnUse">
<stop offset="0.1" stop-color="#0075C2"/>
<stop offset="0.23" stop-color="#007BC7"/>
<stop offset="0.4" stop-color="#008CD6"/>
<stop offset="0.75" stop-color="#00AC97"/>
<stop offset="1" stop-color="#6FBA2C"/>
</linearGradient>
</defs>
</svg>
