<svg width="28" height="26" viewBox="0 0 28 26" fill="none" xmlns="http://www.w3.org/2000/svg">
<g clip-path="url(#clip0_657_3975)">
<path fill-rule="evenodd" clip-rule="evenodd" d="M27.3974 8.70818C25.3802 5.75836 22.0302 4 18.6226 4C15.2149 4 11.8631 5.75836 9.84949 8.70818L9.74683 8.8606H12.2882L12.3152 8.829C14.0442 6.98513 16.301 6.01301 18.6226 6.01301C20.9441 6.01301 23.2009 6.98513 24.9335 8.829L24.9624 8.8606H27.5001L27.3974 8.70818Z" fill="#E60012"/>
<path d="M8.73814 18.5184L8.69131 18.5686C7.90965 19.3883 7.0073 19.8232 6.07795 19.8232C4.13638 19.8232 2.72614 18.3195 2.72614 16.247C2.72614 14.1745 4.13638 12.6708 6.07795 12.6708C7.0073 12.6708 7.91145 13.1076 8.69131 13.9292L8.73814 13.9794L9.98629 12.4199L9.95387 12.379C8.91465 11.1113 7.6683 10.4961 6.13738 10.4961C4.60646 10.4961 3.19622 11.0296 2.18221 11.9924C1.08175 13.0333 0.5 14.5035 0.5 16.2452C0.5 17.9868 1.08175 19.4589 2.18221 20.5017C3.19442 21.4682 4.59926 21.9998 6.13738 21.9998C7.6755 21.9998 8.91645 21.3827 9.95387 20.1169L9.98629 20.0779L8.73814 18.5184Z" fill="#004187"/>
<path d="M13.4533 10.6748H11.2488V21.7882H13.4533V10.6748Z" fill="#004187"/>
<path d="M22.0969 19.3714C21.5097 19.7413 20.9604 19.9272 20.4687 19.9272C19.7555 19.9272 19.4331 19.5387 19.4331 18.6744V12.7767H21.6808V10.6837H19.4331V7.22461L17.27 8.41978V10.6837H15.4041V12.7767H17.27V19.0499C17.27 20.7581 18.2516 21.9272 19.7158 21.957C20.71 21.9774 21.3098 21.6726 21.6736 21.4477L21.6952 21.4328L22.2265 19.2915L22.0951 19.3733L22.0969 19.3714Z" fill="#004187"/>
<path d="M26.1294 10.6748H23.9231V21.7882H26.1294V10.6748Z" fill="#004187"/>
</g>
<defs>
<clipPath id="clip0_657_3975">
<rect width="27" height="18" fill="white" transform="translate(0.5 4)"/>
</clipPath>
</defs>
</svg>
