<svg width="26" height="26" viewBox="0 0 26 26" fill="none" xmlns="http://www.w3.org/2000/svg">
<g clip-path="url(#clip0_657_3977)">
<path d="M20.0959 17.1114H20.0774L20.0406 17.0567H20.0221L19.9392 16.9563L19.8839 16.9046V16.8894L19.847 16.8559V16.8376H19.8378L19.8194 16.8102L19.801 16.8042L19.7917 16.7859L19.7457 16.7677V16.7585L19.7088 16.7433V16.7342L19.6719 16.719L19.6597 16.7007L19.6044 16.6733V16.6642L19.5767 16.652L19.5675 16.6338L19.5306 16.6186L19.5214 16.6003H19.503L19.4938 16.579L19.4661 16.5669L19.4477 16.5395H19.4293L19.4201 16.5182H19.4016L19.3648 16.4665H19.3463L19.2695 16.3752H19.2511V16.363L19.2235 16.3387V16.3235L19.1497 16.2504V16.2322L19.1313 16.22L19.1006 16.1805V16.1622L19.1467 16.1105L19.1651 16.1166L19.1835 16.0922H19.202L19.2112 16.0801H19.2388V16.0679H19.2572L19.2665 16.0557H19.2849L19.2941 16.0436H19.3125L19.3218 16.0314H19.3494L19.3771 15.9979L19.3955 16.004L19.4047 15.9888H19.4231L19.4784 15.9432H19.5061V15.9249L19.5614 15.8823L19.5982 15.8641L19.6074 15.8397L19.6351 15.8276V15.8093L19.6627 15.7971V15.7789L19.6812 15.7728V15.7576H19.6996V15.7363L19.718 15.7302L19.7272 15.7059H19.7365L19.7457 15.6754L19.7641 15.6693L19.7733 15.6389L19.801 15.6328L19.8286 15.6024L19.847 15.6085L19.8655 15.5872L19.8839 15.5933L19.8931 15.5781H19.9115L19.9484 15.5446H19.9668L20.0314 15.4929H20.0498L20.059 15.4807L20.0866 15.4685V15.4503H20.0959L20.1327 15.4168H20.1512V15.4047L20.1696 15.3834L20.2064 15.3651V15.3469L20.2341 15.3347V15.3164L20.2648 15.3043V15.286L20.2832 15.283V15.2556L20.3017 15.2586V15.2312L20.3846 15.1795V15.1613L20.4583 15.14V15.1248L20.5136 15.1095V15.0943L20.5966 15.0578V15.0396L20.615 15.0426L20.6795 14.9605H20.6979V14.9453H20.7164V14.93H20.7348L20.7717 14.8905V14.8631L20.7993 14.8509L20.8177 14.8053H20.8362L20.8546 14.7536H20.873V14.7232H20.8915V14.6927H20.9099L20.9191 14.6562H20.9283L20.9375 14.5984H20.9468V14.5832H20.956V14.5528H20.9652V14.5376H20.9744V14.495H20.9928V14.4311H21.0113V14.3489L21.0297 14.3429V14.1968H21.0358V14.1634H21.0451L21.0266 14.0508V13.9078L21.0051 13.8956V13.8196L20.9867 13.8074V13.7465L20.9683 13.7344V13.6918H20.959V13.6735H20.9498V13.637H20.9406V13.6096H20.9314V13.5914H20.9222V13.5549H20.913L20.9038 13.5062H20.8853V13.4971L20.9038 13.5032L20.913 13.5245H20.9314L20.9498 13.5549H20.9683L20.9775 13.5762H20.9959L21.0328 13.6279H21.0512L21.1249 13.7192L21.1802 13.7648L21.2079 13.8104H21.2263L21.2355 13.8409L21.2816 13.8835V13.8987L21.3277 13.9413V13.9565L21.3461 13.9686V13.9869L21.3737 14.0082V14.0264L21.3922 14.0356V14.0538L21.4106 14.066L21.4198 14.0934H21.429L21.9973 14.7171L22.0158 14.7292V14.7475L22.0342 14.7597L22.0434 14.787H22.0526L22.1847 14.9361L22.2031 14.9422L22.2216 14.9696H22.24L22.2676 15.0122H22.2861L22.3137 15.0548H22.3322L22.3874 15.1278L22.5072 15.2495L22.5441 15.2982L22.7008 15.4625L22.71 15.4807L22.7469 15.4959L22.7561 15.5142L22.7929 15.5264L22.8052 15.5476L23.1677 15.8975H23.1861L23.2138 15.9492H23.223V15.9675L23.2445 15.9797V15.9888L23.2629 16.001V16.0162L23.2814 16.0283V16.0466L23.309 16.0679L23.4595 16.22L23.4779 16.2261L23.4872 16.2444H23.5056L23.524 16.2778H23.5425L23.5609 16.3083H23.5793L23.607 16.3508H23.6254L23.6991 16.4421H23.7176V16.4512L23.7452 16.4756V16.4908L23.8281 16.5729L23.951 16.6886V16.6977H23.9694V16.7098L23.9879 16.722L24.0247 16.7372L24.0708 16.7707L24.0831 16.789L24.1107 16.8102H24.1292L24.1568 16.8346L24.166 16.8528L24.1937 16.8741H24.2121L24.2305 16.8985L24.2398 16.9167L24.3872 17.0628L24.6022 17.2757L24.6207 17.294H24.636L24.6452 17.3153L25.1183 17.7443V17.7534L25.146 17.7747L25.4224 18.0759H25.4409L25.4777 18.1307H25.4961L25.5054 18.1519L25.5607 18.2037L25.5975 18.2432L25.6436 18.301L25.6805 18.3497L25.7081 18.3893L25.7265 18.4166L25.7542 18.4744L25.791 18.5231L25.8095 18.5596L25.8187 18.5779L25.8494 18.6326V18.657H25.8586L25.8678 18.6935H25.877V18.7209H25.8863V18.7391H25.8955V18.7665H25.9047V18.7939H25.9139V18.8182H25.9231L25.9815 19.0768V19.1772H25.9938L25.9876 19.3963H25.9784V19.4541H25.9692V19.4936H25.96V19.5332H25.9508V19.5667H25.9416V19.5971H25.9323V19.6214H25.9231L25.9139 19.6762H25.9047V19.6914H25.8955V19.7157H25.8863V19.731H25.877V19.7553H25.8678L25.8494 19.8009H25.8402V19.8161H25.831V19.8314H25.8248V19.8466H25.8156L25.7972 19.8922H25.788L25.7788 19.9135L25.7603 19.9196L25.7511 19.95L25.7327 19.9561V19.9713L25.705 19.9835V19.9987L25.6774 20.0109V20.0291L25.6405 20.0474V20.0656L25.5576 20.1143L25.4839 20.1782H25.4654L25.4378 20.2056L25.4193 20.1995L25.4009 20.2208H25.3825L25.3641 20.239H25.3456L25.3364 20.2512H25.3088V20.2634H25.2719L25.2627 20.2786L25.2074 20.2847L25.1982 20.2999L25.1152 20.309V20.3181H25.0784V20.3273L25.0507 20.3212V20.3303H25.0323V20.3364L25.0047 20.3303V20.3394L24.977 20.3334V20.3425H24.9494V20.3455L24.9217 20.3394V20.3486L24.8848 20.3425V20.3516L24.848 20.3455V20.3546L24.8019 20.3455V20.3546C24.8019 20.3546 24.5285 20.3212 24.4179 20.2908C24.3073 20.2634 24.0278 20.1599 24.0278 20.1599L23.9848 20.1478H23.9725V20.1356L23.9234 20.1173V20.1113L23.8865 20.093V20.0869H23.8589V20.0717L23.822 20.0565V20.0474L23.7851 20.0322L23.7759 20.0139L23.7206 19.9865V19.9774L23.4503 19.8101V19.8009L23.4134 19.7948V19.7857L23.3858 19.7796V19.7705L23.3581 19.7644V19.7553L23.3305 19.7401L22.9035 19.4511H22.8851L22.8482 19.3993H22.8329L22.5748 19.1985V19.1894L22.538 19.1742V19.1651L22.5103 19.159V19.1499L22.455 19.1225V19.1133H22.4366V19.1012L22.3997 19.086L22.3905 19.0677L22.3352 19.0403L22.3229 19.0221H22.3045V19.0099L22.2769 18.9947L22.2676 18.9764H22.2492L22.2308 18.946H22.2124L22.2031 18.9247H22.1847L22.1478 18.873H22.1294L21.8222 18.6205V18.6114L21.7669 18.584V18.5748H21.7485V18.5627H21.7301V18.5505L21.6748 18.5231L21.6656 18.5049L21.6287 18.4897L21.6195 18.4714L21.5826 18.4562L21.5642 18.4288H21.5458L21.5366 18.4075H21.5181L21.4997 18.374C21.4997 18.374 21.1833 18.1276 21.0666 18.015C20.9498 17.9055 20.5689 17.5708 20.5259 17.5222L20.4891 17.4917V17.4735L20.443 17.4309L20.4338 17.4035L20.4153 17.3761L20.0805 17.081L20.0959 17.1114Z" fill="#AACF52"/>
<path d="M13.424 15.1224V15.1407L13.4977 15.1893V15.2046L13.5745 15.2532V15.2715L13.6022 15.2745V15.2837L13.6114 15.3019L13.6421 15.3323L13.6606 15.3354V15.3628L13.679 15.3658L13.6974 15.4114H13.7066V15.4297L13.7251 15.4419V15.4662L13.7435 15.4723L13.7466 15.4875L13.765 15.4905L13.7834 15.5392H13.8019V15.5575L13.8203 15.5605L13.8694 15.6396L13.8879 15.6427V15.6579L13.9616 15.7157V15.7339L13.9831 15.737V15.7522L14.0292 15.7765V15.7948L14.0476 15.7978V15.8161L14.1121 15.8526L14.1213 15.8708L14.149 15.8769L14.1613 15.8952L14.1797 15.9013V15.9104L14.2073 15.9226V15.9378L14.2442 15.9469V15.9652L14.2903 15.9895L14.4254 16.1477V16.166L14.4439 16.169L14.5452 16.2846V16.2998L14.5667 16.3029V16.3181L14.5944 16.3242V16.3424L14.6128 16.3455V16.3637L14.7357 16.4459L14.7726 16.4763V16.4854L14.791 16.4884V16.4976L14.8125 16.5006L14.8217 16.5189L14.8494 16.525L14.8586 16.5432L14.8862 16.5493V16.5584L14.9231 16.5736V16.5888L14.9692 16.6162V16.6314L14.9907 16.6345V16.6527L15.0091 16.6558L15.0367 16.6862V16.7045L15.0552 16.7075L15.0582 16.7258L15.0736 16.7288L15.1227 16.7775V16.7957L15.1412 16.7988L15.2917 16.9296V16.9479L15.3193 16.9509V16.9691L15.3654 16.9935V17.0026L15.3961 17.0057L15.3931 17.0178L15.433 17.033V17.0482L15.4699 17.0543V17.0726L15.5344 17.0939L15.5467 17.1121L15.5835 17.1182V17.1365L15.6296 17.1426L15.6388 17.1639L15.6849 17.173V17.1791L15.7156 17.1852V17.1943L15.7525 17.2004V17.2095L15.817 17.2217L15.8262 17.2399L15.9306 17.2612L15.9399 17.2795L16.0351 17.2947V17.3038L16.0597 17.3069V17.319L16.1088 17.3251V17.3342L16.1272 17.3373L16.1365 17.3586L16.2102 17.3768V17.3951L16.5481 17.4924L16.6679 17.5137V17.5046L16.6894 17.5077V17.5016L16.8645 17.5168V17.4985L17.0334 17.4864V17.4681L17.058 17.4711L17.0519 17.4742V17.4924L17.0058 17.5198L16.9505 17.5594V17.5746L16.9228 17.5776L16.8614 17.6324L16.843 17.6293L16.8153 17.6598L16.7969 17.6567L16.7693 17.6841L16.7508 17.6811L16.7324 17.7024L16.714 17.6993L16.7047 17.7145L16.6771 17.7176V17.7267L16.6587 17.7237L16.6494 17.7358L16.6218 17.7419V17.748L16.5665 17.7541L16.5573 17.7723H16.5235V17.7815L16.5051 17.7784V17.7876L16.4836 17.7815V17.7906L16.4313 17.7967V17.8058L16.4037 17.7997V17.8088L16.3976 17.8301L16.3822 17.8271L16.3361 17.8697L16.2931 17.8636V17.8819L16.2409 17.9123L16.158 17.9823L16.1365 17.9792L16.0658 18.0249L15.9552 18.0735L15.9276 18.0796V18.0857L15.9091 18.0827L15.8999 18.0979L15.8631 18.1009L15.8538 18.1131L15.8354 18.11L15.8201 18.1253L15.7986 18.1222V18.1283L15.7801 18.1253V18.1344L15.7617 18.1313L15.7648 18.1405L15.7463 18.1344V18.1466L15.7279 18.1405V18.1496L15.7095 18.1466V18.1557L15.6542 18.1618V18.1709L15.6265 18.1648V18.1739L15.6081 18.1709V18.18L15.5805 18.1739V18.18L15.5528 18.1892V18.1983L15.5252 18.1922V18.2013L15.4975 18.1983V18.2044L15.3716 18.2561L15.3347 18.2926L15.3163 18.2896L15.2794 18.323L15.261 18.32L15.2425 18.3443L15.2241 18.3382L15.2057 18.3595L15.1873 18.3565L15.178 18.3717L15.1412 18.3747L15.132 18.3899L15.1074 18.393V18.4021L15.0675 18.4052L15.0582 18.4173L15.006 18.4234V18.4325L14.9876 18.4295V18.4386L14.9692 18.4356V18.4447L14.9507 18.4386V18.4478L14.8954 18.4538V18.463L14.8678 18.4569V18.466L14.8494 18.463V18.4721L14.8217 18.466V18.4751L14.8033 18.4721V18.4812L14.7756 18.4751V18.4843L14.748 18.4782V18.4873L14.576 18.5542L14.5545 18.5512L14.5207 18.5877L14.5022 18.5816L14.4838 18.606L14.4654 18.6029L14.4469 18.6242L14.4285 18.6181L14.4193 18.6364L14.4009 18.6303L14.3824 18.6546H14.3456L14.3364 18.6729H14.2995L14.2903 18.6881L14.2381 18.6942L14.2258 18.7094L14.2012 18.7033L14.192 18.7185L13.8879 18.7733L13.851 18.7672V18.7733L13.8141 18.7672V18.7763L13.7773 18.7702V18.7794L13.7404 18.7702V18.7794L13.6943 18.7702V18.7794L13.6483 18.7702V18.7794L13.5776 18.7672V18.7733L13.2366 18.7216V18.7124L13.1261 18.6911V18.682L13.0523 18.6699L13.0493 18.6607L12.997 18.6516V18.6425L12.9571 18.6364V18.6273L12.911 18.6181V18.612L12.8097 18.5755V18.5664L12.782 18.5634V18.5542L12.7175 18.5329V18.5238L12.6991 18.5208V18.5116L12.6714 18.5086V18.4995L12.653 18.4964V18.4873L12.6253 18.4812V18.4751L12.5885 18.4569V18.4508L12.5608 18.4447V18.4386L12.5055 18.4112V18.4021L12.4871 18.3991V18.3899L12.4503 18.3747L12.441 18.3565L12.3857 18.3291L12.3765 18.3108L12.3397 18.2956V18.2865L12.312 18.2743L12.3028 18.2561L12.2844 18.253L12.2752 18.2348L12.2567 18.2317L12.2352 18.2013L12.2199 18.1983L12.2014 18.1709L12.183 18.1679L12.1615 18.1374L12.1339 18.1222L12.0509 18.0249L12.0325 18.0218L11.968 17.9336L11.9495 17.9305L11.9035 17.8727V17.8545L11.885 17.8423V17.8362L11.8635 17.821V17.8058L11.8359 17.7845V17.7663L11.8082 17.745V17.7297L11.7898 17.7176L11.7806 17.6902L11.7714 17.6872V17.6719L11.7529 17.6598L11.7437 17.6324H11.7345L11.7253 17.5959L11.7069 17.5837V17.5685L11.6854 17.5472V17.532L11.6792 17.5289V17.5137L11.67 17.5107L11.6669 17.4924H11.6608L11.6393 17.4377H11.6331L11.6209 17.392L11.6116 17.389V17.3738H11.6024V17.3464H11.5932L11.584 17.3099H11.5748L11.5563 17.2217L11.5471 17.2186V17.1943H11.5348V17.1669H11.5287L11.5164 17.1061H11.5072V17.0695H11.498L11.4888 16.9661L11.5072 16.2572L11.5164 16.2603V16.2329H11.5256V16.2085L11.5348 16.2116L11.5594 16.1081H11.5686V16.0929H11.5779V16.0686L11.5871 16.0716L11.5963 16.0382L11.6055 16.0412V16.0169H11.6147L11.6239 15.9834L11.6331 15.9865V15.9621L11.6485 15.956V15.9408L11.6669 15.9256V15.9104H11.6792L11.6762 15.8952H11.6854V15.88L11.7038 15.8739L11.713 15.8435L11.7314 15.8374V15.8222L11.7499 15.8161L11.7591 15.7826L11.7745 15.7765V15.7613L11.8052 15.7491V15.7339L11.8297 15.7218V15.7035L11.8758 15.6792V15.664L11.9127 15.6427V15.6274L11.9311 15.6122L11.9588 15.6092V15.594L11.9772 15.5879L11.9956 15.5666L12.0386 15.5514V15.5331L12.0571 15.521L12.0755 15.524L12.1031 15.4936L12.1216 15.4997L12.1584 15.4632L12.1769 15.4662L12.1953 15.4449L12.2137 15.4479L12.2322 15.4266L12.2506 15.4297L12.2598 15.4145L12.2967 15.4114L12.3059 15.3993L12.3335 15.3932V15.3841H12.3704L12.3765 15.3688L12.395 15.3749L12.4134 15.3597L12.4349 15.3628V15.3536L12.4503 15.3567V15.3506L12.4718 15.3536L12.4779 15.3384L12.5055 15.3415V15.3354L12.5424 15.3323V15.3232L12.5701 15.3293V15.3202H12.6069V15.311L12.6346 15.3171V15.308L12.653 15.311V15.3019L12.7697 15.2989V15.2897L12.8004 15.2958V15.2867L12.8281 15.2928V15.2837L12.9387 15.2867L12.9479 15.2715L12.9663 15.2745L12.9817 15.2532L13.0001 15.2593L13.0185 15.235L13.037 15.238L13.0554 15.2167L13.0738 15.2198L13.0831 15.2046L13.1199 15.2015L13.1291 15.1893L13.1476 15.1924L13.1568 15.1772L13.1752 15.1802L13.1844 15.165L13.2029 15.168L13.2182 15.1559L13.2397 15.1589V15.1498L13.2581 15.1528V15.1437L13.2766 15.1467L13.4087 15.1133L13.424 15.1224Z" fill="#AACF52"/>
<path d="M16.4006 13.6772L16.3729 13.7046L16.3545 13.7107V13.7259L16.3361 13.7411L16.3176 13.7381L16.3084 13.7533L16.29 13.7502V13.7563L16.2716 13.7533V13.7624L16.2439 13.7563V13.7655L16.1886 13.7715V13.7807L16.1702 13.7776L16.1733 13.7867L16.1149 13.7928L16.1057 13.808H16.0688L16.0627 13.8233L16.0442 13.8202L16.035 13.8354L16.0166 13.8324L16.0074 13.8476L15.9889 13.8446L15.9797 13.8598L15.9613 13.8567L15.9521 13.8719L15.906 13.8841H15.9091V13.9024L15.9459 13.9267V13.945L16.0197 13.9997L16.0227 14.018L16.0412 14.021V14.0362L16.0596 14.0423V14.0575L16.078 14.0636V14.0788L16.0965 14.0819L16.1456 14.1579L16.164 14.161L16.1825 14.2066L16.2009 14.2127V14.2279L16.2193 14.234L16.2685 14.3344L16.2838 14.3374L16.3238 14.4135L16.3606 14.453L16.419 14.4804V14.4987L16.4559 14.5139V14.5321L16.505 14.5565V14.5717L16.5234 14.5747V14.593L16.5419 14.5991V14.6143L16.588 14.666L16.6095 14.669V14.6873L16.6279 14.6903V14.7056L16.6463 14.7086L16.7108 14.8151L16.7323 14.8181V14.8364L16.7508 14.8394V14.8638L16.7692 14.8698L16.7876 14.9246L16.7968 14.9277L16.8153 14.9733L16.8368 14.9763L16.8552 15.022L16.8736 15.025L16.9289 15.0706V15.0859L16.9474 15.0889V15.1072L17.0149 15.1437V15.1619L17.0334 15.165L17.061 15.2136L17.0794 15.2167V15.2319L17.0979 15.2349L17.1286 15.2836L17.147 15.2867V15.3049L17.1655 15.308L17.1931 15.3718L17.2146 15.3749V15.3931L17.23 15.3962L17.2607 15.4631L17.2791 15.4662V15.4905L17.2975 15.4935L17.3068 15.5209L17.316 15.524L17.3252 15.5666L17.3467 15.5787V15.597L17.3651 15.6061V15.6335L17.3836 15.6457L17.3928 15.6974L17.4112 15.7095V15.7461H17.4235L17.4327 15.7917L17.4511 15.7947L17.4604 15.883H17.4726V15.9012H17.4819V15.9529L17.5003 15.9651L17.5095 16.0442L17.5279 16.0533L17.5494 16.1264L17.5679 16.1294L17.5863 16.2024L17.6047 16.2055L17.6139 16.2663L17.6324 16.2694L17.6447 16.3576L17.6631 16.3606L17.6938 16.6649L17.6846 16.6618L17.6877 16.7987L17.6785 16.7957V16.8565L17.6692 16.8535V16.9052L17.6508 16.9113L17.6416 16.9782L17.6232 16.9752L17.5802 17.1121L17.5587 17.1091L17.4849 17.2308L17.4665 17.2338H17.4573V17.2581L17.4419 17.2551V17.2642L17.402 17.2825L17.3774 17.3038V17.3281L17.3098 17.3494V17.3646H17.3252L17.3344 17.3494L17.3528 17.3555L17.3621 17.3403L17.3805 17.3433L17.3897 17.3281L17.4051 17.3311V17.322L17.4358 17.319L17.4419 17.3038L17.4634 17.3068L17.4911 17.2794L17.5095 17.2825L17.5464 17.249L17.5617 17.252L17.6262 17.1973L17.6447 17.2003V17.1882L17.6723 17.179L17.6815 17.1547L17.746 17.1182V17.0999L17.789 17.0756V17.0573L17.8075 17.0512V17.0452L17.829 17.0391L17.8259 17.0239L17.8443 17.0178V16.9995L17.8628 16.9965V16.9782L17.8904 16.9691L17.9181 16.9265L17.9518 16.9083L17.9641 16.893L17.9826 16.8961L17.9918 16.8657L18.0071 16.8717L18.0164 16.8565L18.0348 16.8596L18.044 16.8444L18.0624 16.8474L18.0716 16.8322L18.0993 16.8292L18.1362 16.7957L18.1546 16.7987L18.1915 16.7622L18.2099 16.7653V16.7561L18.2283 16.7531V16.7348L18.2437 16.7379L18.2805 16.7044H18.2897V16.6892L18.3266 16.677V16.6618L18.3727 16.6344V16.6192L18.4096 16.601V16.5858H18.4372V16.5705L18.5109 16.5249L18.5447 16.5219L18.557 16.4945L18.5908 16.4914V16.4854L18.6215 16.4793L18.6277 16.4671L18.6461 16.4701V16.458H18.6737L18.6829 16.4428L18.7014 16.4458L18.7198 16.4245L18.7382 16.4276L18.7475 16.4123H18.7567L18.7659 16.3971L18.7843 16.4032V16.3941L18.8212 16.385V16.3667L18.9932 16.2572V16.2389L19.0208 16.2268V16.2085L19.0485 16.1994L19.0792 16.169L19.0546 16.1324L19.0454 16.1294L19.0362 16.0929L19.0086 16.0716L18.9963 16.026H18.9871L18.9502 15.9682L18.8273 15.886V15.8678L18.7997 15.8525L18.7905 15.8373L18.772 15.8343L18.7444 15.7917L18.7229 15.7887L18.6768 15.7369L18.6584 15.7095L18.6399 15.7065L18.6123 15.6578L18.5908 15.6548L18.5447 15.5879L18.5355 15.5848V15.5666L18.4771 15.5148V15.4966L18.4587 15.4844V15.4692L18.4403 15.457V15.4388L18.4218 15.4175L18.4034 15.4144L18.3358 15.2745L18.3174 15.2714L18.2406 15.098L18.2222 15.0828V15.0676L18.213 15.0646L18.2007 15.0128L18.1945 15.0098L18.1915 14.9855H18.1822V14.9581L18.173 14.955V14.9307H18.1638V14.8942H18.1546L18.1423 14.8394H18.1331V14.8212H18.1269V14.7847H18.1147V14.7329L18.1054 14.7299V14.6873H18.0962V14.6173H18.087L18.0747 14.4104L18.0655 14.4074V14.3831L18.0471 14.3709L18.0348 14.31L18.0164 14.307L18.0071 14.2705L17.9979 14.2674V14.234H17.9856V14.2066L17.9703 14.1944L17.9672 14.1518L17.9488 14.1488L17.9396 14.0636L17.9303 14.0606V14.0454L17.9211 14.0423L17.9181 13.9815L17.9027 13.9693L17.8996 13.875L17.8812 13.8659L17.8751 13.6012L17.8966 13.5951V13.5008L17.915 13.5068L17.9211 13.4217H17.9303V13.3882L17.9396 13.3912V13.3486L17.958 13.3426V13.3091L17.9764 13.303L17.9856 13.2452L18.0041 13.2482L18.0317 13.16L18.0501 13.1631L18.0471 13.1387L18.0686 13.1418L18.1423 13.0292L18.1607 13.0322L18.1884 12.9775L18.2068 12.9805V12.9623L18.2252 12.9653L18.2713 12.9045L18.2867 12.9105V12.8923L18.3174 12.8984L18.345 12.8771L18.342 12.8619L18.3635 12.8649V12.8466L18.3819 12.8497L18.4003 12.8284L18.4188 12.8314L18.428 12.8162L18.4556 12.8132V12.7949L18.5017 12.7706L18.5846 12.7615V12.7432L18.6799 12.7341L18.6768 12.7189L18.7628 12.7067L18.7905 12.7128V12.7037L18.8089 12.7067V12.6976L18.8458 12.7067L18.855 12.6915L18.9594 12.7006L18.9656 12.6854L19.0516 12.7006L19.0608 12.6854L19.2082 12.7128L19.2297 12.7067L19.4816 12.7645V12.7797L19.6874 12.8436V12.8619L19.7335 12.8679V12.8862L19.8472 12.9318V12.947L19.9393 12.9927V13.0079L19.9762 13.0231L19.9793 13.0353L20.0069 13.0383L20.0253 13.0657L20.053 13.0718V13.0809L20.0745 13.084V13.0931L20.1482 13.1053V13.1144L20.2127 13.1265V13.1357L20.2588 13.1448V13.1539L20.3141 13.1631V13.1722L20.354 13.1783L20.3632 13.1965L20.4001 13.2026V13.2117L20.4277 13.2178V13.2269L20.4554 13.23V13.2391L20.4923 13.2452V13.2574L20.6243 13.3152V13.3304L20.8117 13.4338V13.449L20.8455 13.4643L20.8332 13.4521V13.4338L20.8148 13.4217V13.4064L20.7964 13.3852V13.3669L20.7779 13.3578L20.7687 13.3213L20.7503 13.3091V13.2939L20.7411 13.2908L20.7319 13.2635L20.7104 13.2513V13.2361L20.6735 13.2026V13.1874L20.6366 13.1539V13.1387L20.5721 13.0748L20.5629 13.0474L20.5445 13.0444V13.0292L20.526 13.0261L20.394 12.9014L20.3755 12.871L20.3571 12.8679L20.3479 12.8497L20.3294 12.8466L20.311 12.8193L20.2742 12.8041L20.2649 12.7858L20.2373 12.7706V12.7615L20.182 12.7371V12.728L20.1636 12.725V12.7158L20.1083 12.6884V12.6793L20.0622 12.6641V12.655L20.0438 12.6519V12.6428L20.0161 12.6367V12.6306L19.9977 12.6246V12.6185L19.97 12.6124V12.6033L19.9516 12.6002V12.5941L19.8871 12.5728V12.5637L19.8595 12.5576V12.5515L19.8226 12.5454V12.5363L19.7765 12.5272V12.5181L19.7304 12.5089V12.5029L19.583 12.4663V12.4603L19.1775 12.3994V12.4085L19.1314 12.3994V12.4085L19.0854 12.3994V12.4085L19.0577 12.4025V12.4116L19.0208 12.4055V12.4146L18.984 12.4085V12.4146L18.9656 12.4116V12.4207L18.9103 12.4177V12.4268L18.8918 12.4238V12.4329L18.8642 12.4268V12.4359H18.8304V12.4481L18.7997 12.439V12.4481L18.7475 12.4572V12.4633L18.7259 12.4603V12.4694H18.6922L18.6829 12.4876H18.6461L18.6369 12.5029L18.6184 12.4998V12.5089L18.5908 12.512L18.5816 12.5272L18.5631 12.5211L18.5447 12.5454L18.5263 12.5394L18.5078 12.5637L18.4894 12.5607L18.4618 12.588L18.4433 12.585L17.4573 13.1326L17.4204 13.1357L17.4235 13.1418L17.3958 13.1478L17.3866 13.16L17.3682 13.157V13.1661L17.3313 13.1844L17.0303 13.3639V13.3821L17.0119 13.3852L16.9842 13.4156L16.9658 13.4095L16.9474 13.4247L16.4006 13.6772Z" fill="#AACF52"/>
<path d="M4.90572 12.7064L4.92415 12.6669L4.93336 12.6699L4.94258 12.6395H4.9518V12.6243H4.95794V12.5999H4.96716L4.98559 12.5543H4.9948V12.5391L5.00402 12.5421V12.5239L5.01323 12.5269V12.5087L5.02245 12.5117V12.4934L5.03166 12.4965V12.4782L5.0501 12.4661V12.4478L5.06853 12.4448L5.07774 12.4113L5.09617 12.4052L5.10539 12.3748L5.12382 12.3687L5.12075 12.3535H5.12996V12.3383L5.14839 12.3322V12.317L5.16682 12.3109V12.2926L5.18526 12.2896V12.2713L5.20369 12.2653V12.25L5.23133 12.2379V12.2227L5.25898 12.2105V12.1922L5.30506 12.1679V12.1496L5.32349 12.1466V12.1375L5.33885 12.1314V12.1162L5.56616 11.8393H5.57538L5.59995 11.8119H5.60917V11.7876H5.61838V11.7724H5.6276V11.7511H5.63374L5.65217 11.7024L5.66139 11.7055V11.6902H5.67061V11.675H5.67982V11.6598H5.68904V11.6446H5.69825V11.6294H5.70747V11.6142H5.71668V11.599L5.73511 11.5838V11.5685L5.75354 11.5625L5.76276 11.529L5.77812 11.526L5.78733 11.4955L5.80577 11.4894V11.4712L5.81498 11.4742V11.459L5.84263 11.4438L5.84877 11.4134L5.87949 11.4012V11.386L5.90406 11.3738L5.95014 11.3221V11.3069L5.96857 11.3099L5.987 11.2795H5.99622V11.2643H6.00543L6.03308 11.2369L6.05151 11.2339V11.2156H6.06073L6.08837 11.1882L6.10681 11.1913L6.34641 10.9327V10.9175L6.35562 10.9205L6.36177 10.8871L6.37098 10.8901V10.8718L6.38327 10.8749V10.8566L6.39249 10.8597L6.38941 10.8414L6.39863 10.8445V10.8262L6.40785 10.8292V10.811L6.41706 10.814V10.7958L6.42628 10.7988V10.7806L6.43549 10.7836V10.7654L6.45392 10.7532V10.7349L6.47235 10.7319L6.4785 10.6984L6.50922 10.6863L6.51536 10.6558L6.53379 10.6497V10.6345H6.54301V10.6193L6.56144 10.6132L6.57065 10.5889L6.5983 10.5798V10.5615L6.62595 10.5493L6.63516 10.5189L6.68124 10.4915V10.4763L6.72424 10.452V10.4337L6.86248 10.2816L6.87169 10.2847V10.2694H6.87784L6.89012 10.2116L6.89627 10.2147V10.1964L6.90548 10.1995L6.9147 10.1508H6.92391V10.1356H6.93313V10.1112L6.94234 10.1143L6.95156 10.0808H6.96078V10.0565L6.96999 10.0595L6.98842 10.0108L6.99457 10.0139V9.99867H7.00378V9.98041L7.013 9.98346V9.96825H7.02221V9.95303H7.03143V9.93782H7.04064V9.92261H7.04986V9.9074L7.06829 9.89218L7.06522 9.87697L7.08672 9.87089L7.10208 9.82525L7.12358 9.81917V9.80396L7.14816 9.79179L7.15737 9.75832L7.1758 9.75223V9.73702L7.20345 9.72485V9.70964H7.21267L7.22188 9.6853L7.24031 9.68226V9.664L7.27717 9.64575V9.63054L7.32325 9.60316V9.58794L7.37547 9.55448V9.53927L7.48299 9.37498H7.49527L7.4922 9.35976L7.50142 9.36281L7.51985 9.28979H7.52906V9.27153L7.53828 9.27458V9.25024H7.5475L7.55671 9.21981L7.56593 9.22286V9.19547L7.57514 9.19852L7.5905 9.15288H7.60279V9.13463L7.60893 9.13767V9.11941L7.61815 9.12246V9.10724H7.62736V9.08899L7.63658 9.09203V9.07682H7.64579V9.06161H7.65501V9.04335L7.67344 9.03118V9.01293L7.69187 9.00989L7.69802 8.97946L7.71645 8.97338L7.72566 8.93991L7.74409 8.93687V8.91862L7.76252 8.91557V8.89732L7.78096 8.89428V8.87602L7.79939 8.86994V8.85168L7.81782 8.84864L7.81167 8.8243L7.83932 8.81213V8.79388L7.87618 8.77562L7.8854 8.75128L7.96527 8.64176V8.59916L7.97448 8.60221V8.57482L7.9837 8.57787V8.55048L7.99291 8.55353V8.52006H8.00213L7.99906 8.49572L8.02363 8.50181V8.47442L8.03285 8.47747V8.45313H8.04513L8.04206 8.43792H8.05128L8.06049 8.38924L8.06971 8.39228V8.37403L8.07892 8.37707V8.35273L8.08814 8.35577L8.09735 8.3223H8.10657V8.30709L8.11578 8.31013L8.11271 8.28275L8.125 8.2858L8.14036 8.23712L8.14958 8.24016V8.22191L8.15879 8.22495V8.20669L8.16801 8.20974L8.18644 8.16106L8.20487 8.15801V8.13063L8.2233 8.12759L8.23251 8.09412L8.24787 8.09108V8.07283L8.2663 8.06979V8.05153L8.28474 8.04545V8.03023L8.30317 8.02415V8.00894L8.3216 8.00285V7.9846L8.33081 7.98764L8.34003 7.9633L8.35846 7.96026V7.942L8.38611 7.92983V7.91462L8.43218 7.88724V7.87203L8.56734 7.67731L8.56427 7.65298L8.57656 7.65602V7.62864L8.58578 7.63168V7.59821H8.59192V7.583H8.60114V7.55866H8.61035V7.54649H8.61957V7.51911L8.62878 7.52215V7.50694H8.638V7.4826H8.64721L8.65643 7.45218H8.66257V7.43697H8.67179L8.67486 7.41263L8.69022 7.40958V7.3822L8.70251 7.38524V7.36699L8.70865 7.37003V7.35178L8.72708 7.34569V7.33048L8.74551 7.31527V7.30006L8.75473 7.3031V7.28485L8.76394 7.28789V7.26963L8.78237 7.26659L8.79159 7.23312L8.81002 7.22704V7.21183L8.82845 7.20574V7.19053L8.84688 7.18445L8.84381 7.16619L8.86224 7.16315V7.14489L8.88374 7.14185V7.1236L8.90832 7.11143V7.09622L8.93596 7.08405V7.06883L9.05269 6.90454H9.06191V6.88325H9.07113V6.85891H9.08034V6.83457L9.08956 6.83761V6.8011L9.09877 6.80415V6.78589L9.10492 6.78893L9.12335 6.71592L9.13563 6.71896L9.13256 6.7007L9.14485 6.70375V6.67636L9.15099 6.67941L9.16021 6.64594L9.16942 6.64898L9.17864 6.60943H9.18785L9.20629 6.5638H9.2155V6.54858H9.22472V6.53337H9.23393V6.51816L9.24315 6.5212L9.24008 6.50295L9.25851 6.49078V6.47252L9.27694 6.46644L9.28615 6.43601L9.30459 6.42993L9.3138 6.39951L9.33223 6.39342L9.34145 6.363L9.36909 6.35083V6.33257L9.38752 6.32953V6.31128L9.40596 6.30519L9.41517 6.28389L9.43974 6.27172V6.25347L9.45818 6.25043V6.2413L9.47661 6.23522V6.22L9.51347 6.20175V6.18349L9.75614 5.861V5.84275L9.76536 5.84579V5.82753L9.78379 5.82145V5.80624L9.80222 5.79407V5.77581L9.81144 5.77886V5.7606L9.82987 5.75452L9.83908 5.72409H9.8483L9.85444 5.7028L9.87595 5.69671L9.88209 5.66629L9.90974 5.65412V5.63586L9.92817 5.63282V5.61457L9.95581 5.6024V5.58718L9.99267 5.56893V5.55068L10.0295 5.53242V5.51721L10.1125 5.46549V5.44723L10.1278 5.44419L10.1463 5.41985L10.1647 5.42289L10.2384 5.36205L10.2569 5.36509L10.2845 5.33771L10.3029 5.34075L10.3398 5.30424L10.3552 5.30728L10.3736 5.28599L10.3951 5.28903L10.4043 5.27382L10.4289 5.27077V5.26165L10.4473 5.26773L10.4565 5.25252L10.475 5.25556L10.4842 5.24035L10.5118 5.23731V5.22818L10.5671 5.2221L10.5763 5.20688L10.5948 5.20993L10.6132 5.19471L10.6316 5.2008V5.18863L10.65 5.19471V5.18559L10.6685 5.18863L10.6777 5.17342L10.7023 5.1795V5.17037L10.7422 5.16733V5.16125L10.7698 5.16733V5.1582L10.8067 5.15516L10.8036 5.14604L10.8344 5.15212V5.14299L10.8528 5.14604V5.13995L10.8804 5.14299V5.13691L10.8958 5.13995V5.13082L11.0525 5.1004L11.0709 5.10344L11.0801 5.08823H11.117L11.1262 5.07302L11.163 5.06998V5.06085L11.1815 5.06389V5.05781L11.2368 5.05172V5.04259L11.2644 5.04564V5.03651H11.2982V5.02738L11.3289 5.03347V5.02434L11.3443 5.02738V5.0213H11.3996L11.4026 5.01521L11.4272 5.01825V5.00913L11.4549 5.01521V5.00608L11.4825 5.01217V5.00304L11.5194 5.00913V5L11.5562 5.00913V5L11.6023 5.00913V5L12.3303 5.16733V5.17646L12.358 5.18254V5.18863L12.3856 5.19471V5.20384L12.4133 5.20688V5.21601L12.4409 5.2221V5.22818L12.4594 5.23122V5.24035L12.487 5.24643V5.25556L12.5239 5.27077V5.27686L12.5515 5.28294V5.29207L12.6068 5.31945V5.32554L12.6437 5.34075L12.656 5.359L12.6897 5.37726L12.699 5.39551L12.7205 5.39855L12.7297 5.41681L12.7481 5.41985L12.7573 5.43811L12.7758 5.44115L12.785 5.4594L12.8034 5.46549L12.8126 5.48374L12.828 5.48678L12.8587 5.52329L12.8771 5.52634L12.914 5.57806H12.9324V5.58718L12.9509 5.59935V5.61761L13.1014 5.78798L13.129 5.80928V5.82449L13.1567 5.84579V5.86404L13.1751 5.87317L13.1843 5.90055L13.1935 5.90359V5.92185L13.212 5.93402L13.2212 5.95836L13.2304 5.9614V5.97661L13.2488 5.99791V6.01616H13.258V6.03442H13.2673V6.05267H13.2795V6.07093H13.2857V6.08918L13.2949 6.09222L13.3164 6.14394L13.3256 6.14699V6.17133L13.3348 6.17437V6.18958H13.344V6.21696H13.3533V6.23522H13.3625V6.2626H13.3717V6.28998H13.3809L13.3901 6.35083L13.3993 6.35387L13.4976 6.63986H13.5069L13.5161 6.67636H13.5222L13.5345 6.73113H13.5437V6.74938H13.5529L13.5806 6.86195L13.5898 6.86499V6.88933L13.599 6.89237L13.6021 6.91671H13.6113V6.95322H13.6174L13.6389 7.08405V7.78076L13.6205 7.89333H13.6144V7.91767L13.6052 7.91462V7.942L13.5253 8.38011L13.5161 8.37707L13.5191 8.47747H13.5099V8.55048H13.5007V8.60221L13.4915 8.59916V8.64784H13.4823L13.4854 8.69044L13.4731 8.68739L13.4761 8.72086H13.4638L13.3686 9.02814H13.3594L13.3502 9.05857H13.341V9.08291L13.3318 9.07986L13.3225 9.11333L13.3133 9.11029V9.12854L13.3041 9.1255V9.15288L13.2857 9.15592V9.17418L13.2703 9.18635L13.172 9.40236L13.1628 9.4267L13.1536 9.40236L13.1259 9.38106L13.1167 9.34455L13.0891 9.32326L13.086 9.30804L13.0676 9.29587V9.27762L13.0399 9.25632L13.0215 9.2259H13.0123V9.20764L12.9754 9.17418L12.9263 9.10724L12.9078 9.1042L12.9017 9.07682H12.8894V9.04944H12.8802V9.02206H12.871V8.99772L12.8618 8.99468V8.97034L12.8526 8.96729V8.94295L12.8433 8.93991L12.8403 8.91557L12.8341 8.91253L12.8126 8.85777H12.8034V8.83951H12.7942V8.82126L12.785 8.81822V8.803L12.7758 8.79996V8.78475L12.7665 8.78171L12.7635 8.76345L12.7481 8.7452V8.72694L12.7297 8.71477L12.7082 8.66305L12.6805 8.64176V8.6235L12.6437 8.59004L12.6345 8.56265L12.616 8.55048V8.53527L12.5884 8.51093V8.49572L12.5577 8.47138V8.45617L12.4931 8.39228L12.4839 8.3649L12.4655 8.36186V8.34664L12.4256 8.3223L12.3795 8.26146L12.3611 8.25841V8.24929L12.315 8.21582V8.20061L12.2873 8.1854V8.17627L12.2597 8.1641L12.2474 8.14585L12.1921 8.11846L12.1829 8.09717L12.1552 8.085V8.07891L12.1368 8.07587L12.1184 8.05457L12.1 8.05153V8.0424L12.0815 8.03936L12.0692 8.01806H12.0508V8.00894L12.0324 8.00589L12.0139 7.9846L11.9955 7.98156L11.9863 7.9633L11.9034 7.92071V7.91158L11.8849 7.90854V7.90245L11.8266 7.88116L11.6115 7.7838L11.5102 7.75642V7.74729L11.2122 7.6834L10.6562 7.69253L10.6285 7.68644V7.69557L10.5733 7.70165V7.71078L10.5364 7.71382L10.5272 7.72904L10.5087 7.72295V7.73208L10.4903 7.72904L10.4872 7.73816L10.4719 7.73512L10.4504 7.74729L10.4319 7.74425L10.4258 7.75946L10.3705 7.76554L10.3521 7.78988H10.3152L10.306 7.8051L10.2784 7.80814V7.81727L10.2507 7.82031V7.83856L10.2016 7.85377L10.2046 7.8629L10.1862 7.85986L10.1401 7.90245L10.1033 7.91158V7.92983L10.0725 7.93288L10.0756 7.94809L10.0541 7.95417L10.0572 7.9633L10.0388 7.96026L9.99267 7.99981V8.01806H9.98346L9.96503 8.04849L9.9466 8.0424L9.93738 8.06674H9.92817L9.91895 8.09108L9.90052 8.09717L9.8913 8.12759L9.86366 8.13976L9.84523 8.1854L9.8268 8.19148V8.20974L9.80837 8.22191V8.24016L9.79915 8.23712V8.25537L9.78994 8.25233V8.27058L9.78072 8.26754V8.2858H9.7715V8.30101L9.76536 8.29797L9.74693 8.34664H9.73771L9.64556 8.60829L9.6302 8.77258H9.62098L9.61484 8.96425L9.62406 8.96729L9.63634 9.13767L9.64556 9.14071L9.65477 9.24415H9.66399V9.28066H9.6732V9.31413L9.68242 9.31717V9.35064L9.69164 9.35368L9.69471 9.37802L9.70085 9.38106V9.4054L9.71314 9.40844V9.43278H9.72235V9.46016H9.73157V9.48755H9.74078V9.51493H9.75V9.53927L9.75922 9.54231L9.78072 9.59707L9.78686 9.60011L9.78994 9.61533L9.79915 9.61837V9.63358L9.80837 9.63662V9.65183L9.81758 9.65488V9.67009L9.8268 9.67313V9.69139L9.84523 9.70964V9.72789L9.86366 9.74006L9.88209 9.79483L9.90974 9.81612L9.91895 9.85263L9.94045 9.8648L9.94967 9.89218H9.95889L9.9681 9.91957L9.98653 9.92261V9.94086L10.0173 9.96216V9.97737L10.0357 9.98954V10.0078L10.0633 10.0291V10.0382L10.0818 10.0413L10.1002 10.0626L10.1094 10.0899L10.1463 10.1204V10.1477H10.1555V10.1751H10.1647L10.1678 10.2025H10.177V10.2299H10.1862V10.2451L10.1954 10.2481L10.2046 10.3029H10.2138L10.2354 10.3577L10.2415 10.3607V10.3759L10.2538 10.379V10.3942L10.263 10.3972V10.4124L10.2722 10.4155V10.4307L10.2906 10.452V10.4702L10.3091 10.4824L10.3275 10.5372L10.3552 10.5585L10.3674 10.595L10.3859 10.6071L10.3951 10.6345L10.4319 10.665V10.6832L10.478 10.7258V10.741L10.5456 10.8049L10.5548 10.8292L10.5733 10.8353L10.6009 10.8992L10.6224 10.9783L10.6316 10.9814V10.9996H10.6378V11.024L10.65 11.027L10.6685 11.0818H10.6777V11.1L10.6869 11.1031V11.1183H10.6961V11.1365L10.7053 11.1396V11.1639L10.7268 11.1761L10.7361 11.2126L10.7545 11.2248L10.7729 11.2795L10.7914 11.2886V11.3069L10.8098 11.3191L10.8221 11.3556L10.8405 11.3647V11.383L10.8774 11.4164V11.4316L10.9142 11.4651V11.4803L10.9419 11.5047L10.9542 11.5229L10.9695 11.526V11.5351L10.991 11.5473V11.5625L11.0187 11.5777L11.0279 11.6051H11.0463L11.0555 11.6264H11.0647V11.6446L11.0832 11.6568L11.0924 11.7085L11.1016 11.7115V11.7298H11.1108V11.7541L11.1231 11.7572L11.1415 11.8119H11.1508V11.8302H11.16V11.8485H11.1692V11.8667L11.1784 11.8697V11.885L11.1876 11.888V11.9063L11.206 11.9245L11.2091 11.9428L11.2276 11.9549L11.246 12.0097L11.2736 12.031L11.2828 12.0584H11.2921V12.0766L11.3197 12.0979V12.1162L11.3596 12.1496V12.1649L11.3965 12.1953V12.2135L11.461 12.2774L11.4702 12.3018L11.4887 12.3079V12.3231L11.5194 12.3383V12.3474L11.5655 12.387V12.4052L11.5839 12.4174V12.4356H11.5931V12.4539L11.6023 12.4569V12.4813H11.6115L11.6392 12.5512H11.6361L11.6269 12.5999L11.6207 12.5969V12.6151L11.6115 12.6121V12.6395L11.6023 12.6364V12.6638L11.5931 12.6608V12.676H11.5839V12.7003L11.5747 12.6973L11.5655 12.7307L11.5562 12.7277V12.752H11.547L11.5317 12.8007L11.5194 12.7977L11.5224 12.8159L11.5102 12.8129V12.8372L11.4948 12.8433V12.8585H11.4856V12.8829L11.4672 12.889V12.9042H11.4579V12.9194L11.4395 12.9346V12.9498L11.4211 12.9559L11.4026 13.0015L11.3873 13.0076V13.0259L11.3596 13.035L11.3504 13.0685L11.3228 13.0806V13.0958L11.3043 13.1019L11.2951 13.1263L11.2859 13.1232V13.1415L11.2583 13.1536V13.1689L11.2153 13.2114L11.1108 13.3514L11.0955 13.3727H11.0862V13.397L11.077 13.394V13.4275H11.0678V13.4518H11.0586L11.0463 13.4731L11.0371 13.4701V13.4974L11.0279 13.4944V13.5187H11.0187V13.5339H11.0095V13.5583L11.0002 13.5552V13.5735H10.991L10.9695 13.6191L10.9603 13.6161L10.948 13.6496L10.9419 13.6465V13.6648L10.9327 13.6617V13.6861H10.9234L10.905 13.6921L10.9112 13.6952V13.7104L10.9019 13.7074L10.8835 13.756L10.8651 13.7591L10.8466 13.8078L10.8282 13.8138L10.8129 13.8595L10.7914 13.8656V13.8808L10.776 13.8869V13.9021L10.7545 13.9082L10.7576 13.9234H10.7483L10.7391 13.9477L10.7207 13.9508V13.969L10.6931 13.9812V13.9964L10.6746 14.0025L10.6777 14.0207L10.6593 14.0238L10.6716 14.0359L10.6531 14.039V14.0572L10.6163 14.115L10.6193 14.1303L10.5548 14.1698V14.1881L10.518 14.2063L10.3275 14.4467H10.3183L10.3091 14.4771H10.2999V14.4923H10.2906V14.5166L10.2814 14.5136L10.2661 14.5623L10.2538 14.5592V14.5744H10.2476V14.5927H10.2384V14.6079L10.2292 14.6049V14.6231L10.2108 14.6353V14.6535L10.1923 14.6566V14.684L10.1831 14.6809L10.1739 14.7053L10.1555 14.7083L10.1463 14.7418L10.1278 14.7448V14.7631L10.1186 14.76L10.1217 14.7783L10.1033 14.7844V14.7996L10.0756 14.8118L10.0664 14.8452L10.0388 14.8574V14.8726L10.0111 14.8848V14.9L9.99267 14.9061V14.9213L9.95581 14.9426V14.9578L9.90974 14.9852V15.0004L9.7715 15.1677L9.76229 15.1647L9.76536 15.1981H9.75307V15.2164L9.74693 15.2133L9.71314 15.2833L9.70392 15.2803L9.69471 15.3198H9.68549V15.335H9.67628L9.67935 15.3594H9.66706L9.64863 15.405L9.63941 15.402V15.4202L9.63327 15.4172V15.4354L9.62406 15.4324V15.4598L9.60255 15.4628V15.4872L9.58719 15.4932V15.5115L9.57798 15.5085V15.5267L9.56876 15.5237V15.5389H9.55955V15.5571L9.54112 15.5693V15.5876L9.52576 15.5906L9.51347 15.6241L9.49504 15.6271L9.48582 15.6606L9.46125 15.6728L9.45203 15.7032L9.42439 15.7153L9.41517 15.7397L9.39674 15.7458L9.38752 15.7762L9.35988 15.7884V15.8036L9.3138 15.831V15.8462L9.27079 15.8705V15.8888L9.11413 16.0622L9.10799 16.0835H9.09877V16.1169H9.08956L9.08034 16.1474L9.07113 16.1443L9.06191 16.193H9.05269L9.04348 16.2326L9.03734 16.2295L9.02505 16.263L9.0189 16.2599V16.2782L9.00969 16.2751V16.2995H8.9974L8.98204 16.3482L8.97283 16.3451V16.3634L8.96361 16.3603L8.94518 16.406L8.92675 16.4121V16.4303L8.90832 16.4425V16.4577H8.8991V16.4729H8.89296V16.4881L8.87453 16.4942L8.86531 16.5277L8.84688 16.5307V16.5459L8.82845 16.552V16.5703L8.81002 16.5763V16.5916L8.79159 16.5976V16.6129L8.77316 16.6189V16.6342L8.74551 16.6463L8.74858 16.6646L8.73015 16.6707V16.6859L8.69329 16.7041V16.7224L8.64721 16.7467V16.7619L8.61035 16.7802V16.7893L8.59192 16.7954L8.43526 16.9932L8.42604 17.0053L8.40761 17.054L8.39839 17.051L8.38918 17.0844H8.37996V17.1088L8.37075 17.1057V17.124L8.3646 17.1209V17.1453H8.35232L8.3216 17.1879H8.31238V17.2061L8.30317 17.2031V17.2274L8.28474 17.2335V17.2487L8.2663 17.2639V17.2791H8.25709V17.2944H8.24787V17.3096L8.22944 17.3248V17.34L8.21101 17.3461L8.2018 17.3765L8.18644 17.3826V17.4008L8.16801 17.4039V17.4221L8.14958 17.4252L8.14036 17.4586L8.11271 17.4678L8.1035 17.5012L8.07585 17.5134L8.03285 17.5651V17.5803L8.01134 17.5773L7.99598 17.6077L7.98677 17.6047V17.6229L7.96834 17.626V17.6351L7.94991 17.6412V17.6594L7.84854 17.7233V17.7385L7.8301 17.7446L7.78403 17.7872L7.76867 17.7842L7.75945 17.7994L7.46763 18.0641L7.45841 18.061V18.0793H7.4492L7.45227 18.0945L7.43077 18.1067V18.1249L7.41233 18.128L7.40312 18.1614L7.38776 18.1675L7.37854 18.1979L7.3509 18.2101L7.34168 18.2405L7.31404 18.2527L7.30482 18.2862L7.27717 18.2953V18.3136L7.24953 18.3257L7.2526 18.344L7.21574 18.3622L7.20652 18.3866L7.19731 18.3835V18.3987L7.17888 18.3957L6.99457 18.563L6.97921 18.56L6.96999 18.5752L6.89627 18.6117V18.63L6.88705 18.6269L6.85019 18.6452V18.6543L6.83176 18.6513V18.6665L6.7949 18.6786V18.6878L6.77647 18.6817L6.76725 18.6969H6.75803L6.74882 18.7121L6.56758 18.8886L6.54915 18.8916L6.53993 18.9251L6.52458 18.9281V18.9464L6.50307 18.9525V18.9677L6.48771 18.9738V18.989L6.46928 18.9951V19.0133L6.45085 19.0164V19.0346L6.4232 19.0468V19.062L6.40477 19.0681V19.0833L6.38634 19.0894V19.0985L6.36791 19.1015V19.1198L6.33412 19.138V19.1533L6.26961 19.1928V19.2111L6.2051 19.2506L6.19589 19.2719L6.17746 19.2689L6.16824 19.2932L6.1406 19.2963L6.06073 19.348L5.8242 19.5822L5.78733 19.6248V19.64L5.7689 19.6461L5.75969 19.6796L5.74126 19.6826V19.6979L5.72283 19.7039L5.70747 19.7283V19.7435L5.68596 19.7496H5.67368L5.65525 19.7557V19.7709L5.63682 19.777V19.7922L5.60917 19.8043L5.56309 19.8561V19.8713L5.54466 19.8682L5.53544 19.8926L5.51087 19.9047V19.9199L5.46479 19.9473L5.2897 20.0721V20.0903L5.27434 20.1025L5.25591 20.0994L5.23748 20.1207L5.14532 20.1633V20.1816L5.11768 20.1846L5.06238 20.209L5.04395 20.2303L5.02552 20.2242L4.99787 20.2394L4.98866 20.2516L4.98559 20.2668L4.97637 20.282L4.91186 20.2942V20.3124H4.875V20.3215L4.85964 20.3185L4.85043 20.3337L4.83199 20.3307V20.3368L4.81356 20.3337L4.79513 20.3398L4.23913 20.6988L4.2207 20.6958L4.19305 20.7231L4.17462 20.7201V20.7292L4.14698 20.7414L4.13776 20.7566L4.11933 20.7536L4.11011 20.7657L4.09168 20.7627L4.07325 20.787L4.05482 20.7809L4.03639 20.8053H3.99953L3.98417 20.8266L3.96267 20.8235L3.95652 20.8388H3.91966L3.91044 20.854L3.87358 20.857L3.86437 20.8722L3.84594 20.8692L3.8275 20.8844L3.80907 20.8783V20.8874L3.79064 20.8844L3.78143 20.8996L3.74457 20.9026V20.9087L3.72613 20.9057V20.9148L3.67084 20.9209V20.93L3.64319 20.9239V20.9331L3.62476 20.93V20.9361L3.57254 20.9452V20.9544L3.51725 20.9513V20.9604L3.49882 20.9574V20.9665H3.41588V20.9726L3.39745 20.9696V20.9787L3.36059 20.9726V20.9817L3.33294 20.9757V20.9848L3.30529 20.9787V20.9878L3.27765 20.9848V20.9909L3.24078 20.9848L3.08412 21L2.99197 20.9909V21L2.44211 20.9209V20.9118L2.24551 20.8692L1.87689 20.7353V20.7262L1.75709 20.6805V20.6714L1.73866 20.6684V20.6593L1.71101 20.6562V20.644L1.65572 20.6258V20.6167L1.63729 20.6136V20.6075L1.60964 20.6014V20.5923L1.57278 20.5771V20.571L1.55435 20.5649V20.5589L1.5267 20.5528V20.5436L1.48984 20.5284V20.5193H1.47141V20.5102L1.44376 20.5041L1.43455 20.4858L1.41612 20.4828V20.4737L1.39768 20.4706V20.4615L1.37925 20.4585V20.4493L1.36082 20.4463L1.34239 20.428L1.32396 20.4219L1.31474 20.4037L1.25638 20.3793L1.25024 20.3581L1.2103 20.3459L1.19187 20.3155L1.17344 20.3124L1.16422 20.2942L1.14887 20.2911L1.14579 20.282L1.12122 20.2698L1.10893 20.2516L1.0905 20.2455L1.07207 20.2181L1.05364 20.2151L1.04442 20.1968L1.02599 20.1938L1.00756 20.1633H0.98913L0.952268 20.1116L0.933837 20.1086L0.88776 20.0508L0.869329 20.0477L0.746456 19.9078L0.672732 19.8348V19.8165L0.608223 19.7557V19.7374L0.568289 19.707V19.6918L0.534499 19.6583V19.64L0.512996 19.6309V19.6127L0.48535 19.5914V19.5731L0.466919 19.5609L0.457703 19.5336H0.448488V19.5153L0.430057 19.5062V19.4879L0.411626 19.4758V19.4605L0.393195 19.4484L0.374764 19.3936L0.356333 19.3814L0.337902 19.3267L0.316399 19.3176L0.307183 19.281L0.297968 19.278V19.2628L0.288752 19.2597V19.2445L0.279537 19.2415V19.2263L0.270321 19.2232V19.208L0.261106 19.205V19.1806L0.242675 19.1715V19.1441L0.233459 19.1411L0.224244 19.1076L0.215028 19.1046L0.211957 19.0802L0.202741 19.0772L0.196597 19.0407H0.187382L0.175095 18.989L0.165879 18.9859V18.9707L0.156664 18.9677V18.9342H0.147448V18.916H0.138233V18.8825L0.129017 18.8794V18.8551L0.119802 18.8521V18.8277H0.110586L0.0982987 18.7669L0.0890832 18.7638L0.0798677 18.6878L0.0706522 18.6847V18.6513L0.0614367 18.6482V18.6148H0.0522212V18.563H0.0430057L0.0337902 18.4444L0.0215028 18.4413L0 18.1188H0.0092155L0.0245747 17.8116L0.0337902 17.8146V17.7629L0.0430057 17.7659V17.7142L0.0522212 17.7172L0.0583648 17.6442H0.0675803V17.6016L0.0767958 17.6047V17.5712L0.0860114 17.5743L0.092155 17.5134L0.101371 17.5164V17.4921L0.113658 17.4952V17.4678L0.119802 17.4708V17.4373H0.129017V17.4221H0.138233L0.156664 17.3491L0.165879 17.3522L0.175095 17.3217H0.18431L0.193526 17.2731L0.202741 17.2761L0.221172 17.2274L0.227316 17.2305V17.2153H0.236531L0.245747 17.1727L0.264178 17.1696L0.273393 17.1301L0.291824 17.124V17.1088L0.310255 17.0936V17.0783H0.319471V17.0631H0.328686V17.0479L0.347117 17.0418L0.362476 16.9932L0.371692 16.9962L0.380907 16.9719L0.399338 16.9688V16.9506L0.417769 16.9475V16.9293L0.445416 16.9171L0.454631 16.8867L0.482278 16.8745V16.8562L0.509924 16.8471L0.506853 16.8289L0.55293 16.8045V16.7863L0.599008 16.7619V16.7467L0.63587 16.7254V16.7102L0.691163 16.6859V16.6707L0.755671 16.6311L0.764887 16.6159L0.783318 16.6189L0.801749 16.6068L0.798677 16.5885L0.890832 16.5459V16.5307L0.964556 16.5003L0.973771 16.4881H0.992202L1.01063 16.4668L1.02906 16.4729L1.0475 16.4486L1.06593 16.4516L1.07514 16.4364L1.09972 16.4334V16.4273L1.12122 16.4303L1.12736 16.4151L1.14887 16.4181L1.15501 16.4029L1.17344 16.406L1.40997 16.2478L1.54513 16.1048L1.55742 16.1078L1.61886 16.0439H1.62807V16.0287L1.66493 16.0013L1.69258 15.9983L1.75709 15.9435L2.02127 15.7579V15.7397L2.0397 15.7184L2.05813 15.7032V15.688H2.06427V15.6728L2.0827 15.6667V15.6515L2.10421 15.6362L2.10113 15.621L2.11957 15.6149V15.5997L2.138 15.5936V15.5784L2.15643 15.5541L2.17486 15.5511L2.22094 15.4993L2.27316 15.4415V15.4263L2.29159 15.4294L2.34074 15.405H2.34995V15.3898L2.38681 15.3716V15.3624L2.40217 15.3563V15.3411L2.45747 15.3077L2.56498 15.1951L2.58341 15.1981L2.63871 15.1495L2.65714 15.1525L2.6725 15.1038L2.694 15.1069L2.72779 15.0734L2.74622 15.0764L2.75543 15.0612L2.77387 15.0643L2.7923 15.043L2.87216 14.9882L2.88752 14.976L2.89981 14.97L2.97354 14.8909L2.97968 14.8604H2.98889L2.99811 14.8391L3.01654 14.833V14.8148L3.03497 14.8118V14.7935L3.07183 14.7752L3.08105 14.7418L3.09641 14.7387L3.1087 14.7174L3.1517 14.6901V14.6748L3.19778 14.6475V14.6322L3.28993 14.5714L3.29915 14.5501L3.64627 14.1941L3.6647 14.1881L3.68313 14.1424L3.70156 14.1363L3.71999 14.0877L3.72921 14.0907L3.73842 14.0664L3.75378 14.0633L3.763 14.0299L3.79064 14.0207L3.79986 13.9873L3.8275 13.9781V13.9599L3.85515 13.9477V13.9295L3.87358 13.9264V13.9082L3.91966 13.8838V13.8656L3.96267 13.8412V13.826L4.35893 13.2723L4.37122 13.254L4.38965 13.248L4.39887 13.2175L4.41423 13.2114L4.42651 13.181L4.44187 13.1749V13.1597L4.4603 13.1536V13.1354L4.47873 13.1323V13.1141L4.49716 13.108V13.0928L4.52481 13.0806V13.0654L4.55246 13.0502L4.54939 13.035L4.59854 13.0106V12.9954L4.64154 12.9681V12.9528L4.6784 12.9346V12.9163L4.69683 12.9011L4.71527 12.9072" fill="#00B1A9"/>
<path d="M11.6514 12.5148L11.676 12.4174L11.6944 12.4204L11.7221 12.3079L11.7405 12.3018L11.7497 12.2775L11.7589 12.2805L11.7681 12.2562L11.7866 12.2592L11.8234 12.1983L11.8419 12.2014L11.8757 12.1314L11.8972 12.1375L11.9309 12.0584L11.9524 12.0614L11.9893 12.0006V11.9732L12.0077 11.9702V11.9458L12.0231 11.9397L12.0323 11.9002H12.0415V11.885L12.06 11.8789L12.0692 11.8302L12.0876 11.8333L12.0968 11.7755L12.1153 11.7694L12.1245 11.7024L12.1429 11.6994L12.149 11.6325L12.1675 11.6264V11.5838L12.1767 11.5868V11.5534L12.1951 11.5473L12.2043 11.4469L12.2228 11.4408V11.3769H12.232V11.3495L12.2412 11.3526L12.2473 11.313H12.2596L12.2781 11.3069L12.2842 11.2674L12.3119 11.2643V11.24L12.3303 11.243L12.3395 11.2035L12.3671 11.2004V11.1731L12.3856 11.1761L12.404 11.1183L12.4224 11.1244L12.4317 11.0757L12.4501 11.0787L12.5146 10.9358L12.53 10.9388L12.5392 10.8901L12.5607 10.8932L12.5668 10.8384L12.5883 10.8414L12.5945 10.7654L12.6129 10.7684L12.6405 10.6559H12.6498L12.659 10.5737L12.6774 10.5707L12.6835 10.452L12.702 10.449V10.4125L12.7112 10.4155L12.7388 10.3607L12.7573 10.3638L12.7849 10.3425L12.831 10.2512L12.8494 10.2543L12.8863 10.1752L12.9047 10.1782L13.1566 9.47236H13.1658L13.172 9.4541H13.1781V9.47236L13.1904 9.4754V9.49061L13.1996 9.49365V9.50886L13.2088 9.51191V9.52712L13.218 9.53016V9.54842H13.2273V9.56363L13.2365 9.56667V9.58492H13.2457L13.2641 9.63969H13.2733L13.4423 9.93176V9.94697L13.4822 9.98044V9.99869L13.5068 10.02V10.0352L13.5344 10.0565V10.0748L13.5559 10.0869V10.1021L13.5744 10.1143L13.5836 10.1417H13.5928V10.1599L13.6112 10.1812V10.1964L13.6205 10.1995V10.2147L13.6389 10.2269L13.6481 10.2634H13.6573L13.6788 10.3181L13.688 10.3212V10.3455H13.6972L13.7065 10.382L13.7157 10.3851L13.8723 10.6072V10.6224L13.9215 10.665V10.6802L13.9584 10.7137V10.7319L13.986 10.7502V10.7684L14.0044 10.7806V10.7958L14.0321 10.8201V10.8354L14.0505 10.8475L14.0597 10.884L14.0782 10.8962L14.0997 10.9479L14.1181 10.9601L14.1273 10.9966H14.1365L14.1457 11.0331H14.155V11.0605L14.1642 11.0635L14.1734 11.097H14.1826L14.1918 11.1426H14.201L14.3608 11.3647V11.383L14.4068 11.4256V11.4408L14.4345 11.4621V11.4803L14.4621 11.5016V11.5169L14.4806 11.529L14.4929 11.5564L14.499 11.5594V11.5747L14.5205 11.5868L14.5297 11.6233L14.5481 11.6355L14.5666 11.6872L14.5758 11.6903V11.7055L14.585 11.7085V11.7237L14.5942 11.7268V11.745H14.6034L14.6219 11.7998H14.6311V11.8272H14.6434V11.8454H14.6495V11.8698L14.6618 11.8728V11.8911H14.671V11.9154L14.6802 11.9184V11.9428L14.6895 11.9458V11.9702L14.6987 11.9732L14.754 12.0584L14.8 12.1253L14.8093 12.1284L14.8215 12.1527L14.8492 12.1771V12.1923L14.8676 12.2044V12.2196L14.8953 12.244V12.2592L14.9137 12.2714L14.9229 12.2987L14.9321 12.3018L14.9444 12.3353L14.9598 12.3474V12.3626L14.9782 12.3839V12.4022H14.9874V12.4204H14.9966V12.4387L15.0151 12.4509V12.4752L15.0274 12.4783V12.4935L15.0335 12.4965L15.0458 12.53L15.055 12.533V12.5574L15.0642 12.5604V12.5756L15.0734 12.5786L15.0826 12.6212L15.0919 12.6243V12.6486H15.1011L15.2147 12.8464L15.2485 12.8798L15.2516 12.8951L15.2792 12.9164V12.9346L15.2977 12.9437V12.962L15.3622 13.0654L15.3837 13.0806V13.0959L15.399 13.1172L15.4021 13.1324L15.4113 13.1354V13.1506L15.4205 13.1537V13.1689L15.4298 13.1719V13.1871L15.439 13.1902L15.4574 13.2419L15.4666 13.2449L15.6264 13.467L15.6448 13.4944L15.654 13.4975V13.5127L15.6909 13.5461V13.5644L15.7185 13.5826V13.6009L15.7462 13.6252V13.6404L15.7646 13.6526V13.6678L15.783 13.68L15.7922 13.7074L15.8015 13.7104L15.8137 13.7439L15.8322 13.7561L15.8414 13.7926L15.8875 13.8838H15.8998V13.893L15.8721 13.9051V13.9112L15.8537 13.9082V13.9173L15.8352 13.9143L15.8168 13.9386L15.8045 13.9356V13.9508H15.7953L15.7892 13.966L15.7677 13.9629L15.7615 13.9873L15.7308 14.0055H15.7216V14.0147L15.7062 14.0086V14.0177L15.6786 14.0299V14.0481L15.6602 14.0512V14.0694L15.6202 14.0877L15.5741 14.1211V14.1394L15.5649 14.1364V14.1546L15.5403 14.1668V14.1759L15.5188 14.1729L15.5096 14.1881H15.4728L15.3806 14.2124L15.353 14.2337V14.2428L15.3345 14.2398V14.2489L15.3161 14.2459L15.2977 14.2672L15.2792 14.2641L15.27 14.2794L15.2485 14.2763L15.1963 14.325L15.1779 14.3219L15.1472 14.3493L15.1226 14.3554L15.1134 14.3767L15.0826 14.3798V14.398L15.0581 14.4193L15.0458 14.4163L15.0489 14.4254L15.0181 14.4284L15.012 14.4436L14.9813 14.4376L14.9721 14.4528L14.9536 14.4497V14.4589L14.9352 14.4558V14.4649L14.8983 14.4558V14.4649L14.843 14.4741V14.4802L14.8154 14.4771V14.4832L14.797 14.4802L14.7877 14.4954L14.7509 14.4984L14.6526 14.5623L14.5236 14.6231L14.3147 14.7235L14.287 14.7448L14.1765 14.8452L14.1488 14.8635L14.0659 14.8757L14.0444 14.897L13.9614 14.9061L13.9522 14.9213L13.9153 14.9243L13.8969 14.9456L13.8785 14.9426L13.8693 14.9578L13.8324 14.9609L13.814 14.9821L13.7771 15.0004L13.7587 14.9974V15.0156L13.7403 15.0095L13.7218 15.0339L13.7034 15.0278V15.0369L13.6819 15.0339V15.043L13.6635 15.0491L13.6665 15.0643L13.6481 15.0704V15.0795H13.6112L13.602 15.0947L13.4116 15.1099L13.301 14.9761L13.2733 14.9548L13.2641 14.9274L13.2273 14.897V14.8787L13.1996 14.8574V14.8392L13.172 14.8179V14.8026L13.1505 14.7905V14.7753L13.1351 14.7601L13.1228 14.7266L13.1044 14.7144L13.0952 14.6779H13.086L13.0767 14.6414H13.0675V14.6231L13.0583 14.6201L13.0429 14.6018L13.0337 14.5988L12.9508 14.4832L12.8801 14.4041V14.395L12.8433 14.3645V14.3493L12.7511 14.255V14.2398L12.7265 14.2094V14.1911L12.7081 14.182V14.1637L12.6897 14.1516V14.1364L12.6713 14.1242V14.1059L12.6528 14.0938V14.0786L12.6344 14.0664V14.0481H12.6252L12.616 14.0116L12.5975 13.9995L12.5883 13.966L12.5791 13.9629L12.5422 13.9082L12.5361 13.9051V13.8808L12.5269 13.8778L12.5177 13.8443L12.5084 13.8412L12.3303 13.6009V13.5826L12.2811 13.54V13.5248L12.2535 13.5005V13.4853L12.2258 13.464V13.4488L12.2074 13.4366V13.4184L12.189 13.4062L12.1798 13.3788H12.1705L12.1521 13.324L12.1337 13.3119L11.9463 12.9863L11.934 12.9559L11.8634 12.8859V12.8677L11.8234 12.8373V12.819L11.7866 12.7886V12.7703L11.7681 12.7582L11.7589 12.7308H11.7497V12.7125L11.7313 12.7003V12.6851L11.7128 12.673L11.7098 12.6547L11.6944 12.6425L11.6913 12.6273L11.6453 12.5604V12.5543L11.6514 12.5574V12.5148Z" fill="#B7C61F"/>
<path d="M13.1717 9.42676V9.43848L13.1628 9.42676H13.1717Z" fill="#81BB2F"/>
<path d="M11.6469 12.5547H11.643L11.6392 12.5508H11.6469V12.5547Z" fill="#81BB2F"/>
<path d="M11.6022 12.4815V12.4571L11.593 12.4541V12.4358H11.5838V12.4176L11.5654 12.4054V12.3871L11.5193 12.3476V12.3385L11.4886 12.3233V12.308L11.4701 12.302L11.4609 12.2746L11.3964 12.2137V12.1955L11.3595 12.1651V12.1468L11.3196 12.1164V12.0981L11.292 12.0768V12.0586H11.2828L11.2735 12.0312L11.2459 12.0099L11.2275 11.9551L11.209 11.943L11.206 11.9247L11.1875 11.9065V11.8882L11.1783 11.8852V11.8699L11.1691 11.8669V11.8486H11.1599V11.8304H11.1507V11.8121H11.1414L11.123 11.7574L11.1107 11.7543V11.73H11.1015V11.7117L11.0954 11.7087L10.9909 11.5627V11.5474L10.9725 11.5353V11.5261L10.9541 11.5231L10.9418 11.5049L10.9141 11.4805V11.4653L10.8773 11.4318V11.4166L10.8373 11.3832V11.3649L10.822 11.3558L10.8097 11.3193L10.7913 11.3071V11.2888L10.7728 11.2797L10.7544 11.225L10.736 11.2128L10.7237 11.1763L10.7052 11.1641V11.1398L10.696 11.1367V11.1185H10.6868V11.1033L10.6776 11.1002V11.082H10.6684L10.65 11.0272L10.6407 11.0242V10.9998H10.6315V10.9816L10.6223 10.9785L10.4779 10.7412V10.726L10.4319 10.6834V10.6651L10.3919 10.6347L10.3858 10.6073L10.3673 10.5952L10.3551 10.5587L10.3274 10.5374L10.309 10.4826L10.2905 10.4704V10.4522L10.2721 10.4309V10.4157L10.2629 10.4126V10.3974L10.2537 10.3944V10.3792L10.2414 10.3761V10.3609L10.2353 10.3579L10.2138 10.3031H10.2045L10.1953 10.2483L10.1861 10.2453L10.1738 10.2301L10.1677 10.2027L10.1093 10.0901L10.0817 10.0415L10.0632 10.0384V10.0293L10.0325 10.008V9.98974L10.0172 9.97757V9.96235L9.98644 9.94106V9.9228L9.96801 9.91976L9.95879 9.89238L9.94958 9.88934L9.94036 9.865L9.92193 9.85283L9.90964 9.81632L9.882 9.79502L9.86357 9.74026L9.84513 9.72809V9.70983L9.8267 9.69158V9.67333L9.81749 9.67028V9.65507L9.80827 9.65203V9.63682L9.79906 9.63377L9.79598 9.61856L9.78984 9.61552L9.78677 9.60031L9.78063 9.59727L9.75912 9.5425L9.74991 9.53946V9.51512H9.74069V9.48774H9.73148V9.46036H9.72226V9.43298H9.70997V9.40864L9.70076 9.40559V9.38125L9.69461 9.37821L9.69154 9.35387L9.68233 9.35083V9.31736L9.67311 9.31432V9.28086H9.6639L9.66082 9.24435H9.65468L9.64546 9.14091L9.63318 9.13786L9.62396 8.96749L9.61475 8.96445L9.62089 8.77277H9.63011L9.64546 8.60848L9.73762 8.34684H9.74684L9.76219 8.29816L9.77141 8.3012V8.28599H9.78063V8.26774L9.78984 8.27078V8.25252L9.79906 8.25557V8.23731L9.80827 8.24035V8.2221L9.8267 8.20993V8.19168L9.84513 8.18559L9.86357 8.13995L9.89121 8.12778L9.90043 8.09736L9.91886 8.09128L9.92807 8.06694H9.93729L9.9465 8.0426L9.96493 8.04868L9.98337 8.01826H9.99258V8L10.0387 7.96045L10.0571 7.96349L10.054 7.95437L10.0755 7.94828V7.93307L10.1032 7.93003V7.91177L10.14 7.90265L10.1861 7.86005L10.2045 7.8631L10.2015 7.85397L10.2506 7.83876L10.2475 7.8205L10.2783 7.81746V7.80833L10.3059 7.80529L10.3151 7.79008H10.352L10.3704 7.76574L10.4257 7.75965L10.4319 7.74444L10.4534 7.74748L10.4718 7.73531L10.4871 7.73836L10.4902 7.72923L10.5086 7.73227V7.72315L10.5271 7.72923L10.5363 7.71402L10.5732 7.71098V7.70185L10.6285 7.69576V7.68664L10.6561 7.69272L11.2121 7.68359L11.5101 7.74748V7.75661L11.6145 7.78399L11.8265 7.88135L11.8848 7.90265V7.90873L11.9033 7.91177V7.9209L11.9862 7.96349L11.9954 7.98175L12.0138 7.98479L12.0323 8.00609L12.0507 8.00913V8.01826H12.0691L12.0814 8.03955L12.0999 8.0426V8.05172L12.1183 8.05477L12.1367 8.07606L12.1552 8.07911V8.08519L12.1828 8.09736L12.192 8.11866L12.2473 8.14604L12.2596 8.16429L12.2872 8.17646V8.18559L12.3149 8.2008V8.21601L12.361 8.24948V8.25861L12.3794 8.26165L12.4255 8.3225L12.4654 8.34684V8.36205L12.4838 8.36509L12.4931 8.39247L12.5576 8.45636V8.47158L12.5883 8.49592V8.51113L12.6159 8.53547V8.55068L12.6344 8.56285L12.6436 8.59023L12.6804 8.6237V8.64195L12.7081 8.66325L12.7296 8.71497L12.748 8.72714V8.74539L12.7664 8.76365V8.7819L12.7757 8.78494V8.80016L12.7849 8.8032V8.81841L12.7941 8.82145V8.83971H12.8033V8.85796H12.8125L12.8402 8.91577L13.0122 9.20784V9.22609H13.0214L13.0398 9.25652L13.0675 9.27781V9.29607L13.0859 9.30824L13.089 9.32345L13.1166 9.34475L13.1259 9.38125L13.1535 9.40255L13.1627 9.42689V9.42993L13.1719 9.43906V9.45427L13.1658 9.47253H13.1566L12.9047 10.1784L12.8862 10.1753L12.8494 10.2544L12.831 10.2514L12.7849 10.3427L12.6774 10.5708L12.6589 10.5739L12.6497 10.656H12.6405L12.6129 10.7686L12.5944 10.7655L12.5883 10.8416L12.5668 10.8386L12.5606 10.8933L12.5391 10.8903L12.5299 10.939L12.5146 10.9359L12.45 11.0789L12.4316 11.0759L12.4224 11.1246L12.404 11.1185L12.3855 11.1763L12.3671 11.2006L12.3302 11.2432L12.3118 11.2645L12.2227 11.441L12.1951 11.5474L12.1767 11.5535V11.587L12.1674 11.584V11.6265L12.149 11.6326L12.1429 11.6965L12.1244 11.7026L12.1152 11.7695L12.0968 11.7756L12.0876 11.8334L12.0691 11.8304L12.0599 11.8791L12.0415 11.8852V11.9004H12.0323L12.0231 11.9399L12.0046 11.946V11.9703L11.9893 11.9734V12.0008L11.9524 12.0616L11.9309 12.0586L11.8971 12.1377L11.8756 12.1316L11.8418 12.2016L11.6944 12.4206L11.6514 12.5149V12.5575L11.6452 12.5545V12.5514H11.6391L11.6145 12.4815H11.6022Z" fill="#009096"/>
<path d="M19.0913 16.1752L19.1005 16.1814L19.0822 16.1783L19.0791 16.1691L19.0913 16.166V16.1752Z" fill="#81BB2F"/>
<path d="M20.87 13.4852L20.8792 13.4882V13.5065L20.8455 13.4639L20.87 13.4852Z" fill="#81BB2F"/>
<path d="M19.0454 16.1295L19.0362 16.093L19.0085 16.0717L18.9962 16.0261H18.987L18.9501 15.9683L18.8273 15.8862V15.8679L18.7996 15.8527L18.7904 15.8375L18.772 15.8344L18.7413 15.7918L18.7228 15.7888L18.6767 15.7371L18.6583 15.7097L18.6399 15.7067L18.6122 15.658L18.5907 15.6549L18.5447 15.588L18.5354 15.585V15.5667L18.4771 15.515V15.4967L18.4586 15.4846V15.4693L18.4402 15.4572V15.4389L18.4034 15.4237L18.3358 15.2746L18.3173 15.2716L18.2405 15.0982L18.2221 15.086V15.0677L18.2129 15.0647L18.2006 15.013L18.1945 15.0099L18.1914 14.9856H18.1822V14.9582L18.173 14.9552V14.9308H18.1638V14.8943H18.1545L18.1423 14.8396H18.133V14.8213H18.1238V14.7848H18.1146V14.7331L18.1054 14.73V14.6874H18.0962V14.6175H18.087L17.9487 14.1489L17.9395 14.0638L17.9303 14.0607V14.0455L17.9211 14.0425L17.918 13.9816L17.9026 13.9694L17.8996 13.8751L17.8811 13.866L17.875 13.6013L17.8965 13.5952V13.5009L17.9149 13.507L17.9211 13.4218H17.9303V13.3883L17.9395 13.3914V13.3488L17.9579 13.3427V13.3092L17.9764 13.3032L17.9856 13.2453L18.004 13.2484L18.0317 13.1602L18.0501 13.1632L18.047 13.1389L18.0685 13.1419L18.1423 13.0263L18.1607 13.0324L18.1883 12.9776L18.2068 12.9807V12.9624L18.2252 12.9654L18.2713 12.9046L18.2897 12.9107V12.8924L18.3173 12.8985L18.345 12.8772L18.3419 12.862L18.3634 12.865V12.8468L18.3819 12.8498L18.4003 12.8285L18.4187 12.8316L18.4279 12.8164L18.4556 12.8133V12.7951L18.5017 12.7707L18.5846 12.7616V12.7434L18.6798 12.7342L18.6767 12.719L18.7628 12.7068L18.7904 12.7129V12.7038L18.8088 12.7068V12.6977L18.8457 12.7038L18.8549 12.6916L18.9563 12.7008L18.9655 12.6855L19.0515 12.7008L19.0607 12.6855L19.2082 12.7129L19.2297 12.7068L19.4816 12.7646V12.7799L19.6874 12.8438V12.862L19.7335 12.8681L19.7365 12.8863L19.8871 12.932L20.2526 13.1297L20.314 13.1632V13.1723L20.354 13.1784L20.3632 13.1967L20.4 13.2028V13.2119L20.4277 13.218V13.2271L20.4553 13.2301V13.2393L20.4922 13.2453V13.2575L20.6243 13.3153V13.3305L20.8117 13.434V13.4492L20.8455 13.4644L20.8793 13.507V13.5131L20.8977 13.5161L20.9069 13.5618H20.9192V13.5952L20.9253 13.5983V13.6135L20.9376 13.6165V13.6439H20.9468V13.6804H20.956V13.6987H20.9653V13.7413L20.9837 13.7534L20.9868 13.8143L21.0052 13.8264V13.9025L21.0236 13.9147L21.0267 14.0577L21.0451 14.1733L21.0359 14.1702V14.2067L21.0267 14.2037L21.0298 14.3497L21.0083 14.3528L21.0113 14.4319L20.9929 14.4349V14.4958L20.9745 14.4988V14.5445L20.9653 14.5414V14.5597L20.956 14.5566V14.5931L20.9468 14.5901V14.6053H20.9407L20.9284 14.6631L20.9223 14.6601L20.913 14.7027L20.8915 14.6996V14.7331L20.8731 14.727L20.8762 14.7635L20.8578 14.7605L20.8393 14.8152L20.8209 14.8122L20.8025 14.8609L20.7748 14.873V14.8974L20.7379 14.943L20.7195 14.9369V14.9552L20.7011 14.9521V14.9704L20.6827 14.9673L20.6181 15.0465L20.5966 15.0434L20.5997 15.0617L20.5168 15.0982V15.1134L20.4584 15.1316L20.4615 15.1469L20.3048 15.2625L20.2833 15.2594L20.2864 15.2838L20.2649 15.2898L20.268 15.3051L20.2372 15.3172V15.3355L20.2096 15.3476V15.3659L20.1727 15.3842L20.1543 15.4055V15.4237L20.1359 15.4176L20.099 15.4572L20.0898 15.4541V15.4693L20.0621 15.4815L20.0529 15.4967L20.0376 15.4937L19.7396 15.7127L19.7304 15.7097L19.7212 15.734L19.7027 15.7401V15.7584L19.6843 15.7614V15.7766L19.6659 15.7827V15.801L19.6382 15.8131V15.8314L19.6106 15.8405L19.6014 15.8649L19.5645 15.8831L19.5092 15.9257V15.9409L19.4816 15.944L19.4263 15.9957L19.4078 15.9926L19.3986 16.0079L19.3802 16.0018L19.3526 16.0322L19.3218 16.0352L19.3126 16.0504L19.2942 16.0474L19.288 16.0626L19.2696 16.0596L19.2573 16.0748L19.242 16.0717V16.0809L19.2112 16.0839L19.202 16.0991L19.1836 16.0961L19.1652 16.1174L19.1467 16.1143L19.1007 16.1661V16.1843L19.0914 16.1752V16.1661L19.0792 16.1691L19.0546 16.1326L19.0454 16.1295Z" fill="#57B14F"/>
<path d="M13.4086 15.1134L13.4055 15.1104H13.4117L13.4147 15.1134H13.4086Z" fill="#81BB2F"/>
<path d="M13.6112 15.0795H13.648V15.0703L13.6665 15.0642L13.6634 15.049L13.6849 15.0429V15.0338L13.7033 15.0369V15.0277L13.7218 15.0338L13.7402 15.0095L13.7586 15.0156V14.9973L13.7771 15.0004L13.8139 14.9821L13.8324 14.9608L13.8692 14.9578L13.8784 14.9425L13.8969 14.9456L13.9153 14.9243L13.9522 14.9212L13.9614 14.906L14.0443 14.8969L14.0658 14.8756L14.1488 14.8634L14.1764 14.8452L14.2839 14.7448L14.3146 14.7265L14.4805 14.6292L14.5082 14.6353V14.617L14.6403 14.5562L14.7508 14.4984L14.7877 14.4953L14.7969 14.4801L14.8153 14.4831V14.4771L14.843 14.4801V14.474L14.8983 14.4649V14.4558L14.9351 14.4649V14.4558L14.9536 14.4588V14.4497L14.9751 14.4527L14.9812 14.4375L15.0089 14.4436L15.0181 14.4284L15.0488 14.4253V14.4162L15.058 14.4193L15.0826 14.398V14.3827L15.1133 14.3767L15.1195 14.3554L15.1471 14.3493L15.1778 14.3219L15.1932 14.3249L15.2485 14.2763L15.27 14.2793L15.2792 14.2641L15.2976 14.2671L15.3161 14.2458L15.3345 14.2489V14.2398L15.3529 14.2428V14.2337L15.3806 14.2124L15.4727 14.188L15.6232 14.0876L15.6601 14.0694V14.0511L15.6785 14.0481V14.0298L15.7031 14.0177V14.0085L15.7215 14.0146V14.0055H15.7308L15.7615 13.9872L15.7676 13.9629L15.7891 13.9659L15.7983 13.9507H15.8045V13.9355L15.8168 13.9386L15.8352 13.9142L15.8536 13.9173V13.9081L15.8721 13.9112V13.9051L15.8997 13.8929V13.8838H15.9058H15.9089V13.902L15.9458 13.9264V13.9446L16.0195 13.9994L16.0226 14.0177L16.041 14.0207V14.0359L16.0594 14.042V14.0572L16.0779 14.0633V14.0785L16.0963 14.0815L16.1455 14.1576L16.1639 14.1606L16.1823 14.2063L16.2007 14.2124V14.2276L16.2192 14.2337L16.2868 14.3371L16.4188 14.4801V14.4984L16.4557 14.5136V14.5318L16.5049 14.5562V14.5714L16.5233 14.5744V14.5927L16.5417 14.5988V14.614L16.5909 14.6657L16.6093 14.6687V14.687L16.6277 14.69V14.7052L16.6462 14.7083L16.7107 14.8148L16.7322 14.8178V14.8361L16.7506 14.8391V14.8634L16.769 14.8695L17.0148 15.1433V15.1616L17.0332 15.1646L17.0609 15.2133L17.0793 15.2164V15.2316L17.0977 15.2346L17.1284 15.2833L17.1469 15.2863V15.3046L17.1653 15.3076L17.1929 15.3715L17.2144 15.3746V15.3928L17.2298 15.3959L17.2605 15.4628L17.279 15.4658V15.4902L17.2974 15.4932L17.3066 15.5206L17.3158 15.5236L17.325 15.5662L17.3465 15.5784V15.5967L17.365 15.6058V15.6332L17.3834 15.6453L17.3926 15.6971L17.4141 15.7092V15.7457H17.4233L17.4325 15.7914L17.451 15.7944L17.4602 15.8826H17.4725V15.9009H17.4817V15.9526L17.5001 15.9648L17.5493 16.126L17.5677 16.1291L17.5861 16.2021L17.6046 16.2051L17.6138 16.266L17.6322 16.269L17.6445 16.3573L17.6629 16.3603L17.6937 16.6645L17.6844 16.6615L17.6875 16.7984L17.6783 16.7954V16.8562L17.6691 16.8532V16.9049L17.6506 16.911L17.6414 16.9779L17.623 16.9749L17.58 17.1118L17.5585 17.1087L17.4848 17.2304L17.4663 17.2335H17.4571V17.2578L17.4387 17.2548V17.2639L17.4018 17.2822L17.3773 17.3034V17.3278L17.3097 17.3491V17.3643L17.3066 17.3613L17.3035 17.3643H17.3005L17.2851 17.3765H17.279L17.2605 17.3886L17.2421 17.3856V17.3917H17.2237V17.3978L17.2052 17.3947L17.196 17.4099L17.1438 17.416L17.1346 17.4312L17.1162 17.4282L17.1069 17.4434L17.0578 17.4708L17.0332 17.4677V17.486L16.8643 17.4982V17.5164L16.6892 17.5012V17.5073L16.6677 17.5042V17.5134L16.5479 17.4921L16.21 17.3947V17.3765L16.1362 17.3582L16.127 17.3369L16.1055 17.3339V17.3247L16.0594 17.3187V17.3065L16.0318 17.3034V17.2943L15.9396 17.2791L15.9304 17.2609L15.826 17.2396L15.8168 17.2213L15.7523 17.2091V17.2L15.7154 17.1939V17.1848L15.6847 17.1787V17.1726L15.6386 17.1635L15.6294 17.1422L15.5833 17.1361V17.1179L15.5464 17.1118L15.5372 17.0935L15.4696 17.0722V17.054L15.4328 17.0479V17.0327L15.3929 17.0175L15.3959 17.0053L15.3652 17.0023V16.9931L15.3191 16.9688V16.9505L15.2915 16.9475V16.9292L15.141 16.7984L15.1225 16.7954V16.7771L15.0734 16.7284L15.058 16.7254L15.0549 16.7071L15.0365 16.7041V16.6858L14.8584 16.5428L14.8215 16.5185L14.8123 16.5003L14.7908 16.4972V16.4881L14.7723 16.485V16.4759L14.7355 16.4455L14.6126 16.3633V16.3451L14.5942 16.3421V16.3238L14.5665 16.3177V16.3025L14.5481 16.2995V16.2842L14.4437 16.1686L14.4252 16.1656V16.1473L14.244 15.9648V15.9465L14.2071 15.9374V15.9222L14.1795 15.91V15.9009L14.161 15.8948L14.1488 15.8766L14.1211 15.8705L14.1119 15.8522L14.0474 15.8157V15.8005L14.029 15.7944V15.7792L13.9829 15.7518V15.7366L13.9614 15.7336V15.7153L13.8877 15.6575V15.6423L13.8692 15.6393L13.8201 15.5602L13.8016 15.5571V15.5389H13.7832L13.7648 15.4902L13.7463 15.4871V15.4719L13.7248 15.4658V15.4415L13.7064 15.4293V15.4111H13.6972L13.6788 15.3654L13.6603 15.3624V15.335L13.6419 15.332L13.6112 15.3015L13.602 15.2833V15.2742L13.5743 15.2711V15.2529L13.4975 15.2042V15.189L13.4238 15.1403V15.122L13.4084 15.1129H13.4146L13.4115 15.1099L13.602 15.0947L13.6112 15.0795Z" fill="#5FA224"/>
</g>
<defs>
<clipPath id="clip0_657_3977">
<rect width="26" height="16" fill="white" transform="translate(0 5)"/>
</clipPath>
</defs>
</svg>
