<svg width="26" height="26" viewBox="0 0 26 26" fill="none" xmlns="http://www.w3.org/2000/svg">
<g clip-path="url(#clip0_657_3939)">
<path d="M5.28879 10H3.72307L1.25019 12.687V10H0V15.863H1.25019V13.1683L3.8047 15.863H5.37042L2.59119 12.9311L5.28879 10Z" fill="#001655"/>
<path d="M26.0001 15.863L24.1225 13.8345L25.9441 11.8068H24.5958L23.0081 13.5622V10H21.7588V15.863H23.0081V14.1033L24.6261 15.863H26.0001Z" fill="#001655"/>
<path d="M8.36622 11.6646C7.84065 11.6646 7.39212 11.8753 7.02339 12.1664V10H5.77319V13.861C5.77319 15.023 6.59687 15.9966 8.147 15.9966C9.54029 15.9966 10.5208 15.0983 10.5208 13.8387C10.5208 12.6468 9.67787 11.6638 8.36622 11.6638V11.6646ZM8.147 14.9408C7.50127 14.9408 6.97661 14.4604 6.95918 13.8619C6.95918 13.8516 6.95918 13.8413 6.95918 13.831C6.95918 13.7043 6.98211 13.5827 7.02431 13.4697C7.18482 13.0347 7.62693 12.7213 8.14792 12.7213C8.80466 12.7213 9.33666 13.2179 9.33666 13.831C9.33666 14.4441 8.80466 14.9408 8.14792 14.9408H8.147Z" fill="#001655"/>
<path d="M19.3564 11.665C18.7538 11.665 18.2823 11.8723 17.9145 12.1797V11.7926H16.6643V15.8651H17.9145V13.5814C17.9145 13.1062 18.3273 12.7208 18.8363 12.7208C19.3454 12.7208 19.7581 13.1062 19.7581 13.5814V15.8651H21.0157V13.256C21.0157 13.2406 21.0157 13.2243 21.0157 13.2089C21.0157 12.3518 20.2544 11.665 19.3555 11.665H19.3564Z" fill="#001655"/>
<path d="M13.5118 11.668C12.1029 11.668 11.1123 12.5662 11.1123 13.8258C11.1123 15.0178 11.9653 16.0008 13.2907 16.0008C13.8869 16.0008 14.4584 15.7036 14.7822 15.302V15.8655H15.9122V13.8267H15.9021C15.9085 13.8121 15.9122 13.8035 15.9122 13.8035C15.9122 12.6416 15.0794 11.668 13.5127 11.668H13.5118ZM13.5384 14.9347C12.8817 14.9347 12.3497 14.4381 12.3497 13.825C12.3497 13.2119 12.8817 12.7152 13.5384 12.7152C14.1951 12.7152 14.7271 13.2119 14.7271 13.825C14.7271 14.4381 14.1951 14.9347 13.5384 14.9347Z" fill="#001655"/>
</g>
<defs>
<clipPath id="clip0_657_3939">
<rect width="26" height="6" fill="white" transform="translate(0 10)"/>
</clipPath>
</defs>
</svg>
