<svg width="26" height="26" viewBox="0 0 26 26" fill="none" xmlns="http://www.w3.org/2000/svg">
<g clip-path="url(#clip0_657_3949)">
<path d="M26 0H0V26H26V0Z" fill="#008CCF"/>
<path d="M0 0L6.4943 6.5019L12.9962 0H0Z" fill="#008CCF"/>
<path d="M0 0V12.9962L6.4943 6.5019L0 0Z" fill="#0095D6"/>
<path d="M12.9962 12.996L6.5019 6.49414L0 12.996H12.9962Z" fill="#008CCF"/>
<path d="M12.9963 12.9962V0L6.50195 6.4943L12.9963 12.9962Z" fill="#007AC6"/>
<path d="M12.9961 0V12.9962L19.498 6.5019L12.9961 0Z" fill="#0067B6"/>
<path d="M26.0001 12.996L19.4982 6.49414L13.0039 12.996H26.0001Z" fill="#004294"/>
<path d="M0 12.9961L6.4943 19.498L12.9962 12.9961H0Z" fill="#007AC6"/>
<path d="M0 12.9961V25.9999L6.4943 19.498L0 12.9961Z" fill="#0067B6"/>
<path d="M12.9962 25.9999L6.5019 19.498L0 25.9999H12.9962Z" fill="#005BAC"/>
<path d="M12.9963 26.0001V13.0039L6.50195 19.4982L12.9963 26.0001Z" fill="#004898"/>
<path d="M12.9961 12.9961L19.498 19.498L25.9999 12.9961H12.9961Z" fill="#08287F"/>
<path d="M12.9961 12.9961V25.9999L19.498 19.498L12.9961 12.9961Z" fill="#004294"/>
<path d="M26.0001 25.9999L19.4982 19.498L13.0039 25.9999H26.0001Z" fill="#08287F"/>
<path d="M25.9999 26.0001V13.0039L19.498 19.4982L25.9999 26.0001Z" fill="#08287F"/>
<path d="M12.9961 0L19.498 6.5019L25.9999 0H12.9961Z" fill="#005BAC"/>
<path d="M25.9999 12.9962V0L19.498 6.4943L25.9999 12.9962Z" fill="#004898"/>
<path d="M25.9999 16.2551L17.6751 8.3252L5.04346 20.9872L9.65403 25.5978L17.6751 17.6907L25.9999 25.97V16.2551Z" fill="white"/>
</g>
<defs>
<clipPath id="clip0_657_3949">
<rect width="26" height="26" fill="white"/>
</clipPath>
</defs>
</svg>
