<svg width="26" height="26" viewBox="0 0 26 26" fill="none" xmlns="http://www.w3.org/2000/svg">
<path d="M6.32644 0.327851C5.62468 0.690071 5.1009 1.31477 4.85681 2.08121L0.152969 16.6593C-0.0962078 17.4257 -0.0402703 18.2499 0.315696 18.9796C0.666577 19.6988 1.27172 20.2395 2.01416 20.4967L17.4275 25.8408C18.175 26.098 18.9734 26.0402 19.6752 25.6728C20.3769 25.3053 20.9007 24.6859 21.1448 23.9194L25.8486 9.34136C26.3623 7.75599 25.5283 6.02888 23.9874 5.50393L8.56903 0.159865C7.8215 -0.0973638 7.0282 -0.0396186 6.32135 0.327851" fill="white"/>
<path d="M13.8577 14.3285C13.0187 15.2944 11.9762 16.0714 10.7659 16.5543L10.0692 16.8325V10.0764L10.7557 10.3493C11.966 10.827 13.0136 11.604 13.8526 12.5646C14.4527 11.5672 14.8239 10.4176 14.9002 9.16293C15.0884 5.92394 13.1255 2.95269 10.4252 1.91852L8.19787 1.15208C7.191 0.805612 6.1231 1.37782 5.79256 2.41198L1.08363 17.0005C0.748008 18.0399 1.31247 19.1634 2.31934 19.5046L13.0136 23.1898C14.1018 21.9929 14.8138 20.4075 14.9155 18.6384C15.0121 17.0583 14.6103 15.5727 13.8577 14.3233M7.67409 17.242H6.61128V9.66689H7.67409V17.242Z" fill="#0099DA"/>
<path d="M13.2424 13.4472C12.6474 12.7228 11.9253 12.1191 11.0913 11.6729V15.2321C11.9253 14.7858 12.6525 14.1716 13.2424 13.4472Z" fill="#F15C21"/>
<path d="M23.6418 6.47423L13.8223 3.08301C15.1393 4.57389 15.9479 6.55297 15.953 8.72105C15.953 10.4324 15.4394 12.0755 14.5393 13.4457C15.4445 14.8158 15.9631 16.4537 15.9682 18.165C15.9682 20.2124 15.2563 22.0969 14.0714 23.5563L17.7582 24.8267C18.7651 25.1732 19.833 24.601 20.1635 23.5616L24.8776 8.97302C25.2132 7.93361 24.6487 6.8102 23.6418 6.46898M21.0433 17.2201H19.716L16.9904 13.4352L19.7618 9.65022H21.0992L18.3227 13.4404L21.0433 17.2201Z" fill="#0055A2"/>
</svg>
