<svg width="331" height="616" viewBox="0 0 331 616" fill="none" xmlns="http://www.w3.org/2000/svg">
<rect y="9" width="331" height="1654" rx="16" fill="white"/>
<rect x="12" y="2" width="10" height="15" fill="#00ABFF"/>
<rect x="14" width="6" height="2" fill="#00ABFF"/>
<rect x="14" y="17" width="6" height="2" fill="#00ABFF"/>
<rect x="36" y="2" width="10" height="15" fill="#00ABFF"/>
<rect x="38" width="6" height="2" fill="#00ABFF"/>
<rect x="38" y="17" width="6" height="2" fill="#00ABFF"/>
<rect x="60" y="2" width="10" height="15" fill="#00ABFF"/>
<rect x="62" width="6" height="2" fill="#00ABFF"/>
<rect x="62" y="17" width="6" height="2" fill="#00ABFF"/>
<rect x="84" y="2" width="10" height="15" fill="#00ABFF"/>
<rect x="86" width="6" height="2" fill="#00ABFF"/>
<rect x="86" y="17" width="6" height="2" fill="#00ABFF"/>
<rect x="108" y="2" width="10" height="15" fill="#00ABFF"/>
<rect x="110" width="6" height="2" fill="#00ABFF"/>
<rect x="110" y="17" width="6" height="2" fill="#00ABFF"/>
<rect x="132" y="2" width="10" height="15" fill="#00ABFF"/>
<rect x="134" width="6" height="2" fill="#00ABFF"/>
<rect x="134" y="17" width="6" height="2" fill="#00ABFF"/>
<rect x="156" y="2" width="10" height="15" fill="#00ABFF"/>
<rect x="158" width="6" height="2" fill="#00ABFF"/>
<rect x="158" y="17" width="6" height="2" fill="#00ABFF"/>
<rect x="180" y="2" width="10" height="15" fill="#00ABFF"/>
<rect x="182" width="6" height="2" fill="#00ABFF"/>
<rect x="182" y="17" width="6" height="2" fill="#00ABFF"/>
<rect x="204" y="2" width="10" height="15" fill="#00ABFF"/>
<rect x="206" width="6" height="2" fill="#00ABFF"/>
<rect x="206" y="17" width="6" height="2" fill="#00ABFF"/>
<rect x="228" y="2" width="10" height="15" fill="#00ABFF"/>
<rect x="230" width="6" height="2" fill="#00ABFF"/>
<rect x="230" y="17" width="6" height="2" fill="#00ABFF"/>
<rect x="252" y="2" width="10" height="15" fill="#00ABFF"/>
<rect x="254" width="6" height="2" fill="#00ABFF"/>
<rect x="254" y="17" width="6" height="2" fill="#00ABFF"/>
<rect x="276" y="2" width="10" height="15" fill="#00ABFF"/>
<rect x="278" width="6" height="2" fill="#00ABFF"/>
<rect x="278" y="17" width="6" height="2" fill="#00ABFF"/>
<rect x="300" y="2" width="10" height="15" fill="#00ABFF"/>
<rect x="302" width="6" height="2" fill="#00ABFF"/>
<rect x="302" y="17" width="6" height="2" fill="#00ABFF"/>
</svg>
