<svg width="298" height="19" viewBox="0 0 298 19" fill="none" xmlns="http://www.w3.org/2000/svg">
<rect y="2" width="10" height="15" fill="#00ABFF"/>
<rect x="2" width="6" height="2" fill="#00ABFF"/>
<rect x="2" y="17" width="6" height="2" fill="#00ABFF"/>
<rect x="24" y="2" width="10" height="15" fill="#00ABFF"/>
<rect x="26" width="6" height="2" fill="#00ABFF"/>
<rect x="26" y="17" width="6" height="2" fill="#00ABFF"/>
<rect x="48" y="2" width="10" height="15" fill="#00ABFF"/>
<rect x="50" width="6" height="2" fill="#00ABFF"/>
<rect x="50" y="17" width="6" height="2" fill="#00ABFF"/>
<rect x="72" y="2" width="10" height="15" fill="#00ABFF"/>
<rect x="74" width="6" height="2" fill="#00ABFF"/>
<rect x="74" y="17" width="6" height="2" fill="#00ABFF"/>
<rect x="96" y="2" width="10" height="15" fill="#00ABFF"/>
<rect x="98" width="6" height="2" fill="#00ABFF"/>
<rect x="98" y="17" width="6" height="2" fill="#00ABFF"/>
<rect x="120" y="2" width="10" height="15" fill="#00ABFF"/>
<rect x="122" width="6" height="2" fill="#00ABFF"/>
<rect x="122" y="17" width="6" height="2" fill="#00ABFF"/>
<rect x="144" y="2" width="10" height="15" fill="#00ABFF"/>
<rect x="146" width="6" height="2" fill="#00ABFF"/>
<rect x="146" y="17" width="6" height="2" fill="#00ABFF"/>
<rect x="168" y="2" width="10" height="15" fill="#00ABFF"/>
<rect x="170" width="6" height="2" fill="#00ABFF"/>
<rect x="170" y="17" width="6" height="2" fill="#00ABFF"/>
<rect x="192" y="2" width="10" height="15" fill="#00ABFF"/>
<rect x="194" width="6" height="2" fill="#00ABFF"/>
<rect x="194" y="17" width="6" height="2" fill="#00ABFF"/>
<rect x="216" y="2" width="10" height="15" fill="#00ABFF"/>
<rect x="218" width="6" height="2" fill="#00ABFF"/>
<rect x="218" y="17" width="6" height="2" fill="#00ABFF"/>
<rect x="240" y="2" width="10" height="15" fill="#00ABFF"/>
<rect x="242" width="6" height="2" fill="#00ABFF"/>
<rect x="242" y="17" width="6" height="2" fill="#00ABFF"/>
<rect x="264" y="2" width="10" height="15" fill="#00ABFF"/>
<rect x="266" width="6" height="2" fill="#00ABFF"/>
<rect x="266" y="17" width="6" height="2" fill="#00ABFF"/>
<rect x="288" y="2" width="10" height="15" fill="#00ABFF"/>
<rect x="290" width="6" height="2" fill="#00ABFF"/>
<rect x="290" y="17" width="6" height="2" fill="#00ABFF"/>
</svg>
