<svg width="18" height="19" viewBox="0 0 18 19" fill="none" xmlns="http://www.w3.org/2000/svg">
<rect x="1.02856" y="2" width="7.2" height="1.5" fill="#3EA2FF"/>
<rect x="3.08569" y="0.5" width="3.08571" height="1.5" fill="#3EA2FF"/>
<rect x="11.8286" y="0.5" width="3.08571" height="1.5" fill="#3EA2FF"/>
<rect y="3.5" width="18" height="1.5" fill="#3EA2FF"/>
<rect y="5" width="18" height="1.5" fill="#3EA2FF"/>
<rect y="6.5" width="18" height="1.5" fill="#3EA2FF"/>
<rect x="1.02856" y="8" width="15.9429" height="1.5" fill="#3EA2FF"/>
<rect x="1.02856" y="9.5" width="15.9429" height="1.5" fill="#3EA2FF"/>
<rect x="2.05713" y="11" width="13.8857" height="1.5" fill="#3EA2FF"/>
<rect x="2.05713" y="12.5" width="13.8857" height="1.5" fill="#3EA2FF"/>
<rect x="3.59998" y="14" width="10.8" height="1.5" fill="#3EA2FF"/>
<rect x="5.14282" y="15.5" width="7.71429" height="1.5" fill="#3EA2FF"/>
<rect x="6.68567" y="17" width="4.62857" height="1.5" fill="#3EA2FF"/>
<rect x="9.77148" y="2" width="7.2" height="1.5" fill="#3EA2FF"/>
<rect x="1.54285" y="4" width="1.54286" height="1.5" fill="white"/>
<rect x="1.54285" y="5.5" width="1.54286" height="1.5" fill="white"/>
<rect x="3.08569" y="2.5" width="1.54286" height="1.5" fill="white"/>
</svg>
