<svg width="241" height="62" viewBox="0 0 241 62" fill="none" xmlns="http://www.w3.org/2000/svg">
<rect x="3" y="3" width="235" height="44" fill="white"/>
<rect width="15" height="6" transform="matrix(1 0 0 -1 117 53)" fill="white"/>
<rect width="9" height="6" transform="matrix(1 0 0 -1 120 59)" fill="white"/>
<path d="M25.9922 17.3333H27.3255V28H25.9922V17.3333ZM13.9922 25.3333V24H15.3255V25.3333H13.9922ZM13.9922 18.6667V17.3333H23.3255V18.6667H19.3255V21.3333H17.9922V18.6667H13.9922ZM16.6589 30.6667H27.3255V32H15.3255V26.6667H16.6589V30.6667ZM16.6589 22.6667V24H15.3255V22.6667H16.6589ZM16.6589 21.3333H17.9922V22.6667H16.6589V21.3333ZM19.3255 22.6667V21.3333H20.6589V22.6667H19.3255ZM21.9922 25.3333V24H23.3255V25.3333H21.9922ZM21.9922 22.6667V24H20.6589V22.6667H21.9922ZM41.9922 17.3333H43.3255V24H44.6589V25.3333H43.3255V32H41.9922V17.3333ZM29.9922 30.6667V28H31.3255V30.6667H29.9922ZM29.9922 18.6667V17.3333H39.3255V18.6667H36.6589V24H35.3255V18.6667H33.9922V24H32.6589V18.6667H29.9922ZM32.6589 28H31.3255V24H32.6589V28ZM35.3255 30.6667H33.9922V24H35.3255V30.6667ZM37.9922 30.6667V28H39.3255V30.6667H37.9922ZM37.9922 28H36.6589V24H37.9922V28ZM64.6641 17.3333H65.9974V28H64.6641V26.6667H61.9974V25.3333H64.6641V17.3333ZM52.6641 24V22.6667H63.3307V24H57.9974V28H56.6641V24H52.6641ZM55.3307 30.6667H65.9974V32H53.9974V26.6667H55.3307V30.6667ZM55.3307 18.6667V20H53.9974V18.6667H55.3307ZM55.3307 20H60.6641V21.3333H55.3307V20ZM55.3307 17.3333H60.6641V18.6667H55.3307V17.3333ZM60.6641 18.6667H61.9974V20H60.6641V18.6667ZM80.6641 17.3333H81.9974V24H83.3307V25.3333H81.9974V32H80.6641V17.3333ZM68.6641 21.3333V20H79.3307V21.3333H68.6641ZM71.3307 29.3333H69.9974V24H71.3307V29.3333ZM71.3307 30.6667V29.3333H76.6641V30.6667H71.3307ZM71.3307 24V22.6667H76.6641V24H71.3307ZM71.3307 18.6667V17.3333H76.6641V18.6667H71.3307ZM76.6641 29.3333V24H77.9974V29.3333H76.6641ZM85.9974 17.3333H87.3307V21.3333H97.9974V22.6667H85.9974V17.3333ZM84.6641 25.3333V24H99.3307V25.3333H84.6641ZM85.9974 32V26.6667H87.3307V30.6667H97.9974V32H85.9974ZM119.336 17.3333H120.669V28H119.336V21.3333H116.669V20H119.336V17.3333ZM107.336 25.3333V24H108.669V25.3333H107.336ZM110.003 30.6667H120.669V32H108.669V26.6667H110.003V30.6667ZM110.003 22.6667V24H108.669V22.6667H110.003ZM110.003 21.3333H111.336V22.6667H110.003V21.3333ZM112.669 22.6667V21.3333H114.003V22.6667H112.669ZM112.669 21.3333H111.336V17.3333H112.669V21.3333ZM115.336 25.3333V24H116.669V25.3333H115.336ZM115.336 22.6667V24H114.003V22.6667H115.336ZM123.336 24V22.6667H138.003V24H131.336V25.3333H136.669V29.3333H126.003V30.6667H136.669V32H124.669V28H135.336V26.6667H124.669V25.3333H130.003V24H123.336ZM135.336 20V18.6667H126.003V20H135.336ZM124.669 17.3333H136.669V21.3333H124.669V17.3333ZM151.336 17.3333V18.6667H142.003V17.3333H151.336ZM139.336 24V22.6667H154.003V24H139.336ZM151.336 28V26.6667H140.669V25.3333H152.669V29.3333H142.003V30.6667H152.669V32H140.669V28H151.336ZM151.336 18.6667H152.669V20H151.336V18.6667ZM151.336 20V21.3333H142.003V20H151.336ZM142.003 18.6667V20H140.669V18.6667H142.003ZM174.008 17.3333H175.341V20H176.674V21.3333H175.341V24H174.008V17.3333ZM162.008 24V17.3333H170.008V24H162.008ZM174.008 28V26.6667H163.341V25.3333H175.341V29.3333H164.674V30.6667H175.341V32H163.341V28H174.008ZM163.341 22.6667H168.674V18.6667H163.341V22.6667ZM190.008 17.3333H191.341V32H190.008V25.3333H188.674V32H187.341V21.3333H178.008V20H187.341V17.3333H188.674V24H190.008V17.3333ZM180.674 29.3333H179.341V24H180.674V29.3333ZM180.674 30.6667V29.3333H184.674V30.6667H180.674ZM180.674 24V22.6667H184.674V24H180.674ZM180.674 18.6667V17.3333H184.674V18.6667H180.674ZM186.008 29.3333H184.674V24H186.008V29.3333ZM206.008 17.3333H207.341V24H208.674V25.3333H207.341V32H206.008V17.3333ZM194.008 30.6667V29.3333H198.008V25.3333H194.008V17.3333H195.341V20H202.008V17.3333H203.341V25.3333H199.341V29.3333H204.674V30.6667H194.008ZM202.008 24V21.3333H195.341V24H202.008ZM210.008 30.6667V29.3333H214.008V25.3333H220.674V29.3333H224.674V30.6667H210.008ZM222.008 25.3333H220.674V24H222.008V25.3333ZM222.008 24V20H223.341V24H222.008ZM222.008 18.6667V20H220.674V18.6667H222.008ZM212.674 25.3333V24H214.008V25.3333H212.674ZM212.674 24H211.341V20H212.674V24ZM212.674 20V18.6667H214.008V20H212.674ZM215.341 29.3333H219.341V26.6667H215.341V29.3333ZM220.674 18.6667H214.008V17.3333H220.674V18.6667Z" fill="#00ABFF"/>
<rect y="6" width="3" height="38" fill="#00ABFF"/>
<rect x="238" y="6" width="3" height="38" fill="#00ABFF"/>
<rect x="3" y="3" width="8" height="3" fill="#00ABFF"/>
<rect x="3" y="44" width="8" height="3" fill="#00ABFF"/>
<rect x="230" y="44" width="8" height="3" fill="#00ABFF"/>
<rect x="230" y="3" width="8" height="3" fill="#00ABFF"/>
<rect x="123" y="59" width="3" height="3" fill="#00ABFF"/>
<rect x="120" y="53" width="3" height="6" fill="#00ABFF"/>
<rect x="117" y="50" width="3" height="3" fill="#00ABFF"/>
<rect width="3" height="3" transform="matrix(-1 0 0 1 126 59)" fill="#00ABFF"/>
<rect width="3" height="6" transform="matrix(-1 0 0 1 129 53)" fill="#00ABFF"/>
<rect width="3" height="3" transform="matrix(-1 0 0 1 132 50)" fill="#00ABFF"/>
<rect x="129" y="47" width="101" height="3" fill="#00ABFF"/>
<rect x="117" y="47" width="3" height="106" transform="rotate(90 117 47)" fill="#00ABFF"/>
<rect x="230" width="3.00001" height="219" transform="rotate(90 230 0)" fill="#00ABFF"/>
</svg>
