<svg width="90" height="40" viewBox="0 0 90 40" fill="none" xmlns="http://www.w3.org/2000/svg">
<g opacity="0.5">
<path d="M10.3858 13.0743H15.9625V13.8286H16.7076V15.9314H15.9625V16.6857H0.745067V15.9314H0V13.8286H0.745067V13.0743H6.32178V10.0571H7.06685V9.30286H9.64071V10.0571H10.3858V13.0743ZM12.1017 3.72572V4.34286H12.8242V5.07429H13.5467V5.66857H14.2466V6.37714H14.9691V7.2H15.669V9.69143H14.9691V10.4H12.4855V9.69143H11.7404V8.96H11.0405V8.22857H10.318V7.54286H9.59556V6.81143H8.89565V6.19429H7.81191V6.81143H7.112V7.54286H6.41209V8.22857H5.66702V8.96H4.96711V9.69143H4.2672V10.4H1.73849V9.69143H1.03858V7.2H1.73849V6.37714H2.48356V5.66857H3.18347V5.07429H3.88338V4.34286H4.60587V3.72572H1.55787V2.92571H0.812801V0.777144H1.55787V0H15.1497V0.777144H15.8948V2.92571H15.1497V3.72572H12.1017Z" fill="white"/>
<path d="M29.9789 2.49143H22.8443V3.17714H29.9789V2.49143ZM33.2752 0V0.754287H34.0203V5.02857H33.3881V5.66857H19.4351V5.02857H18.8029V0.754287H19.548V0H33.2752ZM24.3796 8.70857H18.6223V8.13714H18.0578V6.74286H18.6223V6.17143H34.2009V6.74286H34.7654V8.13714H34.2009V8.70857H28.4436V9.18857H33.4784V9.73714H34.0203V13.8057H33.4784V14.3543H22.8217V14.7886H33.4784V15.3371H34.0203V16.5943H33.4784V17.1429H19.3448V16.5943H18.8029V12.5714H19.3448V12H29.9789V11.5429H19.3448V10.9943H18.8029V9.73714H19.3448V9.18857H24.3796V8.70857Z" fill="white"/>
<path d="M42.4374 13.6229H36.8607V12.8914H36.1156V10.7657H36.8607V10.0114H52.0781V10.7657H52.8232V12.8914H52.0781V13.6229H46.5014V16.3886H45.7564V17.1429H43.1825V16.3886H42.4374V13.6229ZM48.4431 3.63429V4.20571H49.1656V4.61714H49.8881V5.02857H50.588V5.53143H51.3105V6.12572H52.0104V8.41143H51.3105V9.21143H49.1656V8.8H48.4205V8.38857H47.7206V7.97714H46.9981V7.58857H46.2756V7.17714H45.5757V6.76572H44.8532V6.35429H44.1082V6.76572H43.3631V7.17714H42.6632V7.58857H41.9633V7.97714H41.2182V8.38857H40.5183V8.8H39.8184V9.21143H37.6283V8.41143H36.9284V6.12572H37.6283V5.53143H38.3734V5.02857H39.0733V4.61714H39.7732V4.20571H40.4957V3.63429L37.6735 3.61143V2.85714H36.9284V0.754287H37.6735V0H51.2653V0.754287H52.0104V2.85714H51.2653V3.61143L48.4431 3.63429Z" fill="white"/>
<path d="M65.8236 6.94857V5.53143H59.2309V6.94857H65.8236ZM64.5592 13.0743H70.136V13.8286H70.881V15.9314H70.136V16.6857H54.9185V15.9314H54.1735V13.8286H54.9185V13.0743H60.4952V10.5371H55.8894V9.78286H55.1443V0.754287H55.8894V0H58.4632V0.754287H59.2309V1.80572H65.8236V0.754287H66.5687V0H69.1425V0.754287H69.9102V9.78286H69.1425V10.5371H64.5592V13.0743Z" fill="white"/>
<path d="M84.8071 0H87.3584V0.754287H88.0809V6.74286H89.2549V7.49714H90V9.64572H89.2549V10.4H88.0809V16.3886H87.3584V17.1429H84.8071V16.3886H84.062V0.754287H84.8071V0ZM81.0592 0V0.754287H81.8043V2.88H81.0592V3.63429H76.4985V12.7771H81.0592V13.5314H81.8043V15.6571H81.0592V16.4114H73.2021V15.6571H72.4571V0.754287H73.2021V0H81.0592Z" fill="white"/>
<path d="M12.6719 36.96V36.5029H13.1912V36.1143H12.6719V35.6343H5.85338V36.1143H5.31151V36.5029H5.85338V36.96H12.6719ZM2.94085 23.6114H3.70849V22.8571H5.78565V23.6114H6.53071V26.5143H7.18547V27.1771H7.74991V27.8171H8.38209V28.48H8.99169V31.2H8.38209V31.7714H6.46298V31.2H5.76307V30.6286H5.08574V30.08H4.36325V30.6057H4.34067V30.6286H3.68591V31.2H2.986V31.7714H1.06689V31.2H0.479866V28.48H1.06689V27.8171H1.69907V27.1771H2.30867V26.5143H2.94085V23.6114ZM14.7942 40H3.66333V39.2914H2.91827V38.5143H2.1732V37.7143H1.60876V34.88H2.1732V34.08H2.91827V33.3029H3.66333V32.6171H14.7942V33.3029H15.5618V34.08H16.3069V34.88H16.8713V37.7143H16.3069V38.5143H15.5618V39.2914H14.7942V40ZM13.6879 25.6229V23.4971H14.3652V22.8571H16.4198V23.4971H17.0971V31.1314H16.4198V31.7714H14.3652V31.1314H13.6879V29.0057H12.9202V31.1314H12.2429V31.7714H10.1883V31.1314H9.51098V23.4971H10.1883V22.8571H12.2429V23.4971H12.9202V25.6229H13.6879Z" fill="white"/>
<path d="M33.7325 22.8571V23.6114H34.4776V30.1257H33.7325V30.88H31.1587V30.1257H30.4136V23.6114H31.1587V22.8571H33.7325ZM24.882 27.2914V26.4457H24.2499V25.8971H22.8275V26.4457H22.1953V27.2914H22.8275V27.8171H24.2499V27.2914H24.882ZM27.8172 25.12H28.5622V28.5943H27.8172V29.3714H27.0721V30.1257H26.327V30.88H20.7729V30.1257H20.0278V29.3714H19.2828V28.5943H18.5151V25.12H19.2828V24.3657H20.0278V23.6114H20.7729V22.8571H26.327V23.6114H27.0721V24.3657H27.8172V25.12ZM23.279 36.9371V37.5314H33.868V38.1257H34.4776V39.4057H33.868V40H19.8698V39.4057H19.2602V35.0629H19.8698V34.4914H30.4362V33.8971H19.8698V33.3029H19.2602V32H19.8698V31.4286H33.868V32H34.4776V36.3429H33.868V36.9371H23.279Z" fill="white"/>
<path d="M51.7904 40H38.0631V39.2457H37.318V34.4H38.0631V33.6457H40.6143V34.4H41.3594V36.3657H51.7904V37.12H52.5354V39.2457H51.7904V40ZM48.4714 28.64H46.8232V27.9543H46.1233V25.9886H46.8232V25.3257H48.4714V23.6114H49.2165V22.8571H51.7904V23.6114H52.5354V31.9314H51.7904V32.6857H49.2165V31.9314H48.4714V28.64ZM43.6398 26.56H44.272V27.2229H44.9267V27.8857H45.5815V28.5486H46.2362V29.2114H46.891V31.9543H46.2362V32.6171H44.0462V31.9543H43.3914V31.2914H42.7367V30.6286H42.0819V29.9657H41.0885V30.6286H40.4337V31.2914H39.779V31.9543H39.1242V32.6171H36.9342V31.9543H36.2794V29.2114H36.9342V28.5486H37.5889V27.8857H38.2437V27.2229H38.8984V26.56H39.5306V23.6343H40.2983V22.8571H42.8721V23.6343H43.6398V26.56Z" fill="white"/>
<path d="M66.326 25.3486H59.1915V26.0343H66.326V25.3486ZM69.6224 22.8571V23.6114H70.3675V27.8857H69.7353V28.5257H55.7822V27.8857H55.15V23.6114H55.8951V22.8571H69.6224ZM60.7268 31.5657H54.9694V30.9943H54.405V29.6H54.9694V29.0286H70.5481V29.6H71.1125V30.9943H70.5481V31.5657H64.7908V32.0457H69.8256V32.5943H70.3675V36.6629H69.8256V37.2114H59.1689V37.6457H69.8256V38.1943H70.3675V39.4514H69.8256V40H55.6919V39.4514H55.15V35.4286H55.6919V34.8571H66.326V34.4H55.6919V33.8514H55.15V32.5943H55.6919V32.0457H60.7268V31.5657Z" fill="white"/>
<path d="M78.7846 36.48H73.2079V35.7486H72.4628V33.6229H73.2079V32.8686H88.4253V33.6229H89.1703V35.7486H88.4253V36.48H82.8486V39.2457H82.1035V40H79.5296V39.2457H78.7846V36.48ZM84.7903 26.4914V27.0629H85.5128V27.4743H86.2352V27.8857H86.9352V28.3886H87.6576V28.9829H88.3576V31.2686H87.6576V32.0686H85.5128V31.6571H84.7677V31.2457H84.0678V30.8343H83.3453V30.4457H82.6228V30.0343H81.9229V29.6229H81.2004V29.2114H80.4553V29.6229H79.7103V30.0343H79.0103V30.4457H78.3104V30.8343H77.5654V31.2457H76.8655V31.6571H76.1656V32.0686H73.9755V31.2686H73.2756V28.9829H73.9755V28.3886H74.7206V27.8857H75.4205V27.4743H76.1204V27.0629H76.8429V26.4914L74.0207 26.4686V25.7143H73.2756V23.6114H74.0207V22.8571H87.6125V23.6114H88.3576V25.7143H87.6125V26.4686L84.7903 26.4914Z" fill="white"/>
</g>
</svg>
