<svg width="239" height="62" viewBox="0 0 239 62" fill="none" xmlns="http://www.w3.org/2000/svg">
<path d="M3 3H236V47H3V3Z" fill="white"/>
<rect width="15" height="6" transform="matrix(1 0 0 -1 96 53)" fill="white"/>
<rect width="12" height="6" transform="matrix(1 0 0 -1 102 59)" fill="white"/>
<rect y="6" width="3" height="38" fill="#00ABFF"/>
<rect x="236" y="6" width="3" height="38" fill="#00ABFF"/>
<rect x="3" y="3" width="8" height="3" fill="#00ABFF"/>
<rect x="3" y="44" width="8" height="3" fill="#00ABFF"/>
<rect x="228" y="44" width="8" height="3" fill="#00ABFF"/>
<rect x="228" y="3" width="8" height="3" fill="#00ABFF"/>
<rect x="105" y="59" width="12" height="3" fill="#00ABFF"/>
<rect x="96" y="50" width="3" height="3" fill="#00ABFF"/>
<rect x="99" y="53" width="3" height="3" fill="#00ABFF"/>
<rect x="102" y="56" width="3" height="3" fill="#00ABFF"/>
<rect width="3" height="3" transform="matrix(-1 0 0 1 117 56)" fill="#00ABFF"/>
<rect width="3" height="3" transform="matrix(-1 0 0 1 114 53)" fill="#00ABFF"/>
<rect width="3" height="3" transform="matrix(-1 0 0 1 111 50)" fill="#00ABFF"/>
<rect x="111" y="47" width="117" height="3" fill="#00ABFF"/>
<rect x="96" y="47" width="3" height="85" transform="rotate(90 96 47)" fill="#00ABFF"/>
<rect x="228" width="3.00001" height="217" transform="rotate(90 228 0)" fill="#00ABFF"/>
<path d="M28.6621 19.1667H29.8288V32H28.6621V25H26.3288V23.8333H28.6621V19.1667ZM18.1621 30.8333V29.6667H19.3288V30.8333H18.1621ZM20.4954 29.6667H19.3288V27.3333H20.4954V29.6667ZM20.4954 27.3333V25H21.6621V27.3333H20.4954ZM22.8288 27.3333V25H23.9954V27.3333H22.8288ZM22.8288 25H21.6621V19.1667H22.8288V25ZM25.1621 29.6667H23.9954V27.3333H25.1621V29.6667ZM25.1621 30.8333V29.6667H26.3288V30.8333H25.1621ZM42.6621 19.1667H43.8288V32H42.6621V19.1667ZM32.1621 30.8333V19.1667H33.3288V23.8333H39.1621V19.1667H40.3288V30.8333H32.1621ZM33.3288 29.6667H39.1621V25H33.3288V29.6667ZM46.1621 30.8333V29.6667H58.9954V30.8333H46.1621ZM56.6621 26.1667H55.4954V25H56.6621V26.1667ZM56.6621 27.3333V26.1667H57.8288V27.3333H56.6621ZM48.4954 26.1667V27.3333H47.3288V26.1667H48.4954ZM48.4954 25H49.6621V26.1667H48.4954V25ZM50.8288 23.8333V25H49.6621V23.8333H50.8288ZM50.8288 22.6667H51.9954V23.8333H50.8288V22.6667ZM53.1621 23.8333V22.6667H54.3288V23.8333H53.1621ZM53.1621 22.6667H51.9954V19.1667H53.1621V22.6667ZM55.4954 23.8333V25H54.3288V23.8333H55.4954ZM76.5 19.1667H77.6667V32H76.5V19.1667ZM66 28.5V21.5H67.1667V28.5H66ZM68.3333 29.6667H67.1667V28.5H68.3333V29.6667ZM68.3333 30.8333V29.6667H71.8333V30.8333H68.3333ZM68.3333 20.3333V21.5H67.1667V20.3333H68.3333ZM68.3333 19.1667H71.8333V20.3333H68.3333V19.1667ZM73 29.6667H71.8333V28.5H73V29.6667ZM73 28.5V21.5H74.1667V28.5H73ZM73 20.3333V21.5H71.8333V20.3333H73ZM90.5 19.1667V20.3333H82.3333V19.1667H90.5ZM80 26.1667V25H83.5V23.8333H82.3333V22.6667H90.5V23.8333H89.3333V25H92.8333V26.1667H80ZM90.5 30.8333V32H82.3333V30.8333H90.5ZM90.5 27.3333V28.5H82.3333V27.3333H90.5ZM90.5 28.5H91.6667V30.8333H90.5V28.5ZM90.5 20.3333H91.6667V22.6667H90.5V20.3333ZM82.3333 30.8333H81.1667V28.5H82.3333V30.8333ZM82.3333 20.3333V22.6667H81.1667V20.3333H82.3333ZM84.6667 23.8333V25H88.1667V23.8333H84.6667ZM104.5 19.1667H105.667V32H104.5V26.1667H103.333V32H102.167V22.6667H94V21.5H102.167V19.1667H103.333V25H104.5V19.1667ZM96.3333 29.6667H95.1667V25H96.3333V29.6667ZM96.3333 30.8333V29.6667H99.8333V30.8333H96.3333ZM96.3333 25V23.8333H99.8333V25H96.3333ZM96.3333 20.3333V19.1667H99.8333V20.3333H96.3333ZM101 29.6667H99.8333V25H101V29.6667ZM118.5 19.1667H119.667V32H118.5V29.6667H115V28.5H118.5V19.1667ZM108 27.3333V26.1667H117.333V27.3333H112.667V32H111.5V27.3333H108ZM108 25V23.8333H110.333V25H108ZM108 20.3333V19.1667H116.167V20.3333H112.667V22.6667H111.5V20.3333H108ZM110.333 23.8333V22.6667H111.5V23.8333H110.333ZM112.667 23.8333V22.6667H113.833V23.8333H112.667ZM113.833 23.8333H116.167V25H113.833V23.8333ZM132.5 19.1667H133.667V32H132.5V25H130.167V23.8333H132.5V19.1667ZM122 30.8333V29.6667H123.167V30.8333H122ZM124.333 29.6667H123.167V27.3333H124.333V29.6667ZM124.333 27.3333V25H125.5V27.3333H124.333ZM126.667 27.3333V25H127.833V27.3333H126.667ZM126.667 25H125.5V19.1667H126.667V25ZM129 29.6667H127.833V27.3333H129V29.6667ZM129 30.8333V29.6667H130.167V30.8333H129ZM141.838 30.8333V29.6667H147.671V25H148.838V29.6667H154.671V30.8333H141.838ZM143.005 19.1667H153.505V27.3333H152.338V20.3333H143.005V19.1667ZM151.171 28.5V27.3333H152.338V28.5H151.171ZM166.338 19.1667H167.505V25H168.671V26.1667H167.505V32H166.338V19.1667ZM155.838 30.8333V19.1667H164.005V30.8333H155.838ZM157.005 29.6667H162.838V20.3333H157.005V29.6667ZM180.338 19.1667H181.505V32H180.338V29.6667H176.838V28.5H180.338V19.1667ZM169.838 27.3333V26.1667H179.171V27.3333H174.505V32H173.338V27.3333H169.838ZM172.171 23.8333H171.005V20.3333H172.171V23.8333ZM172.171 25V23.8333H176.838V25H172.171ZM172.171 20.3333V19.1667H176.838V20.3333H172.171ZM176.838 23.8333V20.3333H178.005V23.8333H176.838ZM183.838 30.8333V29.6667H187.338V26.1667H193.171V29.6667H196.671V30.8333H183.838ZM194.338 26.1667H193.171V25H194.338V26.1667ZM194.338 25V21.5H195.505V25H194.338ZM194.338 20.3333V21.5H193.171V20.3333H194.338ZM186.171 26.1667V25H187.338V26.1667H186.171ZM186.171 25H185.005V21.5H186.171V25ZM186.171 21.5V20.3333H187.338V21.5H186.171ZM188.505 29.6667H192.005V27.3333H188.505V29.6667ZM193.171 20.3333H187.338V19.1667H193.171V20.3333Z" fill="#00ABFF"/>
<path d="M28.6621 19.1667V19.0667H28.5621V19.1667H28.6621ZM29.8288 19.1667H29.9288V19.0667H29.8288V19.1667ZM29.8288 32V32.1H29.9288V32H29.8288ZM28.6621 32H28.5621V32.1H28.6621V32ZM28.6621 25H28.7621V24.9H28.6621V25ZM26.3288 25H26.2288V25.1H26.3288V25ZM26.3288 23.8333V23.7333H26.2288V23.8333H26.3288ZM28.6621 23.8333V23.9333H28.7621V23.8333H28.6621ZM18.1621 30.8333H18.0621V30.9333H18.1621V30.8333ZM18.1621 29.6667V29.5667H18.0621V29.6667H18.1621ZM19.3288 29.6667H19.4288V29.5667H19.3288V29.6667ZM19.3288 30.8333V30.9333H19.4288V30.8333H19.3288ZM20.4954 29.6667V29.7667H20.5954V29.6667H20.4954ZM19.3288 29.6667H19.2288V29.7667H19.3288V29.6667ZM19.3288 27.3333V27.2333H19.2288V27.3333H19.3288ZM20.4954 27.3333H20.5954V27.2333H20.4954V27.3333ZM20.4954 27.3333H20.3954V27.4333H20.4954V27.3333ZM20.4954 25V24.9H20.3954V25H20.4954ZM21.6621 25H21.7621V24.9H21.6621V25ZM21.6621 27.3333V27.4333H21.7621V27.3333H21.6621ZM22.8288 27.3333H22.7288V27.4333H22.8288V27.3333ZM22.8288 25V24.9H22.7288V25H22.8288ZM23.9954 25H24.0954V24.9H23.9954V25ZM23.9954 27.3333V27.4333H24.0954V27.3333H23.9954ZM22.8288 25V25.1H22.9288V25H22.8288ZM21.6621 25H21.5621V25.1H21.6621V25ZM21.6621 19.1667V19.0667H21.5621V19.1667H21.6621ZM22.8288 19.1667H22.9288V19.0667H22.8288V19.1667ZM25.1621 29.6667V29.7667H25.2621V29.6667H25.1621ZM23.9954 29.6667H23.8954V29.7667H23.9954V29.6667ZM23.9954 27.3333V27.2333H23.8954V27.3333H23.9954ZM25.1621 27.3333H25.2621V27.2333H25.1621V27.3333ZM25.1621 30.8333H25.0621V30.9333H25.1621V30.8333ZM25.1621 29.6667V29.5667H25.0621V29.6667H25.1621ZM26.3288 29.6667H26.4288V29.5667H26.3288V29.6667ZM26.3288 30.8333V30.9333H26.4288V30.8333H26.3288ZM28.6621 19.2667H29.8288V19.0667H28.6621V19.2667ZM29.7288 19.1667V32H29.9288V19.1667H29.7288ZM29.8288 31.9H28.6621V32.1H29.8288V31.9ZM28.7621 32V25H28.5621V32H28.7621ZM28.6621 24.9H26.3288V25.1H28.6621V24.9ZM26.4288 25V23.8333H26.2288V25H26.4288ZM26.3288 23.9333H28.6621V23.7333H26.3288V23.9333ZM28.7621 23.8333V19.1667H28.5621V23.8333H28.7621ZM18.2621 30.8333V29.6667H18.0621V30.8333H18.2621ZM18.1621 29.7667H19.3288V29.5667H18.1621V29.7667ZM19.2288 29.6667V30.8333H19.4288V29.6667H19.2288ZM19.3288 30.7333H18.1621V30.9333H19.3288V30.7333ZM20.4954 29.5667H19.3288V29.7667H20.4954V29.5667ZM19.4288 29.6667V27.3333H19.2288V29.6667H19.4288ZM19.3288 27.4333H20.4954V27.2333H19.3288V27.4333ZM20.3954 27.3333V29.6667H20.5954V27.3333H20.3954ZM20.5954 27.3333V25H20.3954V27.3333H20.5954ZM20.4954 25.1H21.6621V24.9H20.4954V25.1ZM21.5621 25V27.3333H21.7621V25H21.5621ZM21.6621 27.2333H20.4954V27.4333H21.6621V27.2333ZM22.9288 27.3333V25H22.7288V27.3333H22.9288ZM22.8288 25.1H23.9954V24.9H22.8288V25.1ZM23.8954 25V27.3333H24.0954V25H23.8954ZM23.9954 27.2333H22.8288V27.4333H23.9954V27.2333ZM22.8288 24.9H21.6621V25.1H22.8288V24.9ZM21.7621 25V19.1667H21.5621V25H21.7621ZM21.6621 19.2667H22.8288V19.0667H21.6621V19.2667ZM22.7288 19.1667V25H22.9288V19.1667H22.7288ZM25.1621 29.5667H23.9954V29.7667H25.1621V29.5667ZM24.0954 29.6667V27.3333H23.8954V29.6667H24.0954ZM23.9954 27.4333H25.1621V27.2333H23.9954V27.4333ZM25.0621 27.3333V29.6667H25.2621V27.3333H25.0621ZM25.2621 30.8333V29.6667H25.0621V30.8333H25.2621ZM25.1621 29.7667H26.3288V29.5667H25.1621V29.7667ZM26.2288 29.6667V30.8333H26.4288V29.6667H26.2288ZM26.3288 30.7333H25.1621V30.9333H26.3288V30.7333ZM42.6621 19.1667V19.0667H42.5621V19.1667H42.6621ZM43.8288 19.1667H43.9288V19.0667H43.8288V19.1667ZM43.8288 32V32.1H43.9288V32H43.8288ZM42.6621 32H42.5621V32.1H42.6621V32ZM32.1621 30.8333H32.0621V30.9333H32.1621V30.8333ZM32.1621 19.1667V19.0667H32.0621V19.1667H32.1621ZM33.3288 19.1667H33.4288V19.0667H33.3288V19.1667ZM33.3288 23.8333H33.2288V23.9333H33.3288V23.8333ZM39.1621 23.8333V23.9333H39.2621V23.8333H39.1621ZM39.1621 19.1667V19.0667H39.0621V19.1667H39.1621ZM40.3288 19.1667H40.4288V19.0667H40.3288V19.1667ZM40.3288 30.8333V30.9333H40.4288V30.8333H40.3288ZM33.3288 29.6667H33.2288V29.7667H33.3288V29.6667ZM39.1621 29.6667V29.7667H39.2621V29.6667H39.1621ZM39.1621 25H39.2621V24.9H39.1621V25ZM33.3288 25V24.9H33.2288V25H33.3288ZM42.6621 19.2667H43.8288V19.0667H42.6621V19.2667ZM43.7288 19.1667V32H43.9288V19.1667H43.7288ZM43.8288 31.9H42.6621V32.1H43.8288V31.9ZM42.7621 32V19.1667H42.5621V32H42.7621ZM32.2621 30.8333V19.1667H32.0621V30.8333H32.2621ZM32.1621 19.2667H33.3288V19.0667H32.1621V19.2667ZM33.2288 19.1667V23.8333H33.4288V19.1667H33.2288ZM33.3288 23.9333H39.1621V23.7333H33.3288V23.9333ZM39.2621 23.8333V19.1667H39.0621V23.8333H39.2621ZM39.1621 19.2667H40.3288V19.0667H39.1621V19.2667ZM40.2288 19.1667V30.8333H40.4288V19.1667H40.2288ZM40.3288 30.7333H32.1621V30.9333H40.3288V30.7333ZM33.3288 29.7667H39.1621V29.5667H33.3288V29.7667ZM39.2621 29.6667V25H39.0621V29.6667H39.2621ZM39.1621 24.9H33.3288V25.1H39.1621V24.9ZM33.2288 25V29.6667H33.4288V25H33.2288ZM46.1621 30.8333H46.0621V30.9333H46.1621V30.8333ZM46.1621 29.6667V29.5667H46.0621V29.6667H46.1621ZM58.9954 29.6667H59.0954V29.5667H58.9954V29.6667ZM58.9954 30.8333V30.9333H59.0954V30.8333H58.9954ZM56.6621 26.1667V26.2667H56.7621V26.1667H56.6621ZM55.4954 26.1667H55.3954V26.2667H55.4954V26.1667ZM55.4954 25V24.9H55.3954V25H55.4954ZM56.6621 25H56.7621V24.9H56.6621V25ZM56.6621 27.3333H56.5621V27.4333H56.6621V27.3333ZM56.6621 26.1667V26.0667H56.5621V26.1667H56.6621ZM57.8288 26.1667H57.9288V26.0667H57.8288V26.1667ZM57.8288 27.3333V27.4333H57.9288V27.3333H57.8288ZM48.4954 26.1667H48.5954V26.0667H48.4954V26.1667ZM48.4954 27.3333V27.4333H48.5954V27.3333H48.4954ZM47.3288 27.3333H47.2288V27.4333H47.3288V27.3333ZM47.3288 26.1667V26.0667H47.2288V26.1667H47.3288ZM48.4954 25V24.9H48.3954V25H48.4954ZM49.6621 25H49.7621V24.9H49.6621V25ZM49.6621 26.1667V26.2667H49.7621V26.1667H49.6621ZM48.4954 26.1667H48.3954V26.2667H48.4954V26.1667ZM50.8288 23.8333H50.9288V23.7333H50.8288V23.8333ZM50.8288 25V25.1H50.9288V25H50.8288ZM49.6621 25H49.5621V25.1H49.6621V25ZM49.6621 23.8333V23.7333H49.5621V23.8333H49.6621ZM50.8288 22.6667V22.5667H50.7288V22.6667H50.8288ZM51.9954 22.6667H52.0954V22.5667H51.9954V22.6667ZM51.9954 23.8333V23.9333H52.0954V23.8333H51.9954ZM50.8288 23.8333H50.7288V23.9333H50.8288V23.8333ZM53.1621 23.8333H53.0621V23.9333H53.1621V23.8333ZM53.1621 22.6667V22.5667H53.0621V22.6667H53.1621ZM54.3288 22.6667H54.4288V22.5667H54.3288V22.6667ZM54.3288 23.8333V23.9333H54.4288V23.8333H54.3288ZM53.1621 22.6667V22.7667H53.2621V22.6667H53.1621ZM51.9954 22.6667H51.8954V22.7667H51.9954V22.6667ZM51.9954 19.1667V19.0667H51.8954V19.1667H51.9954ZM53.1621 19.1667H53.2621V19.0667H53.1621V19.1667ZM55.4954 23.8333H55.5954V23.7333H55.4954V23.8333ZM55.4954 25V25.1H55.5954V25H55.4954ZM54.3288 25H54.2288V25.1H54.3288V25ZM54.3288 23.8333V23.7333H54.2288V23.8333H54.3288ZM46.2621 30.8333V29.6667H46.0621V30.8333H46.2621ZM46.1621 29.7667H58.9954V29.5667H46.1621V29.7667ZM58.8954 29.6667V30.8333H59.0954V29.6667H58.8954ZM58.9954 30.7333H46.1621V30.9333H58.9954V30.7333ZM56.6621 26.0667H55.4954V26.2667H56.6621V26.0667ZM55.5954 26.1667V25H55.3954V26.1667H55.5954ZM55.4954 25.1H56.6621V24.9H55.4954V25.1ZM56.5621 25V26.1667H56.7621V25H56.5621ZM56.7621 27.3333V26.1667H56.5621V27.3333H56.7621ZM56.6621 26.2667H57.8288V26.0667H56.6621V26.2667ZM57.7288 26.1667V27.3333H57.9288V26.1667H57.7288ZM57.8288 27.2333H56.6621V27.4333H57.8288V27.2333ZM48.3954 26.1667V27.3333H48.5954V26.1667H48.3954ZM48.4954 27.2333H47.3288V27.4333H48.4954V27.2333ZM47.4288 27.3333V26.1667H47.2288V27.3333H47.4288ZM47.3288 26.2667H48.4954V26.0667H47.3288V26.2667ZM48.4954 25.1H49.6621V24.9H48.4954V25.1ZM49.5621 25V26.1667H49.7621V25H49.5621ZM49.6621 26.0667H48.4954V26.2667H49.6621V26.0667ZM48.5954 26.1667V25H48.3954V26.1667H48.5954ZM50.7288 23.8333V25H50.9288V23.8333H50.7288ZM50.8288 24.9H49.6621V25.1H50.8288V24.9ZM49.7621 25V23.8333H49.5621V25H49.7621ZM49.6621 23.9333H50.8288V23.7333H49.6621V23.9333ZM50.8288 22.7667H51.9954V22.5667H50.8288V22.7667ZM51.8954 22.6667V23.8333H52.0954V22.6667H51.8954ZM51.9954 23.7333H50.8288V23.9333H51.9954V23.7333ZM50.9288 23.8333V22.6667H50.7288V23.8333H50.9288ZM53.2621 23.8333V22.6667H53.0621V23.8333H53.2621ZM53.1621 22.7667H54.3288V22.5667H53.1621V22.7667ZM54.2288 22.6667V23.8333H54.4288V22.6667H54.2288ZM54.3288 23.7333H53.1621V23.9333H54.3288V23.7333ZM53.1621 22.5667H51.9954V22.7667H53.1621V22.5667ZM52.0954 22.6667V19.1667H51.8954V22.6667H52.0954ZM51.9954 19.2667H53.1621V19.0667H51.9954V19.2667ZM53.0621 19.1667V22.6667H53.2621V19.1667H53.0621ZM55.3954 23.8333V25H55.5954V23.8333H55.3954ZM55.4954 24.9H54.3288V25.1H55.4954V24.9ZM54.4288 25V23.8333H54.2288V25H54.4288ZM54.3288 23.9333H55.4954V23.7333H54.3288V23.9333ZM76.5 19.1667V19.0667H76.4V19.1667H76.5ZM77.6667 19.1667H77.7667V19.0667H77.6667V19.1667ZM77.6667 32V32.1H77.7667V32H77.6667ZM76.5 32H76.4V32.1H76.5V32ZM66 28.5H65.9V28.6H66V28.5ZM66 21.5V21.4H65.9V21.5H66ZM67.1667 21.5H67.2667V21.4H67.1667V21.5ZM67.1667 28.5V28.6H67.2667V28.5H67.1667ZM68.3333 29.6667V29.7667H68.4333V29.6667H68.3333ZM67.1667 29.6667H67.0667V29.7667H67.1667V29.6667ZM67.1667 28.5V28.4H67.0667V28.5H67.1667ZM68.3333 28.5H68.4333V28.4H68.3333V28.5ZM68.3333 30.8333H68.2333V30.9333H68.3333V30.8333ZM68.3333 29.6667V29.5667H68.2333V29.6667H68.3333ZM71.8333 29.6667H71.9333V29.5667H71.8333V29.6667ZM71.8333 30.8333V30.9333H71.9333V30.8333H71.8333ZM68.3333 20.3333H68.4333V20.2333H68.3333V20.3333ZM68.3333 21.5V21.6H68.4333V21.5H68.3333ZM67.1667 21.5H67.0667V21.6H67.1667V21.5ZM67.1667 20.3333V20.2333H67.0667V20.3333H67.1667ZM68.3333 19.1667V19.0667H68.2333V19.1667H68.3333ZM71.8333 19.1667H71.9333V19.0667H71.8333V19.1667ZM71.8333 20.3333V20.4333H71.9333V20.3333H71.8333ZM68.3333 20.3333H68.2333V20.4333H68.3333V20.3333ZM73 29.6667V29.7667H73.1V29.6667H73ZM71.8333 29.6667H71.7333V29.7667H71.8333V29.6667ZM71.8333 28.5V28.4H71.7333V28.5H71.8333ZM73 28.5H73.1V28.4H73V28.5ZM73 28.5H72.9V28.6H73V28.5ZM73 21.5V21.4H72.9V21.5H73ZM74.1667 21.5H74.2667V21.4H74.1667V21.5ZM74.1667 28.5V28.6H74.2667V28.5H74.1667ZM73 20.3333H73.1V20.2333H73V20.3333ZM73 21.5V21.6H73.1V21.5H73ZM71.8333 21.5H71.7333V21.6H71.8333V21.5ZM71.8333 20.3333V20.2333H71.7333V20.3333H71.8333ZM76.5 19.2667H77.6667V19.0667H76.5V19.2667ZM77.5667 19.1667V32H77.7667V19.1667H77.5667ZM77.6667 31.9H76.5V32.1H77.6667V31.9ZM76.6 32V19.1667H76.4V32H76.6ZM66.1 28.5V21.5H65.9V28.5H66.1ZM66 21.6H67.1667V21.4H66V21.6ZM67.0667 21.5V28.5H67.2667V21.5H67.0667ZM67.1667 28.4H66V28.6H67.1667V28.4ZM68.3333 29.5667H67.1667V29.7667H68.3333V29.5667ZM67.2667 29.6667V28.5H67.0667V29.6667H67.2667ZM67.1667 28.6H68.3333V28.4H67.1667V28.6ZM68.2333 28.5V29.6667H68.4333V28.5H68.2333ZM68.4333 30.8333V29.6667H68.2333V30.8333H68.4333ZM68.3333 29.7667H71.8333V29.5667H68.3333V29.7667ZM71.7333 29.6667V30.8333H71.9333V29.6667H71.7333ZM71.8333 30.7333H68.3333V30.9333H71.8333V30.7333ZM68.2333 20.3333V21.5H68.4333V20.3333H68.2333ZM68.3333 21.4H67.1667V21.6H68.3333V21.4ZM67.2667 21.5V20.3333H67.0667V21.5H67.2667ZM67.1667 20.4333H68.3333V20.2333H67.1667V20.4333ZM68.3333 19.2667H71.8333V19.0667H68.3333V19.2667ZM71.7333 19.1667V20.3333H71.9333V19.1667H71.7333ZM71.8333 20.2333H68.3333V20.4333H71.8333V20.2333ZM68.4333 20.3333V19.1667H68.2333V20.3333H68.4333ZM73 29.5667H71.8333V29.7667H73V29.5667ZM71.9333 29.6667V28.5H71.7333V29.6667H71.9333ZM71.8333 28.6H73V28.4H71.8333V28.6ZM72.9 28.5V29.6667H73.1V28.5H72.9ZM73.1 28.5V21.5H72.9V28.5H73.1ZM73 21.6H74.1667V21.4H73V21.6ZM74.0667 21.5V28.5H74.2667V21.5H74.0667ZM74.1667 28.4H73V28.6H74.1667V28.4ZM72.9 20.3333V21.5H73.1V20.3333H72.9ZM73 21.4H71.8333V21.6H73V21.4ZM71.9333 21.5V20.3333H71.7333V21.5H71.9333ZM71.8333 20.4333H73V20.2333H71.8333V20.4333ZM90.5 19.1667H90.6V19.0667H90.5V19.1667ZM90.5 20.3333V20.4333H90.6V20.3333H90.5ZM82.3333 20.3333H82.2333V20.4333H82.3333V20.3333ZM82.3333 19.1667V19.0667H82.2333V19.1667H82.3333ZM80 26.1667H79.9V26.2667H80V26.1667ZM80 25V24.9H79.9V25H80ZM83.5 25V25.1H83.6V25H83.5ZM83.5 23.8333H83.6V23.7333H83.5V23.8333ZM82.3333 23.8333H82.2333V23.9333H82.3333V23.8333ZM82.3333 22.6667V22.5667H82.2333V22.6667H82.3333ZM90.5 22.6667H90.6V22.5667H90.5V22.6667ZM90.5 23.8333V23.9333H90.6V23.8333H90.5ZM89.3333 23.8333V23.7333H89.2333V23.8333H89.3333ZM89.3333 25H89.2333V25.1H89.3333V25ZM92.8333 25H92.9333V24.9H92.8333V25ZM92.8333 26.1667V26.2667H92.9333V26.1667H92.8333ZM90.5 30.8333H90.6V30.7333H90.5V30.8333ZM90.5 32V32.1H90.6V32H90.5ZM82.3333 32H82.2333V32.1H82.3333V32ZM82.3333 30.8333V30.7333H82.2333V30.8333H82.3333ZM90.5 27.3333H90.6V27.2333H90.5V27.3333ZM90.5 28.5V28.6H90.6V28.5H90.5ZM82.3333 28.5H82.2333V28.6H82.3333V28.5ZM82.3333 27.3333V27.2333H82.2333V27.3333H82.3333ZM90.5 28.5V28.4H90.4V28.5H90.5ZM91.6667 28.5H91.7667V28.4H91.6667V28.5ZM91.6667 30.8333V30.9333H91.7667V30.8333H91.6667ZM90.5 30.8333H90.4V30.9333H90.5V30.8333ZM90.5 20.3333V20.2333H90.4V20.3333H90.5ZM91.6667 20.3333H91.7667V20.2333H91.6667V20.3333ZM91.6667 22.6667V22.7667H91.7667V22.6667H91.6667ZM90.5 22.6667H90.4V22.7667H90.5V22.6667ZM82.3333 30.8333V30.9333H82.4333V30.8333H82.3333ZM81.1667 30.8333H81.0667V30.9333H81.1667V30.8333ZM81.1667 28.5V28.4H81.0667V28.5H81.1667ZM82.3333 28.5H82.4333V28.4H82.3333V28.5ZM82.3333 20.3333H82.4333V20.2333H82.3333V20.3333ZM82.3333 22.6667V22.7667H82.4333V22.6667H82.3333ZM81.1667 22.6667H81.0667V22.7667H81.1667V22.6667ZM81.1667 20.3333V20.2333H81.0667V20.3333H81.1667ZM84.6667 23.8333V23.7333H84.5667V23.8333H84.6667ZM84.6667 25H84.5667V25.1H84.6667V25ZM88.1667 25V25.1H88.2667V25H88.1667ZM88.1667 23.8333H88.2667V23.7333H88.1667V23.8333ZM90.4 19.1667V20.3333H90.6V19.1667H90.4ZM90.5 20.2333H82.3333V20.4333H90.5V20.2333ZM82.4333 20.3333V19.1667H82.2333V20.3333H82.4333ZM82.3333 19.2667H90.5V19.0667H82.3333V19.2667ZM80.1 26.1667V25H79.9V26.1667H80.1ZM80 25.1H83.5V24.9H80V25.1ZM83.6 25V23.8333H83.4V25H83.6ZM83.5 23.7333H82.3333V23.9333H83.5V23.7333ZM82.4333 23.8333V22.6667H82.2333V23.8333H82.4333ZM82.3333 22.7667H90.5V22.5667H82.3333V22.7667ZM90.4 22.6667V23.8333H90.6V22.6667H90.4ZM90.5 23.7333H89.3333V23.9333H90.5V23.7333ZM89.2333 23.8333V25H89.4333V23.8333H89.2333ZM89.3333 25.1H92.8333V24.9H89.3333V25.1ZM92.7333 25V26.1667H92.9333V25H92.7333ZM92.8333 26.0667H80V26.2667H92.8333V26.0667ZM90.4 30.8333V32H90.6V30.8333H90.4ZM90.5 31.9H82.3333V32.1H90.5V31.9ZM82.4333 32V30.8333H82.2333V32H82.4333ZM82.3333 30.9333H90.5V30.7333H82.3333V30.9333ZM90.4 27.3333V28.5H90.6V27.3333H90.4ZM90.5 28.4H82.3333V28.6H90.5V28.4ZM82.4333 28.5V27.3333H82.2333V28.5H82.4333ZM82.3333 27.4333H90.5V27.2333H82.3333V27.4333ZM90.5 28.6H91.6667V28.4H90.5V28.6ZM91.5667 28.5V30.8333H91.7667V28.5H91.5667ZM91.6667 30.7333H90.5V30.9333H91.6667V30.7333ZM90.6 30.8333V28.5H90.4V30.8333H90.6ZM90.5 20.4333H91.6667V20.2333H90.5V20.4333ZM91.5667 20.3333V22.6667H91.7667V20.3333H91.5667ZM91.6667 22.5667H90.5V22.7667H91.6667V22.5667ZM90.6 22.6667V20.3333H90.4V22.6667H90.6ZM82.3333 30.7333H81.1667V30.9333H82.3333V30.7333ZM81.2667 30.8333V28.5H81.0667V30.8333H81.2667ZM81.1667 28.6H82.3333V28.4H81.1667V28.6ZM82.2333 28.5V30.8333H82.4333V28.5H82.2333ZM82.2333 20.3333V22.6667H82.4333V20.3333H82.2333ZM82.3333 22.5667H81.1667V22.7667H82.3333V22.5667ZM81.2667 22.6667V20.3333H81.0667V22.6667H81.2667ZM81.1667 20.4333H82.3333V20.2333H81.1667V20.4333ZM84.5667 23.8333V25H84.7667V23.8333H84.5667ZM84.6667 25.1H88.1667V24.9H84.6667V25.1ZM88.2667 25V23.8333H88.0667V25H88.2667ZM88.1667 23.7333H84.6667V23.9333H88.1667V23.7333ZM104.5 19.1667V19.0667H104.4V19.1667H104.5ZM105.667 19.1667H105.767V19.0667H105.667V19.1667ZM105.667 32V32.1H105.767V32H105.667ZM104.5 32H104.4V32.1H104.5V32ZM104.5 26.1667H104.6V26.0667H104.5V26.1667ZM103.333 26.1667V26.0667H103.233V26.1667H103.333ZM103.333 32V32.1H103.433V32H103.333ZM102.167 32H102.067V32.1H102.167V32ZM102.167 22.6667H102.267V22.5667H102.167V22.6667ZM94 22.6667H93.9V22.7667H94V22.6667ZM94 21.5V21.4H93.9V21.5H94ZM102.167 21.5V21.6H102.267V21.5H102.167ZM102.167 19.1667V19.0667H102.067V19.1667H102.167ZM103.333 19.1667H103.433V19.0667H103.333V19.1667ZM103.333 25H103.233V25.1H103.333V25ZM104.5 25V25.1H104.6V25H104.5ZM96.3333 29.6667V29.7667H96.4333V29.6667H96.3333ZM95.1667 29.6667H95.0667V29.7667H95.1667V29.6667ZM95.1667 25V24.9H95.0667V25H95.1667ZM96.3333 25H96.4333V24.9H96.3333V25ZM96.3333 30.8333H96.2333V30.9333H96.3333V30.8333ZM96.3333 29.6667V29.5667H96.2333V29.6667H96.3333ZM99.8333 29.6667H99.9333V29.5667H99.8333V29.6667ZM99.8333 30.8333V30.9333H99.9333V30.8333H99.8333ZM96.3333 25H96.2333V25.1H96.3333V25ZM96.3333 23.8333V23.7333H96.2333V23.8333H96.3333ZM99.8333 23.8333H99.9333V23.7333H99.8333V23.8333ZM99.8333 25V25.1H99.9333V25H99.8333ZM96.3333 20.3333H96.2333V20.4333H96.3333V20.3333ZM96.3333 19.1667V19.0667H96.2333V19.1667H96.3333ZM99.8333 19.1667H99.9333V19.0667H99.8333V19.1667ZM99.8333 20.3333V20.4333H99.9333V20.3333H99.8333ZM101 29.6667V29.7667H101.1V29.6667H101ZM99.8333 29.6667H99.7333V29.7667H99.8333V29.6667ZM99.8333 25V24.9H99.7333V25H99.8333ZM101 25H101.1V24.9H101V25ZM104.5 19.2667H105.667V19.0667H104.5V19.2667ZM105.567 19.1667V32H105.767V19.1667H105.567ZM105.667 31.9H104.5V32.1H105.667V31.9ZM104.6 32V26.1667H104.4V32H104.6ZM104.5 26.0667H103.333V26.2667H104.5V26.0667ZM103.233 26.1667V32H103.433V26.1667H103.233ZM103.333 31.9H102.167V32.1H103.333V31.9ZM102.267 32V22.6667H102.067V32H102.267ZM102.167 22.5667H94V22.7667H102.167V22.5667ZM94.1 22.6667V21.5H93.9V22.6667H94.1ZM94 21.6H102.167V21.4H94V21.6ZM102.267 21.5V19.1667H102.067V21.5H102.267ZM102.167 19.2667H103.333V19.0667H102.167V19.2667ZM103.233 19.1667V25H103.433V19.1667H103.233ZM103.333 25.1H104.5V24.9H103.333V25.1ZM104.6 25V19.1667H104.4V25H104.6ZM96.3333 29.5667H95.1667V29.7667H96.3333V29.5667ZM95.2667 29.6667V25H95.0667V29.6667H95.2667ZM95.1667 25.1H96.3333V24.9H95.1667V25.1ZM96.2333 25V29.6667H96.4333V25H96.2333ZM96.4333 30.8333V29.6667H96.2333V30.8333H96.4333ZM96.3333 29.7667H99.8333V29.5667H96.3333V29.7667ZM99.7333 29.6667V30.8333H99.9333V29.6667H99.7333ZM99.8333 30.7333H96.3333V30.9333H99.8333V30.7333ZM96.4333 25V23.8333H96.2333V25H96.4333ZM96.3333 23.9333H99.8333V23.7333H96.3333V23.9333ZM99.7333 23.8333V25H99.9333V23.8333H99.7333ZM99.8333 24.9H96.3333V25.1H99.8333V24.9ZM96.4333 20.3333V19.1667H96.2333V20.3333H96.4333ZM96.3333 19.2667H99.8333V19.0667H96.3333V19.2667ZM99.7333 19.1667V20.3333H99.9333V19.1667H99.7333ZM99.8333 20.2333H96.3333V20.4333H99.8333V20.2333ZM101 29.5667H99.8333V29.7667H101V29.5667ZM99.9333 29.6667V25H99.7333V29.6667H99.9333ZM99.8333 25.1H101V24.9H99.8333V25.1ZM100.9 25V29.6667H101.1V25H100.9ZM118.5 19.1667V19.0667H118.4V19.1667H118.5ZM119.667 19.1667H119.767V19.0667H119.667V19.1667ZM119.667 32V32.1H119.767V32H119.667ZM118.5 32H118.4V32.1H118.5V32ZM118.5 29.6667H118.6V29.5667H118.5V29.6667ZM115 29.6667H114.9V29.7667H115V29.6667ZM115 28.5V28.4H114.9V28.5H115ZM118.5 28.5V28.6H118.6V28.5H118.5ZM108 27.3333H107.9V27.4333H108V27.3333ZM108 26.1667V26.0667H107.9V26.1667H108ZM117.333 26.1667H117.433V26.0667H117.333V26.1667ZM117.333 27.3333V27.4333H117.433V27.3333H117.333ZM112.667 27.3333V27.2333H112.567V27.3333H112.667ZM112.667 32V32.1H112.767V32H112.667ZM111.5 32H111.4V32.1H111.5V32ZM111.5 27.3333H111.6V27.2333H111.5V27.3333ZM108 25H107.9V25.1H108V25ZM108 23.8333V23.7333H107.9V23.8333H108ZM110.333 23.8333H110.433V23.7333H110.333V23.8333ZM110.333 25V25.1H110.433V25H110.333ZM108 20.3333H107.9V20.4333H108V20.3333ZM108 19.1667V19.0667H107.9V19.1667H108ZM116.167 19.1667H116.267V19.0667H116.167V19.1667ZM116.167 20.3333V20.4333H116.267V20.3333H116.167ZM112.667 20.3333V20.2333H112.567V20.3333H112.667ZM112.667 22.6667V22.7667H112.767V22.6667H112.667ZM111.5 22.6667H111.4V22.7667H111.5V22.6667ZM111.5 20.3333H111.6V20.2333H111.5V20.3333ZM110.333 23.8333H110.233V23.9333H110.333V23.8333ZM110.333 22.6667V22.5667H110.233V22.6667H110.333ZM111.5 22.6667H111.6V22.5667H111.5V22.6667ZM111.5 23.8333V23.9333H111.6V23.8333H111.5ZM112.667 23.8333H112.567V23.9333H112.667V23.8333ZM112.667 22.6667V22.5667H112.567V22.6667H112.667ZM113.833 22.6667H113.933V22.5667H113.833V22.6667ZM113.833 23.8333V23.9333H113.933V23.8333H113.833ZM113.833 23.8333V23.7333H113.733V23.8333H113.833ZM116.167 23.8333H116.267V23.7333H116.167V23.8333ZM116.167 25V25.1H116.267V25H116.167ZM113.833 25H113.733V25.1H113.833V25ZM118.5 19.2667H119.667V19.0667H118.5V19.2667ZM119.567 19.1667V32H119.767V19.1667H119.567ZM119.667 31.9H118.5V32.1H119.667V31.9ZM118.6 32V29.6667H118.4V32H118.6ZM118.5 29.5667H115V29.7667H118.5V29.5667ZM115.1 29.6667V28.5H114.9V29.6667H115.1ZM115 28.6H118.5V28.4H115V28.6ZM118.6 28.5V19.1667H118.4V28.5H118.6ZM108.1 27.3333V26.1667H107.9V27.3333H108.1ZM108 26.2667H117.333V26.0667H108V26.2667ZM117.233 26.1667V27.3333H117.433V26.1667H117.233ZM117.333 27.2333H112.667V27.4333H117.333V27.2333ZM112.567 27.3333V32H112.767V27.3333H112.567ZM112.667 31.9H111.5V32.1H112.667V31.9ZM111.6 32V27.3333H111.4V32H111.6ZM111.5 27.2333H108V27.4333H111.5V27.2333ZM108.1 25V23.8333H107.9V25H108.1ZM108 23.9333H110.333V23.7333H108V23.9333ZM110.233 23.8333V25H110.433V23.8333H110.233ZM110.333 24.9H108V25.1H110.333V24.9ZM108.1 20.3333V19.1667H107.9V20.3333H108.1ZM108 19.2667H116.167V19.0667H108V19.2667ZM116.067 19.1667V20.3333H116.267V19.1667H116.067ZM116.167 20.2333H112.667V20.4333H116.167V20.2333ZM112.567 20.3333V22.6667H112.767V20.3333H112.567ZM112.667 22.5667H111.5V22.7667H112.667V22.5667ZM111.6 22.6667V20.3333H111.4V22.6667H111.6ZM111.5 20.2333H108V20.4333H111.5V20.2333ZM110.433 23.8333V22.6667H110.233V23.8333H110.433ZM110.333 22.7667H111.5V22.5667H110.333V22.7667ZM111.4 22.6667V23.8333H111.6V22.6667H111.4ZM111.5 23.7333H110.333V23.9333H111.5V23.7333ZM112.767 23.8333V22.6667H112.567V23.8333H112.767ZM112.667 22.7667H113.833V22.5667H112.667V22.7667ZM113.733 22.6667V23.8333H113.933V22.6667H113.733ZM113.833 23.7333H112.667V23.9333H113.833V23.7333ZM113.833 23.9333H116.167V23.7333H113.833V23.9333ZM116.067 23.8333V25H116.267V23.8333H116.067ZM116.167 24.9H113.833V25.1H116.167V24.9ZM113.933 25V23.8333H113.733V25H113.933ZM132.5 19.1667V19.0667H132.4V19.1667H132.5ZM133.667 19.1667H133.767V19.0667H133.667V19.1667ZM133.667 32V32.1H133.767V32H133.667ZM132.5 32H132.4V32.1H132.5V32ZM132.5 25H132.6V24.9H132.5V25ZM130.167 25H130.067V25.1H130.167V25ZM130.167 23.8333V23.7333H130.067V23.8333H130.167ZM132.5 23.8333V23.9333H132.6V23.8333H132.5ZM122 30.8333H121.9V30.9333H122V30.8333ZM122 29.6667V29.5667H121.9V29.6667H122ZM123.167 29.6667H123.267V29.5667H123.167V29.6667ZM123.167 30.8333V30.9333H123.267V30.8333H123.167ZM124.333 29.6667V29.7667H124.433V29.6667H124.333ZM123.167 29.6667H123.067V29.7667H123.167V29.6667ZM123.167 27.3333V27.2333H123.067V27.3333H123.167ZM124.333 27.3333H124.433V27.2333H124.333V27.3333ZM124.333 27.3333H124.233V27.4333H124.333V27.3333ZM124.333 25V24.9H124.233V25H124.333ZM125.5 25H125.6V24.9H125.5V25ZM125.5 27.3333V27.4333H125.6V27.3333H125.5ZM126.667 27.3333H126.567V27.4333H126.667V27.3333ZM126.667 25V24.9H126.567V25H126.667ZM127.833 25H127.933V24.9H127.833V25ZM127.833 27.3333V27.4333H127.933V27.3333H127.833ZM126.667 25V25.1H126.767V25H126.667ZM125.5 25H125.4V25.1H125.5V25ZM125.5 19.1667V19.0667H125.4V19.1667H125.5ZM126.667 19.1667H126.767V19.0667H126.667V19.1667ZM129 29.6667V29.7667H129.1V29.6667H129ZM127.833 29.6667H127.733V29.7667H127.833V29.6667ZM127.833 27.3333V27.2333H127.733V27.3333H127.833ZM129 27.3333H129.1V27.2333H129V27.3333ZM129 30.8333H128.9V30.9333H129V30.8333ZM129 29.6667V29.5667H128.9V29.6667H129ZM130.167 29.6667H130.267V29.5667H130.167V29.6667ZM130.167 30.8333V30.9333H130.267V30.8333H130.167ZM132.5 19.2667H133.667V19.0667H132.5V19.2667ZM133.567 19.1667V32H133.767V19.1667H133.567ZM133.667 31.9H132.5V32.1H133.667V31.9ZM132.6 32V25H132.4V32H132.6ZM132.5 24.9H130.167V25.1H132.5V24.9ZM130.267 25V23.8333H130.067V25H130.267ZM130.167 23.9333H132.5V23.7333H130.167V23.9333ZM132.6 23.8333V19.1667H132.4V23.8333H132.6ZM122.1 30.8333V29.6667H121.9V30.8333H122.1ZM122 29.7667H123.167V29.5667H122V29.7667ZM123.067 29.6667V30.8333H123.267V29.6667H123.067ZM123.167 30.7333H122V30.9333H123.167V30.7333ZM124.333 29.5667H123.167V29.7667H124.333V29.5667ZM123.267 29.6667V27.3333H123.067V29.6667H123.267ZM123.167 27.4333H124.333V27.2333H123.167V27.4333ZM124.233 27.3333V29.6667H124.433V27.3333H124.233ZM124.433 27.3333V25H124.233V27.3333H124.433ZM124.333 25.1H125.5V24.9H124.333V25.1ZM125.4 25V27.3333H125.6V25H125.4ZM125.5 27.2333H124.333V27.4333H125.5V27.2333ZM126.767 27.3333V25H126.567V27.3333H126.767ZM126.667 25.1H127.833V24.9H126.667V25.1ZM127.733 25V27.3333H127.933V25H127.733ZM127.833 27.2333H126.667V27.4333H127.833V27.2333ZM126.667 24.9H125.5V25.1H126.667V24.9ZM125.6 25V19.1667H125.4V25H125.6ZM125.5 19.2667H126.667V19.0667H125.5V19.2667ZM126.567 19.1667V25H126.767V19.1667H126.567ZM129 29.5667H127.833V29.7667H129V29.5667ZM127.933 29.6667V27.3333H127.733V29.6667H127.933ZM127.833 27.4333H129V27.2333H127.833V27.4333ZM128.9 27.3333V29.6667H129.1V27.3333H128.9ZM129.1 30.8333V29.6667H128.9V30.8333H129.1ZM129 29.7667H130.167V29.5667H129V29.7667ZM130.067 29.6667V30.8333H130.267V29.6667H130.067ZM130.167 30.7333H129V30.9333H130.167V30.7333ZM141.838 30.8333H141.738V30.9333H141.838V30.8333ZM141.838 29.6667V29.5667H141.738V29.6667H141.838ZM147.671 29.6667V29.7667H147.771V29.6667H147.671ZM147.671 25V24.9H147.571V25H147.671ZM148.838 25H148.938V24.9H148.838V25ZM148.838 29.6667H148.738V29.7667H148.838V29.6667ZM154.671 29.6667H154.771V29.5667H154.671V29.6667ZM154.671 30.8333V30.9333H154.771V30.8333H154.671ZM143.005 19.1667V19.0667H142.905V19.1667H143.005ZM153.505 19.1667H153.605V19.0667H153.505V19.1667ZM153.505 27.3333V27.4333H153.605V27.3333H153.505ZM152.338 27.3333H152.238V27.4333H152.338V27.3333ZM152.338 20.3333H152.438V20.2333H152.338V20.3333ZM143.005 20.3333H142.905V20.4333H143.005V20.3333ZM151.171 28.5H151.071V28.6H151.171V28.5ZM151.171 27.3333V27.2333H151.071V27.3333H151.171ZM152.338 27.3333H152.438V27.2333H152.338V27.3333ZM152.338 28.5V28.6H152.438V28.5H152.338ZM141.938 30.8333V29.6667H141.738V30.8333H141.938ZM141.838 29.7667H147.671V29.5667H141.838V29.7667ZM147.771 29.6667V25H147.571V29.6667H147.771ZM147.671 25.1H148.838V24.9H147.671V25.1ZM148.738 25V29.6667H148.938V25H148.738ZM148.838 29.7667H154.671V29.5667H148.838V29.7667ZM154.571 29.6667V30.8333H154.771V29.6667H154.571ZM154.671 30.7333H141.838V30.9333H154.671V30.7333ZM143.005 19.2667H153.505V19.0667H143.005V19.2667ZM153.405 19.1667V27.3333H153.605V19.1667H153.405ZM153.505 27.2333H152.338V27.4333H153.505V27.2333ZM152.438 27.3333V20.3333H152.238V27.3333H152.438ZM152.338 20.2333H143.005V20.4333H152.338V20.2333ZM143.105 20.3333V19.1667H142.905V20.3333H143.105ZM151.271 28.5V27.3333H151.071V28.5H151.271ZM151.171 27.4333H152.338V27.2333H151.171V27.4333ZM152.238 27.3333V28.5H152.438V27.3333H152.238ZM152.338 28.4H151.171V28.6H152.338V28.4ZM166.338 19.1667V19.0667H166.238V19.1667H166.338ZM167.505 19.1667H167.605V19.0667H167.505V19.1667ZM167.505 25H167.405V25.1H167.505V25ZM168.671 25H168.771V24.9H168.671V25ZM168.671 26.1667V26.2667H168.771V26.1667H168.671ZM167.505 26.1667V26.0667H167.405V26.1667H167.505ZM167.505 32V32.1H167.605V32H167.505ZM166.338 32H166.238V32.1H166.338V32ZM155.838 30.8333H155.738V30.9333H155.838V30.8333ZM155.838 19.1667V19.0667H155.738V19.1667H155.838ZM164.005 19.1667H164.105V19.0667H164.005V19.1667ZM164.005 30.8333V30.9333H164.105V30.8333H164.005ZM157.005 29.6667H156.905V29.7667H157.005V29.6667ZM162.838 29.6667V29.7667H162.938V29.6667H162.838ZM162.838 20.3333H162.938V20.2333H162.838V20.3333ZM157.005 20.3333V20.2333H156.905V20.3333H157.005ZM166.338 19.2667H167.505V19.0667H166.338V19.2667ZM167.405 19.1667V25H167.605V19.1667H167.405ZM167.505 25.1H168.671V24.9H167.505V25.1ZM168.571 25V26.1667H168.771V25H168.571ZM168.671 26.0667H167.505V26.2667H168.671V26.0667ZM167.405 26.1667V32H167.605V26.1667H167.405ZM167.505 31.9H166.338V32.1H167.505V31.9ZM166.438 32V19.1667H166.238V32H166.438ZM155.938 30.8333V19.1667H155.738V30.8333H155.938ZM155.838 19.2667H164.005V19.0667H155.838V19.2667ZM163.905 19.1667V30.8333H164.105V19.1667H163.905ZM164.005 30.7333H155.838V30.9333H164.005V30.7333ZM157.005 29.7667H162.838V29.5667H157.005V29.7667ZM162.938 29.6667V20.3333H162.738V29.6667H162.938ZM162.838 20.2333H157.005V20.4333H162.838V20.2333ZM156.905 20.3333V29.6667H157.105V20.3333H156.905ZM180.338 19.1667V19.0667H180.238V19.1667H180.338ZM181.505 19.1667H181.605V19.0667H181.505V19.1667ZM181.505 32V32.1H181.605V32H181.505ZM180.338 32H180.238V32.1H180.338V32ZM180.338 29.6667H180.438V29.5667H180.338V29.6667ZM176.838 29.6667H176.738V29.7667H176.838V29.6667ZM176.838 28.5V28.4H176.738V28.5H176.838ZM180.338 28.5V28.6H180.438V28.5H180.338ZM169.838 27.3333H169.738V27.4333H169.838V27.3333ZM169.838 26.1667V26.0667H169.738V26.1667H169.838ZM179.171 26.1667H179.271V26.0667H179.171V26.1667ZM179.171 27.3333V27.4333H179.271V27.3333H179.171ZM174.505 27.3333V27.2333H174.405V27.3333H174.505ZM174.505 32V32.1H174.605V32H174.505ZM173.338 32H173.238V32.1H173.338V32ZM173.338 27.3333H173.438V27.2333H173.338V27.3333ZM172.171 23.8333V23.9333H172.271V23.8333H172.171ZM171.005 23.8333H170.905V23.9333H171.005V23.8333ZM171.005 20.3333V20.2333H170.905V20.3333H171.005ZM172.171 20.3333H172.271V20.2333H172.171V20.3333ZM172.171 25H172.071V25.1H172.171V25ZM172.171 23.8333V23.7333H172.071V23.8333H172.171ZM176.838 23.8333H176.938V23.7333H176.838V23.8333ZM176.838 25V25.1H176.938V25H176.838ZM172.171 20.3333H172.071V20.4333H172.171V20.3333ZM172.171 19.1667V19.0667H172.071V19.1667H172.171ZM176.838 19.1667H176.938V19.0667H176.838V19.1667ZM176.838 20.3333V20.4333H176.938V20.3333H176.838ZM176.838 23.8333H176.738V23.9333H176.838V23.8333ZM176.838 20.3333V20.2333H176.738V20.3333H176.838ZM178.005 20.3333H178.105V20.2333H178.005V20.3333ZM178.005 23.8333V23.9333H178.105V23.8333H178.005ZM180.338 19.2667H181.505V19.0667H180.338V19.2667ZM181.405 19.1667V32H181.605V19.1667H181.405ZM181.505 31.9H180.338V32.1H181.505V31.9ZM180.438 32V29.6667H180.238V32H180.438ZM180.338 29.5667H176.838V29.7667H180.338V29.5667ZM176.938 29.6667V28.5H176.738V29.6667H176.938ZM176.838 28.6H180.338V28.4H176.838V28.6ZM180.438 28.5V19.1667H180.238V28.5H180.438ZM169.938 27.3333V26.1667H169.738V27.3333H169.938ZM169.838 26.2667H179.171V26.0667H169.838V26.2667ZM179.071 26.1667V27.3333H179.271V26.1667H179.071ZM179.171 27.2333H174.505V27.4333H179.171V27.2333ZM174.405 27.3333V32H174.605V27.3333H174.405ZM174.505 31.9H173.338V32.1H174.505V31.9ZM173.438 32V27.3333H173.238V32H173.438ZM173.338 27.2333H169.838V27.4333H173.338V27.2333ZM172.171 23.7333H171.005V23.9333H172.171V23.7333ZM171.105 23.8333V20.3333H170.905V23.8333H171.105ZM171.005 20.4333H172.171V20.2333H171.005V20.4333ZM172.071 20.3333V23.8333H172.271V20.3333H172.071ZM172.271 25V23.8333H172.071V25H172.271ZM172.171 23.9333H176.838V23.7333H172.171V23.9333ZM176.738 23.8333V25H176.938V23.8333H176.738ZM176.838 24.9H172.171V25.1H176.838V24.9ZM172.271 20.3333V19.1667H172.071V20.3333H172.271ZM172.171 19.2667H176.838V19.0667H172.171V19.2667ZM176.738 19.1667V20.3333H176.938V19.1667H176.738ZM176.838 20.2333H172.171V20.4333H176.838V20.2333ZM176.938 23.8333V20.3333H176.738V23.8333H176.938ZM176.838 20.4333H178.005V20.2333H176.838V20.4333ZM177.905 20.3333V23.8333H178.105V20.3333H177.905ZM178.005 23.7333H176.838V23.9333H178.005V23.7333ZM183.838 30.8333H183.738V30.9333H183.838V30.8333ZM183.838 29.6667V29.5667H183.738V29.6667H183.838ZM187.338 29.6667V29.7667H187.438V29.6667H187.338ZM187.338 26.1667V26.0667H187.238V26.1667H187.338ZM193.171 26.1667H193.271V26.0667H193.171V26.1667ZM193.171 29.6667H193.071V29.7667H193.171V29.6667ZM196.671 29.6667H196.771V29.5667H196.671V29.6667ZM196.671 30.8333V30.9333H196.771V30.8333H196.671ZM194.338 26.1667V26.2667H194.438V26.1667H194.338ZM193.171 26.1667H193.071V26.2667H193.171V26.1667ZM193.171 25V24.9H193.071V25H193.171ZM194.338 25H194.438V24.9H194.338V25ZM194.338 25H194.238V25.1H194.338V25ZM194.338 21.5V21.4H194.238V21.5H194.338ZM195.505 21.5H195.605V21.4H195.505V21.5ZM195.505 25V25.1H195.605V25H195.505ZM194.338 20.3333H194.438V20.2333H194.338V20.3333ZM194.338 21.5V21.6H194.438V21.5H194.338ZM193.171 21.5H193.071V21.6H193.171V21.5ZM193.171 20.3333V20.2333H193.071V20.3333H193.171ZM186.171 26.1667H186.071V26.2667H186.171V26.1667ZM186.171 25V24.9H186.071V25H186.171ZM187.338 25H187.438V24.9H187.338V25ZM187.338 26.1667V26.2667H187.438V26.1667H187.338ZM186.171 25V25.1H186.271V25H186.171ZM185.005 25H184.905V25.1H185.005V25ZM185.005 21.5V21.4H184.905V21.5H185.005ZM186.171 21.5H186.271V21.4H186.171V21.5ZM186.171 21.5H186.071V21.6H186.171V21.5ZM186.171 20.3333V20.2333H186.071V20.3333H186.171ZM187.338 20.3333H187.438V20.2333H187.338V20.3333ZM187.338 21.5V21.6H187.438V21.5H187.338ZM188.505 29.6667H188.405V29.7667H188.505V29.6667ZM192.005 29.6667V29.7667H192.105V29.6667H192.005ZM192.005 27.3333H192.105V27.2333H192.005V27.3333ZM188.505 27.3333V27.2333H188.405V27.3333H188.505ZM193.171 20.3333V20.4333H193.271V20.3333H193.171ZM187.338 20.3333H187.238V20.4333H187.338V20.3333ZM187.338 19.1667V19.0667H187.238V19.1667H187.338ZM193.171 19.1667H193.271V19.0667H193.171V19.1667ZM183.938 30.8333V29.6667H183.738V30.8333H183.938ZM183.838 29.7667H187.338V29.5667H183.838V29.7667ZM187.438 29.6667V26.1667H187.238V29.6667H187.438ZM187.338 26.2667H193.171V26.0667H187.338V26.2667ZM193.071 26.1667V29.6667H193.271V26.1667H193.071ZM193.171 29.7667H196.671V29.5667H193.171V29.7667ZM196.571 29.6667V30.8333H196.771V29.6667H196.571ZM196.671 30.7333H183.838V30.9333H196.671V30.7333ZM194.338 26.0667H193.171V26.2667H194.338V26.0667ZM193.271 26.1667V25H193.071V26.1667H193.271ZM193.171 25.1H194.338V24.9H193.171V25.1ZM194.238 25V26.1667H194.438V25H194.238ZM194.438 25V21.5H194.238V25H194.438ZM194.338 21.6H195.505V21.4H194.338V21.6ZM195.405 21.5V25H195.605V21.5H195.405ZM195.505 24.9H194.338V25.1H195.505V24.9ZM194.238 20.3333V21.5H194.438V20.3333H194.238ZM194.338 21.4H193.171V21.6H194.338V21.4ZM193.271 21.5V20.3333H193.071V21.5H193.271ZM193.171 20.4333H194.338V20.2333H193.171V20.4333ZM186.271 26.1667V25H186.071V26.1667H186.271ZM186.171 25.1H187.338V24.9H186.171V25.1ZM187.238 25V26.1667H187.438V25H187.238ZM187.338 26.0667H186.171V26.2667H187.338V26.0667ZM186.171 24.9H185.005V25.1H186.171V24.9ZM185.105 25V21.5H184.905V25H185.105ZM185.005 21.6H186.171V21.4H185.005V21.6ZM186.071 21.5V25H186.271V21.5H186.071ZM186.271 21.5V20.3333H186.071V21.5H186.271ZM186.171 20.4333H187.338V20.2333H186.171V20.4333ZM187.238 20.3333V21.5H187.438V20.3333H187.238ZM187.338 21.4H186.171V21.6H187.338V21.4ZM188.505 29.7667H192.005V29.5667H188.505V29.7667ZM192.105 29.6667V27.3333H191.905V29.6667H192.105ZM192.005 27.2333H188.505V27.4333H192.005V27.2333ZM188.405 27.3333V29.6667H188.605V27.3333H188.405ZM193.171 20.2333H187.338V20.4333H193.171V20.2333ZM187.438 20.3333V19.1667H187.238V20.3333H187.438ZM187.338 19.2667H193.171V19.0667H187.338V19.2667ZM193.071 19.1667V20.3333H193.271V19.1667H193.071Z" fill="#00ABFF"/>
<rect x="204.029" y="17.5" width="7.2" height="1.5" fill="#3EA2FF"/>
<rect x="206.086" y="16" width="3.08571" height="1.5" fill="#3EA2FF"/>
<rect x="214.829" y="16" width="3.08571" height="1.5" fill="#3EA2FF"/>
<rect x="203" y="19" width="18" height="1.5" fill="#3EA2FF"/>
<rect x="203" y="20.5" width="18" height="1.5" fill="#3EA2FF"/>
<rect x="203" y="22" width="18" height="1.5" fill="#3EA2FF"/>
<rect x="204.029" y="23.5" width="15.9429" height="1.5" fill="#3EA2FF"/>
<rect x="204.029" y="25" width="15.9429" height="1.5" fill="#3EA2FF"/>
<rect x="205.057" y="26.5" width="13.8857" height="1.5" fill="#3EA2FF"/>
<rect x="205.057" y="28" width="13.8857" height="1.5" fill="#3EA2FF"/>
<rect x="206.6" y="29.5" width="10.8" height="1.5" fill="#3EA2FF"/>
<rect x="208.143" y="31" width="7.71429" height="1.5" fill="#3EA2FF"/>
<rect x="209.686" y="32.5" width="4.62857" height="1.5" fill="#3EA2FF"/>
<rect x="212.771" y="17.5" width="7.2" height="1.5" fill="#3EA2FF"/>
<rect x="204.543" y="19.5" width="1.54286" height="1.5" fill="white"/>
<rect x="204.543" y="21" width="1.54286" height="1.5" fill="white"/>
<rect x="206.086" y="18" width="1.54286" height="1.5" fill="white"/>
</svg>
