<svg width="163" height="62" viewBox="0 0 163 62" fill="none" xmlns="http://www.w3.org/2000/svg">
<rect x="3" y="3" width="157" height="44" fill="white"/>
<rect width="15" height="6" transform="matrix(1 0 0 -1 74 53)" fill="white"/>
<rect width="9" height="6" transform="matrix(1 0 0 -1 77 59)" fill="white"/>
<path d="M13.5 30.6667V29.3333H20.1667V26.6667H17.5V25.3333H24.1667V26.6667H21.5V29.3333H28.1667V30.6667H13.5ZM25.5 25.3333H24.1667V24H25.5V25.3333ZM25.5 24V20H26.8333V24H25.5ZM25.5 18.6667V20H24.1667V18.6667H25.5ZM16.1667 25.3333V24H17.5V25.3333H16.1667ZM16.1667 24H14.8333V20H16.1667V24ZM16.1667 20V18.6667H17.5V20H16.1667ZM24.1667 18.6667H17.5V17.3333H24.1667V18.6667ZM36.1719 26.6667V25.3333H50.8385V26.6667H44.1719V32H42.8385V26.6667H36.1719ZM44.1719 22.6667V21.3333H46.8385V22.6667H44.1719ZM44.1719 21.3333H42.8385V18.6667H37.5052V17.3333H49.5052V18.6667H44.1719V21.3333ZM46.8385 22.6667H49.5052V24H46.8385V22.6667ZM37.5052 24V22.6667H40.1719V24H37.5052ZM40.1719 22.6667V21.3333H42.8385V22.6667H40.1719ZM64.1719 17.3333H65.5052V32H64.1719V26.6667H61.5052V28H60.1719V20H61.5052V21.3333H64.1719V17.3333ZM52.1719 28V20H53.5052V28H52.1719ZM64.1719 25.3333V22.6667H61.5052V25.3333H64.1719ZM54.8385 29.3333H53.5052V28H54.8385V29.3333ZM54.8385 30.6667V29.3333H58.8385V30.6667H54.8385ZM54.8385 18.6667V20H53.5052V18.6667H54.8385ZM54.8385 17.3333H58.8385V18.6667H54.8385V17.3333ZM60.1719 29.3333H58.8385V28H60.1719V29.3333ZM60.1719 18.6667V20H58.8385V18.6667H60.1719ZM69.5052 32V30.6667H70.8385V32H69.5052ZM74.8333 32V30.6667H76.1667V32H74.8333ZM97.5 17.3333H98.8333V28H97.5V21.3333H94.8333V20H97.5V17.3333ZM85.5 25.3333V24H86.8333V25.3333H85.5ZM88.1667 30.6667H98.8333V32H86.8333V26.6667H88.1667V30.6667ZM88.1667 22.6667V24H86.8333V22.6667H88.1667ZM88.1667 21.3333H89.5V22.6667H88.1667V21.3333ZM90.8333 22.6667V21.3333H92.1667V22.6667H90.8333ZM90.8333 21.3333H89.5V17.3333H90.8333V21.3333ZM93.5 25.3333V24H94.8333V25.3333H93.5ZM93.5 22.6667V24H92.1667V22.6667H93.5ZM101.5 24V22.6667H116.167V24H109.5V25.3333H114.833V29.3333H104.167V30.6667H114.833V32H102.833V28H113.5V26.6667H102.833V25.3333H108.167V24H101.5ZM113.5 20V18.6667H104.167V20H113.5ZM102.833 17.3333H114.833V21.3333H102.833V17.3333ZM117.5 26.6667V25.3333H132.167V26.6667H125.5V32H124.167V26.6667H117.5ZM125.5 22.6667V21.3333H128.167V22.6667H125.5ZM125.5 21.3333H124.167V18.6667H118.833V17.3333H130.833V18.6667H125.5V21.3333ZM128.167 22.6667H130.833V24H128.167V22.6667ZM118.833 24V22.6667H121.5V24H118.833ZM121.5 22.6667V21.3333H124.167V22.6667H121.5ZM145.5 17.3333H146.833V32H145.5V26.6667H142.833V28H141.5V20H142.833V21.3333H145.5V17.3333ZM133.5 28V20H134.833V28H133.5ZM145.5 25.3333V22.6667H142.833V25.3333H145.5ZM136.167 29.3333H134.833V28H136.167V29.3333ZM136.167 30.6667V29.3333H140.167V30.6667H136.167ZM136.167 18.6667V20H134.833V18.6667H136.167ZM136.167 17.3333H140.167V18.6667H136.167V17.3333ZM141.5 29.3333H140.167V28H141.5V29.3333ZM141.5 18.6667V20H140.167V18.6667H141.5Z" fill="#00ABFF"/>
<rect y="6" width="3" height="38" fill="#00ABFF"/>
<rect x="160" y="6" width="3" height="38" fill="#00ABFF"/>
<rect x="3" y="3" width="8" height="3" fill="#00ABFF"/>
<rect x="3" y="44" width="8" height="3" fill="#00ABFF"/>
<rect x="152" y="44" width="8" height="3" fill="#00ABFF"/>
<rect x="152" y="3" width="8" height="3" fill="#00ABFF"/>
<rect x="80" y="59" width="3" height="3" fill="#00ABFF"/>
<rect x="77" y="53" width="3" height="6" fill="#00ABFF"/>
<rect x="74" y="50" width="3" height="3" fill="#00ABFF"/>
<rect width="3" height="3" transform="matrix(-1 0 0 1 83 59)" fill="#00ABFF"/>
<rect width="3" height="6" transform="matrix(-1 0 0 1 86 53)" fill="#00ABFF"/>
<rect width="3" height="3" transform="matrix(-1 0 0 1 89 50)" fill="#00ABFF"/>
<rect x="86" y="47" width="66" height="3" fill="#00ABFF"/>
<rect x="77" y="47" width="3" height="66" transform="rotate(90 77 47)" fill="#00ABFF"/>
<rect x="152" width="3.00001" height="141" transform="rotate(90 152 0)" fill="#00ABFF"/>
</svg>
