<svg width="163" height="62" viewBox="0 0 163 62" fill="none" xmlns="http://www.w3.org/2000/svg">
<rect x="3" y="3" width="157" height="44" fill="#003D50"/>
<rect width="15" height="6" transform="matrix(1 0 0 -1 74 53)" fill="#003D50"/>
<rect width="9" height="6" transform="matrix(1 0 0 -1 77 59)" fill="#003D50"/>
<mask id="path-4-outside-1_890_13639" maskUnits="userSpaceOnUse" x="14" y="17" width="133" height="16" fill="black">
<rect fill="white" x="14" y="17" width="133" height="16"/>
<path d="M26.1641 17.3333H27.4974V32H26.1641V17.3333ZM14.1641 30.6667V29.3333H16.8307V30.6667H14.1641ZM14.1641 18.6667V17.3333H20.8307V21.3333H23.4974V17.3333H24.8307V32H23.4974V26.6667H20.8307V25.3333H23.4974V22.6667H20.8307V25.3333H19.4974V18.6667H14.1641ZM16.8307 29.3333V28H18.1641V29.3333H16.8307ZM19.4974 25.3333V28H18.1641V25.3333H19.4974ZM42.1641 17.3333H43.4974V24H44.8307V25.3333H43.4974V32H42.1641V17.3333ZM30.1641 30.6667V29.3333H34.1641V25.3333H35.4974V29.3333H40.8307V30.6667H30.1641ZM30.1641 25.3333V24H31.4974V25.3333H30.1641ZM30.1641 18.6667V17.3333H39.4974V18.6667H35.4974V21.3333H34.1641V18.6667H30.1641ZM32.8307 22.6667V24H31.4974V22.6667H32.8307ZM32.8307 21.3333H34.1641V22.6667H32.8307V21.3333ZM35.4974 22.6667V21.3333H36.8307V22.6667H35.4974ZM38.1641 25.3333V24H39.4974V25.3333H38.1641ZM38.1641 22.6667V24H36.8307V22.6667H38.1641ZM58.1641 17.3333H59.4974V28H58.1641V22.6667H55.4974V21.3333H58.1641V17.3333ZM46.1641 25.3333V17.3333H47.4974V20H52.8307V17.3333H54.1641V25.3333H46.1641ZM48.8307 30.6667H59.4974V32H47.4974V26.6667H48.8307V30.6667ZM47.4974 24H52.8307V21.3333H47.4974V24ZM62.1641 30.6667V29.3333H68.8307V28H64.8307V26.6667H74.1641V28H70.1641V29.3333H76.8307V30.6667H62.1641ZM62.1641 21.3333V20H76.8307V21.3333H62.1641ZM74.1641 26.6667V24H75.4974V26.6667H74.1641ZM74.1641 22.6667V24H64.8307V22.6667H74.1641ZM64.8307 26.6667H63.4974V24H64.8307V26.6667ZM72.8307 18.6667H66.1641V17.3333H72.8307V18.6667ZM96.8359 17.3333H98.1693V22.6667H92.8359V24H99.5026V25.3333H84.8359V24H91.5026V22.6667H86.1693V17.3333H87.5026V18.6667H96.8359V17.3333ZM96.8359 32V28H86.1693V26.6667H98.1693V32H96.8359ZM96.8359 21.3333V20H87.5026V21.3333H96.8359ZM112.836 17.3333H114.169V24H115.503V25.3333H114.169V32H112.836V17.3333ZM100.836 30.6667V29.3333H102.169V30.6667H100.836ZM103.503 29.3333H102.169V26.6667H103.503V29.3333ZM103.503 26.6667V24H104.836V26.6667H103.503ZM106.169 26.6667V24H107.503V26.6667H106.169ZM106.169 24H104.836V17.3333H106.169V24ZM108.836 29.3333H107.503V26.6667H108.836V29.3333ZM108.836 30.6667V29.3333H110.169V30.6667H108.836ZM128.836 17.3333H130.169V24H131.503V25.3333H130.169V32H128.836V17.3333ZM116.836 21.3333V20H127.503V21.3333H116.836ZM119.503 29.3333H118.169V24H119.503V29.3333ZM119.503 30.6667V29.3333H124.836V30.6667H119.503ZM119.503 24V22.6667H124.836V24H119.503ZM119.503 18.6667V17.3333H124.836V18.6667H119.503ZM124.836 29.3333V24H126.169V29.3333H124.836ZM144.836 17.3333H146.169V32H144.836V17.3333ZM132.836 30.6667V29.3333H135.503V30.6667H132.836ZM132.836 18.6667V17.3333H140.836V24H139.503V18.6667H132.836ZM135.503 29.3333V28H136.836V29.3333H135.503ZM136.836 28V26.6667H138.169V28H136.836ZM138.169 26.6667V24H139.503V26.6667H138.169Z"/>
</mask>
<path d="M26.1641 17.3333H27.4974V32H26.1641V17.3333ZM14.1641 30.6667V29.3333H16.8307V30.6667H14.1641ZM14.1641 18.6667V17.3333H20.8307V21.3333H23.4974V17.3333H24.8307V32H23.4974V26.6667H20.8307V25.3333H23.4974V22.6667H20.8307V25.3333H19.4974V18.6667H14.1641ZM16.8307 29.3333V28H18.1641V29.3333H16.8307ZM19.4974 25.3333V28H18.1641V25.3333H19.4974ZM42.1641 17.3333H43.4974V24H44.8307V25.3333H43.4974V32H42.1641V17.3333ZM30.1641 30.6667V29.3333H34.1641V25.3333H35.4974V29.3333H40.8307V30.6667H30.1641ZM30.1641 25.3333V24H31.4974V25.3333H30.1641ZM30.1641 18.6667V17.3333H39.4974V18.6667H35.4974V21.3333H34.1641V18.6667H30.1641ZM32.8307 22.6667V24H31.4974V22.6667H32.8307ZM32.8307 21.3333H34.1641V22.6667H32.8307V21.3333ZM35.4974 22.6667V21.3333H36.8307V22.6667H35.4974ZM38.1641 25.3333V24H39.4974V25.3333H38.1641ZM38.1641 22.6667V24H36.8307V22.6667H38.1641ZM58.1641 17.3333H59.4974V28H58.1641V22.6667H55.4974V21.3333H58.1641V17.3333ZM46.1641 25.3333V17.3333H47.4974V20H52.8307V17.3333H54.1641V25.3333H46.1641ZM48.8307 30.6667H59.4974V32H47.4974V26.6667H48.8307V30.6667ZM47.4974 24H52.8307V21.3333H47.4974V24ZM62.1641 30.6667V29.3333H68.8307V28H64.8307V26.6667H74.1641V28H70.1641V29.3333H76.8307V30.6667H62.1641ZM62.1641 21.3333V20H76.8307V21.3333H62.1641ZM74.1641 26.6667V24H75.4974V26.6667H74.1641ZM74.1641 22.6667V24H64.8307V22.6667H74.1641ZM64.8307 26.6667H63.4974V24H64.8307V26.6667ZM72.8307 18.6667H66.1641V17.3333H72.8307V18.6667ZM96.8359 17.3333H98.1693V22.6667H92.8359V24H99.5026V25.3333H84.8359V24H91.5026V22.6667H86.1693V17.3333H87.5026V18.6667H96.8359V17.3333ZM96.8359 32V28H86.1693V26.6667H98.1693V32H96.8359ZM96.8359 21.3333V20H87.5026V21.3333H96.8359ZM112.836 17.3333H114.169V24H115.503V25.3333H114.169V32H112.836V17.3333ZM100.836 30.6667V29.3333H102.169V30.6667H100.836ZM103.503 29.3333H102.169V26.6667H103.503V29.3333ZM103.503 26.6667V24H104.836V26.6667H103.503ZM106.169 26.6667V24H107.503V26.6667H106.169ZM106.169 24H104.836V17.3333H106.169V24ZM108.836 29.3333H107.503V26.6667H108.836V29.3333ZM108.836 30.6667V29.3333H110.169V30.6667H108.836ZM128.836 17.3333H130.169V24H131.503V25.3333H130.169V32H128.836V17.3333ZM116.836 21.3333V20H127.503V21.3333H116.836ZM119.503 29.3333H118.169V24H119.503V29.3333ZM119.503 30.6667V29.3333H124.836V30.6667H119.503ZM119.503 24V22.6667H124.836V24H119.503ZM119.503 18.6667V17.3333H124.836V18.6667H119.503ZM124.836 29.3333V24H126.169V29.3333H124.836ZM144.836 17.3333H146.169V32H144.836V17.3333ZM132.836 30.6667V29.3333H135.503V30.6667H132.836ZM132.836 18.6667V17.3333H140.836V24H139.503V18.6667H132.836ZM135.503 29.3333V28H136.836V29.3333H135.503ZM136.836 28V26.6667H138.169V28H136.836ZM138.169 26.6667V24H139.503V26.6667H138.169Z" fill="white"/>
<path d="M26.1641 17.3333V17.2333H26.0641V17.3333H26.1641ZM27.4974 17.3333H27.5974V17.2333H27.4974V17.3333ZM27.4974 32V32.1H27.5974V32H27.4974ZM26.1641 32H26.0641V32.1H26.1641V32ZM14.1641 30.6667H14.0641V30.7667H14.1641V30.6667ZM14.1641 29.3333V29.2333H14.0641V29.3333H14.1641ZM16.8307 29.3333H16.9307V29.2333H16.8307V29.3333ZM16.8307 30.6667V30.7667H16.9307V30.6667H16.8307ZM14.1641 18.6667H14.0641V18.7667H14.1641V18.6667ZM14.1641 17.3333V17.2333H14.0641V17.3333H14.1641ZM20.8307 17.3333H20.9307V17.2333H20.8307V17.3333ZM20.8307 21.3333H20.7307V21.4333H20.8307V21.3333ZM23.4974 21.3333V21.4333H23.5974V21.3333H23.4974ZM23.4974 17.3333V17.2333H23.3974V17.3333H23.4974ZM24.8307 17.3333H24.9307V17.2333H24.8307V17.3333ZM24.8307 32V32.1H24.9307V32H24.8307ZM23.4974 32H23.3974V32.1H23.4974V32ZM23.4974 26.6667H23.5974V26.5667H23.4974V26.6667ZM20.8307 26.6667H20.7307V26.7667H20.8307V26.6667ZM20.8307 25.3333V25.2333H20.7307V25.3333H20.8307ZM23.4974 25.3333V25.4333H23.5974V25.3333H23.4974ZM23.4974 22.6667H23.5974V22.5667H23.4974V22.6667ZM20.8307 22.6667V22.5667H20.7307V22.6667H20.8307ZM20.8307 25.3333V25.4333H20.9307V25.3333H20.8307ZM19.4974 25.3333H19.3974V25.4333H19.4974V25.3333ZM19.4974 18.6667H19.5974V18.5667H19.4974V18.6667ZM16.8307 29.3333H16.7307V29.4333H16.8307V29.3333ZM16.8307 28V27.9H16.7307V28H16.8307ZM18.1641 28H18.2641V27.9H18.1641V28ZM18.1641 29.3333V29.4333H18.2641V29.3333H18.1641ZM19.4974 25.3333H19.5974V25.2333H19.4974V25.3333ZM19.4974 28V28.1H19.5974V28H19.4974ZM18.1641 28H18.0641V28.1H18.1641V28ZM18.1641 25.3333V25.2333H18.0641V25.3333H18.1641ZM26.1641 17.4333H27.4974V17.2333H26.1641V17.4333ZM27.3974 17.3333V32H27.5974V17.3333H27.3974ZM27.4974 31.9H26.1641V32.1H27.4974V31.9ZM26.2641 32V17.3333H26.0641V32H26.2641ZM14.2641 30.6667V29.3333H14.0641V30.6667H14.2641ZM14.1641 29.4333H16.8307V29.2333H14.1641V29.4333ZM16.7307 29.3333V30.6667H16.9307V29.3333H16.7307ZM16.8307 30.5667H14.1641V30.7667H16.8307V30.5667ZM14.2641 18.6667V17.3333H14.0641V18.6667H14.2641ZM14.1641 17.4333H20.8307V17.2333H14.1641V17.4333ZM20.7307 17.3333V21.3333H20.9307V17.3333H20.7307ZM20.8307 21.4333H23.4974V21.2333H20.8307V21.4333ZM23.5974 21.3333V17.3333H23.3974V21.3333H23.5974ZM23.4974 17.4333H24.8307V17.2333H23.4974V17.4333ZM24.7307 17.3333V32H24.9307V17.3333H24.7307ZM24.8307 31.9H23.4974V32.1H24.8307V31.9ZM23.5974 32V26.6667H23.3974V32H23.5974ZM23.4974 26.5667H20.8307V26.7667H23.4974V26.5667ZM20.9307 26.6667V25.3333H20.7307V26.6667H20.9307ZM20.8307 25.4333H23.4974V25.2333H20.8307V25.4333ZM23.5974 25.3333V22.6667H23.3974V25.3333H23.5974ZM23.4974 22.5667H20.8307V22.7667H23.4974V22.5667ZM20.7307 22.6667V25.3333H20.9307V22.6667H20.7307ZM20.8307 25.2333H19.4974V25.4333H20.8307V25.2333ZM19.5974 25.3333V18.6667H19.3974V25.3333H19.5974ZM19.4974 18.5667H14.1641V18.7667H19.4974V18.5667ZM16.9307 29.3333V28H16.7307V29.3333H16.9307ZM16.8307 28.1H18.1641V27.9H16.8307V28.1ZM18.0641 28V29.3333H18.2641V28H18.0641ZM18.1641 29.2333H16.8307V29.4333H18.1641V29.2333ZM19.3974 25.3333V28H19.5974V25.3333H19.3974ZM19.4974 27.9H18.1641V28.1H19.4974V27.9ZM18.2641 28V25.3333H18.0641V28H18.2641ZM18.1641 25.4333H19.4974V25.2333H18.1641V25.4333ZM42.1641 17.3333V17.2333H42.0641V17.3333H42.1641ZM43.4974 17.3333H43.5974V17.2333H43.4974V17.3333ZM43.4974 24H43.3974V24.1H43.4974V24ZM44.8307 24H44.9307V23.9H44.8307V24ZM44.8307 25.3333V25.4333H44.9307V25.3333H44.8307ZM43.4974 25.3333V25.2333H43.3974V25.3333H43.4974ZM43.4974 32V32.1H43.5974V32H43.4974ZM42.1641 32H42.0641V32.1H42.1641V32ZM30.1641 30.6667H30.0641V30.7667H30.1641V30.6667ZM30.1641 29.3333V29.2333H30.0641V29.3333H30.1641ZM34.1641 29.3333V29.4333H34.2641V29.3333H34.1641ZM34.1641 25.3333V25.2333H34.0641V25.3333H34.1641ZM35.4974 25.3333H35.5974V25.2333H35.4974V25.3333ZM35.4974 29.3333H35.3974V29.4333H35.4974V29.3333ZM40.8307 29.3333H40.9307V29.2333H40.8307V29.3333ZM40.8307 30.6667V30.7667H40.9307V30.6667H40.8307ZM30.1641 25.3333H30.0641V25.4333H30.1641V25.3333ZM30.1641 24V23.9H30.0641V24H30.1641ZM31.4974 24H31.5974V23.9H31.4974V24ZM31.4974 25.3333V25.4333H31.5974V25.3333H31.4974ZM30.1641 18.6667H30.0641V18.7667H30.1641V18.6667ZM30.1641 17.3333V17.2333H30.0641V17.3333H30.1641ZM39.4974 17.3333H39.5974V17.2333H39.4974V17.3333ZM39.4974 18.6667V18.7667H39.5974V18.6667H39.4974ZM35.4974 18.6667V18.5667H35.3974V18.6667H35.4974ZM35.4974 21.3333V21.4333H35.5974V21.3333H35.4974ZM34.1641 21.3333H34.0641V21.4333H34.1641V21.3333ZM34.1641 18.6667H34.2641V18.5667H34.1641V18.6667ZM32.8307 22.6667H32.9307V22.5667H32.8307V22.6667ZM32.8307 24V24.1H32.9307V24H32.8307ZM31.4974 24H31.3974V24.1H31.4974V24ZM31.4974 22.6667V22.5667H31.3974V22.6667H31.4974ZM32.8307 21.3333V21.2333H32.7307V21.3333H32.8307ZM34.1641 21.3333H34.2641V21.2333H34.1641V21.3333ZM34.1641 22.6667V22.7667H34.2641V22.6667H34.1641ZM32.8307 22.6667H32.7307V22.7667H32.8307V22.6667ZM35.4974 22.6667H35.3974V22.7667H35.4974V22.6667ZM35.4974 21.3333V21.2333H35.3974V21.3333H35.4974ZM36.8307 21.3333H36.9307V21.2333H36.8307V21.3333ZM36.8307 22.6667V22.7667H36.9307V22.6667H36.8307ZM38.1641 25.3333H38.0641V25.4333H38.1641V25.3333ZM38.1641 24V23.9H38.0641V24H38.1641ZM39.4974 24H39.5974V23.9H39.4974V24ZM39.4974 25.3333V25.4333H39.5974V25.3333H39.4974ZM38.1641 22.6667H38.2641V22.5667H38.1641V22.6667ZM38.1641 24V24.1H38.2641V24H38.1641ZM36.8307 24H36.7307V24.1H36.8307V24ZM36.8307 22.6667V22.5667H36.7307V22.6667H36.8307ZM42.1641 17.4333H43.4974V17.2333H42.1641V17.4333ZM43.3974 17.3333V24H43.5974V17.3333H43.3974ZM43.4974 24.1H44.8307V23.9H43.4974V24.1ZM44.7307 24V25.3333H44.9307V24H44.7307ZM44.8307 25.2333H43.4974V25.4333H44.8307V25.2333ZM43.3974 25.3333V32H43.5974V25.3333H43.3974ZM43.4974 31.9H42.1641V32.1H43.4974V31.9ZM42.2641 32V17.3333H42.0641V32H42.2641ZM30.2641 30.6667V29.3333H30.0641V30.6667H30.2641ZM30.1641 29.4333H34.1641V29.2333H30.1641V29.4333ZM34.2641 29.3333V25.3333H34.0641V29.3333H34.2641ZM34.1641 25.4333H35.4974V25.2333H34.1641V25.4333ZM35.3974 25.3333V29.3333H35.5974V25.3333H35.3974ZM35.4974 29.4333H40.8307V29.2333H35.4974V29.4333ZM40.7307 29.3333V30.6667H40.9307V29.3333H40.7307ZM40.8307 30.5667H30.1641V30.7667H40.8307V30.5667ZM30.2641 25.3333V24H30.0641V25.3333H30.2641ZM30.1641 24.1H31.4974V23.9H30.1641V24.1ZM31.3974 24V25.3333H31.5974V24H31.3974ZM31.4974 25.2333H30.1641V25.4333H31.4974V25.2333ZM30.2641 18.6667V17.3333H30.0641V18.6667H30.2641ZM30.1641 17.4333H39.4974V17.2333H30.1641V17.4333ZM39.3974 17.3333V18.6667H39.5974V17.3333H39.3974ZM39.4974 18.5667H35.4974V18.7667H39.4974V18.5667ZM35.3974 18.6667V21.3333H35.5974V18.6667H35.3974ZM35.4974 21.2333H34.1641V21.4333H35.4974V21.2333ZM34.2641 21.3333V18.6667H34.0641V21.3333H34.2641ZM34.1641 18.5667H30.1641V18.7667H34.1641V18.5667ZM32.7307 22.6667V24H32.9307V22.6667H32.7307ZM32.8307 23.9H31.4974V24.1H32.8307V23.9ZM31.5974 24V22.6667H31.3974V24H31.5974ZM31.4974 22.7667H32.8307V22.5667H31.4974V22.7667ZM32.8307 21.4333H34.1641V21.2333H32.8307V21.4333ZM34.0641 21.3333V22.6667H34.2641V21.3333H34.0641ZM34.1641 22.5667H32.8307V22.7667H34.1641V22.5667ZM32.9307 22.6667V21.3333H32.7307V22.6667H32.9307ZM35.5974 22.6667V21.3333H35.3974V22.6667H35.5974ZM35.4974 21.4333H36.8307V21.2333H35.4974V21.4333ZM36.7307 21.3333V22.6667H36.9307V21.3333H36.7307ZM36.8307 22.5667H35.4974V22.7667H36.8307V22.5667ZM38.2641 25.3333V24H38.0641V25.3333H38.2641ZM38.1641 24.1H39.4974V23.9H38.1641V24.1ZM39.3974 24V25.3333H39.5974V24H39.3974ZM39.4974 25.2333H38.1641V25.4333H39.4974V25.2333ZM38.0641 22.6667V24H38.2641V22.6667H38.0641ZM38.1641 23.9H36.8307V24.1H38.1641V23.9ZM36.9307 24V22.6667H36.7307V24H36.9307ZM36.8307 22.7667H38.1641V22.5667H36.8307V22.7667ZM58.1641 17.3333V17.2333H58.0641V17.3333H58.1641ZM59.4974 17.3333H59.5974V17.2333H59.4974V17.3333ZM59.4974 28V28.1H59.5974V28H59.4974ZM58.1641 28H58.0641V28.1H58.1641V28ZM58.1641 22.6667H58.2641V22.5667H58.1641V22.6667ZM55.4974 22.6667H55.3974V22.7667H55.4974V22.6667ZM55.4974 21.3333V21.2333H55.3974V21.3333H55.4974ZM58.1641 21.3333V21.4333H58.2641V21.3333H58.1641ZM46.1641 25.3333H46.0641V25.4333H46.1641V25.3333ZM46.1641 17.3333V17.2333H46.0641V17.3333H46.1641ZM47.4974 17.3333H47.5974V17.2333H47.4974V17.3333ZM47.4974 20H47.3974V20.1H47.4974V20ZM52.8307 20V20.1H52.9307V20H52.8307ZM52.8307 17.3333V17.2333H52.7307V17.3333H52.8307ZM54.1641 17.3333H54.2641V17.2333H54.1641V17.3333ZM54.1641 25.3333V25.4333H54.2641V25.3333H54.1641ZM48.8307 30.6667H48.7307V30.7667H48.8307V30.6667ZM59.4974 30.6667H59.5974V30.5667H59.4974V30.6667ZM59.4974 32V32.1H59.5974V32H59.4974ZM47.4974 32H47.3974V32.1H47.4974V32ZM47.4974 26.6667V26.5667H47.3974V26.6667H47.4974ZM48.8307 26.6667H48.9307V26.5667H48.8307V26.6667ZM47.4974 24H47.3974V24.1H47.4974V24ZM52.8307 24V24.1H52.9307V24H52.8307ZM52.8307 21.3333H52.9307V21.2333H52.8307V21.3333ZM47.4974 21.3333V21.2333H47.3974V21.3333H47.4974ZM58.1641 17.4333H59.4974V17.2333H58.1641V17.4333ZM59.3974 17.3333V28H59.5974V17.3333H59.3974ZM59.4974 27.9H58.1641V28.1H59.4974V27.9ZM58.2641 28V22.6667H58.0641V28H58.2641ZM58.1641 22.5667H55.4974V22.7667H58.1641V22.5667ZM55.5974 22.6667V21.3333H55.3974V22.6667H55.5974ZM55.4974 21.4333H58.1641V21.2333H55.4974V21.4333ZM58.2641 21.3333V17.3333H58.0641V21.3333H58.2641ZM46.2641 25.3333V17.3333H46.0641V25.3333H46.2641ZM46.1641 17.4333H47.4974V17.2333H46.1641V17.4333ZM47.3974 17.3333V20H47.5974V17.3333H47.3974ZM47.4974 20.1H52.8307V19.9H47.4974V20.1ZM52.9307 20V17.3333H52.7307V20H52.9307ZM52.8307 17.4333H54.1641V17.2333H52.8307V17.4333ZM54.0641 17.3333V25.3333H54.2641V17.3333H54.0641ZM54.1641 25.2333H46.1641V25.4333H54.1641V25.2333ZM48.8307 30.7667H59.4974V30.5667H48.8307V30.7667ZM59.3974 30.6667V32H59.5974V30.6667H59.3974ZM59.4974 31.9H47.4974V32.1H59.4974V31.9ZM47.5974 32V26.6667H47.3974V32H47.5974ZM47.4974 26.7667H48.8307V26.5667H47.4974V26.7667ZM48.7307 26.6667V30.6667H48.9307V26.6667H48.7307ZM47.4974 24.1H52.8307V23.9H47.4974V24.1ZM52.9307 24V21.3333H52.7307V24H52.9307ZM52.8307 21.2333H47.4974V21.4333H52.8307V21.2333ZM47.3974 21.3333V24H47.5974V21.3333H47.3974ZM62.1641 30.6667H62.0641V30.7667H62.1641V30.6667ZM62.1641 29.3333V29.2333H62.0641V29.3333H62.1641ZM68.8307 29.3333V29.4333H68.9307V29.3333H68.8307ZM68.8307 28H68.9307V27.9H68.8307V28ZM64.8307 28H64.7307V28.1H64.8307V28ZM64.8307 26.6667V26.5667H64.7307V26.6667H64.8307ZM74.1641 26.6667H74.2641V26.5667H74.1641V26.6667ZM74.1641 28V28.1H74.2641V28H74.1641ZM70.1641 28V27.9H70.0641V28H70.1641ZM70.1641 29.3333H70.0641V29.4333H70.1641V29.3333ZM76.8307 29.3333H76.9307V29.2333H76.8307V29.3333ZM76.8307 30.6667V30.7667H76.9307V30.6667H76.8307ZM62.1641 21.3333H62.0641V21.4333H62.1641V21.3333ZM62.1641 20V19.9H62.0641V20H62.1641ZM76.8307 20H76.9307V19.9H76.8307V20ZM76.8307 21.3333V21.4333H76.9307V21.3333H76.8307ZM74.1641 26.6667H74.0641V26.7667H74.1641V26.6667ZM74.1641 24V23.9H74.0641V24H74.1641ZM75.4974 24H75.5974V23.9H75.4974V24ZM75.4974 26.6667V26.7667H75.5974V26.6667H75.4974ZM74.1641 22.6667H74.2641V22.5667H74.1641V22.6667ZM74.1641 24V24.1H74.2641V24H74.1641ZM64.8307 24H64.7307V24.1H64.8307V24ZM64.8307 22.6667V22.5667H64.7307V22.6667H64.8307ZM64.8307 26.6667V26.7667H64.9307V26.6667H64.8307ZM63.4974 26.6667H63.3974V26.7667H63.4974V26.6667ZM63.4974 24V23.9H63.3974V24H63.4974ZM64.8307 24H64.9307V23.9H64.8307V24ZM72.8307 18.6667V18.7667H72.9307V18.6667H72.8307ZM66.1641 18.6667H66.0641V18.7667H66.1641V18.6667ZM66.1641 17.3333V17.2333H66.0641V17.3333H66.1641ZM72.8307 17.3333H72.9307V17.2333H72.8307V17.3333ZM62.2641 30.6667V29.3333H62.0641V30.6667H62.2641ZM62.1641 29.4333H68.8307V29.2333H62.1641V29.4333ZM68.9307 29.3333V28H68.7307V29.3333H68.9307ZM68.8307 27.9H64.8307V28.1H68.8307V27.9ZM64.9307 28V26.6667H64.7307V28H64.9307ZM64.8307 26.7667H74.1641V26.5667H64.8307V26.7667ZM74.0641 26.6667V28H74.2641V26.6667H74.0641ZM74.1641 27.9H70.1641V28.1H74.1641V27.9ZM70.0641 28V29.3333H70.2641V28H70.0641ZM70.1641 29.4333H76.8307V29.2333H70.1641V29.4333ZM76.7307 29.3333V30.6667H76.9307V29.3333H76.7307ZM76.8307 30.5667H62.1641V30.7667H76.8307V30.5667ZM62.2641 21.3333V20H62.0641V21.3333H62.2641ZM62.1641 20.1H76.8307V19.9H62.1641V20.1ZM76.7307 20V21.3333H76.9307V20H76.7307ZM76.8307 21.2333H62.1641V21.4333H76.8307V21.2333ZM74.2641 26.6667V24H74.0641V26.6667H74.2641ZM74.1641 24.1H75.4974V23.9H74.1641V24.1ZM75.3974 24V26.6667H75.5974V24H75.3974ZM75.4974 26.5667H74.1641V26.7667H75.4974V26.5667ZM74.0641 22.6667V24H74.2641V22.6667H74.0641ZM74.1641 23.9H64.8307V24.1H74.1641V23.9ZM64.9307 24V22.6667H64.7307V24H64.9307ZM64.8307 22.7667H74.1641V22.5667H64.8307V22.7667ZM64.8307 26.5667H63.4974V26.7667H64.8307V26.5667ZM63.5974 26.6667V24H63.3974V26.6667H63.5974ZM63.4974 24.1H64.8307V23.9H63.4974V24.1ZM64.7307 24V26.6667H64.9307V24H64.7307ZM72.8307 18.5667H66.1641V18.7667H72.8307V18.5667ZM66.2641 18.6667V17.3333H66.0641V18.6667H66.2641ZM66.1641 17.4333H72.8307V17.2333H66.1641V17.4333ZM72.7307 17.3333V18.6667H72.9307V17.3333H72.7307ZM96.8359 17.3333V17.2333H96.7359V17.3333H96.8359ZM98.1693 17.3333H98.2693V17.2333H98.1693V17.3333ZM98.1693 22.6667V22.7667H98.2693V22.6667H98.1693ZM92.8359 22.6667V22.5667H92.7359V22.6667H92.8359ZM92.8359 24H92.7359V24.1H92.8359V24ZM99.5026 24H99.6026V23.9H99.5026V24ZM99.5026 25.3333V25.4333H99.6026V25.3333H99.5026ZM84.8359 25.3333H84.7359V25.4333H84.8359V25.3333ZM84.8359 24V23.9H84.7359V24H84.8359ZM91.5026 24V24.1H91.6026V24H91.5026ZM91.5026 22.6667H91.6026V22.5667H91.5026V22.6667ZM86.1693 22.6667H86.0693V22.7667H86.1693V22.6667ZM86.1693 17.3333V17.2333H86.0693V17.3333H86.1693ZM87.5026 17.3333H87.6026V17.2333H87.5026V17.3333ZM87.5026 18.6667H87.4026V18.7667H87.5026V18.6667ZM96.8359 18.6667V18.7667H96.9359V18.6667H96.8359ZM96.8359 32H96.7359V32.1H96.8359V32ZM96.8359 28H96.9359V27.9H96.8359V28ZM86.1693 28H86.0693V28.1H86.1693V28ZM86.1693 26.6667V26.5667H86.0693V26.6667H86.1693ZM98.1693 26.6667H98.2693V26.5667H98.1693V26.6667ZM98.1693 32V32.1H98.2693V32H98.1693ZM96.8359 21.3333V21.4333H96.9359V21.3333H96.8359ZM96.8359 20H96.9359V19.9H96.8359V20ZM87.5026 20V19.9H87.4026V20H87.5026ZM87.5026 21.3333H87.4026V21.4333H87.5026V21.3333ZM96.8359 17.4333H98.1693V17.2333H96.8359V17.4333ZM98.0693 17.3333V22.6667H98.2693V17.3333H98.0693ZM98.1693 22.5667H92.8359V22.7667H98.1693V22.5667ZM92.7359 22.6667V24H92.9359V22.6667H92.7359ZM92.8359 24.1H99.5026V23.9H92.8359V24.1ZM99.4026 24V25.3333H99.6026V24H99.4026ZM99.5026 25.2333H84.8359V25.4333H99.5026V25.2333ZM84.9359 25.3333V24H84.7359V25.3333H84.9359ZM84.8359 24.1H91.5026V23.9H84.8359V24.1ZM91.6026 24V22.6667H91.4026V24H91.6026ZM91.5026 22.5667H86.1693V22.7667H91.5026V22.5667ZM86.2693 22.6667V17.3333H86.0693V22.6667H86.2693ZM86.1693 17.4333H87.5026V17.2333H86.1693V17.4333ZM87.4026 17.3333V18.6667H87.6026V17.3333H87.4026ZM87.5026 18.7667H96.8359V18.5667H87.5026V18.7667ZM96.9359 18.6667V17.3333H96.7359V18.6667H96.9359ZM96.9359 32V28H96.7359V32H96.9359ZM96.8359 27.9H86.1693V28.1H96.8359V27.9ZM86.2693 28V26.6667H86.0693V28H86.2693ZM86.1693 26.7667H98.1693V26.5667H86.1693V26.7667ZM98.0693 26.6667V32H98.2693V26.6667H98.0693ZM98.1693 31.9H96.8359V32.1H98.1693V31.9ZM96.9359 21.3333V20H96.7359V21.3333H96.9359ZM96.8359 19.9H87.5026V20.1H96.8359V19.9ZM87.4026 20V21.3333H87.6026V20H87.4026ZM87.5026 21.4333H96.8359V21.2333H87.5026V21.4333ZM112.836 17.3333V17.2333H112.736V17.3333H112.836ZM114.169 17.3333H114.269V17.2333H114.169V17.3333ZM114.169 24H114.069V24.1H114.169V24ZM115.503 24H115.603V23.9H115.503V24ZM115.503 25.3333V25.4333H115.603V25.3333H115.503ZM114.169 25.3333V25.2333H114.069V25.3333H114.169ZM114.169 32V32.1H114.269V32H114.169ZM112.836 32H112.736V32.1H112.836V32ZM100.836 30.6667H100.736V30.7667H100.836V30.6667ZM100.836 29.3333V29.2333H100.736V29.3333H100.836ZM102.169 29.3333H102.269V29.2333H102.169V29.3333ZM102.169 30.6667V30.7667H102.269V30.6667H102.169ZM103.503 29.3333V29.4333H103.603V29.3333H103.503ZM102.169 29.3333H102.069V29.4333H102.169V29.3333ZM102.169 26.6667V26.5667H102.069V26.6667H102.169ZM103.503 26.6667H103.603V26.5667H103.503V26.6667ZM103.503 26.6667H103.403V26.7667H103.503V26.6667ZM103.503 24V23.9H103.403V24H103.503ZM104.836 24H104.936V23.9H104.836V24ZM104.836 26.6667V26.7667H104.936V26.6667H104.836ZM106.169 26.6667H106.069V26.7667H106.169V26.6667ZM106.169 24V23.9H106.069V24H106.169ZM107.503 24H107.603V23.9H107.503V24ZM107.503 26.6667V26.7667H107.603V26.6667H107.503ZM106.169 24V24.1H106.269V24H106.169ZM104.836 24H104.736V24.1H104.836V24ZM104.836 17.3333V17.2333H104.736V17.3333H104.836ZM106.169 17.3333H106.269V17.2333H106.169V17.3333ZM108.836 29.3333V29.4333H108.936V29.3333H108.836ZM107.503 29.3333H107.403V29.4333H107.503V29.3333ZM107.503 26.6667V26.5667H107.403V26.6667H107.503ZM108.836 26.6667H108.936V26.5667H108.836V26.6667ZM108.836 30.6667H108.736V30.7667H108.836V30.6667ZM108.836 29.3333V29.2333H108.736V29.3333H108.836ZM110.169 29.3333H110.269V29.2333H110.169V29.3333ZM110.169 30.6667V30.7667H110.269V30.6667H110.169ZM112.836 17.4333H114.169V17.2333H112.836V17.4333ZM114.069 17.3333V24H114.269V17.3333H114.069ZM114.169 24.1H115.503V23.9H114.169V24.1ZM115.403 24V25.3333H115.603V24H115.403ZM115.503 25.2333H114.169V25.4333H115.503V25.2333ZM114.069 25.3333V32H114.269V25.3333H114.069ZM114.169 31.9H112.836V32.1H114.169V31.9ZM112.936 32V17.3333H112.736V32H112.936ZM100.936 30.6667V29.3333H100.736V30.6667H100.936ZM100.836 29.4333H102.169V29.2333H100.836V29.4333ZM102.069 29.3333V30.6667H102.269V29.3333H102.069ZM102.169 30.5667H100.836V30.7667H102.169V30.5667ZM103.503 29.2333H102.169V29.4333H103.503V29.2333ZM102.269 29.3333V26.6667H102.069V29.3333H102.269ZM102.169 26.7667H103.503V26.5667H102.169V26.7667ZM103.403 26.6667V29.3333H103.603V26.6667H103.403ZM103.603 26.6667V24H103.403V26.6667H103.603ZM103.503 24.1H104.836V23.9H103.503V24.1ZM104.736 24V26.6667H104.936V24H104.736ZM104.836 26.5667H103.503V26.7667H104.836V26.5667ZM106.269 26.6667V24H106.069V26.6667H106.269ZM106.169 24.1H107.503V23.9H106.169V24.1ZM107.403 24V26.6667H107.603V24H107.403ZM107.503 26.5667H106.169V26.7667H107.503V26.5667ZM106.169 23.9H104.836V24.1H106.169V23.9ZM104.936 24V17.3333H104.736V24H104.936ZM104.836 17.4333H106.169V17.2333H104.836V17.4333ZM106.069 17.3333V24H106.269V17.3333H106.069ZM108.836 29.2333H107.503V29.4333H108.836V29.2333ZM107.603 29.3333V26.6667H107.403V29.3333H107.603ZM107.503 26.7667H108.836V26.5667H107.503V26.7667ZM108.736 26.6667V29.3333H108.936V26.6667H108.736ZM108.936 30.6667V29.3333H108.736V30.6667H108.936ZM108.836 29.4333H110.169V29.2333H108.836V29.4333ZM110.069 29.3333V30.6667H110.269V29.3333H110.069ZM110.169 30.5667H108.836V30.7667H110.169V30.5667ZM128.836 17.3333V17.2333H128.736V17.3333H128.836ZM130.169 17.3333H130.269V17.2333H130.169V17.3333ZM130.169 24H130.069V24.1H130.169V24ZM131.503 24H131.603V23.9H131.503V24ZM131.503 25.3333V25.4333H131.603V25.3333H131.503ZM130.169 25.3333V25.2333H130.069V25.3333H130.169ZM130.169 32V32.1H130.269V32H130.169ZM128.836 32H128.736V32.1H128.836V32ZM116.836 21.3333H116.736V21.4333H116.836V21.3333ZM116.836 20V19.9H116.736V20H116.836ZM127.503 20H127.603V19.9H127.503V20ZM127.503 21.3333V21.4333H127.603V21.3333H127.503ZM119.503 29.3333V29.4333H119.603V29.3333H119.503ZM118.169 29.3333H118.069V29.4333H118.169V29.3333ZM118.169 24V23.9H118.069V24H118.169ZM119.503 24H119.603V23.9H119.503V24ZM119.503 30.6667H119.403V30.7667H119.503V30.6667ZM119.503 29.3333V29.2333H119.403V29.3333H119.503ZM124.836 29.3333H124.936V29.2333H124.836V29.3333ZM124.836 30.6667V30.7667H124.936V30.6667H124.836ZM119.503 24H119.403V24.1H119.503V24ZM119.503 22.6667V22.5667H119.403V22.6667H119.503ZM124.836 22.6667H124.936V22.5667H124.836V22.6667ZM124.836 24V24.1H124.936V24H124.836ZM119.503 18.6667H119.403V18.7667H119.503V18.6667ZM119.503 17.3333V17.2333H119.403V17.3333H119.503ZM124.836 17.3333H124.936V17.2333H124.836V17.3333ZM124.836 18.6667V18.7667H124.936V18.6667H124.836ZM124.836 29.3333H124.736V29.4333H124.836V29.3333ZM124.836 24V23.9H124.736V24H124.836ZM126.169 24H126.269V23.9H126.169V24ZM126.169 29.3333V29.4333H126.269V29.3333H126.169ZM128.836 17.4333H130.169V17.2333H128.836V17.4333ZM130.069 17.3333V24H130.269V17.3333H130.069ZM130.169 24.1H131.503V23.9H130.169V24.1ZM131.403 24V25.3333H131.603V24H131.403ZM131.503 25.2333H130.169V25.4333H131.503V25.2333ZM130.069 25.3333V32H130.269V25.3333H130.069ZM130.169 31.9H128.836V32.1H130.169V31.9ZM128.936 32V17.3333H128.736V32H128.936ZM116.936 21.3333V20H116.736V21.3333H116.936ZM116.836 20.1H127.503V19.9H116.836V20.1ZM127.403 20V21.3333H127.603V20H127.403ZM127.503 21.2333H116.836V21.4333H127.503V21.2333ZM119.503 29.2333H118.169V29.4333H119.503V29.2333ZM118.269 29.3333V24H118.069V29.3333H118.269ZM118.169 24.1H119.503V23.9H118.169V24.1ZM119.403 24V29.3333H119.603V24H119.403ZM119.603 30.6667V29.3333H119.403V30.6667H119.603ZM119.503 29.4333H124.836V29.2333H119.503V29.4333ZM124.736 29.3333V30.6667H124.936V29.3333H124.736ZM124.836 30.5667H119.503V30.7667H124.836V30.5667ZM119.603 24V22.6667H119.403V24H119.603ZM119.503 22.7667H124.836V22.5667H119.503V22.7667ZM124.736 22.6667V24H124.936V22.6667H124.736ZM124.836 23.9H119.503V24.1H124.836V23.9ZM119.603 18.6667V17.3333H119.403V18.6667H119.603ZM119.503 17.4333H124.836V17.2333H119.503V17.4333ZM124.736 17.3333V18.6667H124.936V17.3333H124.736ZM124.836 18.5667H119.503V18.7667H124.836V18.5667ZM124.936 29.3333V24H124.736V29.3333H124.936ZM124.836 24.1H126.169V23.9H124.836V24.1ZM126.069 24V29.3333H126.269V24H126.069ZM126.169 29.2333H124.836V29.4333H126.169V29.2333ZM144.836 17.3333V17.2333H144.736V17.3333H144.836ZM146.169 17.3333H146.269V17.2333H146.169V17.3333ZM146.169 32V32.1H146.269V32H146.169ZM144.836 32H144.736V32.1H144.836V32ZM132.836 30.6667H132.736V30.7667H132.836V30.6667ZM132.836 29.3333V29.2333H132.736V29.3333H132.836ZM135.503 29.3333H135.603V29.2333H135.503V29.3333ZM135.503 30.6667V30.7667H135.603V30.6667H135.503ZM132.836 18.6667H132.736V18.7667H132.836V18.6667ZM132.836 17.3333V17.2333H132.736V17.3333H132.836ZM140.836 17.3333H140.936V17.2333H140.836V17.3333ZM140.836 24V24.1H140.936V24H140.836ZM139.503 24H139.403V24.1H139.503V24ZM139.503 18.6667H139.603V18.5667H139.503V18.6667ZM135.503 29.3333H135.403V29.4333H135.503V29.3333ZM135.503 28V27.9H135.403V28H135.503ZM136.836 28H136.936V27.9H136.836V28ZM136.836 29.3333V29.4333H136.936V29.3333H136.836ZM136.836 28H136.736V28.1H136.836V28ZM136.836 26.6667V26.5667H136.736V26.6667H136.836ZM138.169 26.6667H138.269V26.5667H138.169V26.6667ZM138.169 28V28.1H138.269V28H138.169ZM138.169 26.6667H138.069V26.7667H138.169V26.6667ZM138.169 24V23.9H138.069V24H138.169ZM139.503 24H139.603V23.9H139.503V24ZM139.503 26.6667V26.7667H139.603V26.6667H139.503ZM144.836 17.4333H146.169V17.2333H144.836V17.4333ZM146.069 17.3333V32H146.269V17.3333H146.069ZM146.169 31.9H144.836V32.1H146.169V31.9ZM144.936 32V17.3333H144.736V32H144.936ZM132.936 30.6667V29.3333H132.736V30.6667H132.936ZM132.836 29.4333H135.503V29.2333H132.836V29.4333ZM135.403 29.3333V30.6667H135.603V29.3333H135.403ZM135.503 30.5667H132.836V30.7667H135.503V30.5667ZM132.936 18.6667V17.3333H132.736V18.6667H132.936ZM132.836 17.4333H140.836V17.2333H132.836V17.4333ZM140.736 17.3333V24H140.936V17.3333H140.736ZM140.836 23.9H139.503V24.1H140.836V23.9ZM139.603 24V18.6667H139.403V24H139.603ZM139.503 18.5667H132.836V18.7667H139.503V18.5667ZM135.603 29.3333V28H135.403V29.3333H135.603ZM135.503 28.1H136.836V27.9H135.503V28.1ZM136.736 28V29.3333H136.936V28H136.736ZM136.836 29.2333H135.503V29.4333H136.836V29.2333ZM136.936 28V26.6667H136.736V28H136.936ZM136.836 26.7667H138.169V26.5667H136.836V26.7667ZM138.069 26.6667V28H138.269V26.6667H138.069ZM138.169 27.9H136.836V28.1H138.169V27.9ZM138.269 26.6667V24H138.069V26.6667H138.269ZM138.169 24.1H139.503V23.9H138.169V24.1ZM139.403 24V26.6667H139.603V24H139.403ZM139.503 26.5667H138.169V26.7667H139.503V26.5667Z" fill="white" mask="url(#path-4-outside-1_890_13639)"/>
<rect y="6" width="3" height="38" fill="#00C2FF"/>
<rect x="160" y="6" width="3" height="38" fill="#00C2FF"/>
<rect x="3" y="3" width="8" height="3" fill="#00C2FF"/>
<rect x="3" y="44" width="8" height="3" fill="#00C2FF"/>
<rect x="152" y="44" width="8" height="3" fill="#00C2FF"/>
<rect x="152" y="3" width="8" height="3" fill="#00C2FF"/>
<rect x="80" y="59" width="3" height="3" fill="#00C2FF"/>
<rect x="77" y="53" width="3" height="6" fill="#00C2FF"/>
<rect x="74" y="50" width="3" height="3" fill="#00C2FF"/>
<rect width="3" height="3" transform="matrix(-1 0 0 1 83 59)" fill="#00C2FF"/>
<rect width="3" height="6" transform="matrix(-1 0 0 1 86 53)" fill="#00C2FF"/>
<rect width="3" height="3" transform="matrix(-1 0 0 1 89 50)" fill="#00C2FF"/>
<rect x="86" y="47" width="66" height="3" fill="#00C2FF"/>
<rect x="77" y="47" width="3" height="66" transform="rotate(90 77 47)" fill="#00C2FF"/>
<rect x="152" width="3.00001" height="141" transform="rotate(90 152 0)" fill="#00C2FF"/>
</svg>
