<svg width="141" height="62" viewBox="0 0 141 62" fill="none" xmlns="http://www.w3.org/2000/svg">
<rect x="17" y="3" width="107" height="44" fill="#003D50"/>
<rect width="15" height="6" transform="matrix(1 0 0 -1 63 53)" fill="#003D50"/>
<rect width="9" height="6" transform="matrix(1 0 0 -1 66 59)" fill="#003D50"/>
<mask id="path-4-outside-1_890_15663" maskUnits="userSpaceOnUse" x="32" y="17" width="74" height="16" fill="black">
<rect fill="white" x="32" y="17" width="74" height="16"/>
<path d="M44.5 17.3333H45.8333V20H47.1667V21.3333H45.8333V24H44.5V17.3333ZM32.5 24V17.3333H33.8333V22.6667H41.8333V24H32.5ZM44.5 28V26.6667H33.8333V25.3333H45.8333V29.3333H35.1667V30.6667H45.8333V32H33.8333V28H44.5ZM67.1719 17.3333H68.5052V32H67.1719V26.6667H63.1719V25.3333H67.1719V17.3333ZM55.1719 22.6667V20H56.5052V22.6667H55.1719ZM57.8385 29.3333V30.6667H61.8385V32H56.5052V28H60.5052V26.6667H56.5052V25.3333H57.8385V24H61.8385V29.3333H57.8385ZM57.8385 22.6667V24H56.5052V22.6667H57.8385ZM57.8385 18.6667V20H56.5052V18.6667H57.8385ZM57.8385 17.3333H61.8385V18.6667H57.8385V17.3333ZM63.1719 22.6667V24H61.8385V22.6667H63.1719ZM63.1719 18.6667V20H61.8385V18.6667H63.1719ZM63.1719 20H64.5052V22.6667H63.1719V20ZM83.1719 17.3333H84.5052V32H83.1719V24H80.5052V28H79.1719V20H80.5052V22.6667H83.1719V17.3333ZM71.1719 28V20H72.5052V28H71.1719ZM73.8385 29.3333H72.5052V28H73.8385V29.3333ZM73.8385 30.6667V29.3333H77.8385V30.6667H73.8385ZM73.8385 18.6667V20H72.5052V18.6667H73.8385ZM73.8385 17.3333H77.8385V18.6667H73.8385V17.3333ZM79.1719 29.3333H77.8385V28H79.1719V29.3333ZM79.1719 18.6667V20H77.8385V18.6667H79.1719ZM99.1719 17.3333H100.505V24H101.839V25.3333H100.505V32H99.1719V17.3333ZM87.1719 30.6667V29.3333H91.1719V25.3333H87.1719V17.3333H88.5052V20H95.1719V17.3333H96.5052V25.3333H92.5052V29.3333H97.8385V30.6667H87.1719ZM95.1719 24V21.3333H88.5052V24H95.1719ZM104.505 17.3333H105.839V28H104.505V17.3333ZM104.505 29.3333H105.839V32H104.505V29.3333Z"/>
</mask>
<path d="M44.5 17.3333H45.8333V20H47.1667V21.3333H45.8333V24H44.5V17.3333ZM32.5 24V17.3333H33.8333V22.6667H41.8333V24H32.5ZM44.5 28V26.6667H33.8333V25.3333H45.8333V29.3333H35.1667V30.6667H45.8333V32H33.8333V28H44.5ZM67.1719 17.3333H68.5052V32H67.1719V26.6667H63.1719V25.3333H67.1719V17.3333ZM55.1719 22.6667V20H56.5052V22.6667H55.1719ZM57.8385 29.3333V30.6667H61.8385V32H56.5052V28H60.5052V26.6667H56.5052V25.3333H57.8385V24H61.8385V29.3333H57.8385ZM57.8385 22.6667V24H56.5052V22.6667H57.8385ZM57.8385 18.6667V20H56.5052V18.6667H57.8385ZM57.8385 17.3333H61.8385V18.6667H57.8385V17.3333ZM63.1719 22.6667V24H61.8385V22.6667H63.1719ZM63.1719 18.6667V20H61.8385V18.6667H63.1719ZM63.1719 20H64.5052V22.6667H63.1719V20ZM83.1719 17.3333H84.5052V32H83.1719V24H80.5052V28H79.1719V20H80.5052V22.6667H83.1719V17.3333ZM71.1719 28V20H72.5052V28H71.1719ZM73.8385 29.3333H72.5052V28H73.8385V29.3333ZM73.8385 30.6667V29.3333H77.8385V30.6667H73.8385ZM73.8385 18.6667V20H72.5052V18.6667H73.8385ZM73.8385 17.3333H77.8385V18.6667H73.8385V17.3333ZM79.1719 29.3333H77.8385V28H79.1719V29.3333ZM79.1719 18.6667V20H77.8385V18.6667H79.1719ZM99.1719 17.3333H100.505V24H101.839V25.3333H100.505V32H99.1719V17.3333ZM87.1719 30.6667V29.3333H91.1719V25.3333H87.1719V17.3333H88.5052V20H95.1719V17.3333H96.5052V25.3333H92.5052V29.3333H97.8385V30.6667H87.1719ZM95.1719 24V21.3333H88.5052V24H95.1719ZM104.505 17.3333H105.839V28H104.505V17.3333ZM104.505 29.3333H105.839V32H104.505V29.3333Z" fill="white"/>
<path d="M44.5 17.3333V17.2333H44.4V17.3333H44.5ZM45.8333 17.3333H45.9333V17.2333H45.8333V17.3333ZM45.8333 20H45.7333V20.1H45.8333V20ZM47.1667 20H47.2667V19.9H47.1667V20ZM47.1667 21.3333V21.4333H47.2667V21.3333H47.1667ZM45.8333 21.3333V21.2333H45.7333V21.3333H45.8333ZM45.8333 24V24.1H45.9333V24H45.8333ZM44.5 24H44.4V24.1H44.5V24ZM32.5 24H32.4V24.1H32.5V24ZM32.5 17.3333V17.2333H32.4V17.3333H32.5ZM33.8333 17.3333H33.9333V17.2333H33.8333V17.3333ZM33.8333 22.6667H33.7333V22.7667H33.8333V22.6667ZM41.8333 22.6667H41.9333V22.5667H41.8333V22.6667ZM41.8333 24V24.1H41.9333V24H41.8333ZM44.5 28V28.1H44.6V28H44.5ZM44.5 26.6667H44.6V26.5667H44.5V26.6667ZM33.8333 26.6667H33.7333V26.7667H33.8333V26.6667ZM33.8333 25.3333V25.2333H33.7333V25.3333H33.8333ZM45.8333 25.3333H45.9333V25.2333H45.8333V25.3333ZM45.8333 29.3333V29.4333H45.9333V29.3333H45.8333ZM35.1667 29.3333V29.2333H35.0667V29.3333H35.1667ZM35.1667 30.6667H35.0667V30.7667H35.1667V30.6667ZM45.8333 30.6667H45.9333V30.5667H45.8333V30.6667ZM45.8333 32V32.1H45.9333V32H45.8333ZM33.8333 32H33.7333V32.1H33.8333V32ZM33.8333 28V27.9H33.7333V28H33.8333ZM44.5 17.4333H45.8333V17.2333H44.5V17.4333ZM45.7333 17.3333V20H45.9333V17.3333H45.7333ZM45.8333 20.1H47.1667V19.9H45.8333V20.1ZM47.0667 20V21.3333H47.2667V20H47.0667ZM47.1667 21.2333H45.8333V21.4333H47.1667V21.2333ZM45.7333 21.3333V24H45.9333V21.3333H45.7333ZM45.8333 23.9H44.5V24.1H45.8333V23.9ZM44.6 24V17.3333H44.4V24H44.6ZM32.6 24V17.3333H32.4V24H32.6ZM32.5 17.4333H33.8333V17.2333H32.5V17.4333ZM33.7333 17.3333V22.6667H33.9333V17.3333H33.7333ZM33.8333 22.7667H41.8333V22.5667H33.8333V22.7667ZM41.7333 22.6667V24H41.9333V22.6667H41.7333ZM41.8333 23.9H32.5V24.1H41.8333V23.9ZM44.6 28V26.6667H44.4V28H44.6ZM44.5 26.5667H33.8333V26.7667H44.5V26.5667ZM33.9333 26.6667V25.3333H33.7333V26.6667H33.9333ZM33.8333 25.4333H45.8333V25.2333H33.8333V25.4333ZM45.7333 25.3333V29.3333H45.9333V25.3333H45.7333ZM45.8333 29.2333H35.1667V29.4333H45.8333V29.2333ZM35.0667 29.3333V30.6667H35.2667V29.3333H35.0667ZM35.1667 30.7667H45.8333V30.5667H35.1667V30.7667ZM45.7333 30.6667V32H45.9333V30.6667H45.7333ZM45.8333 31.9H33.8333V32.1H45.8333V31.9ZM33.9333 32V28H33.7333V32H33.9333ZM33.8333 28.1H44.5V27.9H33.8333V28.1ZM67.1719 17.3333V17.2333H67.0719V17.3333H67.1719ZM68.5052 17.3333H68.6052V17.2333H68.5052V17.3333ZM68.5052 32V32.1H68.6052V32H68.5052ZM67.1719 32H67.0719V32.1H67.1719V32ZM67.1719 26.6667H67.2719V26.5667H67.1719V26.6667ZM63.1719 26.6667H63.0719V26.7667H63.1719V26.6667ZM63.1719 25.3333V25.2333H63.0719V25.3333H63.1719ZM67.1719 25.3333V25.4333H67.2719V25.3333H67.1719ZM55.1719 22.6667H55.0719V22.7667H55.1719V22.6667ZM55.1719 20V19.9H55.0719V20H55.1719ZM56.5052 20H56.6052V19.9H56.5052V20ZM56.5052 22.6667V22.7667H56.6052V22.6667H56.5052ZM57.8385 29.3333V29.2333H57.7385V29.3333H57.8385ZM57.8385 30.6667H57.7385V30.7667H57.8385V30.6667ZM61.8385 30.6667H61.9385V30.5667H61.8385V30.6667ZM61.8385 32V32.1H61.9385V32H61.8385ZM56.5052 32H56.4052V32.1H56.5052V32ZM56.5052 28V27.9H56.4052V28H56.5052ZM60.5052 28V28.1H60.6052V28H60.5052ZM60.5052 26.6667H60.6052V26.5667H60.5052V26.6667ZM56.5052 26.6667H56.4052V26.7667H56.5052V26.6667ZM56.5052 25.3333V25.2333H56.4052V25.3333H56.5052ZM57.8385 25.3333V25.4333H57.9385V25.3333H57.8385ZM57.8385 24V23.9H57.7385V24H57.8385ZM61.8385 24H61.9385V23.9H61.8385V24ZM61.8385 29.3333V29.4333H61.9385V29.3333H61.8385ZM57.8385 22.6667H57.9385V22.5667H57.8385V22.6667ZM57.8385 24V24.1H57.9385V24H57.8385ZM56.5052 24H56.4052V24.1H56.5052V24ZM56.5052 22.6667V22.5667H56.4052V22.6667H56.5052ZM57.8385 18.6667H57.9385V18.5667H57.8385V18.6667ZM57.8385 20V20.1H57.9385V20H57.8385ZM56.5052 20H56.4052V20.1H56.5052V20ZM56.5052 18.6667V18.5667H56.4052V18.6667H56.5052ZM57.8385 17.3333V17.2333H57.7385V17.3333H57.8385ZM61.8385 17.3333H61.9385V17.2333H61.8385V17.3333ZM61.8385 18.6667V18.7667H61.9385V18.6667H61.8385ZM57.8385 18.6667H57.7385V18.7667H57.8385V18.6667ZM63.1719 22.6667H63.2719V22.5667H63.1719V22.6667ZM63.1719 24V24.1H63.2719V24H63.1719ZM61.8385 24H61.7385V24.1H61.8385V24ZM61.8385 22.6667V22.5667H61.7385V22.6667H61.8385ZM63.1719 18.6667H63.2719V18.5667H63.1719V18.6667ZM63.1719 20V20.1H63.2719V20H63.1719ZM61.8385 20H61.7385V20.1H61.8385V20ZM61.8385 18.6667V18.5667H61.7385V18.6667H61.8385ZM63.1719 20V19.9H63.0719V20H63.1719ZM64.5052 20H64.6052V19.9H64.5052V20ZM64.5052 22.6667V22.7667H64.6052V22.6667H64.5052ZM63.1719 22.6667H63.0719V22.7667H63.1719V22.6667ZM67.1719 17.4333H68.5052V17.2333H67.1719V17.4333ZM68.4052 17.3333V32H68.6052V17.3333H68.4052ZM68.5052 31.9H67.1719V32.1H68.5052V31.9ZM67.2719 32V26.6667H67.0719V32H67.2719ZM67.1719 26.5667H63.1719V26.7667H67.1719V26.5667ZM63.2719 26.6667V25.3333H63.0719V26.6667H63.2719ZM63.1719 25.4333H67.1719V25.2333H63.1719V25.4333ZM67.2719 25.3333V17.3333H67.0719V25.3333H67.2719ZM55.2719 22.6667V20H55.0719V22.6667H55.2719ZM55.1719 20.1H56.5052V19.9H55.1719V20.1ZM56.4052 20V22.6667H56.6052V20H56.4052ZM56.5052 22.5667H55.1719V22.7667H56.5052V22.5667ZM57.7385 29.3333V30.6667H57.9385V29.3333H57.7385ZM57.8385 30.7667H61.8385V30.5667H57.8385V30.7667ZM61.7385 30.6667V32H61.9385V30.6667H61.7385ZM61.8385 31.9H56.5052V32.1H61.8385V31.9ZM56.6052 32V28H56.4052V32H56.6052ZM56.5052 28.1H60.5052V27.9H56.5052V28.1ZM60.6052 28V26.6667H60.4052V28H60.6052ZM60.5052 26.5667H56.5052V26.7667H60.5052V26.5667ZM56.6052 26.6667V25.3333H56.4052V26.6667H56.6052ZM56.5052 25.4333H57.8385V25.2333H56.5052V25.4333ZM57.9385 25.3333V24H57.7385V25.3333H57.9385ZM57.8385 24.1H61.8385V23.9H57.8385V24.1ZM61.7385 24V29.3333H61.9385V24H61.7385ZM61.8385 29.2333H57.8385V29.4333H61.8385V29.2333ZM57.7385 22.6667V24H57.9385V22.6667H57.7385ZM57.8385 23.9H56.5052V24.1H57.8385V23.9ZM56.6052 24V22.6667H56.4052V24H56.6052ZM56.5052 22.7667H57.8385V22.5667H56.5052V22.7667ZM57.7385 18.6667V20H57.9385V18.6667H57.7385ZM57.8385 19.9H56.5052V20.1H57.8385V19.9ZM56.6052 20V18.6667H56.4052V20H56.6052ZM56.5052 18.7667H57.8385V18.5667H56.5052V18.7667ZM57.8385 17.4333H61.8385V17.2333H57.8385V17.4333ZM61.7385 17.3333V18.6667H61.9385V17.3333H61.7385ZM61.8385 18.5667H57.8385V18.7667H61.8385V18.5667ZM57.9385 18.6667V17.3333H57.7385V18.6667H57.9385ZM63.0719 22.6667V24H63.2719V22.6667H63.0719ZM63.1719 23.9H61.8385V24.1H63.1719V23.9ZM61.9385 24V22.6667H61.7385V24H61.9385ZM61.8385 22.7667H63.1719V22.5667H61.8385V22.7667ZM63.0719 18.6667V20H63.2719V18.6667H63.0719ZM63.1719 19.9H61.8385V20.1H63.1719V19.9ZM61.9385 20V18.6667H61.7385V20H61.9385ZM61.8385 18.7667H63.1719V18.5667H61.8385V18.7667ZM63.1719 20.1H64.5052V19.9H63.1719V20.1ZM64.4052 20V22.6667H64.6052V20H64.4052ZM64.5052 22.5667H63.1719V22.7667H64.5052V22.5667ZM63.2719 22.6667V20H63.0719V22.6667H63.2719ZM83.1719 17.3333V17.2333H83.0719V17.3333H83.1719ZM84.5052 17.3333H84.6052V17.2333H84.5052V17.3333ZM84.5052 32V32.1H84.6052V32H84.5052ZM83.1719 32H83.0719V32.1H83.1719V32ZM83.1719 24H83.2719V23.9H83.1719V24ZM80.5052 24V23.9H80.4052V24H80.5052ZM80.5052 28V28.1H80.6052V28H80.5052ZM79.1719 28H79.0719V28.1H79.1719V28ZM79.1719 20V19.9H79.0719V20H79.1719ZM80.5052 20H80.6052V19.9H80.5052V20ZM80.5052 22.6667H80.4052V22.7667H80.5052V22.6667ZM83.1719 22.6667V22.7667H83.2719V22.6667H83.1719ZM71.1719 28H71.0719V28.1H71.1719V28ZM71.1719 20V19.9H71.0719V20H71.1719ZM72.5052 20H72.6052V19.9H72.5052V20ZM72.5052 28V28.1H72.6052V28H72.5052ZM73.8385 29.3333V29.4333H73.9385V29.3333H73.8385ZM72.5052 29.3333H72.4052V29.4333H72.5052V29.3333ZM72.5052 28V27.9H72.4052V28H72.5052ZM73.8385 28H73.9385V27.9H73.8385V28ZM73.8385 30.6667H73.7385V30.7667H73.8385V30.6667ZM73.8385 29.3333V29.2333H73.7385V29.3333H73.8385ZM77.8385 29.3333H77.9385V29.2333H77.8385V29.3333ZM77.8385 30.6667V30.7667H77.9385V30.6667H77.8385ZM73.8385 18.6667H73.9385V18.5667H73.8385V18.6667ZM73.8385 20V20.1H73.9385V20H73.8385ZM72.5052 20H72.4052V20.1H72.5052V20ZM72.5052 18.6667V18.5667H72.4052V18.6667H72.5052ZM73.8385 17.3333V17.2333H73.7385V17.3333H73.8385ZM77.8385 17.3333H77.9385V17.2333H77.8385V17.3333ZM77.8385 18.6667V18.7667H77.9385V18.6667H77.8385ZM73.8385 18.6667H73.7385V18.7667H73.8385V18.6667ZM79.1719 29.3333V29.4333H79.2719V29.3333H79.1719ZM77.8385 29.3333H77.7385V29.4333H77.8385V29.3333ZM77.8385 28V27.9H77.7385V28H77.8385ZM79.1719 28H79.2719V27.9H79.1719V28ZM79.1719 18.6667H79.2719V18.5667H79.1719V18.6667ZM79.1719 20V20.1H79.2719V20H79.1719ZM77.8385 20H77.7385V20.1H77.8385V20ZM77.8385 18.6667V18.5667H77.7385V18.6667H77.8385ZM83.1719 17.4333H84.5052V17.2333H83.1719V17.4333ZM84.4052 17.3333V32H84.6052V17.3333H84.4052ZM84.5052 31.9H83.1719V32.1H84.5052V31.9ZM83.2719 32V24H83.0719V32H83.2719ZM83.1719 23.9H80.5052V24.1H83.1719V23.9ZM80.4052 24V28H80.6052V24H80.4052ZM80.5052 27.9H79.1719V28.1H80.5052V27.9ZM79.2719 28V20H79.0719V28H79.2719ZM79.1719 20.1H80.5052V19.9H79.1719V20.1ZM80.4052 20V22.6667H80.6052V20H80.4052ZM80.5052 22.7667H83.1719V22.5667H80.5052V22.7667ZM83.2719 22.6667V17.3333H83.0719V22.6667H83.2719ZM71.2719 28V20H71.0719V28H71.2719ZM71.1719 20.1H72.5052V19.9H71.1719V20.1ZM72.4052 20V28H72.6052V20H72.4052ZM72.5052 27.9H71.1719V28.1H72.5052V27.9ZM73.8385 29.2333H72.5052V29.4333H73.8385V29.2333ZM72.6052 29.3333V28H72.4052V29.3333H72.6052ZM72.5052 28.1H73.8385V27.9H72.5052V28.1ZM73.7385 28V29.3333H73.9385V28H73.7385ZM73.9385 30.6667V29.3333H73.7385V30.6667H73.9385ZM73.8385 29.4333H77.8385V29.2333H73.8385V29.4333ZM77.7385 29.3333V30.6667H77.9385V29.3333H77.7385ZM77.8385 30.5667H73.8385V30.7667H77.8385V30.5667ZM73.7385 18.6667V20H73.9385V18.6667H73.7385ZM73.8385 19.9H72.5052V20.1H73.8385V19.9ZM72.6052 20V18.6667H72.4052V20H72.6052ZM72.5052 18.7667H73.8385V18.5667H72.5052V18.7667ZM73.8385 17.4333H77.8385V17.2333H73.8385V17.4333ZM77.7385 17.3333V18.6667H77.9385V17.3333H77.7385ZM77.8385 18.5667H73.8385V18.7667H77.8385V18.5667ZM73.9385 18.6667V17.3333H73.7385V18.6667H73.9385ZM79.1719 29.2333H77.8385V29.4333H79.1719V29.2333ZM77.9385 29.3333V28H77.7385V29.3333H77.9385ZM77.8385 28.1H79.1719V27.9H77.8385V28.1ZM79.0719 28V29.3333H79.2719V28H79.0719ZM79.0719 18.6667V20H79.2719V18.6667H79.0719ZM79.1719 19.9H77.8385V20.1H79.1719V19.9ZM77.9385 20V18.6667H77.7385V20H77.9385ZM77.8385 18.7667H79.1719V18.5667H77.8385V18.7667ZM99.1719 17.3333V17.2333H99.0719V17.3333H99.1719ZM100.505 17.3333H100.605V17.2333H100.505V17.3333ZM100.505 24H100.405V24.1H100.505V24ZM101.839 24H101.939V23.9H101.839V24ZM101.839 25.3333V25.4333H101.939V25.3333H101.839ZM100.505 25.3333V25.2333H100.405V25.3333H100.505ZM100.505 32V32.1H100.605V32H100.505ZM99.1719 32H99.0719V32.1H99.1719V32ZM87.1719 30.6667H87.0719V30.7667H87.1719V30.6667ZM87.1719 29.3333V29.2333H87.0719V29.3333H87.1719ZM91.1719 29.3333V29.4333H91.2719V29.3333H91.1719ZM91.1719 25.3333H91.2719V25.2333H91.1719V25.3333ZM87.1719 25.3333H87.0719V25.4333H87.1719V25.3333ZM87.1719 17.3333V17.2333H87.0719V17.3333H87.1719ZM88.5052 17.3333H88.6052V17.2333H88.5052V17.3333ZM88.5052 20H88.4052V20.1H88.5052V20ZM95.1719 20V20.1H95.2719V20H95.1719ZM95.1719 17.3333V17.2333H95.0719V17.3333H95.1719ZM96.5052 17.3333H96.6052V17.2333H96.5052V17.3333ZM96.5052 25.3333V25.4333H96.6052V25.3333H96.5052ZM92.5052 25.3333V25.2333H92.4052V25.3333H92.5052ZM92.5052 29.3333H92.4052V29.4333H92.5052V29.3333ZM97.8385 29.3333H97.9385V29.2333H97.8385V29.3333ZM97.8385 30.6667V30.7667H97.9385V30.6667H97.8385ZM95.1719 24V24.1H95.2719V24H95.1719ZM95.1719 21.3333H95.2719V21.2333H95.1719V21.3333ZM88.5052 21.3333V21.2333H88.4052V21.3333H88.5052ZM88.5052 24H88.4052V24.1H88.5052V24ZM99.1719 17.4333H100.505V17.2333H99.1719V17.4333ZM100.405 17.3333V24H100.605V17.3333H100.405ZM100.505 24.1H101.839V23.9H100.505V24.1ZM101.739 24V25.3333H101.939V24H101.739ZM101.839 25.2333H100.505V25.4333H101.839V25.2333ZM100.405 25.3333V32H100.605V25.3333H100.405ZM100.505 31.9H99.1719V32.1H100.505V31.9ZM99.2719 32V17.3333H99.0719V32H99.2719ZM87.2719 30.6667V29.3333H87.0719V30.6667H87.2719ZM87.1719 29.4333H91.1719V29.2333H87.1719V29.4333ZM91.2719 29.3333V25.3333H91.0719V29.3333H91.2719ZM91.1719 25.2333H87.1719V25.4333H91.1719V25.2333ZM87.2719 25.3333V17.3333H87.0719V25.3333H87.2719ZM87.1719 17.4333H88.5052V17.2333H87.1719V17.4333ZM88.4052 17.3333V20H88.6052V17.3333H88.4052ZM88.5052 20.1H95.1719V19.9H88.5052V20.1ZM95.2719 20V17.3333H95.0719V20H95.2719ZM95.1719 17.4333H96.5052V17.2333H95.1719V17.4333ZM96.4052 17.3333V25.3333H96.6052V17.3333H96.4052ZM96.5052 25.2333H92.5052V25.4333H96.5052V25.2333ZM92.4052 25.3333V29.3333H92.6052V25.3333H92.4052ZM92.5052 29.4333H97.8385V29.2333H92.5052V29.4333ZM97.7385 29.3333V30.6667H97.9385V29.3333H97.7385ZM97.8385 30.5667H87.1719V30.7667H97.8385V30.5667ZM95.2719 24V21.3333H95.0719V24H95.2719ZM95.1719 21.2333H88.5052V21.4333H95.1719V21.2333ZM88.4052 21.3333V24H88.6052V21.3333H88.4052ZM88.5052 24.1H95.1719V23.9H88.5052V24.1ZM104.505 17.3333V17.2333H104.405V17.3333H104.505ZM105.839 17.3333H105.939V17.2333H105.839V17.3333ZM105.839 28V28.1H105.939V28H105.839ZM104.505 28H104.405V28.1H104.505V28ZM104.505 29.3333V29.2333H104.405V29.3333H104.505ZM105.839 29.3333H105.939V29.2333H105.839V29.3333ZM105.839 32V32.1H105.939V32H105.839ZM104.505 32H104.405V32.1H104.505V32ZM104.505 17.4333H105.839V17.2333H104.505V17.4333ZM105.739 17.3333V28H105.939V17.3333H105.739ZM105.839 27.9H104.505V28.1H105.839V27.9ZM104.605 28V17.3333H104.405V28H104.605ZM104.505 29.4333H105.839V29.2333H104.505V29.4333ZM105.739 29.3333V32H105.939V29.3333H105.739ZM105.839 31.9H104.505V32.1H105.839V31.9ZM104.605 32V29.3333H104.405V32H104.605Z" fill="white" mask="url(#path-4-outside-1_890_15663)"/>
<rect x="14" y="6" width="3" height="38" fill="#00C2FF"/>
<rect x="124" y="6" width="3" height="38" fill="#00C2FF"/>
<rect x="17" y="3" width="8" height="3" fill="#00C2FF"/>
<rect x="17" y="44" width="8" height="3" fill="#00C2FF"/>
<rect x="116" y="44" width="8" height="3" fill="#00C2FF"/>
<rect x="116" y="3" width="8" height="3" fill="#00C2FF"/>
<rect x="69" y="59" width="3" height="3" fill="#00C2FF"/>
<rect x="66" y="53" width="3" height="6" fill="#00C2FF"/>
<rect x="63" y="50" width="3" height="3" fill="#00C2FF"/>
<rect width="3" height="3" transform="matrix(-1 0 0 1 72 59)" fill="#00C2FF"/>
<rect width="3" height="6" transform="matrix(-1 0 0 1 75 53)" fill="#00C2FF"/>
<rect width="3" height="3" transform="matrix(-1 0 0 1 78 50)" fill="#00C2FF"/>
<rect x="75" y="47" width="41" height="3" fill="#00C2FF"/>
<rect x="66" y="47" width="3" height="41" transform="rotate(90 66 47)" fill="#00C2FF"/>
<rect x="116" width="3.00001" height="91" transform="rotate(90 116 0)" fill="#00C2FF"/>
</svg>
