<svg width="8" height="14" viewBox="0 0 8 14" fill="none" xmlns="http://www.w3.org/2000/svg">
<path d="M6.31995 8.852V9.752H5.70795V10.634H5.09595V11.498H4.46595V12.416H3.85395V13.298H3.15195V14H1.11795V13.298H0.541953V11.498H1.11795V10.634H1.72995V9.752H2.32395V8.852H2.95395V7.916H3.60195V6.566H2.95395V5.648H2.32395V4.748H1.72995V3.866H1.11795V2.984H0.541953V1.22H1.11795V0.499999H3.15195V1.22H3.85395V2.102H4.46595V2.984H5.09595V3.866H5.70795V4.748H6.31995V5.648H6.89595V6.566H7.54395V7.916H6.89595V8.852H6.31995Z" fill="#00ABFF"/>
</svg>
