<svg width="13" height="23" viewBox="0 0 13 23" fill="none" xmlns="http://www.w3.org/2000/svg">
<path d="M2.80008 8.58L1.84008 8.58L1.84008 10.14L0.760076 10.14L0.760076 12.39L1.84008 12.39L1.84008 13.92L2.80008 13.92L2.80008 15.42L3.82008 15.42L3.82008 16.89L4.84008 16.89L4.84008 18.36L5.89008 18.36L5.89008 19.83L6.91008 19.83L6.91008 21.3L8.08008 21.3L8.08008 22.5L11.4701 22.5L11.4701 21.3L12.4301 21.3L12.4301 18.36L11.4701 18.36L11.4701 16.89L10.4501 16.89L10.4501 15.42L9.46008 15.42L9.46008 13.92L8.41008 13.92L8.41008 12.39L7.33008 12.39L7.33008 10.14L8.41008 10.14L8.41008 8.58L9.46008 8.58L9.46008 7.08L10.4501 7.08L10.4501 5.61L11.4701 5.61L11.4701 4.17L12.4301 4.17L12.4301 1.17L11.4701 1.17L11.4701 -3.08596e-07L8.08008 -6.04959e-07L8.08008 1.17L6.91008 1.17L6.91008 2.64L5.89008 2.64L5.89008 4.17L4.84008 4.17L4.84008 5.61L3.82008 5.61L3.82008 7.08L2.80008 7.08L2.80008 8.58Z" fill="#00ABFF"/>
</svg>
