<svg width="19" height="22" viewBox="0 0 19 22" fill="none" xmlns="http://www.w3.org/2000/svg">
<g clip-path="url(#clip0_562_3711)">
<path d="M3.1598 0.77425C3.1598 1.08845 3.1598 1.4018 3.1598 1.73129C3.11615 1.73129 3.08402 1.73044 3.05107 1.73129C2.82867 1.73808 2.60544 1.73129 2.3855 1.75592C1.71746 1.83234 1.15651 2.1372 0.705931 2.64757C0.229819 3.1868 0 3.82879 0 4.55825C0 9.41222 0 14.2662 0 19.1193C0 19.1643 0 19.2102 0.000823723 19.2552C0.00658979 19.6722 0.0939045 20.0721 0.282537 20.439C0.807249 21.4606 1.64003 21.976 2.75947 21.9955C3.229 22.004 3.69852 21.9972 4.16804 21.9972C8.19357 21.9972 12.2199 21.9972 16.2455 21.9972C16.6376 21.9972 17.0189 21.9327 17.3731 21.7578C18.4325 21.2355 18.9901 20.3642 18.9934 19.1533C19.0033 15.5875 18.9975 12.0226 18.9975 8.45688C18.9975 7.16102 18.9959 5.8643 18.9975 4.56844C18.9975 3.96806 18.8435 3.41778 18.5074 2.9261C18.1211 2.36054 17.6021 1.99284 16.9522 1.81706C16.6318 1.73044 16.3064 1.72874 15.9794 1.73129C15.9341 1.73129 15.8888 1.73129 15.8377 1.73129V1.63278C15.8377 1.34151 15.8394 1.04939 15.8377 0.758116C15.8353 0.339464 15.5305 0.023565 15.1252 0.0167715C15.0568 0.0159223 14.9876 0.0167715 14.9193 0.0167715C14.4703 0.0167715 14.168 0.325028 14.1672 0.786139C14.1672 1.02901 14.1722 1.27188 14.1713 1.51559C14.1705 1.73214 14.168 1.73214 13.9638 1.73044C13.9555 1.73044 13.9473 1.73044 13.939 1.73044C13.3789 1.73044 12.8188 1.73044 12.2595 1.73044C12.2306 1.73044 12.2018 1.72789 12.168 1.72619V1.62344C12.168 1.32877 12.1697 1.03495 12.168 0.740282C12.1664 0.446462 11.9893 0.184911 11.7282 0.0702705C11.5618 -0.00275991 11.388 0.0176207 11.2166 0.0176207C10.8056 0.0184699 10.5016 0.336067 10.5008 0.760663C10.5008 1.05194 10.5008 1.34406 10.5008 1.63533C10.5008 1.66505 10.4975 1.69477 10.4959 1.73044C10.3245 1.73044 10.1631 1.73044 10.0008 1.73044C9.52554 1.73129 9.05107 1.73129 8.57578 1.73638C8.50247 1.73638 8.49671 1.70157 8.49671 1.64382C8.49753 1.33557 8.50494 1.02646 8.49423 0.719053C8.48435 0.414193 8.33031 0.200197 8.06178 0.0728181C7.89456 -0.00700586 7.71664 0.0167715 7.54201 0.0184699C7.13591 0.0210174 6.83114 0.339464 6.82949 0.757266C6.82867 1.04344 6.82949 1.32877 6.82949 1.61495V1.72534H4.83031C4.83031 1.68883 4.83031 1.65826 4.83031 1.62769C4.83031 1.33641 4.83114 1.04429 4.82949 0.75302C4.82784 0.525437 4.74465 0.332671 4.57331 0.188308C4.43987 0.0753657 4.29489 0.0218666 4.14662 0.00488281H3.92751C3.82867 0.0150731 3.72982 0.0371521 3.63262 0.0651754C3.32372 0.153491 3.1598 0.43882 3.1598 0.77425ZM16.1252 20.7617C15.5511 20.7617 14.9778 20.7617 14.4036 20.7617C12.2125 20.7617 10.0214 20.7617 7.83031 20.7617C6.1771 20.7617 4.52471 20.7668 2.8715 20.7591C2.20511 20.7566 1.70675 20.4356 1.38962 19.8327C1.25865 19.583 1.20511 19.3087 1.20511 19.0234C1.20675 17.736 1.20511 16.4478 1.20511 15.1604C1.20511 13.0128 1.20511 10.8652 1.20511 8.71674C1.20511 8.38555 1.20511 8.05437 1.20511 7.72403C1.20511 7.69601 1.20511 7.66884 1.20511 7.63487H17.7891C17.7891 7.67223 17.7891 7.7028 17.7891 7.73337C17.7891 9.17955 17.7891 10.6257 17.7891 12.0719C17.7891 13.4391 17.7891 14.8054 17.7891 16.1726C17.7891 17.1288 17.7891 18.0842 17.7891 19.0404C17.7891 19.9991 17.0527 20.7617 16.1244 20.7625L16.1252 20.7617ZM4.29077 4.48267C4.62026 4.40284 4.82784 4.11242 4.83031 3.76255C4.83196 3.53073 4.83031 3.29805 4.83031 3.06622V2.96856H6.82949V3.05942C6.82949 3.29465 6.82949 3.52903 6.82949 3.76425C6.83114 4.1846 7.14168 4.50984 7.54778 4.5073C7.69522 4.5073 7.84761 4.50984 7.98764 4.47248C8.29901 4.39011 8.49506 4.10648 8.49671 3.77359C8.49835 3.53582 8.49671 3.29805 8.49671 3.06027V2.96516H10.5008V3.06112C10.5008 3.2989 10.5 3.53667 10.5008 3.77444C10.5033 4.18205 10.8081 4.50475 11.2035 4.50645C11.3583 4.50645 11.5189 4.50645 11.668 4.46908C11.9613 4.39435 12.1656 4.10138 12.168 3.78803C12.1705 3.51714 12.168 3.2454 12.168 2.96856H14.1664C14.1664 3.00168 14.1664 3.03395 14.1664 3.06707C14.1689 3.33286 14.1565 3.60036 14.1787 3.86446C14.2092 4.23216 14.5124 4.5039 14.869 4.50814C15.0033 4.50984 15.1409 4.51579 15.2702 4.48946C15.612 4.41983 15.8344 4.12686 15.8369 3.7668C15.8385 3.53157 15.8369 3.2972 15.8369 3.06197C15.8369 3.0314 15.8369 3.00168 15.8369 2.97281C16.9761 2.84118 17.771 3.68103 17.7858 4.62873C17.7949 5.1807 17.7875 5.73183 17.7875 6.2838C17.7875 6.29994 17.785 6.31692 17.7825 6.33985H1.2117C1.20923 6.32202 1.20675 6.31098 1.20675 6.29994C1.20675 5.72843 1.19605 5.15608 1.2117 4.58457C1.23394 3.76425 1.88468 3.05773 2.6771 2.97875C2.83196 2.96347 2.98847 2.9762 3.16145 2.9762C3.16145 3.08235 3.16145 3.19954 3.16145 3.31588C3.16227 3.49421 3.15239 3.67339 3.16804 3.85002C3.20099 4.22536 3.50165 4.5039 3.86573 4.5056C4.00824 4.5056 4.15486 4.51494 4.2916 4.48182L4.29077 4.48267Z" fill="#999999"/>
<path d="M3.92871 0.00573204H4.14782C4.07533 -0.00191068 4.00202 -0.00191068 3.92871 0.00573204Z" fill="#999999"/>
<path d="M16.2153 9.17846H13.7935C13.7911 9.20223 13.7878 9.21922 13.7878 9.23535C13.7878 10.0276 13.7878 10.8199 13.7861 11.6114C13.7861 11.6776 13.815 11.6827 13.866 11.6827C14.6206 11.6819 15.3759 11.681 16.1304 11.6827C16.1963 11.6827 16.2202 11.6666 16.2202 11.5936C16.2178 10.8157 16.2186 10.0378 16.2186 9.25998C16.2186 9.2328 16.2161 9.20563 16.2145 9.17676L16.2153 9.17846Z" fill="#999999"/>
<path d="M5.20391 9.17969H2.78711V11.6746H5.20391V9.17969Z" fill="#999999"/>
<path d="M8.86859 9.18164H6.45508V11.68H8.86859V9.18164Z" fill="#999999"/>
<path d="M13.7939 19.2463H16.2149V16.7539H13.7939V19.2463Z" fill="#999999"/>
<path d="M5.20361 12.9658H2.78516V15.4607H5.20361V12.9658Z" fill="#999999"/>
<path d="M5.09787 16.7489C4.35651 16.7489 3.61516 16.7489 2.87381 16.7489C2.84498 16.7489 2.81615 16.7514 2.7832 16.7531V19.2447H5.20989V19.147C5.20989 18.3861 5.20989 17.6253 5.20989 16.8635C5.20989 16.748 5.20989 16.748 5.09787 16.748V16.7489Z" fill="#999999"/>
<path d="M12.5431 9.18164H10.1279V11.6774H12.5431V9.18164Z" fill="#999999"/>
<path d="M16.2157 12.9697H13.7939V15.4604C13.8195 15.463 13.8376 15.4655 13.8565 15.4663C14.6201 15.4663 15.3837 15.4663 16.1465 15.468C16.214 15.468 16.2198 15.4392 16.2198 15.3814C16.2182 14.6061 16.219 13.8308 16.219 13.0546C16.219 13.0275 16.2165 12.9994 16.2157 12.9697Z" fill="#999999"/>
<path d="M8.86941 12.9658H6.45508V15.4607H8.86941V12.9658Z" fill="#999999"/>
<path d="M10.125 15.4611H12.5426V12.9688H10.125V15.4611Z" fill="#999999"/>
<path d="M6.45508 19.2482H8.86859V16.7559H6.45508V19.2482Z" fill="#999999"/>
<path d="M10.223 16.7469C10.1365 16.7469 10.1183 16.7733 10.1192 16.8565C10.1225 17.6233 10.1208 18.3901 10.1208 19.1569C10.1208 19.1867 10.1233 19.2164 10.1249 19.247H12.5426V16.7478H12.4552C11.7114 16.7478 10.9668 16.7495 10.223 16.7461V16.7469Z" fill="#999999"/>
</g>
<defs>
<clipPath id="clip0_562_3711">
<rect width="19" height="22" fill="white"/>
</clipPath>
</defs>
</svg>
