<svg width="19" height="22" viewBox="0 0 19 22" fill="none" xmlns="http://www.w3.org/2000/svg">
<g clip-path="url(#clip0_1_1433)">
<path d="M3.1598 0.774494C3.1598 1.0887 3.1598 1.40205 3.1598 1.73153C3.11615 1.73153 3.08402 1.73068 3.05107 1.73153C2.82867 1.73833 2.60544 1.73153 2.3855 1.75616C1.71746 1.83259 1.15651 2.13745 0.705931 2.64781C0.229819 3.18705 0 3.82904 0 4.55849C0 9.41247 0 14.2664 0 19.1196C0 19.1646 0 19.2104 0.000823723 19.2554C0.00658979 19.6724 0.0939045 20.0724 0.282537 20.4392C0.807249 21.4608 1.64003 21.9763 2.75947 21.9958C3.229 22.0043 3.69852 21.9975 4.16804 21.9975C8.19357 21.9975 12.2199 21.9975 16.2455 21.9975C16.6376 21.9975 17.0189 21.9329 17.3731 21.758C18.4325 21.2358 18.9901 20.3645 18.9934 19.1535C19.0033 15.5878 18.9975 12.0229 18.9975 8.45713C18.9975 7.16126 18.9959 5.86455 18.9975 4.56868C18.9975 3.9683 18.8435 3.41803 18.5074 2.92634C18.1211 2.36078 17.6021 1.99308 16.9522 1.8173C16.6318 1.73068 16.3064 1.72899 15.9794 1.73153C15.9341 1.73153 15.8888 1.73153 15.8377 1.73153V1.63303C15.8377 1.34175 15.8394 1.04963 15.8377 0.75836C15.8353 0.339708 15.5305 0.0238092 15.1252 0.0170156C15.0568 0.0161664 14.9876 0.0170156 14.9193 0.0170156C14.4703 0.0170156 14.168 0.325272 14.1672 0.786383C14.1672 1.02925 14.1722 1.27212 14.1713 1.51584C14.1705 1.73238 14.168 1.73238 13.9638 1.73068C13.9555 1.73068 13.9473 1.73068 13.939 1.73068C13.3789 1.73068 12.8188 1.73068 12.2595 1.73068C12.2306 1.73068 12.2018 1.72814 12.168 1.72644V1.62369C12.168 1.32902 12.1697 1.0352 12.168 0.740527C12.1664 0.446706 11.9893 0.185156 11.7282 0.0705147C11.5618 -0.00251577 11.388 0.0178648 11.2166 0.0178648C10.8056 0.018714 10.5016 0.336312 10.5008 0.760907C10.5008 1.05218 10.5008 1.3443 10.5008 1.63557C10.5008 1.6653 10.4975 1.69502 10.4959 1.73068C10.3245 1.73068 10.1631 1.73068 10.0008 1.73068C9.52554 1.73153 9.05107 1.73153 8.57578 1.73663C8.50247 1.73663 8.49671 1.70181 8.49671 1.64407C8.49753 1.33581 8.50494 1.0267 8.49423 0.719297C8.48435 0.414437 8.33031 0.200441 8.06178 0.0730623C7.89456 -0.00676172 7.71664 0.0170156 7.54201 0.018714C7.13591 0.0212616 6.83114 0.339708 6.82949 0.75751C6.82867 1.04369 6.82949 1.32902 6.82949 1.61519V1.72559H4.83031C4.83031 1.68907 4.83031 1.6585 4.83031 1.62793C4.83031 1.33666 4.83114 1.04454 4.82949 0.753264C4.82784 0.525681 4.74465 0.332915 4.57331 0.188552C4.43987 0.0756098 4.29489 0.0221108 4.14662 0.00512695H3.92751C3.82867 0.0153172 3.72982 0.0373962 3.63262 0.0654195C3.32372 0.153735 3.1598 0.439064 3.1598 0.774494ZM16.1252 20.7619C15.5511 20.7619 14.9778 20.7619 14.4036 20.7619C12.2125 20.7619 10.0214 20.7619 7.83031 20.7619C6.1771 20.7619 4.52471 20.767 2.8715 20.7594C2.20511 20.7568 1.70675 20.4358 1.38962 19.8329C1.25865 19.5832 1.20511 19.3089 1.20511 19.0236C1.20675 17.7362 1.20511 16.448 1.20511 15.1606C1.20511 13.013 1.20511 10.8654 1.20511 8.71698C1.20511 8.3858 1.20511 8.05461 1.20511 7.72428C1.20511 7.69625 1.20511 7.66908 1.20511 7.63511H17.7891C17.7891 7.67248 17.7891 7.70305 17.7891 7.73362C17.7891 9.17979 17.7891 10.626 17.7891 12.0721C17.7891 13.4393 17.7891 14.8057 17.7891 16.1729C17.7891 17.1291 17.7891 18.0844 17.7891 19.0406C17.7891 19.9993 17.0527 20.7619 16.1244 20.7628L16.1252 20.7619ZM4.29077 4.48291C4.62026 4.40309 4.82784 4.11267 4.83031 3.7628C4.83196 3.53097 4.83031 3.29829 4.83031 3.06646V2.9688H6.82949V3.05967C6.82949 3.29489 6.82949 3.52927 6.82949 3.7645C6.83114 4.18485 7.14168 4.51009 7.54778 4.50754C7.69522 4.50754 7.84761 4.51009 7.98764 4.47272C8.29901 4.39035 8.49506 4.10672 8.49671 3.77384C8.49835 3.53606 8.49671 3.29829 8.49671 3.06052V2.96541H10.5008V3.06137C10.5008 3.29914 10.5 3.53691 10.5008 3.77469C10.5033 4.1823 10.8081 4.50499 11.2035 4.50669C11.3583 4.50669 11.5189 4.50669 11.668 4.46933C11.9613 4.3946 12.1656 4.10163 12.168 3.78827C12.1705 3.51738 12.168 3.24564 12.168 2.9688H14.1664C14.1664 3.00192 14.1664 3.03419 14.1664 3.06731C14.1689 3.33311 14.1565 3.6006 14.1787 3.8647C14.2092 4.2324 14.5124 4.50414 14.869 4.50839C15.0033 4.51009 15.1409 4.51603 15.2702 4.48971C15.612 4.42007 15.8344 4.1271 15.8369 3.76704C15.8385 3.53182 15.8369 3.29744 15.8369 3.06222C15.8369 3.03164 15.8369 3.00192 15.8369 2.97305C16.9761 2.84143 17.771 3.68128 17.7858 4.62897C17.7949 5.18095 17.7875 5.73207 17.7875 6.28405C17.7875 6.30018 17.785 6.31717 17.7825 6.34009H1.2117C1.20923 6.32226 1.20675 6.31122 1.20675 6.30018C1.20675 5.72868 1.19605 5.15632 1.2117 4.58482C1.23394 3.7645 1.88468 3.05797 2.6771 2.979C2.83196 2.96371 2.98847 2.97645 3.16145 2.97645C3.16145 3.0826 3.16145 3.19978 3.16145 3.31612C3.16227 3.49445 3.15239 3.67363 3.16804 3.85027C3.20099 4.22561 3.50165 4.50414 3.86573 4.50584C4.00824 4.50584 4.15486 4.51518 4.2916 4.48206L4.29077 4.48291Z" fill="white"/>
<path d="M3.92969 0.00597618H4.1488C4.07631 -0.00166654 4.003 -0.00166654 3.92969 0.00597618Z" fill="white"/>
<path d="M16.2143 9.17846H13.7926C13.7901 9.20223 13.7868 9.21922 13.7868 9.23535C13.7868 10.0276 13.7868 10.8199 13.7852 11.6114C13.7852 11.6776 13.814 11.6827 13.8651 11.6827C14.6196 11.6819 15.3749 11.681 16.1295 11.6827C16.1954 11.6827 16.2193 11.6666 16.2193 11.5936C16.2168 10.8157 16.2176 10.0378 16.2176 9.25998C16.2176 9.2328 16.2151 9.20563 16.2135 9.17676L16.2143 9.17846Z" fill="white"/>
<path d="M5.20587 9.17969H2.78906V11.6746H5.20587V9.17969Z" fill="white"/>
<path d="M8.86663 9.1814H6.45312V11.6797H8.86663V9.1814Z" fill="white"/>
<path d="M13.793 19.246H16.2139V16.7537H13.793V19.246Z" fill="white"/>
<path d="M5.20361 12.9658H2.78516V15.4607H5.20361V12.9658Z" fill="white"/>
<path d="M5.09591 16.7489C4.35456 16.7489 3.61321 16.7489 2.87186 16.7489C2.84303 16.7489 2.8142 16.7514 2.78125 16.7531V19.2447H5.20794V19.147C5.20794 18.3861 5.20794 17.6253 5.20794 16.8635C5.20794 16.748 5.20794 16.748 5.09591 16.748V16.7489Z" fill="white"/>
<path d="M12.5441 9.1814H10.1289V11.6772H12.5441V9.1814Z" fill="white"/>
<path d="M16.2147 12.9697H13.793V15.4604C13.8185 15.463 13.8366 15.4655 13.8556 15.4663C14.6192 15.4663 15.3828 15.4663 16.1455 15.468C16.2131 15.468 16.2188 15.4392 16.2188 15.3814C16.2172 14.6061 16.218 13.8308 16.218 13.0546C16.218 13.0275 16.2155 12.9994 16.2147 12.9697Z" fill="white"/>
<path d="M8.86746 12.9658H6.45312V15.4607H8.86746V12.9658Z" fill="white"/>
<path d="M10.1252 15.4611H12.5429V12.9688H10.1252V15.4611Z" fill="white"/>
<path d="M6.45703 19.2482H8.87054V16.7559H6.45703V19.2482Z" fill="white"/>
<path d="M10.2249 16.7469C10.1384 16.7469 10.1203 16.7733 10.1211 16.8565C10.1244 17.6233 10.1228 18.3901 10.1228 19.1569C10.1228 19.1867 10.1252 19.2164 10.1269 19.247H12.5445V16.7478H12.4572C11.7134 16.7478 10.9687 16.7495 10.2249 16.7461V16.7469Z" fill="white"/>
</g>
<defs>
<clipPath id="clip0_1_1433">
<rect width="19" height="22" fill="white"/>
</clipPath>
</defs>
</svg>
