<svg width="12" height="12" viewBox="0 0 12 12" fill="none" xmlns="http://www.w3.org/2000/svg">
<rect x="1.71436" y="1.71387" width="1.71429" height="1.71429" fill="#00ABFF"/>
<rect width="1.71429" height="1.71429" fill="#00ABFF"/>
<rect x="10.2856" width="1.71429" height="1.71429" fill="#00ABFF"/>
<rect x="8.57129" y="1.71387" width="1.71429" height="1.71429" fill="#00ABFF"/>
<rect x="3.42871" y="3.42871" width="1.71429" height="1.71429" fill="#00ABFF"/>
<rect width="1.71429" height="1.71429" transform="matrix(1 0 0 -1 1.71436 10.2861)" fill="#00ABFF"/>
<rect x="6.85693" y="3.42871" width="1.71429" height="1.71429" fill="#00ABFF"/>
<rect width="1.71429" height="1.71429" transform="matrix(1 0 0 -1 0 12)" fill="#00ABFF"/>
<rect width="1.71429" height="1.71429" transform="matrix(1 0 0 -1 10.2856 12)" fill="#00ABFF"/>
<rect width="1.71429" height="1.71429" transform="matrix(1 0 0 -1 8.57129 10.2861)" fill="#00ABFF"/>
<rect width="1.71429" height="1.71429" transform="matrix(1 0 0 -1 3.42871 8.57129)" fill="#00ABFF"/>
<rect x="5.14307" y="5.14258" width="1.71429" height="1.71429" fill="#00ABFF"/>
<rect width="1.71429" height="1.71429" transform="matrix(1 0 0 -1 6.85693 8.57129)" fill="#00ABFF"/>
</svg>
