<svg width="66" height="30" viewBox="0 0 66 30" fill="none" xmlns="http://www.w3.org/2000/svg">
<path opacity="0.5" d="M41 7L33 2L25 7" stroke="#1D3F61" stroke-width="3" stroke-linecap="round" stroke-linejoin="round"/>
<path opacity="0.5" d="M31.0586 16.8574H29.541V23.7891H31.0586V20.9043H32.7812V19.6465H31.0586V16.8574ZM21.8301 23.2285H22.8281C25.5283 23.2217 26.9639 23.1328 28.584 22.8047L28.4199 21.5742C26.9502 21.8818 25.6582 21.957 23.334 21.957V18.8672H27.3262V17.6367H21.8301V23.2285ZM23.1016 29.0664H31.3867V27.8359H24.6191V25.6348H31.1543V24.418H23.1016V29.0664ZM43.7324 16.8574H42.2012V29.2168H43.7324V16.8574ZM33.4922 25.8125L34.2852 27.0293C38.6123 24.9717 40.041 21.8477 40.041 18.1699H34.1211V19.373H38.4961C38.2227 22.1826 36.7324 24.2744 33.4922 25.8125Z" fill="#1D3F61"/>
</svg>
