<svg width="13" height="17" viewBox="0 0 13 17" fill="none" xmlns="http://www.w3.org/2000/svg">
<rect x="0.5" y="4.5" width="12" height="11.9995" fill="white"/>
<rect x="0.5" y="4.5" width="5.33333" height="5.33311" fill="#00C2FF"/>
<rect x="7.16406" y="4.5" width="5.33333" height="5.33311" fill="#00C2FF"/>
<rect x="0.5" y="11.167" width="5.33333" height="5.33311" fill="#00C2FF"/>
<rect x="7.16406" y="11.167" width="5.33333" height="5.33311" fill="#00C2FF"/>
<rect x="4.50781" y="3.16797" width="1.33333" height="1.33328" fill="white"/>
<rect width="1.33333" height="1.33328" transform="matrix(-1 0 0 1 8.49219 3.16797)" fill="white"/>
<rect x="3.15625" y="1.83301" width="1.33333" height="1.33328" fill="white"/>
<rect width="1.33333" height="1.33328" transform="matrix(-1 0 0 1 9.84375 1.83301)" fill="white"/>
<rect width="1.33333" height="1.33328" transform="matrix(-1 0 0 1 11.1641 0.5)" fill="white"/>
<rect width="1.33333" height="1.33328" transform="matrix(-1 0 0 1 3.15625 0.5)" fill="white"/>
</svg>
