<svg width="70" height="71" viewBox="0 0 70 71" fill="none" xmlns="http://www.w3.org/2000/svg">
<path d="M70 63.024V8.57954C70 4.30176 66.5 0.801758 62.2222 0.801758H7.77778C3.5 0.801758 0 4.30176 0 8.57954V63.024C0 67.3018 3.5 70.8018 7.77778 70.8018H62.2222C66.5 70.8018 70 67.3018 70 63.024ZM22.9444 43.5018L31.1111 53.3406L43.1667 37.824C43.9444 36.8129 45.5 36.8129 46.2778 37.8629L59.9278 56.0629C60.1444 56.3518 60.2764 56.6953 60.3088 57.0549C60.3412 57.4146 60.2729 57.7761 60.1114 58.0991C59.9499 58.4221 59.7016 58.6937 59.3945 58.8836C59.0873 59.0734 58.7333 59.174 58.3722 59.174H11.7444C10.1111 59.174 9.21667 57.3073 10.2278 56.024L19.9111 43.5795C20.65 42.5684 22.1278 42.5295 22.9444 43.5018Z" fill="#00ABFF"/>
</svg>
