<svg width="10" height="18" viewBox="0 0 10 18" fill="none" xmlns="http://www.w3.org/2000/svg">
<path d="M2.24006 6.864L1.47206 6.864L1.47206 8.112L0.608061 8.112L0.608061 9.912L1.47206 9.912L1.47206 11.136L2.24006 11.136L2.24006 12.336L3.05606 12.336L3.05606 13.512L3.87206 13.512L3.87206 14.688L4.71206 14.688L4.71206 15.864L5.52806 15.864L5.52806 17.04L6.46406 17.04L6.46406 18L9.17606 18L9.17606 17.04L9.94406 17.04L9.94406 14.688L9.17606 14.688L9.17606 13.512L8.36006 13.512L8.36006 12.336L7.56806 12.336L7.56806 11.136L6.72806 11.136L6.72806 9.912L5.86406 9.912L5.86406 8.112L6.72806 8.112L6.72806 6.864L7.56806 6.864L7.56806 5.664L8.36006 5.664L8.36006 4.488L9.17606 4.488L9.17606 3.336L9.94406 3.336L9.94406 0.936L9.17606 0.936L9.17606 -5.09145e-07L6.46406 -7.46236e-07L6.46406 0.935999L5.52806 0.935999L5.52806 2.112L4.71206 2.112L4.71206 3.336L3.87206 3.336L3.87206 4.488L3.05606 4.488L3.05606 5.664L2.24006 5.664L2.24006 6.864Z" fill="#00ABFF"/>
</svg>
