<svg width="20" height="20" viewBox="0 0 20 20" fill="none" xmlns="http://www.w3.org/2000/svg">
<g filter="url(#filter0_d_1_2419)">
<rect x="5.45703" y="18.6357" width="9.09091" height="1.36364" fill="#999999"/>
<rect x="5.45703" y="-0.000488281" width="9.09091" height="1.36364" fill="#999999"/>
<rect x="20.0039" y="6.36328" width="7.27273" height="1.36364" transform="rotate(90 20.0039 6.36328)" fill="#999999"/>
<rect x="15.9141" y="1.36328" width="1.36364" height="1.36364" transform="rotate(90 15.9141 1.36328)" fill="#999999"/>
<rect x="15.9141" y="17.2725" width="1.36364" height="1.36364" transform="rotate(90 15.9141 17.2725)" fill="#999999"/>
<rect x="17.2734" y="15.9087" width="1.36364" height="1.36364" transform="rotate(90 17.2734 15.9087)" fill="#999999"/>
<rect x="17.2734" y="2.72656" width="1.36364" height="1.36364" transform="rotate(90 17.2734 2.72656)" fill="#999999"/>
<rect x="18.6406" y="13.6357" width="2.27273" height="1.36364" transform="rotate(90 18.6406 13.6357)" fill="#999999"/>
<rect x="18.6406" y="4.09033" width="2.27273" height="1.36364" transform="rotate(90 18.6406 4.09033)" fill="#999999"/>
<rect width="7.27273" height="1.36364" transform="matrix(4.37114e-08 1 1 -4.37114e-08 0.00390625 6.36328)" fill="#999999"/>
<rect width="1.36364" height="1.36364" transform="matrix(4.37114e-08 1 1 -4.37114e-08 4.09375 1.36328)" fill="#999999"/>
<rect width="1.36364" height="1.36364" transform="matrix(4.37114e-08 1 1 -4.37114e-08 4.09375 17.2725)" fill="#999999"/>
<rect width="1.36364" height="1.36364" transform="matrix(4.37114e-08 1 1 -4.37114e-08 2.73438 15.9087)" fill="#999999"/>
<rect width="1.36364" height="1.36364" transform="matrix(4.37114e-08 1 1 -4.37114e-08 2.73438 2.72656)" fill="#999999"/>
<rect width="2.27273" height="1.36364" transform="matrix(4.37114e-08 1 1 -4.37114e-08 1.36719 13.6357)" fill="#999999"/>
<rect width="2.27273" height="1.36364" transform="matrix(4.37114e-08 1 1 -4.37114e-08 1.36719 4.09033)" fill="#999999"/>
<rect width="9.99929" height="2.69141" transform="matrix(4.37114e-08 1 1 -4.37114e-08 8.12891 5)" fill="#999999"/>
<rect width="9.99929" height="1.87487" transform="matrix(4.37114e-08 1 1 -4.37114e-08 10.0078 5)" fill="#999999"/>
<rect width="9.99929" height="1.87487" transform="matrix(-1 0 0 1 15.0039 8.12451)" fill="#999999"/>
<rect width="7.49947" height="1.87487" transform="matrix(-1 0 0 1 13.7539 6.25)" fill="#999999"/>
<rect width="7.49947" height="1.87487" transform="matrix(-1 0 0 1 13.7539 11.8745)" fill="#999999"/>
<rect width="9.99929" height="1.87487" transform="matrix(-1 0 0 1 15.0039 9.99951)" fill="#999999"/>
</g>
<defs>
<filter id="filter0_d_1_2419" x="-3.99609" y="-0.000488281" width="28" height="27.9998" filterUnits="userSpaceOnUse" color-interpolation-filters="sRGB">
<feFlood flood-opacity="0" result="BackgroundImageFix"/>
<feColorMatrix in="SourceAlpha" type="matrix" values="0 0 0 0 0 0 0 0 0 0 0 0 0 0 0 0 0 0 127 0" result="hardAlpha"/>
<feOffset dy="4"/>
<feGaussianBlur stdDeviation="2"/>
<feComposite in2="hardAlpha" operator="out"/>
<feColorMatrix type="matrix" values="0 0 0 0 0 0 0 0 0 0 0 0 0 0 0 0 0 0 0.25 0"/>
<feBlend mode="normal" in2="BackgroundImageFix" result="effect1_dropShadow_1_2419"/>
<feBlend mode="normal" in="SourceGraphic" in2="effect1_dropShadow_1_2419" result="shape"/>
</filter>
</defs>
</svg>
