<svg width="70" height="67" viewBox="0 0 70 67" fill="none" xmlns="http://www.w3.org/2000/svg">
<path d="M58 60.5556V15.4444C58 11.9 55.1 9 51.5556 9H6.44444C2.9 9 0 11.9 0 15.4444V60.5556C0 64.1 2.9 67 6.44444 67H51.5556C55.1 67 58 64.1 58 60.5556ZM19.0111 44.38L25.7778 52.5322L35.7667 39.6756C36.4111 38.8378 37.7 38.8378 38.3444 39.7078L49.6544 54.7878C49.834 55.0271 49.9433 55.3118 49.9702 55.6098C49.997 55.9077 49.9404 56.2073 49.8066 56.475C49.6728 56.7426 49.4671 56.9676 49.2126 57.1249C48.958 57.2822 48.6648 57.3656 48.3656 57.3656H9.73111C8.37778 57.3656 7.63667 55.8189 8.47445 54.7556L16.4978 44.4444C17.11 43.6067 18.3344 43.5744 19.0111 44.38Z" fill="#00C2FF"/>
<circle cx="58" cy="12" r="12" fill="white"/>
<path d="M52 12H64" stroke="#00C2FF" stroke-width="3" stroke-linecap="round"/>
<path d="M58 6L58 18" stroke="#00C2FF" stroke-width="3" stroke-linecap="round"/>
</svg>
