<svg width="26" height="26" viewBox="0 0 26 26" fill="none" xmlns="http://www.w3.org/2000/svg">
<g clip-path="url(#clip0_663_4568)">
<path d="M26 13.0193C25.9752 20.2357 20.1468 26.0769 12.8645 25.9981C5.66966 25.9208 0.00729025 20.1366 6.52462e-06 12.9828C-0.0072772 5.66133 6.08483 -0.0660489 13.0962 -0.000418134C20.1978 0.0666711 26.0204 5.90052 26 13.0193ZM12.7771 2.04143C6.93266 2.0458 1.92145 7.095 2.00012 13.1505C2.07441 18.8298 6.74328 24.073 13.1632 23.9665C19.4155 23.8629 24.0043 18.8035 23.9882 12.942C23.9722 6.93311 18.9887 1.881 12.7771 2.04143Z" fill="#A21F24"/>
<path d="M14.0183 16.0109C14.0183 15.9204 14.0183 15.8563 14.0183 15.7906C14.0183 13.9223 14.0198 12.054 14.0154 10.1858C14.0154 10.0341 14.0576 9.99033 14.2077 9.99033C15.3847 9.99616 16.5632 9.99324 17.7403 9.9947C17.917 9.9947 18.0049 9.90379 18.004 9.72197C18.004 9.22026 17.9981 8.71855 18.0054 8.21684C18.0083 8.05495 17.9515 8.01411 17.7956 8.01557C16.4496 8.02286 15.1021 8.02286 13.7561 8.02578C13.5143 8.02578 13.5157 8.02432 13.5172 7.78222C13.5186 7.26884 13.5172 6.754 13.5172 6.24062C13.5172 6.00435 13.523 5.99414 13.7605 5.99414C15.2157 5.99414 16.671 5.99414 18.1263 5.99414C18.6697 5.99414 19.2131 5.99414 19.7564 5.99706C20.007 5.99706 20.0186 6.0131 20.0186 6.26541C20.0186 7.8493 20.0157 9.43319 20.0128 11.0171C20.0128 11.2898 20.0099 11.5611 20.0128 11.8338C20.0128 11.9607 19.9793 12.0015 19.8336 12.0001C18.6202 11.9943 17.4067 12.003 16.1932 12.0074C16.1466 12.0074 16.1 12.022 16.049 12.0293C16.0446 12.0861 16.0388 12.1343 16.0388 12.1824C16.0388 12.7147 16.0446 13.2471 16.0373 13.778C16.0344 13.9311 16.0869 13.9734 16.234 13.9734C16.958 13.969 17.6835 13.9734 18.4075 13.9734C18.8547 13.9734 19.3019 13.9734 19.7477 13.9763C20.0099 13.9778 20.0201 13.9909 20.0201 14.2534C20.0201 15.4931 20.0172 16.7328 20.0157 17.971C20.0157 18.5632 20.0113 19.1568 20.0157 19.7489C20.0172 19.9152 19.9895 19.9808 19.7885 19.9808C17.7592 19.9779 15.73 19.9895 13.7022 20.0012C13.5565 20.0012 13.5143 19.9516 13.5157 19.8116C13.5201 19.2734 13.5201 18.7353 13.5128 18.1971C13.5099 18.0323 13.5638 17.9769 13.7313 17.9783C15.0846 17.9842 16.4365 17.9783 17.7898 17.9842C17.9573 17.9842 18.0098 17.936 18.0069 17.7698C17.9981 17.2505 17.9981 16.7299 18.0069 16.2107C18.0098 16.0517 17.9573 16.0065 17.7986 16.0079C16.6142 16.0138 15.4313 16.0109 14.247 16.0109C14.1815 16.0109 14.1159 16.0109 14.0198 16.0109H14.0183Z" fill="#A21F24"/>
<path d="M6.03976 19.9937C6.03976 19.896 6.03976 19.8303 6.03976 19.7662C6.03976 18.2129 6.04267 16.6582 6.03976 15.1049C6.03976 14.7913 6.0281 14.4763 6.01354 14.1627C6.00771 14.0329 6.04704 13.9746 6.18398 13.9761C6.43162 13.9819 6.67927 13.9761 6.92692 13.9761C7.87526 13.9761 8.8236 13.9761 9.77048 13.9761C10.0138 13.9761 10.0094 13.9731 10.0094 13.7267C10.0094 13.2191 10.0138 12.7116 10.0254 12.204C10.0283 12.0596 9.99628 12.0042 9.83458 12.0057C8.63859 12.0144 7.44406 12.0086 6.24807 12.0159C6.08346 12.0159 6.03539 11.9678 6.03539 11.8C6.04267 10.2468 6.04267 8.69206 6.03976 7.1388C6.03976 6.82523 6.02956 6.5102 6.01208 6.19663C6.00334 6.04495 6.06161 5.99099 6.20583 5.99536C6.42871 6.0012 6.65305 5.99536 6.87593 5.99536C8.66336 5.99536 10.4508 5.99536 12.2382 5.99828C12.5237 5.99828 12.5237 6.00265 12.5237 6.28559C12.5237 6.79314 12.515 7.30068 12.5237 7.80969C12.5252 7.95699 12.4888 8.01241 12.3344 8.01241C11.5739 8.01241 10.8135 8.02116 10.0516 8.02408C9.44126 8.027 8.83234 8.02846 8.22196 8.02262C8.07338 8.02116 8.02093 8.06929 8.02385 8.21806C8.03113 8.74456 8.03259 9.26961 8.02676 9.79611C8.0253 9.95363 8.07338 10.0032 8.23362 10.0032C9.41067 9.99738 10.5892 9.99884 11.7662 10.0003C12.027 10.0003 12.0226 10.0032 12.0226 10.2584C12.0212 12.0844 12.0212 13.9104 12.0212 15.735C12.0212 15.9873 12.0241 15.9975 11.7648 16.0004C11.0582 16.0077 10.3517 16.0077 9.6452 16.0092C9.16885 16.0092 8.69104 16.0121 8.21468 16.0062C8.07629 16.0048 8.02385 16.0485 8.0253 16.1915C8.03259 16.718 8.0355 17.243 8.02676 17.7695C8.02385 17.9358 8.07483 17.9868 8.24236 17.9854C9.59422 17.981 10.9475 17.9883 12.2994 17.981C12.4902 17.981 12.531 18.0437 12.5266 18.2202C12.5121 18.7584 12.5121 19.2965 12.5121 19.8347C12.5121 19.9499 12.4786 19.9937 12.3562 19.9937C10.3692 19.9937 8.38366 19.9966 6.39666 19.9981C6.28303 19.9981 6.17087 19.9981 6.0383 19.9981L6.03976 19.9937Z" fill="#A21F24"/>
</g>
<defs>
<clipPath id="clip0_663_4568">
<rect width="26" height="26" fill="white"/>
</clipPath>
</defs>
</svg>
