<svg width="26" height="26" viewBox="0 0 26 26" fill="none" xmlns="http://www.w3.org/2000/svg">
<path d="M13.0026 25.9998C20.1775 25.9998 26 20.1852 26 13.003C26 5.82083 20.1775 0.000976562 12.9974 0.000976562C5.81723 0.000976562 0 5.82605 0 13.003C0 20.18 5.81723 25.9998 13.0078 25.9998H13.0026Z" fill="#007BC7"/>
<mask id="mask0_657_3840" style="mask-type:luminance" maskUnits="userSpaceOnUse" x="0" y="0" width="26" height="26">
<path d="M13.0026 25.9988C20.1775 25.9988 26 20.1842 26 13.002C26 5.81986 20.1775 0 12.9974 0C5.81723 0 0 5.82508 0 13.002C0 20.179 5.81723 25.9988 13.0078 25.9988H13.0026Z" fill="white"/>
</mask>
<g mask="url(#mask0_657_3840)">
<path d="M13.0495 19.2825C18.7623 19.2825 23.6605 20.8745 25.7597 23.1294C26.4647 21.5113 26.8511 19.7314 26.8511 17.868C26.8511 10.4092 20.6631 4.37012 13.0495 4.37012C5.43594 4.37012 -0.746826 10.4144 -0.746826 17.868C-0.746826 19.7418 -0.360403 21.5113 0.344558 23.1294C2.43855 20.8745 7.33673 19.2825 13.0495 19.2825Z" fill="#007BC7"/>
<path d="M13.0497 19.2937C18.7468 19.2937 23.6345 20.8752 25.7285 23.1092C26.4335 21.5016 26.8199 19.7374 26.8199 17.8896C26.8199 10.4934 20.6528 4.48047 13.0549 4.48047C5.45699 4.48047 -0.715332 10.4987 -0.715332 17.8948C-0.715332 19.753 -0.328909 21.512 0.37083 23.1144C2.4596 20.8752 7.34733 19.2989 13.0445 19.2989L13.0497 19.2937Z" fill="#007DC8"/>
<path d="M13.0445 19.3084C18.726 19.3084 23.6033 20.8743 25.6868 23.0927C26.3918 21.5007 26.773 19.7521 26.773 17.9148C26.773 10.5761 20.6216 4.59961 13.0393 4.59961C5.45706 4.59961 -0.678711 10.5865 -0.678711 17.92C-0.678711 19.7626 -0.292288 21.5059 0.407451 23.0979C2.491 20.8795 7.36307 19.3137 13.0445 19.3137V19.3084Z" fill="#007EC9"/>
<path d="M13.0444 19.3245C18.7102 19.3245 23.5719 20.8747 25.6554 23.0774C26.3552 21.5011 26.7416 19.763 26.7416 17.9413C26.7416 10.6652 20.6058 4.71484 13.0444 4.71484C5.48309 4.71484 -0.647461 10.6704 -0.647461 17.9465C-0.647461 19.7734 -0.261038 21.5063 0.433479 23.0826C2.51181 20.88 7.37343 19.3297 13.0392 19.3297L13.0444 19.3245Z" fill="#0080CA"/>
<path d="M13.0445 19.3415C18.6999 19.3415 23.5458 20.8813 25.6242 23.0631C26.3239 21.4972 26.7051 19.7748 26.7051 17.9688C26.7051 10.7501 20.585 4.83105 13.0445 4.83105C5.50404 4.83105 -0.61084 10.7553 -0.61084 17.974C-0.61084 19.7852 -0.224417 21.5025 0.4701 23.0683C2.54321 20.8865 7.38916 19.3468 13.0445 19.3468V19.3415Z" fill="#0082CB"/>
<path d="M13.0392 19.3514C18.6789 19.3514 23.5144 20.8808 25.5875 23.0469C26.282 21.4967 26.6685 19.7899 26.6685 17.9943C26.6685 10.8382 20.564 4.94531 13.0444 4.94531C5.52485 4.94531 -0.57959 10.8435 -0.57959 17.9943C-0.57959 19.7951 -0.198389 21.4915 0.496128 23.0469C2.56401 20.8808 7.39952 19.3514 13.0392 19.3514Z" fill="#0083CC"/>
<path d="M13.039 19.3645C18.6631 19.3645 23.4881 20.8782 25.5508 23.0287C26.2453 21.4889 26.6265 19.7978 26.6265 18.0179C26.6265 10.9192 20.5377 5.05762 13.039 5.05762C5.54034 5.05762 -0.543213 10.9244 -0.543213 18.0179C-0.543213 19.803 -0.162012 21.4889 0.532505 23.0287C2.59517 20.8782 7.41501 19.3645 13.0443 19.3645H13.039Z" fill="#0085CE"/>
<path d="M13.0392 19.3812C18.6475 19.3812 23.4622 20.8845 25.5196 23.0141C26.2141 21.49 26.5953 19.8093 26.5953 18.0503C26.5953 11.0142 20.5222 5.17871 13.0392 5.17871C5.55617 5.17871 -0.511719 11.009 -0.511719 18.045C-0.511719 19.8145 -0.130518 21.4847 0.558777 23.0089C2.61622 20.8793 7.42562 19.376 13.034 19.376L13.0392 19.3812Z" fill="#0087CF"/>
<path d="M13.0341 19.3983C18.6268 19.3983 23.431 20.8859 25.4832 22.9998C26.1725 21.4861 26.5537 19.8211 26.5537 18.0777C26.5537 11.0991 20.4963 5.29492 13.0341 5.29492C5.57199 5.29492 -0.480225 11.0991 -0.480225 18.0725C-0.480225 19.8263 -0.0990236 21.4861 0.590271 22.9946C2.64249 20.8859 7.44145 19.3931 13.0341 19.3931V19.3983Z" fill="#0089D0"/>
<path d="M13.0342 19.414C18.6112 19.414 23.3997 20.8912 25.452 22.9842C26.1413 21.4862 26.5225 19.8368 26.5225 18.1039C26.5225 11.1879 20.4807 5.41504 13.0394 5.41504C5.59817 5.41504 -0.443604 11.1827 -0.443604 18.0987C-0.443604 19.8368 -0.0624024 21.481 0.621671 22.979C2.66345 20.8859 7.45196 19.4088 13.0342 19.4088V19.414Z" fill="#008BD1"/>
<path d="M13.0341 19.4242C18.5955 19.4242 23.3735 20.8857 25.4153 22.9631C26.1046 21.4755 26.4806 19.8418 26.4806 18.1245C26.4806 11.266 20.4545 5.52441 13.0341 5.52441C5.61376 5.52441 -0.412354 11.2712 -0.412354 18.1245C-0.412354 19.847 -0.0363745 21.4755 0.652921 22.9631C2.68947 20.8857 7.46754 19.4242 13.0341 19.4242Z" fill="#008CD2"/>
<path d="M13.0287 19.4403C18.5744 19.4403 23.342 20.8913 25.3786 22.9478C26.0627 21.4759 26.4439 19.8526 26.4439 18.151C26.4439 11.3499 20.4334 5.63965 13.0287 5.63965C5.62402 5.63965 -0.375977 11.3551 -0.375977 18.151C-0.375977 19.8578 2.55171e-06 21.4759 0.684076 22.9478C2.71541 20.8913 7.47781 19.4403 13.0287 19.4403Z" fill="#008ED3"/>
<path d="M13.0291 19.4554C18.5644 19.4554 23.3163 20.8908 25.3477 22.9316C26.0317 21.4701 26.4077 19.8625 26.4077 18.1766C26.4077 11.4381 20.4129 5.75391 13.0291 5.75391C5.64532 5.75391 -0.344238 11.4381 -0.344238 18.1766C-0.344238 19.8677 0.0317409 21.4701 0.715814 22.9316C2.74192 20.8908 7.49388 19.4554 13.0291 19.4554Z" fill="#0090D4"/>
<path d="M13.029 19.4695C18.5485 19.4695 23.29 20.8944 25.3162 22.9144C25.995 21.4686 26.3762 19.8766 26.3762 18.2011C26.3762 11.52 20.3971 5.86719 13.0342 5.86719C5.67125 5.86719 -0.307861 11.5252 -0.307861 18.2011C-0.307861 19.8766 0.0681178 21.4686 0.746969 22.9144C2.76786 20.8944 7.50937 19.4695 13.029 19.4695Z" fill="#0092D5"/>
<path d="M13.0236 19.481C18.5276 19.481 23.2586 20.8902 25.2743 22.8946C25.9532 21.4592 26.3291 19.8829 26.3291 18.2282C26.3291 11.6098 20.3657 5.98828 13.0236 5.98828C5.68161 5.98828 -0.276611 11.6098 -0.276611 18.2282C-0.276611 19.8881 0.0993678 21.4644 0.778219 22.8946C2.79388 20.8902 7.51973 19.481 13.0289 19.481H13.0236Z" fill="#0094D6"/>
<path d="M13.0233 19.496C18.5116 19.496 23.227 20.8949 25.2426 22.8783C25.9215 21.4586 26.2975 19.8927 26.2975 18.2538C26.2975 11.6927 20.3497 6.10254 13.0233 6.10254C5.69695 6.10254 -0.245605 11.6927 -0.245605 18.2538C-0.245605 19.8979 0.130374 21.4638 0.804003 22.8783C2.81445 20.8949 7.52985 19.496 13.0233 19.496Z" fill="#0096D7"/>
<path d="M13.0239 19.5121C18.4965 19.5121 23.2014 20.8953 25.2119 22.8631C25.8855 21.4538 26.2615 19.9088 26.2615 18.2803C26.2615 11.7819 20.3294 6.21777 13.0239 6.21777C5.7184 6.21777 -0.208496 11.7819 -0.208496 18.2803C-0.208496 19.9088 0.162261 21.459 0.83589 22.8631C2.84111 20.8953 7.54085 19.5121 13.0187 19.5121H13.0239Z" fill="#0098D8"/>
<path d="M13.0181 19.5282C18.475 19.5282 23.1695 20.9009 25.1747 22.8478C25.8484 21.4542 26.2191 19.9196 26.2191 18.3068C26.2191 11.8658 20.3027 6.33301 13.0181 6.33301C5.73349 6.33301 -0.177734 11.8658 -0.177734 18.3068C-0.177734 19.9196 0.193023 21.4542 0.866652 22.8478C2.86665 20.9009 7.55595 19.5282 13.0181 19.5282Z" fill="#009AD9"/>
<path d="M13.0182 19.5393C18.4594 19.5393 23.1435 20.8964 25.1383 22.8277C25.8119 21.4445 26.1826 19.9256 26.1826 18.3284C26.1826 11.9448 20.2871 6.44336 13.0182 6.44336C5.74923 6.44336 -0.141113 11.95 -0.141113 18.3336C-0.141113 19.936 0.229644 21.4549 0.898051 22.8329C2.89283 20.9017 7.56646 19.5446 13.0182 19.5446V19.5393Z" fill="#009CDA"/>
<path d="M13.0181 19.5544C18.4489 19.5544 23.1173 20.9011 25.1068 22.8115C25.7753 21.4387 26.146 19.9355 26.146 18.3539C26.146 12.033 20.2661 6.55762 13.0129 6.55762C5.75959 6.55762 -0.109863 12.0382 -0.109863 18.3591C-0.109863 19.9459 0.260894 21.4491 0.929301 22.8167C2.91886 20.9063 7.58204 19.5596 13.0181 19.5596V19.5544Z" fill="#009EDB"/>
<path d="M13.0132 19.5692C18.4283 19.5692 23.081 20.9002 25.0706 22.7949C25.739 21.4378 26.1098 19.945 26.1098 18.3791C26.1098 12.1156 20.2455 6.67676 13.0132 6.67676C5.78079 6.67676 -0.072998 12.1208 -0.072998 18.3843C-0.072998 19.9554 0.297759 21.4482 0.960945 22.8001C2.94528 20.9054 7.59802 19.5744 13.0132 19.5744V19.5692Z" fill="#00A0DC"/>
<path d="M13.0128 19.5843C18.4123 19.5843 23.0546 20.9048 25.039 22.7787C25.7074 21.432 26.0729 19.9601 26.0729 18.4046C26.0729 12.2037 20.2243 6.79102 13.0128 6.79102C5.80135 6.79102 -0.0419922 12.209 -0.0419922 18.4098C-0.0419922 19.9653 0.323543 21.4424 0.991951 22.7839C2.97106 20.91 7.60814 19.5895 13.0128 19.5895V19.5843Z" fill="#00A2DD"/>
<path d="M13.013 19.5948C18.3968 19.5948 23.0287 20.9049 25.0026 22.7631C25.6657 21.4321 26.0365 19.9706 26.0365 18.436C26.0365 12.2925 20.2036 6.91113 13.013 6.91113C5.8224 6.91113 -0.010498 12.2925 -0.010498 18.4308C-0.010498 19.9706 0.355037 21.4321 1.01822 22.7578C2.99211 20.8997 7.61875 19.5895 13.0078 19.5895L13.013 19.5948Z" fill="#00A4DE"/>
<path d="M13.0078 19.6118C18.376 19.6118 22.9974 20.9063 24.9661 22.7488C25.6293 21.4282 25.9948 19.9824 25.9948 18.4635C25.9948 12.3827 20.1776 7.02734 13.0078 7.02734C5.83813 7.02734 0.026123 12.3774 0.026123 18.4583C0.026123 19.9824 0.391658 21.4334 1.05484 22.7436C3.02351 20.9063 7.63448 19.6066 13.0131 19.6066L13.0078 19.6118Z" fill="#00A6DF"/>
<path d="M13.0078 19.6279C18.3602 19.6279 22.9712 20.9119 24.9347 22.7335C25.5978 21.4286 25.9634 19.9985 25.9634 18.49C25.9634 12.4666 20.1618 7.14258 13.0078 7.14258C5.85372 7.14258 0.057373 12.4666 0.057373 18.4848C0.057373 19.9932 0.422908 21.4286 1.08087 22.7283C3.04432 20.9067 7.64484 19.6226 13.0025 19.6226L13.0078 19.6279Z" fill="#00A9E0"/>
<path d="M13.0076 19.643C18.3444 19.643 22.9397 20.9113 24.9031 22.7173C25.5611 21.4228 25.9266 20.0083 25.9266 18.5155C25.9266 12.5547 20.1407 7.25684 13.0076 7.25684C5.87443 7.25684 0.09375 12.5495 0.09375 18.5103C0.09375 20.0031 0.459285 21.4281 1.11725 22.7121C3.07547 20.9061 7.66555 19.6377 13.0076 19.6377V19.643Z" fill="#00ABE1"/>
<path d="M13.0028 19.6538C18.3239 19.6538 22.9088 20.9117 24.8618 22.6968C25.5197 21.418 25.8853 20.0139 25.8853 18.5368C25.8853 12.6334 20.115 7.37207 13.0028 7.37207C5.8905 7.37207 0.125488 12.6334 0.125488 18.5368C0.125488 20.0139 0.491024 21.4232 1.14377 22.6968C3.09677 20.9117 7.67118 19.6538 13.0028 19.6538Z" fill="#00ADE2"/>
<path d="M13.0026 19.6689C18.3133 19.6689 22.8825 20.9111 24.8303 22.6806C25.483 21.4174 25.8485 20.0238 25.8485 18.5623C25.8485 12.7164 20.094 7.48633 12.9974 7.48633C5.90077 7.48633 0.161865 12.7216 0.161865 18.5623C0.161865 20.0238 0.522179 21.4174 1.18014 22.6806C3.12792 20.9111 7.69189 19.6689 13.0078 19.6689H13.0026Z" fill="#01AFE3"/>
<path d="M13.0025 19.684C18.2976 19.684 22.8563 20.9158 24.7989 22.6644C25.4516 21.4117 25.8171 20.0389 25.8171 18.5878C25.8171 12.8045 20.0782 7.60059 13.0025 7.60059C5.9268 7.60059 0.193115 12.8045 0.193115 18.5878C0.193115 20.0337 0.553429 21.4169 1.20617 22.6644C3.14873 20.9158 7.69703 19.684 13.0025 19.684Z" fill="#14B1E4"/>
<path d="M13.0026 19.7C18.282 19.7 22.8303 20.9162 24.7676 22.6491C25.4203 21.4121 25.7807 20.0497 25.7807 18.6143C25.7807 12.8884 20.0574 7.71582 13.0026 7.71582C5.94775 7.71582 0.229736 12.8884 0.229736 18.6143C0.229736 20.0497 0.59005 21.4121 1.24279 22.6491C3.18013 20.9162 7.71799 19.7 13.0026 19.7Z" fill="#20B4E5"/>
<path d="M12.9975 19.7167C18.2612 19.7167 22.7991 20.9225 24.7312 22.6345C25.3787 21.4079 25.7443 20.0612 25.7443 18.6467C25.7443 12.9834 20.0367 7.83691 13.0027 7.83691C5.9688 7.83691 0.26123 12.9782 0.26123 18.6415C0.26123 20.0612 0.621544 21.4131 1.26906 22.6293C3.20118 20.9172 7.72859 19.7115 12.9975 19.7115V19.7167Z" fill="#28B6E6"/>
<path d="M12.9974 19.726C18.2455 19.726 22.7677 20.916 24.6946 22.6124C25.3421 21.3962 25.7024 20.0652 25.7024 18.6664C25.7024 13.0605 20.0105 7.94531 12.9974 7.94531C5.98439 7.94531 0.29248 13.0605 0.29248 18.6664C0.29248 20.0704 0.652794 21.4067 1.29509 22.6124C3.22198 20.916 7.73373 19.726 12.9922 19.726H12.9974Z" fill="#30B8E7"/>
<path d="M12.9976 19.7632C18.2404 19.7632 22.7573 20.9481 24.679 22.6288C25.3265 21.4231 25.6868 20.1025 25.6868 18.7089C25.6868 13.1396 20.0054 8.05566 12.9976 8.05566C5.98972 8.05566 0.313477 13.1396 0.313477 18.7089C0.313477 20.1025 0.67379 21.4335 1.31609 22.6288C3.23776 20.9429 7.74429 19.7632 12.9976 19.7632Z" fill="#3FBAE8"/>
<path d="M12.9973 19.7943C18.2349 19.7943 22.7414 20.9687 24.6631 22.6442C25.3106 21.4489 25.6709 20.1336 25.6709 18.7504C25.6709 13.2176 19.9947 8.16504 12.9973 8.16504C5.99988 8.16504 0.328857 13.2176 0.328857 18.7452C0.328857 20.1284 0.683949 21.4489 1.33147 22.639C3.25314 20.9635 7.75445 19.7891 12.9973 19.7891V19.7943Z" fill="#4CBDE9"/>
<path d="M12.9972 19.8254C18.2244 19.8254 22.7309 20.9946 24.6474 22.6545C25.2897 21.4644 25.65 20.1595 25.65 18.7815C25.65 13.2853 19.9842 8.25879 12.9972 8.25879C6.01028 8.25879 0.344482 13.2905 0.344482 18.7867C0.344482 20.1647 0.699574 21.4748 1.34709 22.6597C3.26354 20.9998 7.75963 19.8306 12.9972 19.8306V19.8254Z" fill="#56BFEA"/>
<path d="M12.9973 19.8624C18.2193 19.8624 22.7153 21.0211 24.6318 22.6757C25.2741 21.4961 25.6344 20.1964 25.6344 18.8289C25.6344 13.3692 19.9738 8.37402 12.9973 8.37402C6.02083 8.37402 0.365479 13.3692 0.365479 18.8289C0.365479 20.1964 0.72057 21.4961 1.36287 22.6757C3.27932 21.0263 7.77018 19.8624 12.9973 19.8624Z" fill="#60C1EA"/>
<path d="M12.9978 19.8951C18.2145 19.8951 22.7001 21.0486 24.6166 22.6876C25.2589 21.5132 25.6192 20.2239 25.6192 18.8668C25.6192 13.4437 19.9691 8.47461 12.9978 8.47461C6.0265 8.47461 0.381592 13.4489 0.381592 18.8668C0.381592 20.2239 0.736683 21.5184 1.37898 22.6876C3.29021 21.0486 7.77585 19.8951 12.9978 19.8951Z" fill="#69C4EB"/>
<path d="M12.9975 19.9246C18.2038 19.9246 22.6894 21.0677 24.6006 22.6962C25.2429 21.5322 25.6032 20.2534 25.6032 18.9015C25.6032 13.5149 19.9583 8.57715 13.0027 8.57715C6.0471 8.57715 0.396973 13.5201 0.396973 18.9067C0.396973 20.2534 0.752064 21.5374 1.39436 22.7014C3.30559 21.0729 7.78078 19.9298 12.9975 19.9298V19.9246Z" fill="#71C6EC"/>
<path d="M12.9976 19.9556C18.1986 19.9556 22.6738 21.0935 24.5851 22.7116C25.2274 21.5528 25.5825 20.2845 25.5825 18.943C25.5825 13.5929 19.9428 8.68652 12.9976 8.68652C6.05243 8.68652 0.417969 13.5982 0.417969 18.9483C0.417969 20.2897 0.77306 21.5633 1.41014 22.7168C3.31614 21.0987 7.79134 19.9609 12.9976 19.9609V19.9556Z" fill="#79C9ED"/>
<path d="M12.9973 19.9933C18.1931 19.9933 22.6631 21.1207 24.5691 22.7283C25.2062 21.58 25.5665 20.3169 25.5665 18.9859C25.5665 13.6723 19.9373 8.79199 12.9973 8.79199C6.05737 8.79199 0.43335 13.6775 0.43335 18.9859C0.43335 20.3169 0.788441 21.58 1.42552 22.7283C3.33152 21.1207 7.79627 19.9933 12.9973 19.9933Z" fill="#81CBEE"/>
<path d="M12.9975 20.0243C18.1829 20.0243 22.6477 21.1466 24.5537 22.7438C25.1907 21.6007 25.551 20.348 25.551 19.0274C25.551 13.7504 19.927 8.90137 13.0027 8.90137C6.07846 8.90137 0.449219 13.7504 0.449219 19.0274C0.449219 20.348 0.799088 21.6059 1.44139 22.7438C3.34217 21.1466 7.80692 20.0243 12.9975 20.0243Z" fill="#88CEEF"/>
<path d="M12.9974 20.06C18.1775 20.06 22.6371 21.1718 24.5379 22.7585C25.1749 21.6259 25.53 20.3784 25.53 19.0683C25.53 13.8278 19.9164 9.00488 12.9974 9.00488C6.07833 9.00488 0.469971 13.8278 0.469971 19.0683C0.469971 20.3784 0.81984 21.6259 1.45692 22.7585C3.3577 21.1718 7.81201 20.06 12.9974 20.06Z" fill="#8FD0F0"/>
<path d="M12.9976 20.0924C18.1725 20.0924 22.6216 21.1989 24.5224 22.77C25.1595 21.6426 25.5146 20.4108 25.5146 19.1059C25.5146 13.9019 19.9062 9.11035 12.9976 9.11035C6.08897 9.11035 0.48584 13.9072 0.48584 19.1059C0.48584 20.4108 0.835709 21.6478 1.47279 22.77C3.36835 21.1989 7.82265 20.0924 12.9976 20.0924Z" fill="#96D3F1"/>
<path d="M12.9975 20.1235C18.1673 20.1235 22.6111 21.2196 24.5067 22.7855C25.1438 21.6685 25.4989 20.4419 25.4989 19.1474C25.4989 13.98 19.9009 9.21973 13.0028 9.21973C6.1046 9.21973 0.501465 13.98 0.501465 19.1474C0.501465 20.4419 0.851334 21.6685 1.48841 22.7855C3.38397 21.2248 7.82784 20.1235 12.9975 20.1235Z" fill="#9CD5F1"/>
<path d="M12.9973 20.1611C18.1565 20.1611 22.5952 21.252 24.4855 22.8022C25.1174 21.6904 25.4777 20.4743 25.4777 19.1902C25.4777 14.0594 19.885 9.3252 12.9973 9.3252C6.10953 9.3252 0.516846 14.0594 0.516846 19.1902C0.516846 20.4743 0.866715 21.6957 1.49857 22.8022C3.38891 21.252 7.82755 20.1611 12.992 20.1611H12.9973Z" fill="#A3D7F2"/>
<path d="M12.9976 20.1912C18.1517 20.1912 22.5851 21.2717 24.4702 22.8167C25.1021 21.7153 25.4571 20.5044 25.4571 19.2308C25.4571 14.1365 19.8749 9.43359 12.9924 9.43359C6.10989 9.43359 0.538086 14.1365 0.538086 19.2256C0.538086 20.4992 0.887955 21.7101 1.51981 22.8114C3.41015 21.2717 7.84357 20.186 12.9976 20.186V20.1912Z" fill="#A9DAF3"/>
<path d="M12.9978 20.222C18.1466 20.222 22.5696 21.2972 24.4547 22.8266C25.0866 21.7304 25.4417 20.5299 25.4417 19.2668C25.4417 14.209 19.8647 9.53223 12.9978 9.53223C6.13098 9.53223 0.553955 14.209 0.553955 19.2668C0.553955 20.5351 0.903824 21.7357 1.53568 22.8266C3.4208 21.2972 7.84899 20.222 12.9978 20.222Z" fill="#AFDCF4"/>
<path d="M12.9975 20.2592C18.1359 20.2592 22.5537 21.324 24.4388 22.843C25.0706 21.7573 25.4257 20.5672 25.4257 19.3093C25.4257 14.288 19.8539 9.64258 12.9975 9.64258C6.14114 9.64258 0.569336 14.288 0.569336 19.3093C0.569336 20.5672 0.913983 21.7625 1.55106 22.843C3.43618 21.324 7.85915 20.2592 12.9975 20.2592Z" fill="#B4DFF5"/>
<path d="M12.9976 20.2913C18.1308 20.2913 22.5433 21.3509 24.4232 22.8594C25.0499 21.7789 25.405 20.5993 25.405 19.3518C25.405 14.3671 19.8436 9.75293 12.9924 9.75293C6.14125 9.75293 0.590332 14.3671 0.590332 19.3466C0.590332 20.594 0.934979 21.7789 1.56683 22.8541C3.45195 21.3457 7.86448 20.2861 12.9976 20.2861V20.2913Z" fill="#BAE1F6"/>
<path d="M12.9971 20.3211C18.1251 20.3211 22.5271 21.3702 24.407 22.8683C25.0337 21.7983 25.3888 20.6238 25.3888 19.3868C25.3888 14.4386 19.8326 9.85059 12.9971 9.85059C6.1616 9.85059 0.605469 14.4438 0.605469 19.3868C0.605469 20.6238 0.950116 21.7983 1.58197 22.8683C3.46187 21.3702 7.86918 20.3211 12.9971 20.3211Z" fill="#BFE3F6"/>
<path d="M12.9973 20.3525C18.1148 20.3525 22.5169 21.3964 24.3916 22.8788C25.0182 21.814 25.3733 20.65 25.3733 19.4234C25.3733 14.5118 19.8276 9.95508 12.9973 9.95508C6.16703 9.95508 0.621338 14.517 0.621338 19.4287C0.621338 20.6605 0.965985 21.8245 1.59784 22.884C3.47251 21.3964 7.87982 20.3577 12.9973 20.3577V20.3525Z" fill="#C5E6F7"/>
<path d="M12.9974 20.3888C18.1097 20.3888 22.5013 21.4275 24.376 22.8995C25.0026 21.8451 25.3577 20.6863 25.3577 19.4702C25.3577 14.5951 19.8173 10.0645 12.9974 10.0645C6.17758 10.0645 0.642334 14.5951 0.642334 19.465C0.642334 20.6863 0.986981 21.8451 1.61361 22.8942C3.48829 21.4223 7.88515 20.3836 12.9974 20.3836V20.3888Z" fill="#CAE8F8"/>
<path d="M12.9976 20.4212C18.1047 20.4212 22.4911 21.4495 24.3606 22.911C24.9872 21.867 25.3371 20.7187 25.3371 19.5078C25.3371 14.6692 19.807 10.1699 12.9976 10.1699C6.18823 10.1699 0.658203 14.6744 0.658203 19.5078C0.658203 20.7187 1.00285 21.867 1.62948 22.911C3.49893 21.4495 7.8958 20.4212 12.9976 20.4212Z" fill="#CFEAF9"/>
<path d="M12.9973 20.4513C18.0939 20.4513 22.4751 21.4744 24.3446 22.9254C24.966 21.8867 25.3211 20.7488 25.3211 19.5483C25.3211 14.7463 19.7963 10.2783 12.9973 10.2783C6.19839 10.2783 0.673584 14.7463 0.673584 19.5483C0.673584 20.7541 1.01823 21.8919 1.64486 22.9254C3.51431 21.4744 7.90074 20.4513 12.9973 20.4513Z" fill="#D5ECFA"/>
<path d="M12.9975 20.487C18.0889 20.487 22.4597 21.4996 24.3291 22.9402C24.9505 21.9119 25.3056 20.7793 25.3056 19.5892C25.3056 14.8237 19.7913 10.3818 12.9975 10.3818C6.20381 10.3818 0.689453 14.8237 0.689453 19.584C0.689453 20.7793 1.02888 21.9067 1.65551 22.935C3.52496 21.4944 7.90094 20.4818 12.9923 20.4818L12.9975 20.487Z" fill="#DAEFFA"/>
<path d="M12.9974 20.5194C18.0836 20.5194 22.4491 21.5215 24.3133 22.9517C24.9347 21.9287 25.2898 20.8065 25.2898 19.6268C25.2898 14.8979 19.7807 10.4873 13.0026 10.4873C6.22457 10.4873 0.710205 14.9031 0.710205 19.6268C0.710205 20.8117 1.04963 21.9339 1.67626 22.9517C3.54049 21.5215 7.91647 20.5194 12.9974 20.5194Z" fill="#DFF1FB"/>
<path d="M12.9974 20.5508C18.0783 20.5508 22.4334 21.5477 24.2976 22.9675C24.919 21.9549 25.2689 20.8379 25.2689 19.6687C25.2689 14.9763 19.765 10.5918 12.9974 10.5918C6.22975 10.5918 0.72583 14.9763 0.72583 19.6687C0.72583 20.8431 1.06526 21.9549 1.69189 22.9675C3.55612 21.5477 7.92165 20.5508 12.9974 20.5508Z" fill="#E4F3FC"/>
<path d="M12.9973 20.5874C18.0678 20.5874 22.4229 21.5739 24.2819 22.9832C24.9033 21.9758 25.2532 20.8745 25.2532 19.7053C25.2532 15.0494 19.7597 10.6963 12.9973 10.6963C6.23493 10.6963 0.741455 15.0547 0.741455 19.7053C0.741455 20.8745 1.08088 21.9758 1.70751 22.9832C3.56652 21.5739 7.93206 20.5874 12.9973 20.5874Z" fill="#E9F5FC"/>
<path d="M12.9974 20.6185C18.0627 20.6185 22.4074 21.5998 24.2664 22.9987C24.8826 21.9965 25.2376 20.9056 25.2376 19.7468C25.2376 15.1275 19.7494 10.8057 13.0027 10.8057C6.25592 10.8057 0.762451 15.1327 0.762451 19.7468C0.762451 20.9056 1.10188 21.9965 1.72329 22.9987C3.58229 21.5998 7.93739 20.6185 12.9974 20.6185Z" fill="#EDF7FD"/>
<path d="M12.9976 20.6512C18.0577 20.6512 22.3971 21.6273 24.2457 23.0105C24.8619 22.0188 25.2117 20.9331 25.2117 19.7848C25.2117 15.202 19.7339 10.9062 12.9924 10.9062C6.2509 10.9062 0.77832 15.2072 0.77832 19.79C0.77832 20.9383 1.11775 22.024 1.73916 23.0157C3.59294 21.6273 7.94281 20.6565 12.9976 20.6565V20.6512Z" fill="#F2F9FD"/>
<path d="M12.9974 20.6866C18.047 20.6866 22.3812 21.6522 24.2297 23.025C24.8459 22.0437 25.1958 20.9632 25.1958 19.8253C25.1958 15.2791 19.7232 11.0146 12.9921 11.0146C6.26106 11.0146 0.793701 15.2843 0.793701 19.8253C0.793701 20.9684 1.13313 22.0384 1.75454 23.025C3.60832 21.6522 7.95297 20.6866 12.9974 20.6866Z" fill="#F7FBFE"/>
<path d="M12.9975 20.718C18.0419 20.718 22.3708 21.6784 24.2142 23.0407C24.8304 22.0646 25.1802 20.9998 25.1802 19.8672C25.1802 15.3575 19.7181 11.1191 12.9975 11.1191C6.27684 11.1191 0.814697 15.3627 0.814697 19.8672C0.814697 20.9998 1.1489 22.0646 1.77031 23.0407C3.61888 21.6784 7.9583 20.718 12.9975 20.718Z" fill="#FBFDFF"/>
<path d="M12.9972 20.7494C18.0363 20.7494 22.3549 21.6994 24.1982 23.0513C24.8144 22.0856 25.1643 21.026 25.1643 19.9038C25.1643 15.4306 19.7074 11.2236 12.9972 11.2236C6.287 11.2236 0.830078 15.4359 0.830078 19.9091C0.830078 21.0313 1.16428 22.0856 1.78569 23.0565C3.63426 21.7046 7.96846 20.7546 13.0024 20.7546L12.9972 20.7494Z" fill="white"/>
</g>
<path d="M12.9973 16.2812C8.59002 16.2812 4.50124 17.0224 1.11743 18.2856C3.14354 22.8319 7.70229 25.9949 13.0078 25.9949C18.3133 25.9949 22.8459 22.8319 24.8772 18.2856C21.5039 17.0224 17.4151 16.2812 13.0025 16.2812H12.9973Z" fill="#007BC7"/>
</svg>
