<svg width="26" height="26" viewBox="0 0 26 26" fill="none" xmlns="http://www.w3.org/2000/svg">
<g clip-path="url(#clip0_657_3947)">
<path d="M5.67271 7.49655C5.70071 6.04462 6.2872 4.90131 7.49362 4.09838C9.35497 2.85908 11.235 1.64596 13.0637 0.358256C13.8905 -0.223313 15.5138 -0.0884334 16.1314 0.701802C16.9801 1.78877 16.9046 3.0495 16.0179 3.98651C15.7137 4.30784 15.3023 4.52603 14.9289 4.77516C13.6105 5.65426 12.2889 6.5278 10.9643 7.39738C10.7496 7.5386 10.8134 7.59018 10.9915 7.70443C11.7888 8.21459 12.5783 8.73824 13.3662 9.26427C14.6116 10.0966 15.8538 10.9336 17.0959 11.7706C17.8932 12.3086 18.6921 12.8441 19.4823 13.3924C20.7214 14.2516 21.1897 15.529 20.9299 17.046C20.8 17.8085 20.4468 18.4377 20.0758 19.0787C19.9669 19.2668 19.9101 19.2779 19.7336 19.1581C18.6438 18.4186 17.5463 17.6919 16.448 16.9675C15.6601 16.4478 14.8628 15.9448 14.0764 15.4227C13.0256 14.7253 11.9825 14.0168 10.9355 13.313C9.68632 12.4728 8.42235 11.6548 7.19259 10.786C6.38443 10.2148 5.93795 9.37614 5.74972 8.39548C5.69293 8.09954 5.63071 7.8044 5.67271 7.49497V7.49655Z" fill="#0F7AED"/>
<path d="M20.9908 23.5177C20.9791 24.9863 19.8987 26.0019 18.6036 26.0003C18.0233 26.0003 17.5426 25.6908 17.0752 25.3798C15.3561 24.2373 13.6403 23.09 11.9228 21.9452C10.7265 21.1478 9.53719 20.3409 8.33077 19.5602C7.65717 19.1238 6.99134 18.6771 6.35508 18.186C5.61536 17.6139 5.17744 16.8594 5.04676 15.9129C4.88031 14.7053 5.29489 13.6659 5.9016 12.6758C6.01439 12.4917 6.08906 12.4187 6.33641 12.5774C7.53427 13.3454 8.71891 14.138 9.8981 14.9314C11.292 15.8692 12.7076 16.7737 14.0782 17.7488C15.1337 18.5002 16.2351 19.1841 17.3178 19.8966C18.2201 20.4901 19.1356 21.0637 20.0231 21.6786C20.6789 22.1332 20.9565 22.8171 20.9908 23.5185V23.5177Z" fill="#38D200"/>
<path d="M7.34051 21.3186C7.81732 21.3488 8.29958 21.5225 8.74372 21.8232C9.56978 22.381 10.4021 22.93 11.2304 23.4846C11.3409 23.5592 11.4716 23.6243 11.2631 23.7615C10.2714 24.4145 9.32632 25.1436 8.27469 25.6958C6.89559 26.4194 5.3726 25.6125 5.04357 24.0527C4.76744 22.7467 5.81985 21.2964 7.34051 21.3186Z" fill="#0F7AED"/>
<path d="M18.3687 9.91133C17.6492 9.8915 17.1506 9.5424 16.624 9.229C15.8376 8.76089 15.1485 8.13965 14.3248 7.73184C14.1435 7.64218 14.1427 7.50413 14.3185 7.39702C15.1928 6.86226 16.0235 6.25689 16.9126 5.74356C17.2642 5.54124 17.5955 5.36907 17.9961 5.27544C18.7841 5.09137 19.8886 5.65787 20.2129 6.30291C20.696 7.26214 20.717 8.17694 20.0449 9.04255C19.6023 9.61222 18.9739 9.83278 18.3687 9.91133Z" fill="#38D200"/>
</g>
<defs>
<clipPath id="clip0_657_3947">
<rect width="16" height="26" fill="white" transform="translate(5)"/>
</clipPath>
</defs>
</svg>
