<svg width="60" height="60" viewBox="0 0 60 60" fill="none" xmlns="http://www.w3.org/2000/svg">
<rect x="0.15" y="0.15" width="59.7" height="59.7" rx="4.85" fill="white" stroke="#00ABFF" stroke-width="0.3"/>
<mask id="mask0_1517_10478" style="mask-type:alpha" maskUnits="userSpaceOnUse" x="0" y="0" width="60" height="60">
<rect x="0.15" y="0.15" width="59.7" height="59.7" rx="4.85" fill="white" stroke="#00ABFF" stroke-width="0.3"/>
</mask>
<g mask="url(#mask0_1517_10478)">
<path d="M58.8685 0H1.13152C0.503711 0 0 0.503711 0 1.13152V58.8685C0 59.4963 0.503711 60 1.13152 60H58.8685C59.4963 60 60 59.489 60 58.8685V1.13152C60 0.503711 59.4963 0 58.8685 0ZM15.0748 14.6587V6.99355C15.0748 6.05913 15.834 5.29261 16.7758 5.29261C17.7175 5.29261 18.4767 6.05183 18.4767 6.99355V14.6587C18.4767 21.0172 23.6452 26.1857 30.0036 26.1857C36.3621 26.1857 41.5306 21.0172 41.5306 14.6587V6.99355C41.5306 6.05913 42.2898 5.29261 43.2315 5.29261C44.1733 5.29261 44.9325 6.05183 44.9325 6.99355V14.6587C44.9325 22.886 38.2382 29.5875 30.0036 29.5875C21.7691 29.5875 15.0748 22.8933 15.0748 14.6587ZM53.3861 53.9117H49.5389L42.9468 45.8231V53.9117H38.5083V40.2896H42.3555L48.9476 48.5315V40.2896H53.3861V53.9117Z" fill="#00C73C"/>
</g>
<rect x="0.15" y="0.15" width="59.7" height="59.7" rx="4.85" stroke="#00ABFF" stroke-width="0.3"/>
</svg>
