<svg width="44" height="44" viewBox="0 0 44 44" fill="none" xmlns="http://www.w3.org/2000/svg">
<rect x="12" y="41" width="20" height="3" fill="#00ABFF"/>
<rect x="12" width="20" height="3" fill="#00ABFF"/>
<rect x="44" y="14" width="16" height="3" transform="rotate(90 44 14)" fill="#00ABFF"/>
<rect x="35" y="3" width="3" height="3" transform="rotate(90 35 3)" fill="#00ABFF"/>
<rect x="35" y="38" width="3" height="3" transform="rotate(90 35 38)" fill="#00ABFF"/>
<rect x="38" y="35" width="3" height="3" transform="rotate(90 38 35)" fill="#00ABFF"/>
<rect x="38" y="6" width="3" height="3" transform="rotate(90 38 6)" fill="#00ABFF"/>
<rect x="41" y="30" width="5" height="3" transform="rotate(90 41 30)" fill="#00ABFF"/>
<rect x="41" y="9" width="5" height="3" transform="rotate(90 41 9)" fill="#00ABFF"/>
<rect width="16" height="3" transform="matrix(4.37114e-08 1 1 -4.37114e-08 0 14)" fill="#00ABFF"/>
<rect width="3" height="3" transform="matrix(4.37114e-08 1 1 -4.37114e-08 9 3)" fill="#00ABFF"/>
<rect width="3" height="3" transform="matrix(4.37114e-08 1 1 -4.37114e-08 9 38)" fill="#00ABFF"/>
<rect width="3" height="3" transform="matrix(4.37114e-08 1 1 -4.37114e-08 6 35)" fill="#00ABFF"/>
<rect width="3" height="3" transform="matrix(4.37114e-08 1 1 -4.37114e-08 6 6)" fill="#00ABFF"/>
<rect width="5" height="3" transform="matrix(4.37114e-08 1 1 -4.37114e-08 3 30)" fill="#00ABFF"/>
<rect width="5" height="3" transform="matrix(4.37114e-08 1 1 -4.37114e-08 3 9)" fill="#00ABFF"/>
<rect x="14" y="14" width="3" height="3" fill="#00ABFF"/>
<rect x="11" y="11" width="3" height="3" fill="#00ABFF"/>
<rect x="29" y="11" width="3" height="3" fill="#00ABFF"/>
<rect x="26" y="14" width="3" height="3" fill="#00ABFF"/>
<rect x="17" y="17" width="3" height="3" fill="#00ABFF"/>
<rect width="3" height="3" transform="matrix(1 0 0 -1 14 29)" fill="#00ABFF"/>
<rect x="23" y="17" width="3" height="3" fill="#00ABFF"/>
<rect width="3" height="3" transform="matrix(1 0 0 -1 11 32)" fill="#00ABFF"/>
<rect width="3" height="3" transform="matrix(1 0 0 -1 29 32)" fill="#00ABFF"/>
<rect width="3" height="3" transform="matrix(1 0 0 -1 26 29)" fill="#00ABFF"/>
<rect width="3" height="3" transform="matrix(1 0 0 -1 17 26)" fill="#00ABFF"/>
<rect x="20" y="20" width="3" height="3" fill="#00ABFF"/>
<rect width="3" height="3" transform="matrix(1 0 0 -1 23 26)" fill="#00ABFF"/>
</svg>
