<svg width="58" height="58" viewBox="0 0 58 58" fill="none" xmlns="http://www.w3.org/2000/svg">
<path d="M58 51.5556V6.44444C58 2.9 55.1 0 51.5556 0H6.44444C2.9 0 0 2.9 0 6.44444V51.5556C0 55.1 2.9 58 6.44444 58H51.5556C55.1 58 58 55.1 58 51.5556ZM19.0111 35.38L25.7778 43.5322L35.7667 30.6756C36.4111 29.8378 37.7 29.8378 38.3444 30.7078L49.6544 45.7878C49.834 46.0271 49.9433 46.3118 49.9702 46.6098C49.997 46.9077 49.9404 47.2073 49.8066 47.475C49.6728 47.7426 49.4671 47.9676 49.2126 48.1249C48.958 48.2822 48.6648 48.3656 48.3656 48.3656H9.73111C8.37778 48.3656 7.63667 46.8189 8.47445 45.7556L16.4978 35.4444C17.11 34.6067 18.3344 34.5744 19.0111 35.38Z" fill="#00ABFF"/>
</svg>
