<svg width="195" height="62" viewBox="0 0 195 62" fill="none" xmlns="http://www.w3.org/2000/svg">
<path d="M3 3H192V47H3V3Z" fill="white"/>
<rect width="12" height="6" transform="matrix(1 0 0 -1 91 53)" fill="white"/>
<rect width="12" height="6" transform="matrix(1 0 0 -1 91 59)" fill="white"/>
<path d="M26.9121 18.1667H28.0788V24H29.2454V25.1667H28.0788V31H26.9121V18.1667ZM16.4121 27.5V20.5H17.5788V27.5H16.4121ZM18.7454 28.6667H17.5788V27.5H18.7454V28.6667ZM18.7454 29.8333V28.6667H22.2454V29.8333H18.7454ZM18.7454 19.3333V20.5H17.5788V19.3333H18.7454ZM18.7454 18.1667H22.2454V19.3333H18.7454V18.1667ZM23.4121 28.6667H22.2454V27.5H23.4121V28.6667ZM23.4121 27.5V20.5H24.5788V27.5H23.4121ZM23.4121 19.3333V20.5H22.2454V19.3333H23.4121ZM40.9121 18.1667H42.0788V25.1667H40.9121V18.1667ZM30.4121 25.1667V24H31.5788V25.1667H30.4121ZM30.4121 19.3333V18.1667H38.5788V19.3333H35.0788V21.6667H33.9121V19.3333H30.4121ZM40.9121 31V27.5H31.5788V26.3333H42.0788V31H40.9121ZM32.7454 22.8333V24H31.5788V22.8333H32.7454ZM32.7454 21.6667H33.9121V22.8333H32.7454V21.6667ZM35.0788 22.8333V21.6667H36.2454V22.8333H35.0788ZM37.4121 25.1667V24H38.5788V25.1667H37.4121ZM37.4121 22.8333V24H36.2454V22.8333H37.4121ZM50.25 29.8333V28.6667H56.0833V25.1667H57.25V28.6667H63.0833V29.8333H50.25ZM60.75 25.1667H59.5833V24H60.75V25.1667ZM60.75 26.3333V25.1667H61.9167V26.3333H60.75ZM52.5833 25.1667V26.3333H51.4167V25.1667H52.5833ZM52.5833 24H53.75V25.1667H52.5833V24ZM54.9167 22.8333V24H53.75V22.8333H54.9167ZM54.9167 21.6667H56.0833V22.8333H54.9167V21.6667ZM57.25 22.8333V21.6667H58.4167V22.8333H57.25ZM57.25 21.6667H56.0833V18.1667H57.25V21.6667ZM59.5833 22.8333V24H58.4167V22.8333H59.5833ZM74.75 18.1667H75.9167V27.5H74.75V26.3333H72.4167V25.1667H74.75V18.1667ZM64.25 24V22.8333H73.5833V24H68.9167V27.5H67.75V24H64.25ZM66.5833 29.8333H75.9167V31H65.4167V26.3333H66.5833V29.8333ZM66.5833 19.3333V20.5H65.4167V19.3333H66.5833ZM66.5833 20.5H71.25V21.6667H66.5833V20.5ZM66.5833 18.1667H71.25V19.3333H66.5833V18.1667ZM71.25 19.3333H72.4167V20.5H71.25V19.3333ZM94.5879 18.1667H95.7546V25.1667H94.5879V18.1667ZM84.0879 25.1667V20.5H89.9212V19.3333H84.0879V18.1667H91.0879V21.6667H85.2546V24H92.2546V25.1667H84.0879ZM94.5879 29.8333V31H86.4212V29.8333H94.5879ZM94.5879 26.3333V27.5H86.4212V26.3333H94.5879ZM94.5879 27.5H95.7546V29.8333H94.5879V27.5ZM86.4212 29.8333H85.2546V27.5H86.4212V29.8333ZM98.0879 29.8333V28.6667H110.921V29.8333H98.0879ZM99.2546 18.1667H109.755V26.3333H108.588V24H99.2546V22.8333H108.588V19.3333H99.2546V18.1667ZM107.421 27.5V26.3333H108.588V27.5H107.421ZM122.588 18.1667H123.755V24H124.921V25.1667H123.755V31H122.588V18.1667ZM112.088 29.8333V28.6667H114.421V29.8333H112.088ZM112.088 19.3333V18.1667H119.088V24H117.921V19.3333H112.088ZM114.421 28.6667V27.5H115.588V28.6667H114.421ZM116.755 26.3333V27.5H115.588V26.3333H116.755ZM116.755 24H117.921V26.3333H116.755V24ZM142.426 18.1667H143.592V26.3333H142.426V21.6667H140.092V22.8333H138.926V20.5H142.426V18.1667ZM131.926 22.8333V20.5H133.092V22.8333H131.926ZM142.426 28.6667V29.8333H141.259V28.6667H142.426ZM142.426 29.8333H143.592V31H142.426V29.8333ZM136.592 29.8333V28.6667H134.259V29.8333H136.592ZM136.592 27.5V26.3333H137.759V29.8333H138.926V31H133.092V26.3333H134.259V27.5H136.592ZM141.259 28.6667H140.092V26.3333H141.259V28.6667ZM140.092 28.6667V29.8333H138.926V28.6667H140.092ZM134.259 25.1667V24H137.759V25.1667H134.259ZM134.259 22.8333V24H133.092V22.8333H134.259ZM134.259 19.3333V20.5H133.092V19.3333H134.259ZM134.259 18.1667H137.759V19.3333H134.259V18.1667ZM138.926 22.8333V24H137.759V22.8333H138.926ZM138.926 19.3333V20.5H137.759V19.3333H138.926ZM156.426 18.1667H157.592V31H156.426V24H154.092V27.5H152.926V20.5H154.092V22.8333H156.426V18.1667ZM145.926 27.5V20.5H147.092V27.5H145.926ZM148.259 28.6667H147.092V27.5H148.259V28.6667ZM148.259 29.8333V28.6667H151.759V29.8333H148.259ZM148.259 19.3333V20.5H147.092V19.3333H148.259ZM148.259 18.1667H151.759V19.3333H148.259V18.1667ZM152.926 28.6667H151.759V27.5H152.926V28.6667ZM152.926 19.3333V20.5H151.759V19.3333H152.926ZM159.926 29.8333V28.6667H163.426V25.1667H169.259V28.6667H172.759V29.8333H159.926ZM170.426 25.1667H169.259V24H170.426V25.1667ZM170.426 24V20.5H171.592V24H170.426ZM170.426 19.3333V20.5H169.259V19.3333H170.426ZM162.259 25.1667V24H163.426V25.1667H162.259ZM162.259 24H161.092V20.5H162.259V24ZM162.259 20.5V19.3333H163.426V20.5H162.259ZM164.592 28.6667H168.092V26.3333H164.592V28.6667ZM169.259 19.3333H163.426V18.1667H169.259V19.3333ZM175.092 18.1667H176.259V27.5H175.092V18.1667ZM175.092 28.6667H176.259V31H175.092V28.6667Z" fill="#00ABFF"/>
<path d="M26.9121 18.1667V18.0667H26.8121V18.1667H26.9121ZM28.0788 18.1667H28.1788V18.0667H28.0788V18.1667ZM28.0788 24H27.9788V24.1H28.0788V24ZM29.2454 24H29.3454V23.9H29.2454V24ZM29.2454 25.1667V25.2667H29.3454V25.1667H29.2454ZM28.0788 25.1667V25.0667H27.9788V25.1667H28.0788ZM28.0788 31V31.1H28.1788V31H28.0788ZM26.9121 31H26.8121V31.1H26.9121V31ZM16.4121 27.5H16.3121V27.6H16.4121V27.5ZM16.4121 20.5V20.4H16.3121V20.5H16.4121ZM17.5788 20.5H17.6788V20.4H17.5788V20.5ZM17.5788 27.5V27.6H17.6788V27.5H17.5788ZM18.7454 28.6667V28.7667H18.8454V28.6667H18.7454ZM17.5788 28.6667H17.4788V28.7667H17.5788V28.6667ZM17.5788 27.5V27.4H17.4788V27.5H17.5788ZM18.7454 27.5H18.8454V27.4H18.7454V27.5ZM18.7454 29.8333H18.6454V29.9333H18.7454V29.8333ZM18.7454 28.6667V28.5667H18.6454V28.6667H18.7454ZM22.2454 28.6667H22.3454V28.5667H22.2454V28.6667ZM22.2454 29.8333V29.9333H22.3454V29.8333H22.2454ZM18.7454 19.3333H18.8454V19.2333H18.7454V19.3333ZM18.7454 20.5V20.6H18.8454V20.5H18.7454ZM17.5788 20.5H17.4788V20.6H17.5788V20.5ZM17.5788 19.3333V19.2333H17.4788V19.3333H17.5788ZM18.7454 18.1667V18.0667H18.6454V18.1667H18.7454ZM22.2454 18.1667H22.3454V18.0667H22.2454V18.1667ZM22.2454 19.3333V19.4333H22.3454V19.3333H22.2454ZM18.7454 19.3333H18.6454V19.4333H18.7454V19.3333ZM23.4121 28.6667V28.7667H23.5121V28.6667H23.4121ZM22.2454 28.6667H22.1454V28.7667H22.2454V28.6667ZM22.2454 27.5V27.4H22.1454V27.5H22.2454ZM23.4121 27.5H23.5121V27.4H23.4121V27.5ZM23.4121 27.5H23.3121V27.6H23.4121V27.5ZM23.4121 20.5V20.4H23.3121V20.5H23.4121ZM24.5788 20.5H24.6788V20.4H24.5788V20.5ZM24.5788 27.5V27.6H24.6788V27.5H24.5788ZM23.4121 19.3333H23.5121V19.2333H23.4121V19.3333ZM23.4121 20.5V20.6H23.5121V20.5H23.4121ZM22.2454 20.5H22.1454V20.6H22.2454V20.5ZM22.2454 19.3333V19.2333H22.1454V19.3333H22.2454ZM26.9121 18.2667H28.0788V18.0667H26.9121V18.2667ZM27.9788 18.1667V24H28.1788V18.1667H27.9788ZM28.0788 24.1H29.2454V23.9H28.0788V24.1ZM29.1454 24V25.1667H29.3454V24H29.1454ZM29.2454 25.0667H28.0788V25.2667H29.2454V25.0667ZM27.9788 25.1667V31H28.1788V25.1667H27.9788ZM28.0788 30.9H26.9121V31.1H28.0788V30.9ZM27.0121 31V18.1667H26.8121V31H27.0121ZM16.5121 27.5V20.5H16.3121V27.5H16.5121ZM16.4121 20.6H17.5788V20.4H16.4121V20.6ZM17.4788 20.5V27.5H17.6788V20.5H17.4788ZM17.5788 27.4H16.4121V27.6H17.5788V27.4ZM18.7454 28.5667H17.5788V28.7667H18.7454V28.5667ZM17.6788 28.6667V27.5H17.4788V28.6667H17.6788ZM17.5788 27.6H18.7454V27.4H17.5788V27.6ZM18.6454 27.5V28.6667H18.8454V27.5H18.6454ZM18.8454 29.8333V28.6667H18.6454V29.8333H18.8454ZM18.7454 28.7667H22.2454V28.5667H18.7454V28.7667ZM22.1454 28.6667V29.8333H22.3454V28.6667H22.1454ZM22.2454 29.7333H18.7454V29.9333H22.2454V29.7333ZM18.6454 19.3333V20.5H18.8454V19.3333H18.6454ZM18.7454 20.4H17.5788V20.6H18.7454V20.4ZM17.6788 20.5V19.3333H17.4788V20.5H17.6788ZM17.5788 19.4333H18.7454V19.2333H17.5788V19.4333ZM18.7454 18.2667H22.2454V18.0667H18.7454V18.2667ZM22.1454 18.1667V19.3333H22.3454V18.1667H22.1454ZM22.2454 19.2333H18.7454V19.4333H22.2454V19.2333ZM18.8454 19.3333V18.1667H18.6454V19.3333H18.8454ZM23.4121 28.5667H22.2454V28.7667H23.4121V28.5667ZM22.3454 28.6667V27.5H22.1454V28.6667H22.3454ZM22.2454 27.6H23.4121V27.4H22.2454V27.6ZM23.3121 27.5V28.6667H23.5121V27.5H23.3121ZM23.5121 27.5V20.5H23.3121V27.5H23.5121ZM23.4121 20.6H24.5788V20.4H23.4121V20.6ZM24.4788 20.5V27.5H24.6788V20.5H24.4788ZM24.5788 27.4H23.4121V27.6H24.5788V27.4ZM23.3121 19.3333V20.5H23.5121V19.3333H23.3121ZM23.4121 20.4H22.2454V20.6H23.4121V20.4ZM22.3454 20.5V19.3333H22.1454V20.5H22.3454ZM22.2454 19.4333H23.4121V19.2333H22.2454V19.4333ZM40.9121 18.1667V18.0667H40.8121V18.1667H40.9121ZM42.0788 18.1667H42.1788V18.0667H42.0788V18.1667ZM42.0788 25.1667V25.2667H42.1788V25.1667H42.0788ZM40.9121 25.1667H40.8121V25.2667H40.9121V25.1667ZM30.4121 25.1667H30.3121V25.2667H30.4121V25.1667ZM30.4121 24V23.9H30.3121V24H30.4121ZM31.5788 24H31.6788V23.9H31.5788V24ZM31.5788 25.1667V25.2667H31.6788V25.1667H31.5788ZM30.4121 19.3333H30.3121V19.4333H30.4121V19.3333ZM30.4121 18.1667V18.0667H30.3121V18.1667H30.4121ZM38.5788 18.1667H38.6788V18.0667H38.5788V18.1667ZM38.5788 19.3333V19.4333H38.6788V19.3333H38.5788ZM35.0788 19.3333V19.2333H34.9788V19.3333H35.0788ZM35.0788 21.6667V21.7667H35.1788V21.6667H35.0788ZM33.9121 21.6667H33.8121V21.7667H33.9121V21.6667ZM33.9121 19.3333H34.0121V19.2333H33.9121V19.3333ZM40.9121 31H40.8121V31.1H40.9121V31ZM40.9121 27.5H41.0121V27.4H40.9121V27.5ZM31.5788 27.5H31.4788V27.6H31.5788V27.5ZM31.5788 26.3333V26.2333H31.4788V26.3333H31.5788ZM42.0788 26.3333H42.1788V26.2333H42.0788V26.3333ZM42.0788 31V31.1H42.1788V31H42.0788ZM32.7454 22.8333H32.8454V22.7333H32.7454V22.8333ZM32.7454 24V24.1H32.8454V24H32.7454ZM31.5788 24H31.4788V24.1H31.5788V24ZM31.5788 22.8333V22.7333H31.4788V22.8333H31.5788ZM32.7454 21.6667V21.5667H32.6454V21.6667H32.7454ZM33.9121 21.6667H34.0121V21.5667H33.9121V21.6667ZM33.9121 22.8333V22.9333H34.0121V22.8333H33.9121ZM32.7454 22.8333H32.6454V22.9333H32.7454V22.8333ZM35.0788 22.8333H34.9788V22.9333H35.0788V22.8333ZM35.0788 21.6667V21.5667H34.9788V21.6667H35.0788ZM36.2454 21.6667H36.3454V21.5667H36.2454V21.6667ZM36.2454 22.8333V22.9333H36.3454V22.8333H36.2454ZM37.4121 25.1667H37.3121V25.2667H37.4121V25.1667ZM37.4121 24V23.9H37.3121V24H37.4121ZM38.5788 24H38.6788V23.9H38.5788V24ZM38.5788 25.1667V25.2667H38.6788V25.1667H38.5788ZM37.4121 22.8333H37.5121V22.7333H37.4121V22.8333ZM37.4121 24V24.1H37.5121V24H37.4121ZM36.2454 24H36.1454V24.1H36.2454V24ZM36.2454 22.8333V22.7333H36.1454V22.8333H36.2454ZM40.9121 18.2667H42.0788V18.0667H40.9121V18.2667ZM41.9788 18.1667V25.1667H42.1788V18.1667H41.9788ZM42.0788 25.0667H40.9121V25.2667H42.0788V25.0667ZM41.0121 25.1667V18.1667H40.8121V25.1667H41.0121ZM30.5121 25.1667V24H30.3121V25.1667H30.5121ZM30.4121 24.1H31.5788V23.9H30.4121V24.1ZM31.4788 24V25.1667H31.6788V24H31.4788ZM31.5788 25.0667H30.4121V25.2667H31.5788V25.0667ZM30.5121 19.3333V18.1667H30.3121V19.3333H30.5121ZM30.4121 18.2667H38.5788V18.0667H30.4121V18.2667ZM38.4788 18.1667V19.3333H38.6788V18.1667H38.4788ZM38.5788 19.2333H35.0788V19.4333H38.5788V19.2333ZM34.9788 19.3333V21.6667H35.1788V19.3333H34.9788ZM35.0788 21.5667H33.9121V21.7667H35.0788V21.5667ZM34.0121 21.6667V19.3333H33.8121V21.6667H34.0121ZM33.9121 19.2333H30.4121V19.4333H33.9121V19.2333ZM41.0121 31V27.5H40.8121V31H41.0121ZM40.9121 27.4H31.5788V27.6H40.9121V27.4ZM31.6788 27.5V26.3333H31.4788V27.5H31.6788ZM31.5788 26.4333H42.0788V26.2333H31.5788V26.4333ZM41.9788 26.3333V31H42.1788V26.3333H41.9788ZM42.0788 30.9H40.9121V31.1H42.0788V30.9ZM32.6454 22.8333V24H32.8454V22.8333H32.6454ZM32.7454 23.9H31.5788V24.1H32.7454V23.9ZM31.6788 24V22.8333H31.4788V24H31.6788ZM31.5788 22.9333H32.7454V22.7333H31.5788V22.9333ZM32.7454 21.7667H33.9121V21.5667H32.7454V21.7667ZM33.8121 21.6667V22.8333H34.0121V21.6667H33.8121ZM33.9121 22.7333H32.7454V22.9333H33.9121V22.7333ZM32.8454 22.8333V21.6667H32.6454V22.8333H32.8454ZM35.1788 22.8333V21.6667H34.9788V22.8333H35.1788ZM35.0788 21.7667H36.2454V21.5667H35.0788V21.7667ZM36.1454 21.6667V22.8333H36.3454V21.6667H36.1454ZM36.2454 22.7333H35.0788V22.9333H36.2454V22.7333ZM37.5121 25.1667V24H37.3121V25.1667H37.5121ZM37.4121 24.1H38.5788V23.9H37.4121V24.1ZM38.4788 24V25.1667H38.6788V24H38.4788ZM38.5788 25.0667H37.4121V25.2667H38.5788V25.0667ZM37.3121 22.8333V24H37.5121V22.8333H37.3121ZM37.4121 23.9H36.2454V24.1H37.4121V23.9ZM36.3454 24V22.8333H36.1454V24H36.3454ZM36.2454 22.9333H37.4121V22.7333H36.2454V22.9333ZM50.25 29.8333H50.15V29.9333H50.25V29.8333ZM50.25 28.6667V28.5667H50.15V28.6667H50.25ZM56.0833 28.6667V28.7667H56.1833V28.6667H56.0833ZM56.0833 25.1667V25.0667H55.9833V25.1667H56.0833ZM57.25 25.1667H57.35V25.0667H57.25V25.1667ZM57.25 28.6667H57.15V28.7667H57.25V28.6667ZM63.0833 28.6667H63.1833V28.5667H63.0833V28.6667ZM63.0833 29.8333V29.9333H63.1833V29.8333H63.0833ZM60.75 25.1667V25.2667H60.85V25.1667H60.75ZM59.5833 25.1667H59.4833V25.2667H59.5833V25.1667ZM59.5833 24V23.9H59.4833V24H59.5833ZM60.75 24H60.85V23.9H60.75V24ZM60.75 26.3333H60.65V26.4333H60.75V26.3333ZM60.75 25.1667V25.0667H60.65V25.1667H60.75ZM61.9167 25.1667H62.0167V25.0667H61.9167V25.1667ZM61.9167 26.3333V26.4333H62.0167V26.3333H61.9167ZM52.5833 25.1667H52.6833V25.0667H52.5833V25.1667ZM52.5833 26.3333V26.4333H52.6833V26.3333H52.5833ZM51.4167 26.3333H51.3167V26.4333H51.4167V26.3333ZM51.4167 25.1667V25.0667H51.3167V25.1667H51.4167ZM52.5833 24V23.9H52.4833V24H52.5833ZM53.75 24H53.85V23.9H53.75V24ZM53.75 25.1667V25.2667H53.85V25.1667H53.75ZM52.5833 25.1667H52.4833V25.2667H52.5833V25.1667ZM54.9167 22.8333H55.0167V22.7333H54.9167V22.8333ZM54.9167 24V24.1H55.0167V24H54.9167ZM53.75 24H53.65V24.1H53.75V24ZM53.75 22.8333V22.7333H53.65V22.8333H53.75ZM54.9167 21.6667V21.5667H54.8167V21.6667H54.9167ZM56.0833 21.6667H56.1833V21.5667H56.0833V21.6667ZM56.0833 22.8333V22.9333H56.1833V22.8333H56.0833ZM54.9167 22.8333H54.8167V22.9333H54.9167V22.8333ZM57.25 22.8333H57.15V22.9333H57.25V22.8333ZM57.25 21.6667V21.5667H57.15V21.6667H57.25ZM58.4167 21.6667H58.5167V21.5667H58.4167V21.6667ZM58.4167 22.8333V22.9333H58.5167V22.8333H58.4167ZM57.25 21.6667V21.7667H57.35V21.6667H57.25ZM56.0833 21.6667H55.9833V21.7667H56.0833V21.6667ZM56.0833 18.1667V18.0667H55.9833V18.1667H56.0833ZM57.25 18.1667H57.35V18.0667H57.25V18.1667ZM59.5833 22.8333H59.6833V22.7333H59.5833V22.8333ZM59.5833 24V24.1H59.6833V24H59.5833ZM58.4167 24H58.3167V24.1H58.4167V24ZM58.4167 22.8333V22.7333H58.3167V22.8333H58.4167ZM50.35 29.8333V28.6667H50.15V29.8333H50.35ZM50.25 28.7667H56.0833V28.5667H50.25V28.7667ZM56.1833 28.6667V25.1667H55.9833V28.6667H56.1833ZM56.0833 25.2667H57.25V25.0667H56.0833V25.2667ZM57.15 25.1667V28.6667H57.35V25.1667H57.15ZM57.25 28.7667H63.0833V28.5667H57.25V28.7667ZM62.9833 28.6667V29.8333H63.1833V28.6667H62.9833ZM63.0833 29.7333H50.25V29.9333H63.0833V29.7333ZM60.75 25.0667H59.5833V25.2667H60.75V25.0667ZM59.6833 25.1667V24H59.4833V25.1667H59.6833ZM59.5833 24.1H60.75V23.9H59.5833V24.1ZM60.65 24V25.1667H60.85V24H60.65ZM60.85 26.3333V25.1667H60.65V26.3333H60.85ZM60.75 25.2667H61.9167V25.0667H60.75V25.2667ZM61.8167 25.1667V26.3333H62.0167V25.1667H61.8167ZM61.9167 26.2333H60.75V26.4333H61.9167V26.2333ZM52.4833 25.1667V26.3333H52.6833V25.1667H52.4833ZM52.5833 26.2333H51.4167V26.4333H52.5833V26.2333ZM51.5167 26.3333V25.1667H51.3167V26.3333H51.5167ZM51.4167 25.2667H52.5833V25.0667H51.4167V25.2667ZM52.5833 24.1H53.75V23.9H52.5833V24.1ZM53.65 24V25.1667H53.85V24H53.65ZM53.75 25.0667H52.5833V25.2667H53.75V25.0667ZM52.6833 25.1667V24H52.4833V25.1667H52.6833ZM54.8167 22.8333V24H55.0167V22.8333H54.8167ZM54.9167 23.9H53.75V24.1H54.9167V23.9ZM53.85 24V22.8333H53.65V24H53.85ZM53.75 22.9333H54.9167V22.7333H53.75V22.9333ZM54.9167 21.7667H56.0833V21.5667H54.9167V21.7667ZM55.9833 21.6667V22.8333H56.1833V21.6667H55.9833ZM56.0833 22.7333H54.9167V22.9333H56.0833V22.7333ZM55.0167 22.8333V21.6667H54.8167V22.8333H55.0167ZM57.35 22.8333V21.6667H57.15V22.8333H57.35ZM57.25 21.7667H58.4167V21.5667H57.25V21.7667ZM58.3167 21.6667V22.8333H58.5167V21.6667H58.3167ZM58.4167 22.7333H57.25V22.9333H58.4167V22.7333ZM57.25 21.5667H56.0833V21.7667H57.25V21.5667ZM56.1833 21.6667V18.1667H55.9833V21.6667H56.1833ZM56.0833 18.2667H57.25V18.0667H56.0833V18.2667ZM57.15 18.1667V21.6667H57.35V18.1667H57.15ZM59.4833 22.8333V24H59.6833V22.8333H59.4833ZM59.5833 23.9H58.4167V24.1H59.5833V23.9ZM58.5167 24V22.8333H58.3167V24H58.5167ZM58.4167 22.9333H59.5833V22.7333H58.4167V22.9333ZM74.75 18.1667V18.0667H74.65V18.1667H74.75ZM75.9167 18.1667H76.0167V18.0667H75.9167V18.1667ZM75.9167 27.5V27.6H76.0167V27.5H75.9167ZM74.75 27.5H74.65V27.6H74.75V27.5ZM74.75 26.3333H74.85V26.2333H74.75V26.3333ZM72.4167 26.3333H72.3167V26.4333H72.4167V26.3333ZM72.4167 25.1667V25.0667H72.3167V25.1667H72.4167ZM74.75 25.1667V25.2667H74.85V25.1667H74.75ZM64.25 24H64.15V24.1H64.25V24ZM64.25 22.8333V22.7333H64.15V22.8333H64.25ZM73.5833 22.8333H73.6833V22.7333H73.5833V22.8333ZM73.5833 24V24.1H73.6833V24H73.5833ZM68.9167 24V23.9H68.8167V24H68.9167ZM68.9167 27.5V27.6H69.0167V27.5H68.9167ZM67.75 27.5H67.65V27.6H67.75V27.5ZM67.75 24H67.85V23.9H67.75V24ZM66.5833 29.8333H66.4833V29.9333H66.5833V29.8333ZM75.9167 29.8333H76.0167V29.7333H75.9167V29.8333ZM75.9167 31V31.1H76.0167V31H75.9167ZM65.4167 31H65.3167V31.1H65.4167V31ZM65.4167 26.3333V26.2333H65.3167V26.3333H65.4167ZM66.5833 26.3333H66.6833V26.2333H66.5833V26.3333ZM66.5833 19.3333H66.6833V19.2333H66.5833V19.3333ZM66.5833 20.5V20.6H66.6833V20.5H66.5833ZM65.4167 20.5H65.3167V20.6H65.4167V20.5ZM65.4167 19.3333V19.2333H65.3167V19.3333H65.4167ZM66.5833 20.5V20.4H66.4833V20.5H66.5833ZM71.25 20.5H71.35V20.4H71.25V20.5ZM71.25 21.6667V21.7667H71.35V21.6667H71.25ZM66.5833 21.6667H66.4833V21.7667H66.5833V21.6667ZM66.5833 18.1667V18.0667H66.4833V18.1667H66.5833ZM71.25 18.1667H71.35V18.0667H71.25V18.1667ZM71.25 19.3333V19.4333H71.35V19.3333H71.25ZM66.5833 19.3333H66.4833V19.4333H66.5833V19.3333ZM71.25 19.3333V19.2333H71.15V19.3333H71.25ZM72.4167 19.3333H72.5167V19.2333H72.4167V19.3333ZM72.4167 20.5V20.6H72.5167V20.5H72.4167ZM71.25 20.5H71.15V20.6H71.25V20.5ZM74.75 18.2667H75.9167V18.0667H74.75V18.2667ZM75.8167 18.1667V27.5H76.0167V18.1667H75.8167ZM75.9167 27.4H74.75V27.6H75.9167V27.4ZM74.85 27.5V26.3333H74.65V27.5H74.85ZM74.75 26.2333H72.4167V26.4333H74.75V26.2333ZM72.5167 26.3333V25.1667H72.3167V26.3333H72.5167ZM72.4167 25.2667H74.75V25.0667H72.4167V25.2667ZM74.85 25.1667V18.1667H74.65V25.1667H74.85ZM64.35 24V22.8333H64.15V24H64.35ZM64.25 22.9333H73.5833V22.7333H64.25V22.9333ZM73.4833 22.8333V24H73.6833V22.8333H73.4833ZM73.5833 23.9H68.9167V24.1H73.5833V23.9ZM68.8167 24V27.5H69.0167V24H68.8167ZM68.9167 27.4H67.75V27.6H68.9167V27.4ZM67.85 27.5V24H67.65V27.5H67.85ZM67.75 23.9H64.25V24.1H67.75V23.9ZM66.5833 29.9333H75.9167V29.7333H66.5833V29.9333ZM75.8167 29.8333V31H76.0167V29.8333H75.8167ZM75.9167 30.9H65.4167V31.1H75.9167V30.9ZM65.5167 31V26.3333H65.3167V31H65.5167ZM65.4167 26.4333H66.5833V26.2333H65.4167V26.4333ZM66.4833 26.3333V29.8333H66.6833V26.3333H66.4833ZM66.4833 19.3333V20.5H66.6833V19.3333H66.4833ZM66.5833 20.4H65.4167V20.6H66.5833V20.4ZM65.5167 20.5V19.3333H65.3167V20.5H65.5167ZM65.4167 19.4333H66.5833V19.2333H65.4167V19.4333ZM66.5833 20.6H71.25V20.4H66.5833V20.6ZM71.15 20.5V21.6667H71.35V20.5H71.15ZM71.25 21.5667H66.5833V21.7667H71.25V21.5667ZM66.6833 21.6667V20.5H66.4833V21.6667H66.6833ZM66.5833 18.2667H71.25V18.0667H66.5833V18.2667ZM71.15 18.1667V19.3333H71.35V18.1667H71.15ZM71.25 19.2333H66.5833V19.4333H71.25V19.2333ZM66.6833 19.3333V18.1667H66.4833V19.3333H66.6833ZM71.25 19.4333H72.4167V19.2333H71.25V19.4333ZM72.3167 19.3333V20.5H72.5167V19.3333H72.3167ZM72.4167 20.4H71.25V20.6H72.4167V20.4ZM71.35 20.5V19.3333H71.15V20.5H71.35ZM94.5879 18.1667V18.0667H94.4879V18.1667H94.5879ZM95.7546 18.1667H95.8546V18.0667H95.7546V18.1667ZM95.7546 25.1667V25.2667H95.8546V25.1667H95.7546ZM94.5879 25.1667H94.4879V25.2667H94.5879V25.1667ZM84.0879 25.1667H83.9879V25.2667H84.0879V25.1667ZM84.0879 20.5V20.4H83.9879V20.5H84.0879ZM89.9212 20.5V20.6H90.0212V20.5H89.9212ZM89.9212 19.3333H90.0212V19.2333H89.9212V19.3333ZM84.0879 19.3333H83.9879V19.4333H84.0879V19.3333ZM84.0879 18.1667V18.0667H83.9879V18.1667H84.0879ZM91.0879 18.1667H91.1879V18.0667H91.0879V18.1667ZM91.0879 21.6667V21.7667H91.1879V21.6667H91.0879ZM85.2546 21.6667V21.5667H85.1546V21.6667H85.2546ZM85.2546 24H85.1546V24.1H85.2546V24ZM92.2546 24H92.3546V23.9H92.2546V24ZM92.2546 25.1667V25.2667H92.3546V25.1667H92.2546ZM94.5879 29.8333H94.6879V29.7333H94.5879V29.8333ZM94.5879 31V31.1H94.6879V31H94.5879ZM86.4212 31H86.3212V31.1H86.4212V31ZM86.4212 29.8333V29.7333H86.3212V29.8333H86.4212ZM94.5879 26.3333H94.6879V26.2333H94.5879V26.3333ZM94.5879 27.5V27.6H94.6879V27.5H94.5879ZM86.4212 27.5H86.3212V27.6H86.4212V27.5ZM86.4212 26.3333V26.2333H86.3212V26.3333H86.4212ZM94.5879 27.5V27.4H94.4879V27.5H94.5879ZM95.7546 27.5H95.8546V27.4H95.7546V27.5ZM95.7546 29.8333V29.9333H95.8546V29.8333H95.7546ZM94.5879 29.8333H94.4879V29.9333H94.5879V29.8333ZM86.4212 29.8333V29.9333H86.5212V29.8333H86.4212ZM85.2546 29.8333H85.1546V29.9333H85.2546V29.8333ZM85.2546 27.5V27.4H85.1546V27.5H85.2546ZM86.4212 27.5H86.5212V27.4H86.4212V27.5ZM94.5879 18.2667H95.7546V18.0667H94.5879V18.2667ZM95.6546 18.1667V25.1667H95.8546V18.1667H95.6546ZM95.7546 25.0667H94.5879V25.2667H95.7546V25.0667ZM94.6879 25.1667V18.1667H94.4879V25.1667H94.6879ZM84.1879 25.1667V20.5H83.9879V25.1667H84.1879ZM84.0879 20.6H89.9212V20.4H84.0879V20.6ZM90.0212 20.5V19.3333H89.8212V20.5H90.0212ZM89.9212 19.2333H84.0879V19.4333H89.9212V19.2333ZM84.1879 19.3333V18.1667H83.9879V19.3333H84.1879ZM84.0879 18.2667H91.0879V18.0667H84.0879V18.2667ZM90.9879 18.1667V21.6667H91.1879V18.1667H90.9879ZM91.0879 21.5667H85.2546V21.7667H91.0879V21.5667ZM85.1546 21.6667V24H85.3546V21.6667H85.1546ZM85.2546 24.1H92.2546V23.9H85.2546V24.1ZM92.1546 24V25.1667H92.3546V24H92.1546ZM92.2546 25.0667H84.0879V25.2667H92.2546V25.0667ZM94.4879 29.8333V31H94.6879V29.8333H94.4879ZM94.5879 30.9H86.4212V31.1H94.5879V30.9ZM86.5212 31V29.8333H86.3212V31H86.5212ZM86.4212 29.9333H94.5879V29.7333H86.4212V29.9333ZM94.4879 26.3333V27.5H94.6879V26.3333H94.4879ZM94.5879 27.4H86.4212V27.6H94.5879V27.4ZM86.5212 27.5V26.3333H86.3212V27.5H86.5212ZM86.4212 26.4333H94.5879V26.2333H86.4212V26.4333ZM94.5879 27.6H95.7546V27.4H94.5879V27.6ZM95.6546 27.5V29.8333H95.8546V27.5H95.6546ZM95.7546 29.7333H94.5879V29.9333H95.7546V29.7333ZM94.6879 29.8333V27.5H94.4879V29.8333H94.6879ZM86.4212 29.7333H85.2546V29.9333H86.4212V29.7333ZM85.3546 29.8333V27.5H85.1546V29.8333H85.3546ZM85.2546 27.6H86.4212V27.4H85.2546V27.6ZM86.3212 27.5V29.8333H86.5212V27.5H86.3212ZM98.0879 29.8333H97.9879V29.9333H98.0879V29.8333ZM98.0879 28.6667V28.5667H97.9879V28.6667H98.0879ZM110.921 28.6667H111.021V28.5667H110.921V28.6667ZM110.921 29.8333V29.9333H111.021V29.8333H110.921ZM99.2546 18.1667V18.0667H99.1546V18.1667H99.2546ZM109.755 18.1667H109.855V18.0667H109.755V18.1667ZM109.755 26.3333V26.4333H109.855V26.3333H109.755ZM108.588 26.3333H108.488V26.4333H108.588V26.3333ZM108.588 24H108.688V23.9H108.588V24ZM99.2546 24H99.1546V24.1H99.2546V24ZM99.2546 22.8333V22.7333H99.1546V22.8333H99.2546ZM108.588 22.8333V22.9333H108.688V22.8333H108.588ZM108.588 19.3333H108.688V19.2333H108.588V19.3333ZM99.2546 19.3333H99.1546V19.4333H99.2546V19.3333ZM107.421 27.5H107.321V27.6H107.421V27.5ZM107.421 26.3333V26.2333H107.321V26.3333H107.421ZM108.588 26.3333H108.688V26.2333H108.588V26.3333ZM108.588 27.5V27.6H108.688V27.5H108.588ZM98.1879 29.8333V28.6667H97.9879V29.8333H98.1879ZM98.0879 28.7667H110.921V28.5667H98.0879V28.7667ZM110.821 28.6667V29.8333H111.021V28.6667H110.821ZM110.921 29.7333H98.0879V29.9333H110.921V29.7333ZM99.2546 18.2667H109.755V18.0667H99.2546V18.2667ZM109.655 18.1667V26.3333H109.855V18.1667H109.655ZM109.755 26.2333H108.588V26.4333H109.755V26.2333ZM108.688 26.3333V24H108.488V26.3333H108.688ZM108.588 23.9H99.2546V24.1H108.588V23.9ZM99.3546 24V22.8333H99.1546V24H99.3546ZM99.2546 22.9333H108.588V22.7333H99.2546V22.9333ZM108.688 22.8333V19.3333H108.488V22.8333H108.688ZM108.588 19.2333H99.2546V19.4333H108.588V19.2333ZM99.3546 19.3333V18.1667H99.1546V19.3333H99.3546ZM107.521 27.5V26.3333H107.321V27.5H107.521ZM107.421 26.4333H108.588V26.2333H107.421V26.4333ZM108.488 26.3333V27.5H108.688V26.3333H108.488ZM108.588 27.4H107.421V27.6H108.588V27.4ZM122.588 18.1667V18.0667H122.488V18.1667H122.588ZM123.755 18.1667H123.855V18.0667H123.755V18.1667ZM123.755 24H123.655V24.1H123.755V24ZM124.921 24H125.021V23.9H124.921V24ZM124.921 25.1667V25.2667H125.021V25.1667H124.921ZM123.755 25.1667V25.0667H123.655V25.1667H123.755ZM123.755 31V31.1H123.855V31H123.755ZM122.588 31H122.488V31.1H122.588V31ZM112.088 29.8333H111.988V29.9333H112.088V29.8333ZM112.088 28.6667V28.5667H111.988V28.6667H112.088ZM114.421 28.6667H114.521V28.5667H114.421V28.6667ZM114.421 29.8333V29.9333H114.521V29.8333H114.421ZM112.088 19.3333H111.988V19.4333H112.088V19.3333ZM112.088 18.1667V18.0667H111.988V18.1667H112.088ZM119.088 18.1667H119.188V18.0667H119.088V18.1667ZM119.088 24V24.1H119.188V24H119.088ZM117.921 24H117.821V24.1H117.921V24ZM117.921 19.3333H118.021V19.2333H117.921V19.3333ZM114.421 28.6667H114.321V28.7667H114.421V28.6667ZM114.421 27.5V27.4H114.321V27.5H114.421ZM115.588 27.5H115.688V27.4H115.588V27.5ZM115.588 28.6667V28.7667H115.688V28.6667H115.588ZM116.755 26.3333H116.855V26.2333H116.755V26.3333ZM116.755 27.5V27.6H116.855V27.5H116.755ZM115.588 27.5H115.488V27.6H115.588V27.5ZM115.588 26.3333V26.2333H115.488V26.3333H115.588ZM116.755 24V23.9H116.655V24H116.755ZM117.921 24H118.021V23.9H117.921V24ZM117.921 26.3333V26.4333H118.021V26.3333H117.921ZM116.755 26.3333H116.655V26.4333H116.755V26.3333ZM122.588 18.2667H123.755V18.0667H122.588V18.2667ZM123.655 18.1667V24H123.855V18.1667H123.655ZM123.755 24.1H124.921V23.9H123.755V24.1ZM124.821 24V25.1667H125.021V24H124.821ZM124.921 25.0667H123.755V25.2667H124.921V25.0667ZM123.655 25.1667V31H123.855V25.1667H123.655ZM123.755 30.9H122.588V31.1H123.755V30.9ZM122.688 31V18.1667H122.488V31H122.688ZM112.188 29.8333V28.6667H111.988V29.8333H112.188ZM112.088 28.7667H114.421V28.5667H112.088V28.7667ZM114.321 28.6667V29.8333H114.521V28.6667H114.321ZM114.421 29.7333H112.088V29.9333H114.421V29.7333ZM112.188 19.3333V18.1667H111.988V19.3333H112.188ZM112.088 18.2667H119.088V18.0667H112.088V18.2667ZM118.988 18.1667V24H119.188V18.1667H118.988ZM119.088 23.9H117.921V24.1H119.088V23.9ZM118.021 24V19.3333H117.821V24H118.021ZM117.921 19.2333H112.088V19.4333H117.921V19.2333ZM114.521 28.6667V27.5H114.321V28.6667H114.521ZM114.421 27.6H115.588V27.4H114.421V27.6ZM115.488 27.5V28.6667H115.688V27.5H115.488ZM115.588 28.5667H114.421V28.7667H115.588V28.5667ZM116.655 26.3333V27.5H116.855V26.3333H116.655ZM116.755 27.4H115.588V27.6H116.755V27.4ZM115.688 27.5V26.3333H115.488V27.5H115.688ZM115.588 26.4333H116.755V26.2333H115.588V26.4333ZM116.755 24.1H117.921V23.9H116.755V24.1ZM117.821 24V26.3333H118.021V24H117.821ZM117.921 26.2333H116.755V26.4333H117.921V26.2333ZM116.855 26.3333V24H116.655V26.3333H116.855ZM142.426 18.1667V18.0667H142.326V18.1667H142.426ZM143.592 18.1667H143.692V18.0667H143.592V18.1667ZM143.592 26.3333V26.4333H143.692V26.3333H143.592ZM142.426 26.3333H142.326V26.4333H142.426V26.3333ZM142.426 21.6667H142.526V21.5667H142.426V21.6667ZM140.092 21.6667V21.5667H139.992V21.6667H140.092ZM140.092 22.8333V22.9333H140.192V22.8333H140.092ZM138.926 22.8333H138.826V22.9333H138.926V22.8333ZM138.926 20.5V20.4H138.826V20.5H138.926ZM142.426 20.5V20.6H142.526V20.5H142.426ZM131.926 22.8333H131.826V22.9333H131.926V22.8333ZM131.926 20.5V20.4H131.826V20.5H131.926ZM133.092 20.5H133.192V20.4H133.092V20.5ZM133.092 22.8333V22.9333H133.192V22.8333H133.092ZM142.426 28.6667H142.526V28.5667H142.426V28.6667ZM142.426 29.8333V29.9333H142.526V29.8333H142.426ZM141.259 29.8333H141.159V29.9333H141.259V29.8333ZM141.259 28.6667V28.5667H141.159V28.6667H141.259ZM142.426 29.8333V29.7333H142.326V29.8333H142.426ZM143.592 29.8333H143.692V29.7333H143.592V29.8333ZM143.592 31V31.1H143.692V31H143.592ZM142.426 31H142.326V31.1H142.426V31ZM136.592 29.8333V29.9333H136.692V29.8333H136.592ZM136.592 28.6667H136.692V28.5667H136.592V28.6667ZM134.259 28.6667V28.5667H134.159V28.6667H134.259ZM134.259 29.8333H134.159V29.9333H134.259V29.8333ZM136.592 27.5V27.6H136.692V27.5H136.592ZM136.592 26.3333V26.2333H136.492V26.3333H136.592ZM137.759 26.3333H137.859V26.2333H137.759V26.3333ZM137.759 29.8333H137.659V29.9333H137.759V29.8333ZM138.926 29.8333H139.026V29.7333H138.926V29.8333ZM138.926 31V31.1H139.026V31H138.926ZM133.092 31H132.992V31.1H133.092V31ZM133.092 26.3333V26.2333H132.992V26.3333H133.092ZM134.259 26.3333H134.359V26.2333H134.259V26.3333ZM134.259 27.5H134.159V27.6H134.259V27.5ZM141.259 28.6667V28.7667H141.359V28.6667H141.259ZM140.092 28.6667H139.992V28.7667H140.092V28.6667ZM140.092 26.3333V26.2333H139.992V26.3333H140.092ZM141.259 26.3333H141.359V26.2333H141.259V26.3333ZM140.092 28.6667H140.192V28.5667H140.092V28.6667ZM140.092 29.8333V29.9333H140.192V29.8333H140.092ZM138.926 29.8333H138.826V29.9333H138.926V29.8333ZM138.926 28.6667V28.5667H138.826V28.6667H138.926ZM134.259 25.1667H134.159V25.2667H134.259V25.1667ZM134.259 24V23.9H134.159V24H134.259ZM137.759 24H137.859V23.9H137.759V24ZM137.759 25.1667V25.2667H137.859V25.1667H137.759ZM134.259 22.8333H134.359V22.7333H134.259V22.8333ZM134.259 24V24.1H134.359V24H134.259ZM133.092 24H132.992V24.1H133.092V24ZM133.092 22.8333V22.7333H132.992V22.8333H133.092ZM134.259 19.3333H134.359V19.2333H134.259V19.3333ZM134.259 20.5V20.6H134.359V20.5H134.259ZM133.092 20.5H132.992V20.6H133.092V20.5ZM133.092 19.3333V19.2333H132.992V19.3333H133.092ZM134.259 18.1667V18.0667H134.159V18.1667H134.259ZM137.759 18.1667H137.859V18.0667H137.759V18.1667ZM137.759 19.3333V19.4333H137.859V19.3333H137.759ZM134.259 19.3333H134.159V19.4333H134.259V19.3333ZM138.926 22.8333H139.026V22.7333H138.926V22.8333ZM138.926 24V24.1H139.026V24H138.926ZM137.759 24H137.659V24.1H137.759V24ZM137.759 22.8333V22.7333H137.659V22.8333H137.759ZM138.926 19.3333H139.026V19.2333H138.926V19.3333ZM138.926 20.5V20.6H139.026V20.5H138.926ZM137.759 20.5H137.659V20.6H137.759V20.5ZM137.759 19.3333V19.2333H137.659V19.3333H137.759ZM142.426 18.2667H143.592V18.0667H142.426V18.2667ZM143.492 18.1667V26.3333H143.692V18.1667H143.492ZM143.592 26.2333H142.426V26.4333H143.592V26.2333ZM142.526 26.3333V21.6667H142.326V26.3333H142.526ZM142.426 21.5667H140.092V21.7667H142.426V21.5667ZM139.992 21.6667V22.8333H140.192V21.6667H139.992ZM140.092 22.7333H138.926V22.9333H140.092V22.7333ZM139.026 22.8333V20.5H138.826V22.8333H139.026ZM138.926 20.6H142.426V20.4H138.926V20.6ZM142.526 20.5V18.1667H142.326V20.5H142.526ZM132.026 22.8333V20.5H131.826V22.8333H132.026ZM131.926 20.6H133.092V20.4H131.926V20.6ZM132.992 20.5V22.8333H133.192V20.5H132.992ZM133.092 22.7333H131.926V22.9333H133.092V22.7333ZM142.326 28.6667V29.8333H142.526V28.6667H142.326ZM142.426 29.7333H141.259V29.9333H142.426V29.7333ZM141.359 29.8333V28.6667H141.159V29.8333H141.359ZM141.259 28.7667H142.426V28.5667H141.259V28.7667ZM142.426 29.9333H143.592V29.7333H142.426V29.9333ZM143.492 29.8333V31H143.692V29.8333H143.492ZM143.592 30.9H142.426V31.1H143.592V30.9ZM142.526 31V29.8333H142.326V31H142.526ZM136.692 29.8333V28.6667H136.492V29.8333H136.692ZM136.592 28.5667H134.259V28.7667H136.592V28.5667ZM134.159 28.6667V29.8333H134.359V28.6667H134.159ZM134.259 29.9333H136.592V29.7333H134.259V29.9333ZM136.692 27.5V26.3333H136.492V27.5H136.692ZM136.592 26.4333H137.759V26.2333H136.592V26.4333ZM137.659 26.3333V29.8333H137.859V26.3333H137.659ZM137.759 29.9333H138.926V29.7333H137.759V29.9333ZM138.826 29.8333V31H139.026V29.8333H138.826ZM138.926 30.9H133.092V31.1H138.926V30.9ZM133.192 31V26.3333H132.992V31H133.192ZM133.092 26.4333H134.259V26.2333H133.092V26.4333ZM134.159 26.3333V27.5H134.359V26.3333H134.159ZM134.259 27.6H136.592V27.4H134.259V27.6ZM141.259 28.5667H140.092V28.7667H141.259V28.5667ZM140.192 28.6667V26.3333H139.992V28.6667H140.192ZM140.092 26.4333H141.259V26.2333H140.092V26.4333ZM141.159 26.3333V28.6667H141.359V26.3333H141.159ZM139.992 28.6667V29.8333H140.192V28.6667H139.992ZM140.092 29.7333H138.926V29.9333H140.092V29.7333ZM139.026 29.8333V28.6667H138.826V29.8333H139.026ZM138.926 28.7667H140.092V28.5667H138.926V28.7667ZM134.359 25.1667V24H134.159V25.1667H134.359ZM134.259 24.1H137.759V23.9H134.259V24.1ZM137.659 24V25.1667H137.859V24H137.659ZM137.759 25.0667H134.259V25.2667H137.759V25.0667ZM134.159 22.8333V24H134.359V22.8333H134.159ZM134.259 23.9H133.092V24.1H134.259V23.9ZM133.192 24V22.8333H132.992V24H133.192ZM133.092 22.9333H134.259V22.7333H133.092V22.9333ZM134.159 19.3333V20.5H134.359V19.3333H134.159ZM134.259 20.4H133.092V20.6H134.259V20.4ZM133.192 20.5V19.3333H132.992V20.5H133.192ZM133.092 19.4333H134.259V19.2333H133.092V19.4333ZM134.259 18.2667H137.759V18.0667H134.259V18.2667ZM137.659 18.1667V19.3333H137.859V18.1667H137.659ZM137.759 19.2333H134.259V19.4333H137.759V19.2333ZM134.359 19.3333V18.1667H134.159V19.3333H134.359ZM138.826 22.8333V24H139.026V22.8333H138.826ZM138.926 23.9H137.759V24.1H138.926V23.9ZM137.859 24V22.8333H137.659V24H137.859ZM137.759 22.9333H138.926V22.7333H137.759V22.9333ZM138.826 19.3333V20.5H139.026V19.3333H138.826ZM138.926 20.4H137.759V20.6H138.926V20.4ZM137.859 20.5V19.3333H137.659V20.5H137.859ZM137.759 19.4333H138.926V19.2333H137.759V19.4333ZM156.426 18.1667V18.0667H156.326V18.1667H156.426ZM157.592 18.1667H157.692V18.0667H157.592V18.1667ZM157.592 31V31.1H157.692V31H157.592ZM156.426 31H156.326V31.1H156.426V31ZM156.426 24H156.526V23.9H156.426V24ZM154.092 24V23.9H153.992V24H154.092ZM154.092 27.5V27.6H154.192V27.5H154.092ZM152.926 27.5H152.826V27.6H152.926V27.5ZM152.926 20.5V20.4H152.826V20.5H152.926ZM154.092 20.5H154.192V20.4H154.092V20.5ZM154.092 22.8333H153.992V22.9333H154.092V22.8333ZM156.426 22.8333V22.9333H156.526V22.8333H156.426ZM145.926 27.5H145.826V27.6H145.926V27.5ZM145.926 20.5V20.4H145.826V20.5H145.926ZM147.092 20.5H147.192V20.4H147.092V20.5ZM147.092 27.5V27.6H147.192V27.5H147.092ZM148.259 28.6667V28.7667H148.359V28.6667H148.259ZM147.092 28.6667H146.992V28.7667H147.092V28.6667ZM147.092 27.5V27.4H146.992V27.5H147.092ZM148.259 27.5H148.359V27.4H148.259V27.5ZM148.259 29.8333H148.159V29.9333H148.259V29.8333ZM148.259 28.6667V28.5667H148.159V28.6667H148.259ZM151.759 28.6667H151.859V28.5667H151.759V28.6667ZM151.759 29.8333V29.9333H151.859V29.8333H151.759ZM148.259 19.3333H148.359V19.2333H148.259V19.3333ZM148.259 20.5V20.6H148.359V20.5H148.259ZM147.092 20.5H146.992V20.6H147.092V20.5ZM147.092 19.3333V19.2333H146.992V19.3333H147.092ZM148.259 18.1667V18.0667H148.159V18.1667H148.259ZM151.759 18.1667H151.859V18.0667H151.759V18.1667ZM151.759 19.3333V19.4333H151.859V19.3333H151.759ZM148.259 19.3333H148.159V19.4333H148.259V19.3333ZM152.926 28.6667V28.7667H153.026V28.6667H152.926ZM151.759 28.6667H151.659V28.7667H151.759V28.6667ZM151.759 27.5V27.4H151.659V27.5H151.759ZM152.926 27.5H153.026V27.4H152.926V27.5ZM152.926 19.3333H153.026V19.2333H152.926V19.3333ZM152.926 20.5V20.6H153.026V20.5H152.926ZM151.759 20.5H151.659V20.6H151.759V20.5ZM151.759 19.3333V19.2333H151.659V19.3333H151.759ZM156.426 18.2667H157.592V18.0667H156.426V18.2667ZM157.492 18.1667V31H157.692V18.1667H157.492ZM157.592 30.9H156.426V31.1H157.592V30.9ZM156.526 31V24H156.326V31H156.526ZM156.426 23.9H154.092V24.1H156.426V23.9ZM153.992 24V27.5H154.192V24H153.992ZM154.092 27.4H152.926V27.6H154.092V27.4ZM153.026 27.5V20.5H152.826V27.5H153.026ZM152.926 20.6H154.092V20.4H152.926V20.6ZM153.992 20.5V22.8333H154.192V20.5H153.992ZM154.092 22.9333H156.426V22.7333H154.092V22.9333ZM156.526 22.8333V18.1667H156.326V22.8333H156.526ZM146.026 27.5V20.5H145.826V27.5H146.026ZM145.926 20.6H147.092V20.4H145.926V20.6ZM146.992 20.5V27.5H147.192V20.5H146.992ZM147.092 27.4H145.926V27.6H147.092V27.4ZM148.259 28.5667H147.092V28.7667H148.259V28.5667ZM147.192 28.6667V27.5H146.992V28.6667H147.192ZM147.092 27.6H148.259V27.4H147.092V27.6ZM148.159 27.5V28.6667H148.359V27.5H148.159ZM148.359 29.8333V28.6667H148.159V29.8333H148.359ZM148.259 28.7667H151.759V28.5667H148.259V28.7667ZM151.659 28.6667V29.8333H151.859V28.6667H151.659ZM151.759 29.7333H148.259V29.9333H151.759V29.7333ZM148.159 19.3333V20.5H148.359V19.3333H148.159ZM148.259 20.4H147.092V20.6H148.259V20.4ZM147.192 20.5V19.3333H146.992V20.5H147.192ZM147.092 19.4333H148.259V19.2333H147.092V19.4333ZM148.259 18.2667H151.759V18.0667H148.259V18.2667ZM151.659 18.1667V19.3333H151.859V18.1667H151.659ZM151.759 19.2333H148.259V19.4333H151.759V19.2333ZM148.359 19.3333V18.1667H148.159V19.3333H148.359ZM152.926 28.5667H151.759V28.7667H152.926V28.5667ZM151.859 28.6667V27.5H151.659V28.6667H151.859ZM151.759 27.6H152.926V27.4H151.759V27.6ZM152.826 27.5V28.6667H153.026V27.5H152.826ZM152.826 19.3333V20.5H153.026V19.3333H152.826ZM152.926 20.4H151.759V20.6H152.926V20.4ZM151.859 20.5V19.3333H151.659V20.5H151.859ZM151.759 19.4333H152.926V19.2333H151.759V19.4333ZM159.926 29.8333H159.826V29.9333H159.926V29.8333ZM159.926 28.6667V28.5667H159.826V28.6667H159.926ZM163.426 28.6667V28.7667H163.526V28.6667H163.426ZM163.426 25.1667V25.0667H163.326V25.1667H163.426ZM169.259 25.1667H169.359V25.0667H169.259V25.1667ZM169.259 28.6667H169.159V28.7667H169.259V28.6667ZM172.759 28.6667H172.859V28.5667H172.759V28.6667ZM172.759 29.8333V29.9333H172.859V29.8333H172.759ZM170.426 25.1667V25.2667H170.526V25.1667H170.426ZM169.259 25.1667H169.159V25.2667H169.259V25.1667ZM169.259 24V23.9H169.159V24H169.259ZM170.426 24H170.526V23.9H170.426V24ZM170.426 24H170.326V24.1H170.426V24ZM170.426 20.5V20.4H170.326V20.5H170.426ZM171.592 20.5H171.692V20.4H171.592V20.5ZM171.592 24V24.1H171.692V24H171.592ZM170.426 19.3333H170.526V19.2333H170.426V19.3333ZM170.426 20.5V20.6H170.526V20.5H170.426ZM169.259 20.5H169.159V20.6H169.259V20.5ZM169.259 19.3333V19.2333H169.159V19.3333H169.259ZM162.259 25.1667H162.159V25.2667H162.259V25.1667ZM162.259 24V23.9H162.159V24H162.259ZM163.426 24H163.526V23.9H163.426V24ZM163.426 25.1667V25.2667H163.526V25.1667H163.426ZM162.259 24V24.1H162.359V24H162.259ZM161.092 24H160.992V24.1H161.092V24ZM161.092 20.5V20.4H160.992V20.5H161.092ZM162.259 20.5H162.359V20.4H162.259V20.5ZM162.259 20.5H162.159V20.6H162.259V20.5ZM162.259 19.3333V19.2333H162.159V19.3333H162.259ZM163.426 19.3333H163.526V19.2333H163.426V19.3333ZM163.426 20.5V20.6H163.526V20.5H163.426ZM164.592 28.6667H164.492V28.7667H164.592V28.6667ZM168.092 28.6667V28.7667H168.192V28.6667H168.092ZM168.092 26.3333H168.192V26.2333H168.092V26.3333ZM164.592 26.3333V26.2333H164.492V26.3333H164.592ZM169.259 19.3333V19.4333H169.359V19.3333H169.259ZM163.426 19.3333H163.326V19.4333H163.426V19.3333ZM163.426 18.1667V18.0667H163.326V18.1667H163.426ZM169.259 18.1667H169.359V18.0667H169.259V18.1667ZM160.026 29.8333V28.6667H159.826V29.8333H160.026ZM159.926 28.7667H163.426V28.5667H159.926V28.7667ZM163.526 28.6667V25.1667H163.326V28.6667H163.526ZM163.426 25.2667H169.259V25.0667H163.426V25.2667ZM169.159 25.1667V28.6667H169.359V25.1667H169.159ZM169.259 28.7667H172.759V28.5667H169.259V28.7667ZM172.659 28.6667V29.8333H172.859V28.6667H172.659ZM172.759 29.7333H159.926V29.9333H172.759V29.7333ZM170.426 25.0667H169.259V25.2667H170.426V25.0667ZM169.359 25.1667V24H169.159V25.1667H169.359ZM169.259 24.1H170.426V23.9H169.259V24.1ZM170.326 24V25.1667H170.526V24H170.326ZM170.526 24V20.5H170.326V24H170.526ZM170.426 20.6H171.592V20.4H170.426V20.6ZM171.492 20.5V24H171.692V20.5H171.492ZM171.592 23.9H170.426V24.1H171.592V23.9ZM170.326 19.3333V20.5H170.526V19.3333H170.326ZM170.426 20.4H169.259V20.6H170.426V20.4ZM169.359 20.5V19.3333H169.159V20.5H169.359ZM169.259 19.4333H170.426V19.2333H169.259V19.4333ZM162.359 25.1667V24H162.159V25.1667H162.359ZM162.259 24.1H163.426V23.9H162.259V24.1ZM163.326 24V25.1667H163.526V24H163.326ZM163.426 25.0667H162.259V25.2667H163.426V25.0667ZM162.259 23.9H161.092V24.1H162.259V23.9ZM161.192 24V20.5H160.992V24H161.192ZM161.092 20.6H162.259V20.4H161.092V20.6ZM162.159 20.5V24H162.359V20.5H162.159ZM162.359 20.5V19.3333H162.159V20.5H162.359ZM162.259 19.4333H163.426V19.2333H162.259V19.4333ZM163.326 19.3333V20.5H163.526V19.3333H163.326ZM163.426 20.4H162.259V20.6H163.426V20.4ZM164.592 28.7667H168.092V28.5667H164.592V28.7667ZM168.192 28.6667V26.3333H167.992V28.6667H168.192ZM168.092 26.2333H164.592V26.4333H168.092V26.2333ZM164.492 26.3333V28.6667H164.692V26.3333H164.492ZM169.259 19.2333H163.426V19.4333H169.259V19.2333ZM163.526 19.3333V18.1667H163.326V19.3333H163.526ZM163.426 18.2667H169.259V18.0667H163.426V18.2667ZM169.159 18.1667V19.3333H169.359V18.1667H169.159ZM175.092 18.1667V18.0667H174.992V18.1667H175.092ZM176.259 18.1667H176.359V18.0667H176.259V18.1667ZM176.259 27.5V27.6H176.359V27.5H176.259ZM175.092 27.5H174.992V27.6H175.092V27.5ZM175.092 28.6667V28.5667H174.992V28.6667H175.092ZM176.259 28.6667H176.359V28.5667H176.259V28.6667ZM176.259 31V31.1H176.359V31H176.259ZM175.092 31H174.992V31.1H175.092V31ZM175.092 18.2667H176.259V18.0667H175.092V18.2667ZM176.159 18.1667V27.5H176.359V18.1667H176.159ZM176.259 27.4H175.092V27.6H176.259V27.4ZM175.192 27.5V18.1667H174.992V27.5H175.192ZM175.092 28.7667H176.259V28.5667H175.092V28.7667ZM176.159 28.6667V31H176.359V28.6667H176.159ZM176.259 30.9H175.092V31.1H176.259V30.9ZM175.192 31V28.6667H174.992V31H175.192Z" fill="#00ABFF"/>
<rect y="6" width="3" height="38" fill="#00ABFF"/>
<rect x="192" y="6" width="3" height="38" fill="#00ABFF"/>
<rect x="3" y="3" width="10" height="3" fill="#00ABFF"/>
<rect x="3" y="44" width="10" height="3" fill="#00ABFF"/>
<rect x="182" y="3" width="10" height="3" fill="#00ABFF"/>
<rect x="182" y="44" width="10" height="3" fill="#00ABFF"/>
<rect x="88" y="50" width="3" height="3" fill="#00ABFF"/>
<rect x="91" y="53" width="3" height="6" fill="#00ABFF"/>
<rect x="94" y="59" width="3" height="3" fill="#00ABFF"/>
<rect width="3" height="3" transform="matrix(-1 0 0 1 100 59)" fill="#00ABFF"/>
<rect width="3" height="6" transform="matrix(-1 0 0 1 103 53)" fill="#00ABFF"/>
<rect width="3" height="3" transform="matrix(-1 0 0 1 106 50)" fill="#00ABFF"/>
<rect x="103" y="47" width="79" height="3" fill="#00ABFF"/>
<rect x="90" y="47" width="3" height="77" transform="rotate(90 90 47)" fill="#00ABFF"/>
<rect x="182" width="3.00001" height="169" transform="rotate(90 182 0)" fill="#00ABFF"/>
</svg>
