<svg width="163" height="62" viewBox="0 0 163 62" fill="none" xmlns="http://www.w3.org/2000/svg">
<path d="M3 3H160V47H3V3Z" fill="white"/>
<rect width="15" height="6" transform="matrix(1 0 0 -1 96 53)" fill="white"/>
<rect width="12" height="6" transform="matrix(1 0 0 -1 102 59)" fill="white"/>
<rect y="6" width="3" height="38" fill="#00ABFF"/>
<rect x="160" y="6" width="3" height="38" fill="#00ABFF"/>
<rect x="3" y="3" width="8" height="3" fill="#00ABFF"/>
<rect x="3" y="44" width="8" height="3" fill="#00ABFF"/>
<rect x="152" y="44" width="8" height="3" fill="#00ABFF"/>
<rect x="152" y="3" width="8" height="3" fill="#00ABFF"/>
<rect x="105" y="59" width="12" height="3" fill="#00ABFF"/>
<rect x="96" y="50" width="3" height="3" fill="#00ABFF"/>
<rect x="99" y="53" width="3" height="3" fill="#00ABFF"/>
<rect x="102" y="56" width="3" height="3" fill="#00ABFF"/>
<rect width="3" height="3" transform="matrix(-1 0 0 1 117 56)" fill="#00ABFF"/>
<rect width="3" height="3" transform="matrix(-1 0 0 1 114 53)" fill="#00ABFF"/>
<rect width="3" height="3" transform="matrix(-1 0 0 1 111 50)" fill="#00ABFF"/>
<rect x="108" y="47" width="44" height="3" fill="#00ABFF"/>
<rect x="96" y="47" width="3" height="85" transform="rotate(90 96 47)" fill="#00ABFF"/>
<rect x="152" width="3.00001" height="141" transform="rotate(90 152 0)" fill="#00ABFF"/>
<mask id="path-20-outside-1_358_13132" maskUnits="userSpaceOnUse" x="17" y="19" width="103" height="14" fill="black">
<rect fill="white" x="17" y="19" width="103" height="14"/>
<path d="M28.5811 19.1667H29.7477V28.5H28.5811V19.1667ZM18.0811 26.1667V25H20.4144V26.1667H18.0811ZM18.0811 22.6667V21.5H26.2477V22.6667H22.7477V23.8333H21.5811V22.6667H18.0811ZM20.4144 30.8333H29.7477V32H19.2477V27.3333H20.4144V30.8333ZM20.4144 25V23.8333H21.5811V25H20.4144ZM20.4144 20.3333V19.1667H23.9144V20.3333H20.4144ZM22.7477 23.8333H23.9144V25H22.7477V23.8333ZM23.9144 26.1667V25H26.2477V26.1667H23.9144ZM33.2477 19.1667H43.7477V23.8333H42.5811V20.3333H33.2477V19.1667ZM32.0811 26.1667V25H41.4144V23.8333H42.5811V25H44.9144V26.1667H39.0811V32H37.9144V26.1667H32.0811ZM47.2477 19.1667H57.7477V20.3333H48.4144V21.5H57.7477V22.6667H47.2477V19.1667ZM46.0811 25V23.8333H58.9144V25H46.0811ZM47.2477 32V28.5H56.5811V27.3333H47.2477V26.1667H57.7477V29.6667H48.4144V30.8333H57.7477V32H47.2477ZM70.5811 19.1667H71.7477V25H72.9144V26.1667H71.7477V32H70.5811V19.1667ZM60.0811 28.5V21.5H61.2477V28.5H60.0811ZM62.4144 29.6667H61.2477V28.5H62.4144V29.6667ZM62.4144 30.8333V29.6667H65.9144V30.8333H62.4144ZM62.4144 20.3333V21.5H61.2477V20.3333H62.4144ZM62.4144 19.1667H65.9144V20.3333H62.4144V19.1667ZM67.0811 29.6667H65.9144V28.5H67.0811V29.6667ZM67.0811 28.5V21.5H68.2477V28.5H67.0811ZM67.0811 20.3333V21.5H65.9144V20.3333H67.0811ZM79.9189 30.8333V29.6667H85.7523V25H86.9189V29.6667H92.7523V30.8333H79.9189ZM81.0856 19.1667H91.5856V27.3333H90.4189V20.3333H81.0856V19.1667ZM89.2523 28.5V27.3333H90.4189V28.5H89.2523ZM104.419 19.1667H105.586V25H106.752V26.1667H105.586V32H104.419V19.1667ZM93.9189 30.8333V19.1667H102.086V30.8333H93.9189ZM95.0856 29.6667H100.919V20.3333H95.0856V29.6667ZM118.419 19.1667H119.586V32H118.419V29.6667H114.919V28.5H118.419V19.1667ZM107.919 27.3333V26.1667H117.252V27.3333H112.586V32H111.419V27.3333H107.919ZM110.252 23.8333H109.086V20.3333H110.252V23.8333ZM110.252 25V23.8333H114.919V25H110.252ZM110.252 20.3333V19.1667H114.919V20.3333H110.252ZM114.919 23.8333V20.3333H116.086V23.8333H114.919Z"/>
</mask>
<path d="M28.5811 19.1667H29.7477V28.5H28.5811V19.1667ZM18.0811 26.1667V25H20.4144V26.1667H18.0811ZM18.0811 22.6667V21.5H26.2477V22.6667H22.7477V23.8333H21.5811V22.6667H18.0811ZM20.4144 30.8333H29.7477V32H19.2477V27.3333H20.4144V30.8333ZM20.4144 25V23.8333H21.5811V25H20.4144ZM20.4144 20.3333V19.1667H23.9144V20.3333H20.4144ZM22.7477 23.8333H23.9144V25H22.7477V23.8333ZM23.9144 26.1667V25H26.2477V26.1667H23.9144ZM33.2477 19.1667H43.7477V23.8333H42.5811V20.3333H33.2477V19.1667ZM32.0811 26.1667V25H41.4144V23.8333H42.5811V25H44.9144V26.1667H39.0811V32H37.9144V26.1667H32.0811ZM47.2477 19.1667H57.7477V20.3333H48.4144V21.5H57.7477V22.6667H47.2477V19.1667ZM46.0811 25V23.8333H58.9144V25H46.0811ZM47.2477 32V28.5H56.5811V27.3333H47.2477V26.1667H57.7477V29.6667H48.4144V30.8333H57.7477V32H47.2477ZM70.5811 19.1667H71.7477V25H72.9144V26.1667H71.7477V32H70.5811V19.1667ZM60.0811 28.5V21.5H61.2477V28.5H60.0811ZM62.4144 29.6667H61.2477V28.5H62.4144V29.6667ZM62.4144 30.8333V29.6667H65.9144V30.8333H62.4144ZM62.4144 20.3333V21.5H61.2477V20.3333H62.4144ZM62.4144 19.1667H65.9144V20.3333H62.4144V19.1667ZM67.0811 29.6667H65.9144V28.5H67.0811V29.6667ZM67.0811 28.5V21.5H68.2477V28.5H67.0811ZM67.0811 20.3333V21.5H65.9144V20.3333H67.0811ZM79.9189 30.8333V29.6667H85.7523V25H86.9189V29.6667H92.7523V30.8333H79.9189ZM81.0856 19.1667H91.5856V27.3333H90.4189V20.3333H81.0856V19.1667ZM89.2523 28.5V27.3333H90.4189V28.5H89.2523ZM104.419 19.1667H105.586V25H106.752V26.1667H105.586V32H104.419V19.1667ZM93.9189 30.8333V19.1667H102.086V30.8333H93.9189ZM95.0856 29.6667H100.919V20.3333H95.0856V29.6667ZM118.419 19.1667H119.586V32H118.419V29.6667H114.919V28.5H118.419V19.1667ZM107.919 27.3333V26.1667H117.252V27.3333H112.586V32H111.419V27.3333H107.919ZM110.252 23.8333H109.086V20.3333H110.252V23.8333ZM110.252 25V23.8333H114.919V25H110.252ZM110.252 20.3333V19.1667H114.919V20.3333H110.252ZM114.919 23.8333V20.3333H116.086V23.8333H114.919Z" fill="#00ABFF"/>
<path d="M28.5811 19.1667V19.0667H28.4811V19.1667H28.5811ZM29.7477 19.1667H29.8477V19.0667H29.7477V19.1667ZM29.7477 28.5V28.6H29.8477V28.5H29.7477ZM28.5811 28.5H28.4811V28.6H28.5811V28.5ZM18.0811 26.1667H17.9811V26.2667H18.0811V26.1667ZM18.0811 25V24.9H17.9811V25H18.0811ZM20.4144 25H20.5144V24.9H20.4144V25ZM20.4144 26.1667V26.2667H20.5144V26.1667H20.4144ZM18.0811 22.6667H17.9811V22.7667H18.0811V22.6667ZM18.0811 21.5V21.4H17.9811V21.5H18.0811ZM26.2477 21.5H26.3477V21.4H26.2477V21.5ZM26.2477 22.6667V22.7667H26.3477V22.6667H26.2477ZM22.7477 22.6667V22.5667H22.6477V22.6667H22.7477ZM22.7477 23.8333V23.9333H22.8477V23.8333H22.7477ZM21.5811 23.8333H21.4811V23.9333H21.5811V23.8333ZM21.5811 22.6667H21.6811V22.5667H21.5811V22.6667ZM20.4144 30.8333H20.3144V30.9333H20.4144V30.8333ZM29.7477 30.8333H29.8477V30.7333H29.7477V30.8333ZM29.7477 32V32.1H29.8477V32H29.7477ZM19.2477 32H19.1477V32.1H19.2477V32ZM19.2477 27.3333V27.2333H19.1477V27.3333H19.2477ZM20.4144 27.3333H20.5144V27.2333H20.4144V27.3333ZM20.4144 25H20.3144V25.1H20.4144V25ZM20.4144 23.8333V23.7333H20.3144V23.8333H20.4144ZM21.5811 23.8333H21.6811V23.7333H21.5811V23.8333ZM21.5811 25V25.1H21.6811V25H21.5811ZM20.4144 20.3333H20.3144V20.4333H20.4144V20.3333ZM20.4144 19.1667V19.0667H20.3144V19.1667H20.4144ZM23.9144 19.1667H24.0144V19.0667H23.9144V19.1667ZM23.9144 20.3333V20.4333H24.0144V20.3333H23.9144ZM22.7477 23.8333V23.7333H22.6477V23.8333H22.7477ZM23.9144 23.8333H24.0144V23.7333H23.9144V23.8333ZM23.9144 25V25.1H24.0144V25H23.9144ZM22.7477 25H22.6477V25.1H22.7477V25ZM23.9144 26.1667H23.8144V26.2667H23.9144V26.1667ZM23.9144 25V24.9H23.8144V25H23.9144ZM26.2477 25H26.3477V24.9H26.2477V25ZM26.2477 26.1667V26.2667H26.3477V26.1667H26.2477ZM28.5811 19.2667H29.7477V19.0667H28.5811V19.2667ZM29.6477 19.1667V28.5H29.8477V19.1667H29.6477ZM29.7477 28.4H28.5811V28.6H29.7477V28.4ZM28.6811 28.5V19.1667H28.4811V28.5H28.6811ZM18.1811 26.1667V25H17.9811V26.1667H18.1811ZM18.0811 25.1H20.4144V24.9H18.0811V25.1ZM20.3144 25V26.1667H20.5144V25H20.3144ZM20.4144 26.0667H18.0811V26.2667H20.4144V26.0667ZM18.1811 22.6667V21.5H17.9811V22.6667H18.1811ZM18.0811 21.6H26.2477V21.4H18.0811V21.6ZM26.1477 21.5V22.6667H26.3477V21.5H26.1477ZM26.2477 22.5667H22.7477V22.7667H26.2477V22.5667ZM22.6477 22.6667V23.8333H22.8477V22.6667H22.6477ZM22.7477 23.7333H21.5811V23.9333H22.7477V23.7333ZM21.6811 23.8333V22.6667H21.4811V23.8333H21.6811ZM21.5811 22.5667H18.0811V22.7667H21.5811V22.5667ZM20.4144 30.9333H29.7477V30.7333H20.4144V30.9333ZM29.6477 30.8333V32H29.8477V30.8333H29.6477ZM29.7477 31.9H19.2477V32.1H29.7477V31.9ZM19.3477 32V27.3333H19.1477V32H19.3477ZM19.2477 27.4333H20.4144V27.2333H19.2477V27.4333ZM20.3144 27.3333V30.8333H20.5144V27.3333H20.3144ZM20.5144 25V23.8333H20.3144V25H20.5144ZM20.4144 23.9333H21.5811V23.7333H20.4144V23.9333ZM21.4811 23.8333V25H21.6811V23.8333H21.4811ZM21.5811 24.9H20.4144V25.1H21.5811V24.9ZM20.5144 20.3333V19.1667H20.3144V20.3333H20.5144ZM20.4144 19.2667H23.9144V19.0667H20.4144V19.2667ZM23.8144 19.1667V20.3333H24.0144V19.1667H23.8144ZM23.9144 20.2333H20.4144V20.4333H23.9144V20.2333ZM22.7477 23.9333H23.9144V23.7333H22.7477V23.9333ZM23.8144 23.8333V25H24.0144V23.8333H23.8144ZM23.9144 24.9H22.7477V25.1H23.9144V24.9ZM22.8477 25V23.8333H22.6477V25H22.8477ZM24.0144 26.1667V25H23.8144V26.1667H24.0144ZM23.9144 25.1H26.2477V24.9H23.9144V25.1ZM26.1477 25V26.1667H26.3477V25H26.1477ZM26.2477 26.0667H23.9144V26.2667H26.2477V26.0667ZM33.2477 19.1667V19.0667H33.1477V19.1667H33.2477ZM43.7477 19.1667H43.8477V19.0667H43.7477V19.1667ZM43.7477 23.8333V23.9333H43.8477V23.8333H43.7477ZM42.5811 23.8333H42.4811V23.9333H42.5811V23.8333ZM42.5811 20.3333H42.6811V20.2333H42.5811V20.3333ZM33.2477 20.3333H33.1477V20.4333H33.2477V20.3333ZM32.0811 26.1667H31.9811V26.2667H32.0811V26.1667ZM32.0811 25V24.9H31.9811V25H32.0811ZM41.4144 25V25.1H41.5144V25H41.4144ZM41.4144 23.8333V23.7333H41.3144V23.8333H41.4144ZM42.5811 23.8333H42.6811V23.7333H42.5811V23.8333ZM42.5811 25H42.4811V25.1H42.5811V25ZM44.9144 25H45.0144V24.9H44.9144V25ZM44.9144 26.1667V26.2667H45.0144V26.1667H44.9144ZM39.0811 26.1667V26.0667H38.9811V26.1667H39.0811ZM39.0811 32V32.1H39.1811V32H39.0811ZM37.9144 32H37.8144V32.1H37.9144V32ZM37.9144 26.1667H38.0144V26.0667H37.9144V26.1667ZM33.2477 19.2667H43.7477V19.0667H33.2477V19.2667ZM43.6477 19.1667V23.8333H43.8477V19.1667H43.6477ZM43.7477 23.7333H42.5811V23.9333H43.7477V23.7333ZM42.6811 23.8333V20.3333H42.4811V23.8333H42.6811ZM42.5811 20.2333H33.2477V20.4333H42.5811V20.2333ZM33.3477 20.3333V19.1667H33.1477V20.3333H33.3477ZM32.1811 26.1667V25H31.9811V26.1667H32.1811ZM32.0811 25.1H41.4144V24.9H32.0811V25.1ZM41.5144 25V23.8333H41.3144V25H41.5144ZM41.4144 23.9333H42.5811V23.7333H41.4144V23.9333ZM42.4811 23.8333V25H42.6811V23.8333H42.4811ZM42.5811 25.1H44.9144V24.9H42.5811V25.1ZM44.8144 25V26.1667H45.0144V25H44.8144ZM44.9144 26.0667H39.0811V26.2667H44.9144V26.0667ZM38.9811 26.1667V32H39.1811V26.1667H38.9811ZM39.0811 31.9H37.9144V32.1H39.0811V31.9ZM38.0144 32V26.1667H37.8144V32H38.0144ZM37.9144 26.0667H32.0811V26.2667H37.9144V26.0667ZM47.2477 19.1667V19.0667H47.1477V19.1667H47.2477ZM57.7477 19.1667H57.8477V19.0667H57.7477V19.1667ZM57.7477 20.3333V20.4333H57.8477V20.3333H57.7477ZM48.4144 20.3333V20.2333H48.3144V20.3333H48.4144ZM48.4144 21.5H48.3144V21.6H48.4144V21.5ZM57.7477 21.5H57.8477V21.4H57.7477V21.5ZM57.7477 22.6667V22.7667H57.8477V22.6667H57.7477ZM47.2477 22.6667H47.1477V22.7667H47.2477V22.6667ZM46.0811 25H45.9811V25.1H46.0811V25ZM46.0811 23.8333V23.7333H45.9811V23.8333H46.0811ZM58.9144 23.8333H59.0144V23.7333H58.9144V23.8333ZM58.9144 25V25.1H59.0144V25H58.9144ZM47.2477 32H47.1477V32.1H47.2477V32ZM47.2477 28.5V28.4H47.1477V28.5H47.2477ZM56.5811 28.5V28.6H56.6811V28.5H56.5811ZM56.5811 27.3333H56.6811V27.2333H56.5811V27.3333ZM47.2477 27.3333H47.1477V27.4333H47.2477V27.3333ZM47.2477 26.1667V26.0667H47.1477V26.1667H47.2477ZM57.7477 26.1667H57.8477V26.0667H57.7477V26.1667ZM57.7477 29.6667V29.7667H57.8477V29.6667H57.7477ZM48.4144 29.6667V29.5667H48.3144V29.6667H48.4144ZM48.4144 30.8333H48.3144V30.9333H48.4144V30.8333ZM57.7477 30.8333H57.8477V30.7333H57.7477V30.8333ZM57.7477 32V32.1H57.8477V32H57.7477ZM47.2477 19.2667H57.7477V19.0667H47.2477V19.2667ZM57.6477 19.1667V20.3333H57.8477V19.1667H57.6477ZM57.7477 20.2333H48.4144V20.4333H57.7477V20.2333ZM48.3144 20.3333V21.5H48.5144V20.3333H48.3144ZM48.4144 21.6H57.7477V21.4H48.4144V21.6ZM57.6477 21.5V22.6667H57.8477V21.5H57.6477ZM57.7477 22.5667H47.2477V22.7667H57.7477V22.5667ZM47.3477 22.6667V19.1667H47.1477V22.6667H47.3477ZM46.1811 25V23.8333H45.9811V25H46.1811ZM46.0811 23.9333H58.9144V23.7333H46.0811V23.9333ZM58.8144 23.8333V25H59.0144V23.8333H58.8144ZM58.9144 24.9H46.0811V25.1H58.9144V24.9ZM47.3477 32V28.5H47.1477V32H47.3477ZM47.2477 28.6H56.5811V28.4H47.2477V28.6ZM56.6811 28.5V27.3333H56.4811V28.5H56.6811ZM56.5811 27.2333H47.2477V27.4333H56.5811V27.2333ZM47.3477 27.3333V26.1667H47.1477V27.3333H47.3477ZM47.2477 26.2667H57.7477V26.0667H47.2477V26.2667ZM57.6477 26.1667V29.6667H57.8477V26.1667H57.6477ZM57.7477 29.5667H48.4144V29.7667H57.7477V29.5667ZM48.3144 29.6667V30.8333H48.5144V29.6667H48.3144ZM48.4144 30.9333H57.7477V30.7333H48.4144V30.9333ZM57.6477 30.8333V32H57.8477V30.8333H57.6477ZM57.7477 31.9H47.2477V32.1H57.7477V31.9ZM70.5811 19.1667V19.0667H70.4811V19.1667H70.5811ZM71.7477 19.1667H71.8477V19.0667H71.7477V19.1667ZM71.7477 25H71.6477V25.1H71.7477V25ZM72.9144 25H73.0144V24.9H72.9144V25ZM72.9144 26.1667V26.2667H73.0144V26.1667H72.9144ZM71.7477 26.1667V26.0667H71.6477V26.1667H71.7477ZM71.7477 32V32.1H71.8477V32H71.7477ZM70.5811 32H70.4811V32.1H70.5811V32ZM60.0811 28.5H59.9811V28.6H60.0811V28.5ZM60.0811 21.5V21.4H59.9811V21.5H60.0811ZM61.2477 21.5H61.3477V21.4H61.2477V21.5ZM61.2477 28.5V28.6H61.3477V28.5H61.2477ZM62.4144 29.6667V29.7667H62.5144V29.6667H62.4144ZM61.2477 29.6667H61.1477V29.7667H61.2477V29.6667ZM61.2477 28.5V28.4H61.1477V28.5H61.2477ZM62.4144 28.5H62.5144V28.4H62.4144V28.5ZM62.4144 30.8333H62.3144V30.9333H62.4144V30.8333ZM62.4144 29.6667V29.5667H62.3144V29.6667H62.4144ZM65.9144 29.6667H66.0144V29.5667H65.9144V29.6667ZM65.9144 30.8333V30.9333H66.0144V30.8333H65.9144ZM62.4144 20.3333H62.5144V20.2333H62.4144V20.3333ZM62.4144 21.5V21.6H62.5144V21.5H62.4144ZM61.2477 21.5H61.1477V21.6H61.2477V21.5ZM61.2477 20.3333V20.2333H61.1477V20.3333H61.2477ZM62.4144 19.1667V19.0667H62.3144V19.1667H62.4144ZM65.9144 19.1667H66.0144V19.0667H65.9144V19.1667ZM65.9144 20.3333V20.4333H66.0144V20.3333H65.9144ZM62.4144 20.3333H62.3144V20.4333H62.4144V20.3333ZM67.0811 29.6667V29.7667H67.1811V29.6667H67.0811ZM65.9144 29.6667H65.8144V29.7667H65.9144V29.6667ZM65.9144 28.5V28.4H65.8144V28.5H65.9144ZM67.0811 28.5H67.1811V28.4H67.0811V28.5ZM67.0811 28.5H66.9811V28.6H67.0811V28.5ZM67.0811 21.5V21.4H66.9811V21.5H67.0811ZM68.2477 21.5H68.3477V21.4H68.2477V21.5ZM68.2477 28.5V28.6H68.3477V28.5H68.2477ZM67.0811 20.3333H67.1811V20.2333H67.0811V20.3333ZM67.0811 21.5V21.6H67.1811V21.5H67.0811ZM65.9144 21.5H65.8144V21.6H65.9144V21.5ZM65.9144 20.3333V20.2333H65.8144V20.3333H65.9144ZM70.5811 19.2667H71.7477V19.0667H70.5811V19.2667ZM71.6477 19.1667V25H71.8477V19.1667H71.6477ZM71.7477 25.1H72.9144V24.9H71.7477V25.1ZM72.8144 25V26.1667H73.0144V25H72.8144ZM72.9144 26.0667H71.7477V26.2667H72.9144V26.0667ZM71.6477 26.1667V32H71.8477V26.1667H71.6477ZM71.7477 31.9H70.5811V32.1H71.7477V31.9ZM70.6811 32V19.1667H70.4811V32H70.6811ZM60.1811 28.5V21.5H59.9811V28.5H60.1811ZM60.0811 21.6H61.2477V21.4H60.0811V21.6ZM61.1477 21.5V28.5H61.3477V21.5H61.1477ZM61.2477 28.4H60.0811V28.6H61.2477V28.4ZM62.4144 29.5667H61.2477V29.7667H62.4144V29.5667ZM61.3477 29.6667V28.5H61.1477V29.6667H61.3477ZM61.2477 28.6H62.4144V28.4H61.2477V28.6ZM62.3144 28.5V29.6667H62.5144V28.5H62.3144ZM62.5144 30.8333V29.6667H62.3144V30.8333H62.5144ZM62.4144 29.7667H65.9144V29.5667H62.4144V29.7667ZM65.8144 29.6667V30.8333H66.0144V29.6667H65.8144ZM65.9144 30.7333H62.4144V30.9333H65.9144V30.7333ZM62.3144 20.3333V21.5H62.5144V20.3333H62.3144ZM62.4144 21.4H61.2477V21.6H62.4144V21.4ZM61.3477 21.5V20.3333H61.1477V21.5H61.3477ZM61.2477 20.4333H62.4144V20.2333H61.2477V20.4333ZM62.4144 19.2667H65.9144V19.0667H62.4144V19.2667ZM65.8144 19.1667V20.3333H66.0144V19.1667H65.8144ZM65.9144 20.2333H62.4144V20.4333H65.9144V20.2333ZM62.5144 20.3333V19.1667H62.3144V20.3333H62.5144ZM67.0811 29.5667H65.9144V29.7667H67.0811V29.5667ZM66.0144 29.6667V28.5H65.8144V29.6667H66.0144ZM65.9144 28.6H67.0811V28.4H65.9144V28.6ZM66.9811 28.5V29.6667H67.1811V28.5H66.9811ZM67.1811 28.5V21.5H66.9811V28.5H67.1811ZM67.0811 21.6H68.2477V21.4H67.0811V21.6ZM68.1477 21.5V28.5H68.3477V21.5H68.1477ZM68.2477 28.4H67.0811V28.6H68.2477V28.4ZM66.9811 20.3333V21.5H67.1811V20.3333H66.9811ZM67.0811 21.4H65.9144V21.6H67.0811V21.4ZM66.0144 21.5V20.3333H65.8144V21.5H66.0144ZM65.9144 20.4333H67.0811V20.2333H65.9144V20.4333ZM79.9189 30.8333H79.8189V30.9333H79.9189V30.8333ZM79.9189 29.6667V29.5667H79.8189V29.6667H79.9189ZM85.7523 29.6667V29.7667H85.8523V29.6667H85.7523ZM85.7523 25V24.9H85.6523V25H85.7523ZM86.9189 25H87.0189V24.9H86.9189V25ZM86.9189 29.6667H86.8189V29.7667H86.9189V29.6667ZM92.7523 29.6667H92.8523V29.5667H92.7523V29.6667ZM92.7523 30.8333V30.9333H92.8523V30.8333H92.7523ZM81.0856 19.1667V19.0667H80.9856V19.1667H81.0856ZM91.5856 19.1667H91.6856V19.0667H91.5856V19.1667ZM91.5856 27.3333V27.4333H91.6856V27.3333H91.5856ZM90.4189 27.3333H90.3189V27.4333H90.4189V27.3333ZM90.4189 20.3333H90.5189V20.2333H90.4189V20.3333ZM81.0856 20.3333H80.9856V20.4333H81.0856V20.3333ZM89.2523 28.5H89.1523V28.6H89.2523V28.5ZM89.2523 27.3333V27.2333H89.1523V27.3333H89.2523ZM90.4189 27.3333H90.5189V27.2333H90.4189V27.3333ZM90.4189 28.5V28.6H90.5189V28.5H90.4189ZM80.0189 30.8333V29.6667H79.8189V30.8333H80.0189ZM79.9189 29.7667H85.7523V29.5667H79.9189V29.7667ZM85.8523 29.6667V25H85.6523V29.6667H85.8523ZM85.7523 25.1H86.9189V24.9H85.7523V25.1ZM86.8189 25V29.6667H87.0189V25H86.8189ZM86.9189 29.7667H92.7523V29.5667H86.9189V29.7667ZM92.6523 29.6667V30.8333H92.8523V29.6667H92.6523ZM92.7523 30.7333H79.9189V30.9333H92.7523V30.7333ZM81.0856 19.2667H91.5856V19.0667H81.0856V19.2667ZM91.4856 19.1667V27.3333H91.6856V19.1667H91.4856ZM91.5856 27.2333H90.4189V27.4333H91.5856V27.2333ZM90.5189 27.3333V20.3333H90.3189V27.3333H90.5189ZM90.4189 20.2333H81.0856V20.4333H90.4189V20.2333ZM81.1856 20.3333V19.1667H80.9856V20.3333H81.1856ZM89.3523 28.5V27.3333H89.1523V28.5H89.3523ZM89.2523 27.4333H90.4189V27.2333H89.2523V27.4333ZM90.3189 27.3333V28.5H90.5189V27.3333H90.3189ZM90.4189 28.4H89.2523V28.6H90.4189V28.4ZM104.419 19.1667V19.0667H104.319V19.1667H104.419ZM105.586 19.1667H105.686V19.0667H105.586V19.1667ZM105.586 25H105.486V25.1H105.586V25ZM106.752 25H106.852V24.9H106.752V25ZM106.752 26.1667V26.2667H106.852V26.1667H106.752ZM105.586 26.1667V26.0667H105.486V26.1667H105.586ZM105.586 32V32.1H105.686V32H105.586ZM104.419 32H104.319V32.1H104.419V32ZM93.9189 30.8333H93.8189V30.9333H93.9189V30.8333ZM93.9189 19.1667V19.0667H93.8189V19.1667H93.9189ZM102.086 19.1667H102.186V19.0667H102.086V19.1667ZM102.086 30.8333V30.9333H102.186V30.8333H102.086ZM95.0856 29.6667H94.9856V29.7667H95.0856V29.6667ZM100.919 29.6667V29.7667H101.019V29.6667H100.919ZM100.919 20.3333H101.019V20.2333H100.919V20.3333ZM95.0856 20.3333V20.2333H94.9856V20.3333H95.0856ZM104.419 19.2667H105.586V19.0667H104.419V19.2667ZM105.486 19.1667V25H105.686V19.1667H105.486ZM105.586 25.1H106.752V24.9H105.586V25.1ZM106.652 25V26.1667H106.852V25H106.652ZM106.752 26.0667H105.586V26.2667H106.752V26.0667ZM105.486 26.1667V32H105.686V26.1667H105.486ZM105.586 31.9H104.419V32.1H105.586V31.9ZM104.519 32V19.1667H104.319V32H104.519ZM94.0189 30.8333V19.1667H93.8189V30.8333H94.0189ZM93.9189 19.2667H102.086V19.0667H93.9189V19.2667ZM101.986 19.1667V30.8333H102.186V19.1667H101.986ZM102.086 30.7333H93.9189V30.9333H102.086V30.7333ZM95.0856 29.7667H100.919V29.5667H95.0856V29.7667ZM101.019 29.6667V20.3333H100.819V29.6667H101.019ZM100.919 20.2333H95.0856V20.4333H100.919V20.2333ZM94.9856 20.3333V29.6667H95.1856V20.3333H94.9856ZM118.419 19.1667V19.0667H118.319V19.1667H118.419ZM119.586 19.1667H119.686V19.0667H119.586V19.1667ZM119.586 32V32.1H119.686V32H119.586ZM118.419 32H118.319V32.1H118.419V32ZM118.419 29.6667H118.519V29.5667H118.419V29.6667ZM114.919 29.6667H114.819V29.7667H114.919V29.6667ZM114.919 28.5V28.4H114.819V28.5H114.919ZM118.419 28.5V28.6H118.519V28.5H118.419ZM107.919 27.3333H107.819V27.4333H107.919V27.3333ZM107.919 26.1667V26.0667H107.819V26.1667H107.919ZM117.252 26.1667H117.352V26.0667H117.252V26.1667ZM117.252 27.3333V27.4333H117.352V27.3333H117.252ZM112.586 27.3333V27.2333H112.486V27.3333H112.586ZM112.586 32V32.1H112.686V32H112.586ZM111.419 32H111.319V32.1H111.419V32ZM111.419 27.3333H111.519V27.2333H111.419V27.3333ZM110.252 23.8333V23.9333H110.352V23.8333H110.252ZM109.086 23.8333H108.986V23.9333H109.086V23.8333ZM109.086 20.3333V20.2333H108.986V20.3333H109.086ZM110.252 20.3333H110.352V20.2333H110.252V20.3333ZM110.252 25H110.152V25.1H110.252V25ZM110.252 23.8333V23.7333H110.152V23.8333H110.252ZM114.919 23.8333H115.019V23.7333H114.919V23.8333ZM114.919 25V25.1H115.019V25H114.919ZM110.252 20.3333H110.152V20.4333H110.252V20.3333ZM110.252 19.1667V19.0667H110.152V19.1667H110.252ZM114.919 19.1667H115.019V19.0667H114.919V19.1667ZM114.919 20.3333V20.4333H115.019V20.3333H114.919ZM114.919 23.8333H114.819V23.9333H114.919V23.8333ZM114.919 20.3333V20.2333H114.819V20.3333H114.919ZM116.086 20.3333H116.186V20.2333H116.086V20.3333ZM116.086 23.8333V23.9333H116.186V23.8333H116.086ZM118.419 19.2667H119.586V19.0667H118.419V19.2667ZM119.486 19.1667V32H119.686V19.1667H119.486ZM119.586 31.9H118.419V32.1H119.586V31.9ZM118.519 32V29.6667H118.319V32H118.519ZM118.419 29.5667H114.919V29.7667H118.419V29.5667ZM115.019 29.6667V28.5H114.819V29.6667H115.019ZM114.919 28.6H118.419V28.4H114.919V28.6ZM118.519 28.5V19.1667H118.319V28.5H118.519ZM108.019 27.3333V26.1667H107.819V27.3333H108.019ZM107.919 26.2667H117.252V26.0667H107.919V26.2667ZM117.152 26.1667V27.3333H117.352V26.1667H117.152ZM117.252 27.2333H112.586V27.4333H117.252V27.2333ZM112.486 27.3333V32H112.686V27.3333H112.486ZM112.586 31.9H111.419V32.1H112.586V31.9ZM111.519 32V27.3333H111.319V32H111.519ZM111.419 27.2333H107.919V27.4333H111.419V27.2333ZM110.252 23.7333H109.086V23.9333H110.252V23.7333ZM109.186 23.8333V20.3333H108.986V23.8333H109.186ZM109.086 20.4333H110.252V20.2333H109.086V20.4333ZM110.152 20.3333V23.8333H110.352V20.3333H110.152ZM110.352 25V23.8333H110.152V25H110.352ZM110.252 23.9333H114.919V23.7333H110.252V23.9333ZM114.819 23.8333V25H115.019V23.8333H114.819ZM114.919 24.9H110.252V25.1H114.919V24.9ZM110.352 20.3333V19.1667H110.152V20.3333H110.352ZM110.252 19.2667H114.919V19.0667H110.252V19.2667ZM114.819 19.1667V20.3333H115.019V19.1667H114.819ZM114.919 20.2333H110.252V20.4333H114.919V20.2333ZM115.019 23.8333V20.3333H114.819V23.8333H115.019ZM114.919 20.4333H116.086V20.2333H114.919V20.4333ZM115.986 20.3333V23.8333H116.186V20.3333H115.986ZM116.086 23.7333H114.919V23.9333H116.086V23.7333Z" fill="#00ABFF" mask="url(#path-20-outside-1_358_13132)"/>
<rect x="128.029" y="17.5" width="7.2" height="1.5" fill="#3EA2FF"/>
<rect x="130.086" y="16" width="3.08571" height="1.5" fill="#3EA2FF"/>
<rect x="138.828" y="16" width="3.08571" height="1.5" fill="#3EA2FF"/>
<rect x="127" y="19" width="18" height="1.5" fill="#3EA2FF"/>
<rect x="127" y="20.5" width="18" height="1.5" fill="#3EA2FF"/>
<rect x="127" y="22" width="18" height="1.5" fill="#3EA2FF"/>
<rect x="128.029" y="23.5" width="15.9429" height="1.5" fill="#3EA2FF"/>
<rect x="128.029" y="25" width="15.9429" height="1.5" fill="#3EA2FF"/>
<rect x="129.057" y="26.5" width="13.8857" height="1.5" fill="#3EA2FF"/>
<rect x="129.057" y="28" width="13.8857" height="1.5" fill="#3EA2FF"/>
<rect x="130.6" y="29.5" width="10.8" height="1.5" fill="#3EA2FF"/>
<rect x="132.143" y="31" width="7.71429" height="1.5" fill="#3EA2FF"/>
<rect x="133.686" y="32.5" width="4.62857" height="1.5" fill="#3EA2FF"/>
<rect x="136.771" y="17.5" width="7.2" height="1.5" fill="#3EA2FF"/>
<rect x="128.543" y="19.5" width="1.54286" height="1.5" fill="white"/>
<rect x="128.543" y="21" width="1.54286" height="1.5" fill="white"/>
<rect x="130.086" y="18" width="1.54286" height="1.5" fill="white"/>
</svg>
